%TF.GenerationSoftware,KiCad,Pcbnew,9.0.0*%
%TF.CreationDate,2025-03-28T18:18:43-04:00*%
%TF.ProjectId,view_screen,76696577-5f73-4637-9265-656e2e6b6963,rev?*%
%TF.SameCoordinates,Original*%
%TF.FileFunction,Copper,L1,Top*%
%TF.FilePolarity,Positive*%
%FSLAX46Y46*%
G04 Gerber Fmt 4.6, Leading zero omitted, Abs format (unit mm)*
G04 Created by KiCad (PCBNEW 9.0.0) date 2025-03-28 18:18:43*
%MOMM*%
%LPD*%
G01*
G04 APERTURE LIST*
%TA.AperFunction,ComponentPad*%
%ADD10C,2.400000*%
%TD*%
%TA.AperFunction,SMDPad,CuDef*%
%ADD11O,2.500000X1.250000*%
%TD*%
%TA.AperFunction,ViaPad*%
%ADD12C,0.800000*%
%TD*%
G04 APERTURE END LIST*
D10*
%TO.P,H1,1,1*%
%TO.N,unconnected-(H1-Pad1)*%
X94000000Y-100000000D03*
%TD*%
D11*
%TO.P,J5,1,Pin_1*%
%TO.N,/nCS*%
X93000000Y-92000000D03*
%TO.P,J5,2,Pin_2*%
%TO.N,/SCK*%
X93000000Y-90000000D03*
%TO.P,J5,3,Pin_3*%
%TO.N,/MOSI*%
X93000000Y-88000000D03*
%TO.P,J5,4,Pin_4*%
%TO.N,/nRESET*%
X93000000Y-86000000D03*
%TD*%
%TO.P,J4,1,Pin_1*%
%TO.N,GND*%
X107000000Y-92000000D03*
%TO.P,J4,2,Pin_2*%
%TO.N,/VDD*%
X107000000Y-90000000D03*
%TO.P,J4,3,Pin_3*%
%TO.N,/BACKLIGHT_EN*%
X107000000Y-88000000D03*
%TO.P,J4,4,Pin_4*%
%TO.N,/DC*%
X107000000Y-86000000D03*
%TD*%
D12*
%TO.N,GND*%
X93497400Y-106857800D03*
X86182200Y-98500000D03*
X105613200Y-108178600D03*
X105500000Y-93000000D03*
X90957400Y-98501200D03*
X115000000Y-101500000D03*
X100000000Y-116500000D03*
X89357200Y-98501200D03*
X95732600Y-106857800D03*
X87782400Y-98501200D03*
X91262200Y-106857800D03*
X105613200Y-110032800D03*
X100000000Y-107500000D03*
X98500000Y-92500000D03*
%TO.N,/VDD*%
X108200000Y-90000000D03*
%TO.N,/DC*%
X108200000Y-86000000D03*
%TO.N,/BACKLIGHT_EN*%
X108200000Y-88000000D03*
%TO.N,/nRESET*%
X91800000Y-86000000D03*
%TO.N,/MOSI*%
X91800000Y-88000000D03*
%TO.N,/SCK*%
X91800000Y-90000000D03*
%TO.N,/nCS*%
X91800000Y-92000000D03*
%TD*%
%TA.AperFunction,Conductor*%
%TO.N,GND*%
G36*
X100404790Y-82605276D02*
G01*
X101201927Y-82642130D01*
X101207695Y-82642530D01*
X102002308Y-82716161D01*
X102008028Y-82716825D01*
X102798400Y-82827077D01*
X102804074Y-82828003D01*
X103588521Y-82974641D01*
X103594161Y-82975832D01*
X104370973Y-83158537D01*
X104376552Y-83159986D01*
X105144107Y-83378373D01*
X105149609Y-83380077D01*
X105906256Y-83633680D01*
X105911670Y-83635634D01*
X106655830Y-83923923D01*
X106661131Y-83926119D01*
X107243445Y-84183236D01*
X107391125Y-84248443D01*
X107396388Y-84250913D01*
X107623411Y-84363957D01*
X108110723Y-84606610D01*
X108115872Y-84609325D01*
X108812975Y-84997609D01*
X108817993Y-85000558D01*
X109496419Y-85420621D01*
X109501296Y-85423798D01*
X109600305Y-85491621D01*
X110087557Y-85825397D01*
X110159629Y-85874767D01*
X110164346Y-85878161D01*
X110578493Y-86190911D01*
X110801132Y-86359040D01*
X110805695Y-86362654D01*
X111419598Y-86872432D01*
X111423989Y-86876253D01*
X111907293Y-87316843D01*
X112013703Y-87413848D01*
X112017912Y-87417868D01*
X112582131Y-87982087D01*
X112586151Y-87986296D01*
X113123746Y-88576010D01*
X113127567Y-88580401D01*
X113637345Y-89194304D01*
X113640959Y-89198867D01*
X114121832Y-89835645D01*
X114125232Y-89840370D01*
X114576201Y-90498703D01*
X114579378Y-90503580D01*
X114999441Y-91182006D01*
X115002390Y-91187024D01*
X115390674Y-91884127D01*
X115393389Y-91889276D01*
X115749083Y-92603605D01*
X115751556Y-92608874D01*
X116073871Y-93338848D01*
X116076084Y-93344190D01*
X116364356Y-94088305D01*
X116366323Y-94093754D01*
X116619913Y-94850361D01*
X116621635Y-94855922D01*
X116840006Y-95623420D01*
X116841469Y-95629053D01*
X117024161Y-96405810D01*
X117025363Y-96411506D01*
X117171990Y-97195890D01*
X117172927Y-97201634D01*
X117283170Y-97991940D01*
X117283841Y-97997722D01*
X117357467Y-98792284D01*
X117357870Y-98798091D01*
X117394724Y-99595209D01*
X117394858Y-99601028D01*
X117394858Y-100398971D01*
X117394724Y-100404790D01*
X117357870Y-101201908D01*
X117357467Y-101207715D01*
X117283841Y-102002277D01*
X117283170Y-102008059D01*
X117172927Y-102798365D01*
X117171990Y-102804109D01*
X117025363Y-103588493D01*
X117024161Y-103594189D01*
X116841469Y-104370946D01*
X116840006Y-104376579D01*
X116621635Y-105144077D01*
X116619913Y-105149638D01*
X116366323Y-105906245D01*
X116364350Y-105911708D01*
X116076090Y-106655793D01*
X116073871Y-106661151D01*
X115751556Y-107391125D01*
X115749083Y-107396394D01*
X115393389Y-108110723D01*
X115390674Y-108115872D01*
X115002390Y-108812975D01*
X114999441Y-108817993D01*
X114579378Y-109496419D01*
X114576201Y-109501296D01*
X114125232Y-110159629D01*
X114121832Y-110164354D01*
X113640959Y-110801132D01*
X113637345Y-110805695D01*
X113127567Y-111419598D01*
X113123746Y-111423989D01*
X112586151Y-112013703D01*
X112582131Y-112017912D01*
X112017912Y-112582131D01*
X112013703Y-112586151D01*
X111423989Y-113123746D01*
X111419598Y-113127567D01*
X110805695Y-113637345D01*
X110801132Y-113640959D01*
X110164354Y-114121832D01*
X110159629Y-114125232D01*
X109501296Y-114576201D01*
X109496419Y-114579378D01*
X108817993Y-114999441D01*
X108812975Y-115002390D01*
X108115872Y-115390674D01*
X108110723Y-115393389D01*
X107396394Y-115749083D01*
X107391125Y-115751556D01*
X106661151Y-116073871D01*
X106655793Y-116076090D01*
X105911708Y-116364350D01*
X105906245Y-116366323D01*
X105149638Y-116619913D01*
X105144077Y-116621635D01*
X104376579Y-116840006D01*
X104370946Y-116841469D01*
X103594189Y-117024161D01*
X103588493Y-117025363D01*
X102804109Y-117171990D01*
X102798365Y-117172927D01*
X102008059Y-117283170D01*
X102002277Y-117283841D01*
X101207715Y-117357467D01*
X101201908Y-117357870D01*
X100404790Y-117394724D01*
X100398971Y-117394858D01*
X99601029Y-117394858D01*
X99595210Y-117394724D01*
X98798091Y-117357870D01*
X98792284Y-117357467D01*
X97997722Y-117283841D01*
X97991940Y-117283170D01*
X97201634Y-117172927D01*
X97195890Y-117171990D01*
X96411506Y-117025363D01*
X96405810Y-117024161D01*
X95629053Y-116841469D01*
X95623420Y-116840006D01*
X94855922Y-116621635D01*
X94850361Y-116619913D01*
X94093754Y-116366323D01*
X94088305Y-116364356D01*
X93344190Y-116076084D01*
X93338848Y-116073871D01*
X92608874Y-115751556D01*
X92603605Y-115749083D01*
X91889276Y-115393389D01*
X91884127Y-115390674D01*
X91187024Y-115002390D01*
X91182006Y-114999441D01*
X90503580Y-114579378D01*
X90498703Y-114576201D01*
X89840370Y-114125232D01*
X89835645Y-114121832D01*
X89198867Y-113640959D01*
X89194304Y-113637345D01*
X88580401Y-113127567D01*
X88576010Y-113123746D01*
X87986296Y-112586151D01*
X87982087Y-112582131D01*
X87417868Y-112017912D01*
X87413848Y-112013703D01*
X86876253Y-111423989D01*
X86872432Y-111419598D01*
X86362654Y-110805695D01*
X86359040Y-110801132D01*
X86318235Y-110747097D01*
X85878161Y-110164346D01*
X85874767Y-110159629D01*
X85423798Y-109501296D01*
X85420621Y-109496419D01*
X85000558Y-108817993D01*
X84997609Y-108812975D01*
X84609325Y-108115872D01*
X84606610Y-108110723D01*
X84421849Y-107739674D01*
X84250913Y-107396388D01*
X84248443Y-107391125D01*
X83926119Y-106661131D01*
X83923923Y-106655830D01*
X83635634Y-105911670D01*
X83633676Y-105906245D01*
X83380077Y-105149609D01*
X83378373Y-105144107D01*
X83159986Y-104376552D01*
X83158537Y-104370973D01*
X82975832Y-103594161D01*
X82974641Y-103588521D01*
X82828003Y-102804074D01*
X82827077Y-102798400D01*
X82716825Y-102008028D01*
X82716161Y-102002308D01*
X82642530Y-101207695D01*
X82642129Y-101201908D01*
X82637853Y-101109428D01*
X82605276Y-100404790D01*
X82605142Y-100398971D01*
X82605142Y-99885528D01*
X92545500Y-99885528D01*
X92545500Y-100114472D01*
X92581314Y-100340596D01*
X92652062Y-100558334D01*
X92756000Y-100762324D01*
X92890569Y-100947543D01*
X92890571Y-100947545D01*
X92890573Y-100947548D01*
X93052451Y-101109426D01*
X93052454Y-101109428D01*
X93052457Y-101109431D01*
X93237676Y-101244000D01*
X93441666Y-101347938D01*
X93659404Y-101418686D01*
X93885528Y-101454500D01*
X93885531Y-101454500D01*
X94114469Y-101454500D01*
X94114472Y-101454500D01*
X94340596Y-101418686D01*
X94558334Y-101347938D01*
X94762324Y-101244000D01*
X94947543Y-101109431D01*
X95109431Y-100947543D01*
X95244000Y-100762324D01*
X95347938Y-100558334D01*
X95418686Y-100340596D01*
X95454500Y-100114472D01*
X95454500Y-99885528D01*
X95440335Y-99796092D01*
X95849500Y-99796092D01*
X95849500Y-100203907D01*
X95889470Y-100609723D01*
X95889473Y-100609744D01*
X95969026Y-101009691D01*
X96087409Y-101399947D01*
X96087410Y-101399951D01*
X96243468Y-101776707D01*
X96435705Y-102136359D01*
X96662262Y-102475424D01*
X96662273Y-102475439D01*
X96920968Y-102790661D01*
X96920986Y-102790680D01*
X97209319Y-103079013D01*
X97209338Y-103079031D01*
X97524560Y-103337726D01*
X97524569Y-103337733D01*
X97863643Y-103564296D01*
X98223293Y-103756532D01*
X98600053Y-103912591D01*
X98990295Y-104030970D01*
X98990304Y-104030971D01*
X98990308Y-104030973D01*
X99126000Y-104057963D01*
X99390261Y-104110528D01*
X99796099Y-104150500D01*
X99796108Y-104150500D01*
X100203892Y-104150500D01*
X100203901Y-104150500D01*
X100609739Y-104110528D01*
X100939171Y-104045000D01*
X101009691Y-104030973D01*
X101009693Y-104030972D01*
X101009705Y-104030970D01*
X101399947Y-103912591D01*
X101776707Y-103756532D01*
X102136357Y-103564296D01*
X102475431Y-103337733D01*
X102790667Y-103079026D01*
X103079026Y-102790667D01*
X103337733Y-102475431D01*
X103564296Y-102136357D01*
X103756532Y-101776707D01*
X103912591Y-101399947D01*
X104030970Y-101009705D01*
X104110528Y-100609739D01*
X104150500Y-100203901D01*
X104150500Y-99796099D01*
X104110528Y-99390261D01*
X104030970Y-98990295D01*
X103912591Y-98600053D01*
X103904829Y-98581315D01*
X103793015Y-98311371D01*
X103756532Y-98223293D01*
X103564296Y-97863643D01*
X103337733Y-97524569D01*
X103192563Y-97347678D01*
X103079031Y-97209338D01*
X103079013Y-97209319D01*
X102790680Y-96920986D01*
X102790661Y-96920968D01*
X102475439Y-96662273D01*
X102475424Y-96662262D01*
X102136359Y-96435705D01*
X101776707Y-96243468D01*
X101399951Y-96087410D01*
X101399947Y-96087409D01*
X101293956Y-96055257D01*
X101009705Y-95969030D01*
X101009702Y-95969029D01*
X101009691Y-95969026D01*
X100609744Y-95889473D01*
X100609739Y-95889472D01*
X100609732Y-95889471D01*
X100609723Y-95889470D01*
X100203907Y-95849500D01*
X100203901Y-95849500D01*
X99796099Y-95849500D01*
X99796092Y-95849500D01*
X99390276Y-95889470D01*
X99390264Y-95889471D01*
X99390261Y-95889472D01*
X99390258Y-95889472D01*
X99390255Y-95889473D01*
X98990308Y-95969026D01*
X98600052Y-96087409D01*
X98600048Y-96087410D01*
X98223292Y-96243468D01*
X97863640Y-96435705D01*
X97524575Y-96662262D01*
X97524560Y-96662273D01*
X97209338Y-96920968D01*
X97209319Y-96920986D01*
X96920986Y-97209319D01*
X96920968Y-97209338D01*
X96662273Y-97524560D01*
X96662262Y-97524575D01*
X96435705Y-97863640D01*
X96243468Y-98223292D01*
X96087410Y-98600048D01*
X96087409Y-98600052D01*
X95969026Y-98990308D01*
X95889473Y-99390255D01*
X95889470Y-99390276D01*
X95849500Y-99796092D01*
X95440335Y-99796092D01*
X95418686Y-99659404D01*
X95347938Y-99441666D01*
X95244000Y-99237676D01*
X95109431Y-99052457D01*
X95109428Y-99052454D01*
X95109426Y-99052451D01*
X94947548Y-98890573D01*
X94947545Y-98890571D01*
X94947543Y-98890569D01*
X94762324Y-98756000D01*
X94558334Y-98652062D01*
X94558333Y-98652061D01*
X94558332Y-98652061D01*
X94340599Y-98581315D01*
X94340596Y-98581314D01*
X94114472Y-98545500D01*
X93885528Y-98545500D01*
X93659404Y-98581314D01*
X93659401Y-98581314D01*
X93659400Y-98581315D01*
X93441667Y-98652061D01*
X93237672Y-98756002D01*
X93052454Y-98890571D01*
X93052451Y-98890573D01*
X92890573Y-99052451D01*
X92890571Y-99052454D01*
X92756002Y-99237672D01*
X92652061Y-99441667D01*
X92581315Y-99659400D01*
X92581314Y-99659404D01*
X92545500Y-99885528D01*
X82605142Y-99885528D01*
X82605142Y-99601028D01*
X82605276Y-99595209D01*
X82630369Y-99052454D01*
X82642130Y-98798069D01*
X82642530Y-98792307D01*
X82716162Y-97997686D01*
X82716824Y-97991976D01*
X82827078Y-97201592D01*
X82828002Y-97195932D01*
X82974643Y-96411469D01*
X82975830Y-96405847D01*
X83158539Y-95629015D01*
X83159983Y-95623458D01*
X83378376Y-94855880D01*
X83380073Y-94850402D01*
X83633684Y-94093729D01*
X83635629Y-94088343D01*
X83923929Y-93344153D01*
X83926113Y-93338883D01*
X84248453Y-92608851D01*
X84250905Y-92603627D01*
X84606615Y-91889264D01*
X84609325Y-91884127D01*
X84997621Y-91187002D01*
X85000545Y-91182027D01*
X85420631Y-90503564D01*
X85423788Y-90498718D01*
X85874788Y-89840340D01*
X85878146Y-89835673D01*
X86359055Y-89198847D01*
X86362638Y-89194323D01*
X86872448Y-88580381D01*
X86876236Y-88576029D01*
X87413869Y-87986274D01*
X87417846Y-87982109D01*
X87982109Y-87417846D01*
X87986274Y-87413869D01*
X88576029Y-86876236D01*
X88580381Y-86872448D01*
X89194323Y-86362638D01*
X89198847Y-86359055D01*
X89759679Y-85935534D01*
X91145500Y-85935534D01*
X91145500Y-85935537D01*
X91145500Y-86064463D01*
X91170652Y-86190911D01*
X91219989Y-86310022D01*
X91252742Y-86359040D01*
X91291616Y-86417219D01*
X91291621Y-86417225D01*
X91382774Y-86508378D01*
X91382780Y-86508383D01*
X91489978Y-86580011D01*
X91609089Y-86629348D01*
X91735537Y-86654500D01*
X91735544Y-86654500D01*
X91741693Y-86655106D01*
X91741544Y-86656611D01*
X91802476Y-86674502D01*
X91814293Y-86683104D01*
X91814344Y-86683146D01*
X91814351Y-86683153D01*
X91958400Y-86779403D01*
X92118459Y-86845702D01*
X92231823Y-86868251D01*
X92272896Y-86876421D01*
X92335805Y-86909329D01*
X92370937Y-86971024D01*
X92367137Y-87041918D01*
X92325611Y-87099504D01*
X92272896Y-87123579D01*
X92118458Y-87154298D01*
X92118453Y-87154300D01*
X91958400Y-87220597D01*
X91814356Y-87316843D01*
X91814293Y-87316896D01*
X91814253Y-87316912D01*
X91809205Y-87320286D01*
X91808565Y-87319328D01*
X91748947Y-87344652D01*
X91737242Y-87345332D01*
X91735534Y-87345500D01*
X91609088Y-87370652D01*
X91609083Y-87370654D01*
X91489978Y-87419989D01*
X91382780Y-87491616D01*
X91382774Y-87491621D01*
X91291621Y-87582774D01*
X91291616Y-87582780D01*
X91219989Y-87689978D01*
X91170654Y-87809083D01*
X91170652Y-87809088D01*
X91145500Y-87935534D01*
X91145500Y-87935537D01*
X91145500Y-88064463D01*
X91170652Y-88190911D01*
X91219989Y-88310022D01*
X91267849Y-88381649D01*
X91291616Y-88417219D01*
X91291621Y-88417225D01*
X91382774Y-88508378D01*
X91382780Y-88508383D01*
X91489978Y-88580011D01*
X91609089Y-88629348D01*
X91735537Y-88654500D01*
X91735544Y-88654500D01*
X91741693Y-88655106D01*
X91741544Y-88656611D01*
X91802476Y-88674502D01*
X91814293Y-88683104D01*
X91814344Y-88683146D01*
X91814351Y-88683153D01*
X91958400Y-88779403D01*
X92118459Y-88845702D01*
X92231823Y-88868251D01*
X92272896Y-88876421D01*
X92335805Y-88909329D01*
X92370937Y-88971024D01*
X92367137Y-89041918D01*
X92325611Y-89099504D01*
X92272896Y-89123579D01*
X92118458Y-89154298D01*
X92118453Y-89154300D01*
X91958400Y-89220597D01*
X91814356Y-89316843D01*
X91814293Y-89316896D01*
X91814253Y-89316912D01*
X91809205Y-89320286D01*
X91808565Y-89319328D01*
X91748947Y-89344652D01*
X91737242Y-89345332D01*
X91735534Y-89345500D01*
X91609088Y-89370652D01*
X91609083Y-89370654D01*
X91489978Y-89419989D01*
X91382780Y-89491616D01*
X91382774Y-89491621D01*
X91291621Y-89582774D01*
X91291616Y-89582780D01*
X91219989Y-89689978D01*
X91170654Y-89809083D01*
X91170652Y-89809088D01*
X91145500Y-89935534D01*
X91145500Y-89935537D01*
X91145500Y-90064463D01*
X91170652Y-90190911D01*
X91219989Y-90310022D01*
X91267849Y-90381649D01*
X91291616Y-90417219D01*
X91291621Y-90417225D01*
X91382774Y-90508378D01*
X91382780Y-90508383D01*
X91489978Y-90580011D01*
X91609089Y-90629348D01*
X91735537Y-90654500D01*
X91735544Y-90654500D01*
X91741693Y-90655106D01*
X91741544Y-90656611D01*
X91802476Y-90674502D01*
X91814293Y-90683104D01*
X91814344Y-90683146D01*
X91814351Y-90683153D01*
X91958400Y-90779403D01*
X92118459Y-90845702D01*
X92231823Y-90868251D01*
X92272896Y-90876421D01*
X92335805Y-90909329D01*
X92370937Y-90971024D01*
X92367137Y-91041918D01*
X92325611Y-91099504D01*
X92272896Y-91123579D01*
X92118458Y-91154298D01*
X92118453Y-91154300D01*
X91958400Y-91220597D01*
X91814356Y-91316843D01*
X91814293Y-91316896D01*
X91814253Y-91316912D01*
X91809205Y-91320286D01*
X91808565Y-91319328D01*
X91748947Y-91344652D01*
X91737242Y-91345332D01*
X91735534Y-91345500D01*
X91609088Y-91370652D01*
X91609083Y-91370654D01*
X91489978Y-91419989D01*
X91382780Y-91491616D01*
X91382774Y-91491621D01*
X91291621Y-91582774D01*
X91291616Y-91582780D01*
X91219989Y-91689978D01*
X91170654Y-91809083D01*
X91170652Y-91809088D01*
X91145500Y-91935534D01*
X91145500Y-92064465D01*
X91149863Y-92086397D01*
X91170652Y-92190911D01*
X91219989Y-92310022D01*
X91267849Y-92381649D01*
X91291616Y-92417219D01*
X91291621Y-92417225D01*
X91382774Y-92508378D01*
X91382780Y-92508383D01*
X91489978Y-92580011D01*
X91609089Y-92629348D01*
X91735537Y-92654500D01*
X91735544Y-92654500D01*
X91741693Y-92655106D01*
X91741544Y-92656611D01*
X91802476Y-92674502D01*
X91814293Y-92683104D01*
X91814344Y-92683146D01*
X91814351Y-92683153D01*
X91958400Y-92779403D01*
X92118459Y-92845702D01*
X92264764Y-92874803D01*
X92288371Y-92879499D01*
X92288374Y-92879499D01*
X92288377Y-92879500D01*
X92288378Y-92879500D01*
X93711622Y-92879500D01*
X93711623Y-92879500D01*
X93881541Y-92845702D01*
X94041600Y-92779403D01*
X94185649Y-92683153D01*
X94308153Y-92560649D01*
X94404403Y-92416600D01*
X94470702Y-92256541D01*
X94471207Y-92254000D01*
X105529305Y-92254000D01*
X105529781Y-92256397D01*
X105529781Y-92256398D01*
X105596040Y-92416363D01*
X105692235Y-92560329D01*
X105692240Y-92560335D01*
X105814664Y-92682759D01*
X105814670Y-92682764D01*
X105958636Y-92778959D01*
X106118601Y-92845218D01*
X106118604Y-92845219D01*
X106288422Y-92878999D01*
X106288426Y-92879000D01*
X106746000Y-92879000D01*
X107254000Y-92879000D01*
X107711574Y-92879000D01*
X107711577Y-92878999D01*
X107881395Y-92845219D01*
X107881398Y-92845218D01*
X108041363Y-92778959D01*
X108185329Y-92682764D01*
X108185335Y-92682759D01*
X108307759Y-92560335D01*
X108307764Y-92560329D01*
X108403959Y-92416363D01*
X108470218Y-92256398D01*
X108470218Y-92256397D01*
X108470695Y-92254000D01*
X107254000Y-92254000D01*
X107254000Y-92879000D01*
X106746000Y-92879000D01*
X106746000Y-92254000D01*
X105529305Y-92254000D01*
X94471207Y-92254000D01*
X94504500Y-92086623D01*
X94504500Y-91913377D01*
X94470702Y-91743459D01*
X94404403Y-91583400D01*
X94308153Y-91439351D01*
X94185649Y-91316847D01*
X94041600Y-91220597D01*
X93881541Y-91154298D01*
X93792248Y-91136536D01*
X93727104Y-91123579D01*
X93664194Y-91090672D01*
X93629062Y-91028977D01*
X93632862Y-90958082D01*
X93674388Y-90900496D01*
X93727104Y-90876421D01*
X93753656Y-90871139D01*
X93881541Y-90845702D01*
X94041600Y-90779403D01*
X94185649Y-90683153D01*
X94308153Y-90560649D01*
X94404403Y-90416600D01*
X94470702Y-90256541D01*
X94504500Y-90086623D01*
X94504500Y-89913377D01*
X94470702Y-89743459D01*
X94404403Y-89583400D01*
X94308153Y-89439351D01*
X94185649Y-89316847D01*
X94041600Y-89220597D01*
X93881541Y-89154298D01*
X93792248Y-89136536D01*
X93727104Y-89123579D01*
X93664194Y-89090672D01*
X93629062Y-89028977D01*
X93632862Y-88958082D01*
X93674388Y-88900496D01*
X93727104Y-88876421D01*
X93753656Y-88871139D01*
X93881541Y-88845702D01*
X94041600Y-88779403D01*
X94185649Y-88683153D01*
X94308153Y-88560649D01*
X94404403Y-88416600D01*
X94470702Y-88256541D01*
X94504500Y-88086623D01*
X94504500Y-87913377D01*
X94470702Y-87743459D01*
X94404403Y-87583400D01*
X94308153Y-87439351D01*
X94185649Y-87316847D01*
X94041600Y-87220597D01*
X93881541Y-87154298D01*
X93792248Y-87136536D01*
X93727104Y-87123579D01*
X93664194Y-87090672D01*
X93629062Y-87028977D01*
X93632862Y-86958082D01*
X93674388Y-86900496D01*
X93727104Y-86876421D01*
X93753656Y-86871139D01*
X93881541Y-86845702D01*
X94041600Y-86779403D01*
X94185649Y-86683153D01*
X94308153Y-86560649D01*
X94404403Y-86416600D01*
X94470702Y-86256541D01*
X94504500Y-86086623D01*
X94504500Y-85913377D01*
X94470702Y-85743459D01*
X94404403Y-85583400D01*
X94308153Y-85439351D01*
X94185649Y-85316847D01*
X94041600Y-85220597D01*
X93881541Y-85154298D01*
X93832993Y-85144641D01*
X93711628Y-85120500D01*
X93711623Y-85120500D01*
X92288377Y-85120500D01*
X92288371Y-85120500D01*
X92142733Y-85149469D01*
X92118459Y-85154298D01*
X92118456Y-85154298D01*
X92118453Y-85154300D01*
X91958400Y-85220597D01*
X91814356Y-85316843D01*
X91814293Y-85316896D01*
X91814253Y-85316912D01*
X91809205Y-85320286D01*
X91808565Y-85319328D01*
X91748947Y-85344652D01*
X91737242Y-85345332D01*
X91735534Y-85345500D01*
X91609088Y-85370652D01*
X91609083Y-85370654D01*
X91489978Y-85419989D01*
X91382780Y-85491616D01*
X91382774Y-85491621D01*
X91291621Y-85582774D01*
X91291616Y-85582780D01*
X91219989Y-85689978D01*
X91170654Y-85809083D01*
X91170652Y-85809088D01*
X91145500Y-85935534D01*
X89759679Y-85935534D01*
X89835673Y-85878146D01*
X89840340Y-85874788D01*
X90498718Y-85423788D01*
X90503564Y-85420631D01*
X91182027Y-85000545D01*
X91187002Y-84997621D01*
X91365813Y-84898024D01*
X98899500Y-84898024D01*
X98899500Y-84980009D01*
X98899500Y-90973071D01*
X98899500Y-91000000D01*
X98899500Y-91101976D01*
X98903586Y-91123833D01*
X98936976Y-91302457D01*
X98942570Y-91316896D01*
X99010652Y-91492637D01*
X99010653Y-91492638D01*
X99010658Y-91492648D01*
X99118017Y-91666039D01*
X99118018Y-91666040D01*
X99255421Y-91816765D01*
X99412698Y-91935534D01*
X99418179Y-91939673D01*
X99600750Y-92030582D01*
X99796917Y-92086397D01*
X100000000Y-92105215D01*
X100203083Y-92086397D01*
X100399250Y-92030582D01*
X100581821Y-91939673D01*
X100744579Y-91816764D01*
X100881981Y-91666041D01*
X100989348Y-91492637D01*
X101063024Y-91302456D01*
X101100500Y-91101976D01*
X101100500Y-91000000D01*
X101100500Y-90973071D01*
X101100500Y-85913371D01*
X105495500Y-85913371D01*
X105495500Y-86086628D01*
X105516244Y-86190911D01*
X105529298Y-86256541D01*
X105595597Y-86416600D01*
X105691847Y-86560649D01*
X105814351Y-86683153D01*
X105958400Y-86779403D01*
X106118459Y-86845702D01*
X106231823Y-86868251D01*
X106272896Y-86876421D01*
X106335805Y-86909329D01*
X106370937Y-86971024D01*
X106367137Y-87041918D01*
X106325611Y-87099504D01*
X106272896Y-87123579D01*
X106118458Y-87154298D01*
X106118453Y-87154300D01*
X105958400Y-87220597D01*
X105814352Y-87316846D01*
X105814346Y-87316851D01*
X105691851Y-87439346D01*
X105691846Y-87439352D01*
X105595597Y-87583400D01*
X105529300Y-87743453D01*
X105529298Y-87743460D01*
X105495500Y-87913371D01*
X105495500Y-88086628D01*
X105516244Y-88190911D01*
X105529298Y-88256541D01*
X105595597Y-88416600D01*
X105691847Y-88560649D01*
X105814351Y-88683153D01*
X105958400Y-88779403D01*
X106118459Y-88845702D01*
X106231823Y-88868251D01*
X106272896Y-88876421D01*
X106335805Y-88909329D01*
X106370937Y-88971024D01*
X106367137Y-89041918D01*
X106325611Y-89099504D01*
X106272896Y-89123579D01*
X106118458Y-89154298D01*
X106118453Y-89154300D01*
X105958400Y-89220597D01*
X105814352Y-89316846D01*
X105814346Y-89316851D01*
X105691851Y-89439346D01*
X105691846Y-89439352D01*
X105595597Y-89583400D01*
X105529300Y-89743453D01*
X105529298Y-89743460D01*
X105495500Y-89913371D01*
X105495500Y-90086628D01*
X105516244Y-90190911D01*
X105529298Y-90256541D01*
X105595597Y-90416600D01*
X105691847Y-90560649D01*
X105814351Y-90683153D01*
X105958400Y-90779403D01*
X106118459Y-90845702D01*
X106274178Y-90876675D01*
X106337087Y-90909582D01*
X106372219Y-90971277D01*
X106368419Y-91042172D01*
X106326894Y-91099758D01*
X106274179Y-91123833D01*
X106118602Y-91154780D01*
X106118601Y-91154781D01*
X105958636Y-91221040D01*
X105814670Y-91317235D01*
X105814664Y-91317240D01*
X105692240Y-91439664D01*
X105692235Y-91439670D01*
X105596040Y-91583636D01*
X105529781Y-91743601D01*
X105529781Y-91743602D01*
X105529305Y-91746000D01*
X108470695Y-91746000D01*
X108470218Y-91743602D01*
X108470218Y-91743601D01*
X108403959Y-91583636D01*
X108307764Y-91439670D01*
X108307759Y-91439664D01*
X108185335Y-91317240D01*
X108185329Y-91317235D01*
X108041363Y-91221040D01*
X107881398Y-91154781D01*
X107725820Y-91123833D01*
X107662911Y-91090925D01*
X107627780Y-91029229D01*
X107631581Y-90958334D01*
X107673107Y-90900749D01*
X107725819Y-90876676D01*
X107881541Y-90845702D01*
X108041600Y-90779403D01*
X108185649Y-90683153D01*
X108185659Y-90683143D01*
X108185707Y-90683104D01*
X108185746Y-90683087D01*
X108190795Y-90679714D01*
X108191434Y-90680671D01*
X108251053Y-90655348D01*
X108262757Y-90654667D01*
X108264455Y-90654500D01*
X108264463Y-90654500D01*
X108390911Y-90629348D01*
X108510022Y-90580011D01*
X108617220Y-90508383D01*
X108708383Y-90417220D01*
X108780011Y-90310022D01*
X108829348Y-90190911D01*
X108854500Y-90064463D01*
X108854500Y-89935537D01*
X108829348Y-89809089D01*
X108780011Y-89689978D01*
X108708383Y-89582780D01*
X108708378Y-89582774D01*
X108617225Y-89491621D01*
X108617219Y-89491616D01*
X108581649Y-89467849D01*
X108510022Y-89419989D01*
X108390911Y-89370652D01*
X108264465Y-89345500D01*
X108258307Y-89344894D01*
X108258455Y-89343388D01*
X108197524Y-89325498D01*
X108185707Y-89316896D01*
X108185653Y-89316851D01*
X108185649Y-89316847D01*
X108041600Y-89220597D01*
X107881541Y-89154298D01*
X107792248Y-89136536D01*
X107727104Y-89123579D01*
X107664194Y-89090672D01*
X107629062Y-89028977D01*
X107632862Y-88958082D01*
X107674388Y-88900496D01*
X107727104Y-88876421D01*
X107753656Y-88871139D01*
X107881541Y-88845702D01*
X108041600Y-88779403D01*
X108185649Y-88683153D01*
X108185659Y-88683143D01*
X108185707Y-88683104D01*
X108185746Y-88683087D01*
X108190795Y-88679714D01*
X108191434Y-88680671D01*
X108251053Y-88655348D01*
X108262757Y-88654667D01*
X108264455Y-88654500D01*
X108264463Y-88654500D01*
X108390911Y-88629348D01*
X108510022Y-88580011D01*
X108617220Y-88508383D01*
X108708383Y-88417220D01*
X108780011Y-88310022D01*
X108829348Y-88190911D01*
X108854500Y-88064463D01*
X108854500Y-87935537D01*
X108829348Y-87809089D01*
X108780011Y-87689978D01*
X108708383Y-87582780D01*
X108708378Y-87582774D01*
X108617225Y-87491621D01*
X108617219Y-87491616D01*
X108581649Y-87467849D01*
X108510022Y-87419989D01*
X108390911Y-87370652D01*
X108264465Y-87345500D01*
X108258307Y-87344894D01*
X108258455Y-87343388D01*
X108197524Y-87325498D01*
X108185707Y-87316896D01*
X108185653Y-87316851D01*
X108185649Y-87316847D01*
X108041600Y-87220597D01*
X107881541Y-87154298D01*
X107792248Y-87136536D01*
X107727104Y-87123579D01*
X107664194Y-87090672D01*
X107629062Y-87028977D01*
X107632862Y-86958082D01*
X107674388Y-86900496D01*
X107727104Y-86876421D01*
X107753656Y-86871139D01*
X107881541Y-86845702D01*
X108041600Y-86779403D01*
X108185649Y-86683153D01*
X108185659Y-86683143D01*
X108185707Y-86683104D01*
X108185746Y-86683087D01*
X108190795Y-86679714D01*
X108191434Y-86680671D01*
X108251053Y-86655348D01*
X108262757Y-86654667D01*
X108264455Y-86654500D01*
X108264463Y-86654500D01*
X108390911Y-86629348D01*
X108510022Y-86580011D01*
X108617220Y-86508383D01*
X108708383Y-86417220D01*
X108780011Y-86310022D01*
X108829348Y-86190911D01*
X108854500Y-86064463D01*
X108854500Y-85935537D01*
X108829348Y-85809089D01*
X108780011Y-85689978D01*
X108708383Y-85582780D01*
X108708378Y-85582774D01*
X108617225Y-85491621D01*
X108617219Y-85491616D01*
X108581649Y-85467849D01*
X108510022Y-85419989D01*
X108390911Y-85370652D01*
X108264465Y-85345500D01*
X108258307Y-85344894D01*
X108258455Y-85343388D01*
X108197524Y-85325498D01*
X108185707Y-85316896D01*
X108185653Y-85316851D01*
X108185649Y-85316847D01*
X108041600Y-85220597D01*
X107881541Y-85154298D01*
X107832993Y-85144641D01*
X107711628Y-85120500D01*
X107711623Y-85120500D01*
X106288377Y-85120500D01*
X106288371Y-85120500D01*
X106142733Y-85149469D01*
X106118459Y-85154298D01*
X106118456Y-85154298D01*
X106118453Y-85154300D01*
X105958400Y-85220597D01*
X105814352Y-85316846D01*
X105814346Y-85316851D01*
X105691851Y-85439346D01*
X105691846Y-85439352D01*
X105595597Y-85583400D01*
X105529300Y-85743453D01*
X105529298Y-85743460D01*
X105495500Y-85913371D01*
X101100500Y-85913371D01*
X101100500Y-84980009D01*
X101100500Y-84898024D01*
X101063024Y-84697544D01*
X100989348Y-84507363D01*
X100984953Y-84500265D01*
X100881982Y-84333960D01*
X100881981Y-84333959D01*
X100744578Y-84183234D01*
X100581824Y-84060329D01*
X100581822Y-84060328D01*
X100581821Y-84060327D01*
X100399250Y-83969418D01*
X100399247Y-83969417D01*
X100399245Y-83969416D01*
X100203084Y-83913603D01*
X100000000Y-83894785D01*
X99796915Y-83913603D01*
X99600754Y-83969416D01*
X99418175Y-84060329D01*
X99255421Y-84183234D01*
X99118018Y-84333959D01*
X99118017Y-84333960D01*
X99010658Y-84507351D01*
X99010653Y-84507361D01*
X98936976Y-84697542D01*
X98918238Y-84797784D01*
X98899500Y-84898024D01*
X91365813Y-84898024D01*
X91884138Y-84609318D01*
X91889264Y-84606615D01*
X92603627Y-84250905D01*
X92608851Y-84248453D01*
X93338883Y-83926113D01*
X93344153Y-83923929D01*
X94088343Y-83635629D01*
X94093729Y-83633684D01*
X94850402Y-83380073D01*
X94855880Y-83378376D01*
X95623458Y-83159983D01*
X95629015Y-83158539D01*
X96405847Y-82975830D01*
X96411469Y-82974643D01*
X97195932Y-82828002D01*
X97201592Y-82827078D01*
X97991976Y-82716824D01*
X97997686Y-82716162D01*
X98792307Y-82642530D01*
X98798069Y-82642130D01*
X99595210Y-82605276D01*
X99601029Y-82605142D01*
X100398971Y-82605142D01*
X100404790Y-82605276D01*
G37*
%TD.AperFunction*%
%TD*%
M02*
