M48
; DRILL file {KiCad 9.0.0} date 2025-03-28T18:18:42-0400
; FORMAT={-:-/ absolute / inch / decimal}
; #@! TF.CreationDate,2025-03-28T18:18:42-04:00
; #@! TF.GenerationSoftware,Kicad,Pcbnew,9.0.0
; #@! TF.FileFunction,Plated,1,2,PTH
FMAT,2
INCH
; #@! TA.AperFunction,Plated,PTH,ViaDrill
T1C0.0157
; #@! TA.AperFunction,Plated,PTH,ComponentDrill
T2C0.0630
%
G90
G05
T1
X3.393Y-3.878
X3.456Y-3.878
X3.518Y-3.878
X3.581Y-3.878
X3.593Y-4.207
X3.6142Y-3.3858
X3.6142Y-3.4646
X3.6142Y-3.5433
X3.6142Y-3.622
X3.681Y-4.207
X3.769Y-4.207
X3.878Y-3.6417
X3.937Y-4.2323
X3.937Y-4.5866
X4.1535Y-3.6614
X4.158Y-4.259
X4.158Y-4.332
X4.2598Y-3.3858
X4.2598Y-3.4646
X4.2598Y-3.5433
X4.5276Y-3.9961
T2
X3.7008Y-3.937
M30
