%TF.GenerationSoftware,KiCad,Pcbnew,9.0.0*%
%TF.CreationDate,2025-03-28T18:18:43-04:00*%
%TF.ProjectId,view_screen,76696577-5f73-4637-9265-656e2e6b6963,rev?*%
%TF.SameCoordinates,Original*%
%TF.FileFunction,Legend,Bot*%
%TF.FilePolarity,Positive*%
%FSLAX46Y46*%
G04 Gerber Fmt 4.6, Leading zero omitted, Abs format (unit mm)*
G04 Created by KiCad (PCBNEW 9.0.0) date 2025-03-28 18:18:43*
%MOMM*%
%LPD*%
G01*
G04 APERTURE LIST*
%ADD10C,0.120000*%
%ADD11C,0.250000*%
%ADD12C,0.150000*%
G04 APERTURE END LIST*
D10*
X98500000Y-85000000D02*
X94500000Y-86000000D01*
X98500000Y-91000000D02*
X94500000Y-92000000D01*
X101500000Y-85000000D02*
X105500000Y-86000000D01*
X101500000Y-91000000D02*
X105500000Y-92000000D01*
X101500000Y-89000000D02*
X105500000Y-90000000D01*
X101500000Y-87000000D02*
X105500000Y-88000000D01*
X98500000Y-87000000D02*
X94500000Y-88000000D01*
X93116144Y-98730153D02*
G75*
G02*
X93116144Y-101269847I6883856J-1269847D01*
G01*
X98500000Y-89000000D02*
X94500000Y-90000000D01*
D11*
G36*
X115113689Y-94849668D02*
G01*
X115059879Y-94847712D01*
X115009264Y-94841832D01*
X114964465Y-94832679D01*
X114922511Y-94820011D01*
X114885081Y-94804609D01*
X114850254Y-94785973D01*
X114824567Y-94768946D01*
X114797132Y-94747111D01*
X114773518Y-94723195D01*
X114754455Y-94698299D01*
X114738905Y-94671487D01*
X114718486Y-94612821D01*
X114711787Y-94547479D01*
X114713739Y-94511585D01*
X114719588Y-94478184D01*
X114728702Y-94448865D01*
X114741286Y-94421778D01*
X114775787Y-94375351D01*
X114801302Y-94352695D01*
X114869255Y-94310710D01*
X114960796Y-94273199D01*
X115059711Y-94246022D01*
X115159533Y-94221366D01*
X115232148Y-94198421D01*
X115257243Y-94187892D01*
X115276385Y-94177440D01*
X115291639Y-94164457D01*
X115302275Y-94150220D01*
X115309525Y-94133898D01*
X115314029Y-94103140D01*
X115312089Y-94085377D01*
X115306325Y-94068787D01*
X115283560Y-94039049D01*
X115274340Y-94031393D01*
X115235136Y-94012636D01*
X115176135Y-94002816D01*
X115147883Y-94001962D01*
X115104674Y-94003918D01*
X115063068Y-94009792D01*
X115024251Y-94019236D01*
X114986918Y-94032383D01*
X114917377Y-94069341D01*
X114868286Y-94107231D01*
X114745920Y-93945237D01*
X114784081Y-93918238D01*
X114824391Y-93894517D01*
X114911513Y-93856888D01*
X115008662Y-93832130D01*
X115117568Y-93820760D01*
X115151974Y-93820123D01*
X115203137Y-93822077D01*
X115251055Y-93827936D01*
X115293327Y-93837048D01*
X115332735Y-93849635D01*
X115367825Y-93864956D01*
X115400311Y-93883466D01*
X115431571Y-93906280D01*
X115458761Y-93931656D01*
X115481844Y-93958716D01*
X115499968Y-93986028D01*
X115514334Y-94014882D01*
X115524732Y-94044606D01*
X115531494Y-94075821D01*
X115534825Y-94120237D01*
X115532878Y-94153033D01*
X115527066Y-94184049D01*
X115517763Y-94212470D01*
X115504894Y-94239224D01*
X115490373Y-94261775D01*
X115446927Y-94308222D01*
X115388297Y-94347740D01*
X115364587Y-94359473D01*
X115262962Y-94397367D01*
X115171819Y-94421022D01*
X115085864Y-94441449D01*
X115020679Y-94461409D01*
X114976974Y-94480495D01*
X114958050Y-94492927D01*
X114943467Y-94507385D01*
X114933878Y-94522426D01*
X114927976Y-94539065D01*
X114925744Y-94559141D01*
X114927699Y-94579070D01*
X114933566Y-94596843D01*
X114955075Y-94624296D01*
X114991746Y-94644684D01*
X115049513Y-94657755D01*
X115108926Y-94660990D01*
X115158601Y-94659037D01*
X115206028Y-94653176D01*
X115249512Y-94643856D01*
X115290914Y-94630924D01*
X115329298Y-94614829D01*
X115365698Y-94595298D01*
X115432073Y-94546350D01*
X115439082Y-94539968D01*
X115577873Y-94691704D01*
X115535124Y-94723837D01*
X115490664Y-94752322D01*
X115445122Y-94776846D01*
X115397903Y-94797819D01*
X115298610Y-94829061D01*
X115191503Y-94846239D01*
X115113689Y-94849668D01*
G37*
G36*
X114315748Y-93844731D02*
G01*
X114609694Y-94825000D01*
X114405263Y-94825000D01*
X114220004Y-94207737D01*
X113948651Y-94749834D01*
X113677236Y-94207737D01*
X113491978Y-94825000D01*
X113286936Y-94825000D01*
X113581554Y-93844731D01*
X113690242Y-93844731D01*
X113948651Y-94360877D01*
X114206327Y-93844731D01*
X114315748Y-93844731D01*
G37*
G36*
X113219464Y-94825000D02*
G01*
X112999340Y-94825000D01*
X112881737Y-94595350D01*
X112283586Y-94825000D01*
X112107243Y-94825000D01*
X112247377Y-94544731D01*
X112466097Y-94544731D01*
X112791489Y-94419678D01*
X112658926Y-94159865D01*
X112466097Y-94544731D01*
X112247377Y-94544731D01*
X112597377Y-93844731D01*
X112717667Y-93844731D01*
X113219464Y-94825000D01*
G37*
G36*
X111740512Y-94040919D02*
G01*
X111397351Y-94040919D01*
X111372392Y-94042872D01*
X111348949Y-94048725D01*
X111308112Y-94071053D01*
X111293487Y-94084028D01*
X111277164Y-94103069D01*
X111264710Y-94123725D01*
X111251574Y-94168193D01*
X111250378Y-94187892D01*
X111252332Y-94212934D01*
X111258198Y-94236440D01*
X111267547Y-94257588D01*
X111280529Y-94277241D01*
X111293487Y-94291817D01*
X111312553Y-94308127D01*
X111333238Y-94320572D01*
X111377762Y-94333682D01*
X111397351Y-94334865D01*
X111593539Y-94334865D01*
X111593539Y-94481838D01*
X111250378Y-94825000D01*
X110972857Y-94825000D01*
X111285915Y-94511941D01*
X111250921Y-94497743D01*
X111218390Y-94480323D01*
X111160986Y-94436410D01*
X111118487Y-94388232D01*
X111098536Y-94358057D01*
X111082307Y-94326387D01*
X111061067Y-94259299D01*
X111054190Y-94187892D01*
X111056144Y-94148996D01*
X111062004Y-94111763D01*
X111071405Y-94077272D01*
X111084469Y-94044321D01*
X111121257Y-93983425D01*
X111154696Y-93945237D01*
X111183589Y-93919108D01*
X111214098Y-93896904D01*
X111245146Y-93879165D01*
X111277725Y-93865097D01*
X111346867Y-93848066D01*
X111397351Y-93844731D01*
X111936700Y-93844731D01*
X111936700Y-94825000D01*
X111740512Y-94825000D01*
X111740512Y-94040919D01*
G37*
G36*
X110540364Y-94825000D02*
G01*
X110344176Y-94825000D01*
X110344176Y-94040919D01*
X110001015Y-94040919D01*
X110001015Y-93844731D01*
X110883525Y-93844731D01*
X110883525Y-94040919D01*
X110540364Y-94040919D01*
X110540364Y-94825000D01*
G37*
G36*
X109565774Y-94382737D02*
G01*
X109122839Y-94825000D01*
X108845990Y-94825000D01*
X109336124Y-94334865D01*
X108845990Y-93844731D01*
X109122839Y-93844731D01*
X109565774Y-94287055D01*
X109565774Y-93844731D01*
X109761962Y-93844731D01*
X109761962Y-94825000D01*
X109565774Y-94825000D01*
X109565774Y-94382737D01*
G37*
G36*
X108479382Y-94155102D02*
G01*
X107940032Y-94825000D01*
X107743844Y-94825000D01*
X107743844Y-93844731D01*
X107940032Y-93844731D01*
X107940032Y-94514017D01*
X108479382Y-93844731D01*
X108675570Y-93844731D01*
X108675570Y-94825000D01*
X108479382Y-94825000D01*
X108479382Y-94155102D01*
G37*
G36*
X107071561Y-93822077D02*
G01*
X107117042Y-93827937D01*
X107160063Y-93837430D01*
X107201714Y-93850646D01*
X107280458Y-93887943D01*
X107283691Y-93889855D01*
X107322416Y-93914881D01*
X107358346Y-93942789D01*
X107391079Y-93973170D01*
X107421040Y-94006321D01*
X107469621Y-94075785D01*
X107490660Y-94114911D01*
X107507934Y-94155376D01*
X107530985Y-94239336D01*
X107539325Y-94329289D01*
X107539352Y-94334865D01*
X107537398Y-94381838D01*
X107531538Y-94427324D01*
X107522048Y-94470332D01*
X107508836Y-94511965D01*
X107471542Y-94590696D01*
X107469621Y-94593946D01*
X107444611Y-94632673D01*
X107416725Y-94668599D01*
X107386365Y-94701329D01*
X107353239Y-94731284D01*
X107283691Y-94779937D01*
X107244636Y-94800952D01*
X107204230Y-94818211D01*
X107120302Y-94841274D01*
X107030347Y-94849640D01*
X107024610Y-94849668D01*
X106977659Y-94847714D01*
X106932178Y-94841855D01*
X106889157Y-94832362D01*
X106847507Y-94819145D01*
X106768762Y-94781848D01*
X106765530Y-94779937D01*
X106726804Y-94754910D01*
X106690875Y-94727000D01*
X106658152Y-94696624D01*
X106628201Y-94663475D01*
X106579600Y-94593946D01*
X106558591Y-94554953D01*
X106541343Y-94514619D01*
X106518289Y-94430813D01*
X106509899Y-94340876D01*
X106509868Y-94334865D01*
X106706056Y-94334865D01*
X106708015Y-94372542D01*
X106713905Y-94408549D01*
X106723299Y-94441580D01*
X106736372Y-94473050D01*
X106773042Y-94530527D01*
X106799724Y-94559813D01*
X106826738Y-94584656D01*
X106855401Y-94605634D01*
X106884914Y-94622386D01*
X106915967Y-94635512D01*
X106982655Y-94650980D01*
X107024610Y-94653419D01*
X107062304Y-94651460D01*
X107098335Y-94645567D01*
X107131379Y-94636172D01*
X107162861Y-94623094D01*
X107220306Y-94586431D01*
X107249497Y-94559813D01*
X107274387Y-94532725D01*
X107295402Y-94503995D01*
X107312163Y-94474451D01*
X107325293Y-94443367D01*
X107340741Y-94376664D01*
X107343164Y-94334865D01*
X107341206Y-94297212D01*
X107335315Y-94261221D01*
X107325920Y-94228196D01*
X107312845Y-94196728D01*
X107276165Y-94139247D01*
X107249497Y-94109979D01*
X107222464Y-94085117D01*
X107193781Y-94064121D01*
X107164255Y-94047357D01*
X107133189Y-94034221D01*
X107066501Y-94018747D01*
X107024610Y-94016311D01*
X106986953Y-94018270D01*
X106950955Y-94024160D01*
X106917921Y-94033556D01*
X106886446Y-94046632D01*
X106828986Y-94083299D01*
X106799724Y-94109979D01*
X106774833Y-94137066D01*
X106753818Y-94165795D01*
X106737055Y-94195340D01*
X106723924Y-94226422D01*
X106708476Y-94293113D01*
X106706056Y-94334865D01*
X106509868Y-94334865D01*
X106511823Y-94287858D01*
X106517689Y-94242329D01*
X106527182Y-94199321D01*
X106540404Y-94157679D01*
X106577714Y-94078972D01*
X106579600Y-94075785D01*
X106604626Y-94037059D01*
X106632534Y-94001130D01*
X106662915Y-93968396D01*
X106696066Y-93938435D01*
X106765530Y-93889855D01*
X106804585Y-93868839D01*
X106844990Y-93851580D01*
X106928918Y-93828517D01*
X107018873Y-93820152D01*
X107024610Y-93820123D01*
X107071561Y-93822077D01*
G37*
G36*
X106305437Y-94825000D02*
G01*
X105668330Y-94825000D01*
X105632405Y-94823046D01*
X105598139Y-94817184D01*
X105566573Y-94807800D01*
X105536534Y-94794763D01*
X105481237Y-94757932D01*
X105460540Y-94738904D01*
X105435866Y-94711438D01*
X105415341Y-94682592D01*
X105399563Y-94653644D01*
X105387602Y-94623425D01*
X105375214Y-94560154D01*
X105374383Y-94537892D01*
X105374756Y-94531114D01*
X105570571Y-94531114D01*
X105572525Y-94551234D01*
X105578387Y-94569899D01*
X105599331Y-94600113D01*
X105614967Y-94613047D01*
X105632185Y-94622128D01*
X105668330Y-94628811D01*
X106109249Y-94628811D01*
X106109249Y-94433356D01*
X105668330Y-94433356D01*
X105648148Y-94435312D01*
X105629430Y-94441189D01*
X105599331Y-94462055D01*
X105586362Y-94477728D01*
X105577252Y-94494997D01*
X105570571Y-94531114D01*
X105374756Y-94531114D01*
X105376337Y-94502370D01*
X105382197Y-94468890D01*
X105391452Y-94438792D01*
X105404275Y-94410563D01*
X105439974Y-94360419D01*
X105490484Y-94316861D01*
X105503588Y-94308243D01*
X105480872Y-94286750D01*
X105461939Y-94263291D01*
X105447336Y-94238912D01*
X105436216Y-94212667D01*
X105424432Y-94154494D01*
X105423858Y-94139410D01*
X105619847Y-94139410D01*
X105621792Y-94159591D01*
X105627585Y-94178309D01*
X105647874Y-94208408D01*
X105663558Y-94221377D01*
X105680901Y-94230487D01*
X105717545Y-94237168D01*
X106109249Y-94237168D01*
X106109249Y-94040919D01*
X105717545Y-94040919D01*
X105697025Y-94042873D01*
X105678162Y-94048735D01*
X105647874Y-94069678D01*
X105635103Y-94085689D01*
X105626150Y-94103431D01*
X105619847Y-94139410D01*
X105423858Y-94139410D01*
X105423598Y-94132571D01*
X105425552Y-94096712D01*
X105431411Y-94062626D01*
X105440754Y-94031441D01*
X105453723Y-94001899D01*
X105490168Y-93948152D01*
X105509755Y-93927468D01*
X105535488Y-93905351D01*
X105563255Y-93886687D01*
X105624158Y-93859890D01*
X105694221Y-93846349D01*
X105731222Y-93844731D01*
X106305437Y-93844731D01*
X106305437Y-94825000D01*
G37*
G36*
X114718565Y-95524731D02*
G01*
X115051529Y-96189865D01*
X115391943Y-95524731D01*
X115612067Y-95524731D01*
X115110270Y-96505000D01*
X114989980Y-96505000D01*
X114499846Y-95524731D01*
X114718565Y-95524731D01*
G37*
G36*
X114431885Y-96505000D02*
G01*
X114211761Y-96505000D01*
X114094158Y-96275350D01*
X113496008Y-96505000D01*
X113319664Y-96505000D01*
X113459799Y-96224731D01*
X113678518Y-96224731D01*
X114003911Y-96099678D01*
X113871348Y-95839865D01*
X113678518Y-96224731D01*
X113459799Y-96224731D01*
X113809799Y-95524731D01*
X113930088Y-95524731D01*
X114431885Y-96505000D01*
G37*
G36*
X112358202Y-95524731D02*
G01*
X112691166Y-96189865D01*
X113031580Y-95524731D01*
X113251704Y-95524731D01*
X112749907Y-96505000D01*
X112629617Y-96505000D01*
X112139483Y-95524731D01*
X112358202Y-95524731D01*
G37*
G36*
X111968940Y-95524731D02*
G01*
X111968940Y-95720919D01*
X111087101Y-95720919D01*
X111087101Y-95524731D01*
X111968940Y-95524731D01*
G37*
G36*
X111772752Y-96112623D02*
G01*
X111184860Y-96112623D01*
X111184860Y-95917168D01*
X111968940Y-95917168D01*
X111968940Y-96505000D01*
X111087101Y-96505000D01*
X111087101Y-96308811D01*
X111772752Y-96308811D01*
X111772752Y-96112623D01*
G37*
D12*
X90790476Y-86454819D02*
X91123809Y-85978628D01*
X91361904Y-86454819D02*
X91361904Y-85454819D01*
X91361904Y-85454819D02*
X90980952Y-85454819D01*
X90980952Y-85454819D02*
X90885714Y-85502438D01*
X90885714Y-85502438D02*
X90838095Y-85550057D01*
X90838095Y-85550057D02*
X90790476Y-85645295D01*
X90790476Y-85645295D02*
X90790476Y-85788152D01*
X90790476Y-85788152D02*
X90838095Y-85883390D01*
X90838095Y-85883390D02*
X90885714Y-85931009D01*
X90885714Y-85931009D02*
X90980952Y-85978628D01*
X90980952Y-85978628D02*
X91361904Y-85978628D01*
X109233332Y-86454819D02*
X109233332Y-85454819D01*
X109233332Y-85454819D02*
X108899999Y-86169104D01*
X108899999Y-86169104D02*
X108566666Y-85454819D01*
X108566666Y-85454819D02*
X108566666Y-86454819D01*
X91385713Y-92407200D02*
X91242856Y-92454819D01*
X91242856Y-92454819D02*
X91004761Y-92454819D01*
X91004761Y-92454819D02*
X90909523Y-92407200D01*
X90909523Y-92407200D02*
X90861904Y-92359580D01*
X90861904Y-92359580D02*
X90814285Y-92264342D01*
X90814285Y-92264342D02*
X90814285Y-92169104D01*
X90814285Y-92169104D02*
X90861904Y-92073866D01*
X90861904Y-92073866D02*
X90909523Y-92026247D01*
X90909523Y-92026247D02*
X91004761Y-91978628D01*
X91004761Y-91978628D02*
X91195237Y-91931009D01*
X91195237Y-91931009D02*
X91290475Y-91883390D01*
X91290475Y-91883390D02*
X91338094Y-91835771D01*
X91338094Y-91835771D02*
X91385713Y-91740533D01*
X91385713Y-91740533D02*
X91385713Y-91645295D01*
X91385713Y-91645295D02*
X91338094Y-91550057D01*
X91338094Y-91550057D02*
X91290475Y-91502438D01*
X91290475Y-91502438D02*
X91195237Y-91454819D01*
X91195237Y-91454819D02*
X90957142Y-91454819D01*
X90957142Y-91454819D02*
X90814285Y-91502438D01*
X109280951Y-92073866D02*
X108519047Y-92073866D01*
X91361904Y-88454819D02*
X91361904Y-87454819D01*
X91361904Y-87454819D02*
X91123809Y-87454819D01*
X91123809Y-87454819D02*
X90980952Y-87502438D01*
X90980952Y-87502438D02*
X90885714Y-87597676D01*
X90885714Y-87597676D02*
X90838095Y-87692914D01*
X90838095Y-87692914D02*
X90790476Y-87883390D01*
X90790476Y-87883390D02*
X90790476Y-88026247D01*
X90790476Y-88026247D02*
X90838095Y-88216723D01*
X90838095Y-88216723D02*
X90885714Y-88311961D01*
X90885714Y-88311961D02*
X90980952Y-88407200D01*
X90980952Y-88407200D02*
X91123809Y-88454819D01*
X91123809Y-88454819D02*
X91361904Y-88454819D01*
X109280951Y-90073866D02*
X108519047Y-90073866D01*
X108899999Y-90454819D02*
X108899999Y-89692914D01*
X90790476Y-90359580D02*
X90838095Y-90407200D01*
X90838095Y-90407200D02*
X90980952Y-90454819D01*
X90980952Y-90454819D02*
X91076190Y-90454819D01*
X91076190Y-90454819D02*
X91219047Y-90407200D01*
X91219047Y-90407200D02*
X91314285Y-90311961D01*
X91314285Y-90311961D02*
X91361904Y-90216723D01*
X91361904Y-90216723D02*
X91409523Y-90026247D01*
X91409523Y-90026247D02*
X91409523Y-89883390D01*
X91409523Y-89883390D02*
X91361904Y-89692914D01*
X91361904Y-89692914D02*
X91314285Y-89597676D01*
X91314285Y-89597676D02*
X91219047Y-89502438D01*
X91219047Y-89502438D02*
X91076190Y-89454819D01*
X91076190Y-89454819D02*
X90980952Y-89454819D01*
X90980952Y-89454819D02*
X90838095Y-89502438D01*
X90838095Y-89502438D02*
X90790476Y-89550057D01*
X108828571Y-87931009D02*
X108685714Y-87978628D01*
X108685714Y-87978628D02*
X108638095Y-88026247D01*
X108638095Y-88026247D02*
X108590476Y-88121485D01*
X108590476Y-88121485D02*
X108590476Y-88264342D01*
X108590476Y-88264342D02*
X108638095Y-88359580D01*
X108638095Y-88359580D02*
X108685714Y-88407200D01*
X108685714Y-88407200D02*
X108780952Y-88454819D01*
X108780952Y-88454819D02*
X109161904Y-88454819D01*
X109161904Y-88454819D02*
X109161904Y-87454819D01*
X109161904Y-87454819D02*
X108828571Y-87454819D01*
X108828571Y-87454819D02*
X108733333Y-87502438D01*
X108733333Y-87502438D02*
X108685714Y-87550057D01*
X108685714Y-87550057D02*
X108638095Y-87645295D01*
X108638095Y-87645295D02*
X108638095Y-87740533D01*
X108638095Y-87740533D02*
X108685714Y-87835771D01*
X108685714Y-87835771D02*
X108733333Y-87883390D01*
X108733333Y-87883390D02*
X108828571Y-87931009D01*
X108828571Y-87931009D02*
X109161904Y-87931009D01*
D10*
X96363855Y-108747618D02*
X96363855Y-108290475D01*
X96363855Y-108519047D02*
X95563855Y-108519047D01*
X95563855Y-108519047D02*
X95678140Y-108442856D01*
X95678140Y-108442856D02*
X95754331Y-108366666D01*
X95754331Y-108366666D02*
X95792426Y-108290475D01*
X95640045Y-109052380D02*
X95601950Y-109090476D01*
X95601950Y-109090476D02*
X95563855Y-109166666D01*
X95563855Y-109166666D02*
X95563855Y-109357142D01*
X95563855Y-109357142D02*
X95601950Y-109433333D01*
X95601950Y-109433333D02*
X95640045Y-109471428D01*
X95640045Y-109471428D02*
X95716236Y-109509523D01*
X95716236Y-109509523D02*
X95792426Y-109509523D01*
X95792426Y-109509523D02*
X95906712Y-109471428D01*
X95906712Y-109471428D02*
X96363855Y-109014285D01*
X96363855Y-109014285D02*
X96363855Y-109509523D01*
X104363855Y-109728571D02*
X104363855Y-109271428D01*
X104363855Y-109500000D02*
X103563855Y-109500000D01*
X103563855Y-109500000D02*
X103678140Y-109423809D01*
X103678140Y-109423809D02*
X103754331Y-109347619D01*
X103754331Y-109347619D02*
X103792426Y-109271428D01*
D12*
%TO.C,J2*%
X94300000Y-110900000D02*
X94300000Y-117400000D01*
X94300000Y-110900000D02*
X95500000Y-110900000D01*
X105700000Y-110900000D02*
X104500000Y-110900000D01*
X105700000Y-110900000D02*
X105700000Y-113900000D01*
X106400000Y-115400000D02*
X105700000Y-113900000D01*
X106400000Y-117400000D02*
X106400000Y-115400000D01*
D10*
%TO.C,Q1*%
X109651800Y-107507600D02*
X109001800Y-107507600D01*
X109651800Y-107507600D02*
X111326800Y-107507600D01*
X109651800Y-110627600D02*
X109001800Y-110627600D01*
X109651800Y-110627600D02*
X110301800Y-110627600D01*
%TO.C,R1*%
X111253241Y-105385600D02*
X110945959Y-105385600D01*
X111253241Y-106145600D02*
X110945959Y-106145600D01*
%TO.C,R2*%
X103534059Y-107957660D02*
X103751340Y-108174941D01*
X104071460Y-107420259D02*
X104288741Y-107637540D01*
%TO.C,R3*%
X110945959Y-106503200D02*
X111253241Y-106503200D01*
X110945959Y-107263200D02*
X111253241Y-107263200D01*
%TO.C,C2*%
X105227800Y-106521364D02*
X105227800Y-106737036D01*
X105947800Y-106521364D02*
X105947800Y-106737036D01*
%TO.C,C1*%
X106347800Y-106768020D02*
X106347800Y-107049180D01*
X107367800Y-106768020D02*
X107367800Y-107049180D01*
D12*
%TO.C,J3*%
X94500000Y-92500000D02*
X94500000Y-93000000D01*
X94500000Y-93000000D02*
X94000000Y-93000000D01*
%TO.C,J1*%
X108500000Y-92500000D02*
X108500000Y-93000000D01*
X108500000Y-93000000D02*
X108000000Y-93000000D01*
%TD*%
M02*
