%TF.GenerationSoftware,KiCad,Pcbnew,9.0.0*%
%TF.CreationDate,2025-03-28T18:18:43-04:00*%
%TF.ProjectId,view_screen,76696577-5f73-4637-9265-656e2e6b6963,rev?*%
%TF.SameCoordinates,Original*%
%TF.FileFunction,Copper,L2,Bot*%
%TF.FilePolarity,Positive*%
%FSLAX46Y46*%
G04 Gerber Fmt 4.6, Leading zero omitted, Abs format (unit mm)*
G04 Created by KiCad (PCBNEW 9.0.0) date 2025-03-28 18:18:43*
%MOMM*%
%LPD*%
G01*
G04 APERTURE LIST*
G04 Aperture macros list*
%AMRoundRect*
0 Rectangle with rounded corners*
0 $1 Rounding radius*
0 $2 $3 $4 $5 $6 $7 $8 $9 X,Y pos of 4 corners*
0 Add a 4 corners polygon primitive as box body*
4,1,4,$2,$3,$4,$5,$6,$7,$8,$9,$2,$3,0*
0 Add four circle primitives for the rounded corners*
1,1,$1+$1,$2,$3*
1,1,$1+$1,$4,$5*
1,1,$1+$1,$6,$7*
1,1,$1+$1,$8,$9*
0 Add four rect primitives between the rounded corners*
20,1,$1+$1,$2,$3,$4,$5,0*
20,1,$1+$1,$4,$5,$6,$7,0*
20,1,$1+$1,$6,$7,$8,$9,0*
20,1,$1+$1,$8,$9,$2,$3,0*%
G04 Aperture macros list end*
%TA.AperFunction,ComponentPad*%
%ADD10C,2.400000*%
%TD*%
%TA.AperFunction,SMDPad,CuDef*%
%ADD11RoundRect,0.087500X0.087500X-0.912500X0.087500X0.912500X-0.087500X0.912500X-0.087500X-0.912500X0*%
%TD*%
%TA.AperFunction,SMDPad,CuDef*%
%ADD12RoundRect,0.150000X0.587500X0.150000X-0.587500X0.150000X-0.587500X-0.150000X0.587500X-0.150000X0*%
%TD*%
%TA.AperFunction,SMDPad,CuDef*%
%ADD13RoundRect,0.135000X0.135000X0.185000X-0.135000X0.185000X-0.135000X-0.185000X0.135000X-0.185000X0*%
%TD*%
%TA.AperFunction,SMDPad,CuDef*%
%ADD14RoundRect,0.135000X-0.226274X-0.035355X-0.035355X-0.226274X0.226274X0.035355X0.035355X0.226274X0*%
%TD*%
%TA.AperFunction,SMDPad,CuDef*%
%ADD15RoundRect,0.135000X-0.135000X-0.185000X0.135000X-0.185000X0.135000X0.185000X-0.135000X0.185000X0*%
%TD*%
%TA.AperFunction,SMDPad,CuDef*%
%ADD16RoundRect,0.140000X-0.170000X0.140000X-0.170000X-0.140000X0.170000X-0.140000X0.170000X0.140000X0*%
%TD*%
%TA.AperFunction,SMDPad,CuDef*%
%ADD17RoundRect,0.225000X-0.250000X0.225000X-0.250000X-0.225000X0.250000X-0.225000X0.250000X0.225000X0*%
%TD*%
%TA.AperFunction,SMDPad,CuDef*%
%ADD18O,2.500000X1.250000*%
%TD*%
%TA.AperFunction,ViaPad*%
%ADD19C,0.800000*%
%TD*%
%TA.AperFunction,Conductor*%
%ADD20C,0.400000*%
%TD*%
%TA.AperFunction,Conductor*%
%ADD21C,0.250000*%
%TD*%
G04 APERTURE END LIST*
D10*
%TO.P,H1,1,1*%
%TO.N,unconnected-(H1-Pad1)*%
X94000000Y-100000000D03*
%TD*%
D11*
%TO.P,J2,1,Pin_1*%
%TO.N,GND*%
X103850000Y-110900000D03*
%TO.P,J2,2,Pin_2*%
%TO.N,/LEDK*%
X103150000Y-110900000D03*
%TO.P,J2,3,Pin_3*%
%TO.N,/LEDA*%
X102450000Y-110900000D03*
%TO.P,J2,4,Pin_4*%
%TO.N,/VDD*%
X101750000Y-110900000D03*
%TO.P,J2,5,Pin_5*%
%TO.N,GND*%
X101050000Y-110900000D03*
%TO.P,J2,6,Pin_6*%
X100350000Y-110900000D03*
%TO.P,J2,7,Pin_7*%
%TO.N,/DC*%
X99650000Y-110900000D03*
%TO.P,J2,8,Pin_8*%
%TO.N,/nCS*%
X98950000Y-110900000D03*
%TO.P,J2,9,Pin_9*%
%TO.N,/SCK*%
X98250000Y-110900000D03*
%TO.P,J2,10,Pin_10*%
%TO.N,/MOSI*%
X97550000Y-110900000D03*
%TO.P,J2,11,Pin_11*%
%TO.N,/nRESET*%
X96850000Y-110900000D03*
%TO.P,J2,12,Pin_12*%
%TO.N,GND*%
X96150000Y-110900000D03*
%TD*%
D12*
%TO.P,Q1,1,G*%
%TO.N,Net-(Q1-G)*%
X110589300Y-108117600D03*
%TO.P,Q1,2,S*%
%TO.N,GND*%
X110589300Y-110017600D03*
%TO.P,Q1,3,D*%
%TO.N,/LEDK*%
X108714300Y-109067600D03*
%TD*%
D13*
%TO.P,R1,1*%
%TO.N,/BACKLIGHT_EN*%
X111609600Y-105765600D03*
%TO.P,R1,2*%
%TO.N,Net-(Q1-G)*%
X110589600Y-105765600D03*
%TD*%
D14*
%TO.P,R2,1*%
%TO.N,/VDD*%
X103550776Y-107436976D03*
%TO.P,R2,2*%
%TO.N,/LEDA*%
X104272024Y-108158224D03*
%TD*%
D15*
%TO.P,R3,1*%
%TO.N,Net-(Q1-G)*%
X110589600Y-106883200D03*
%TO.P,R3,2*%
%TO.N,GND*%
X111609600Y-106883200D03*
%TD*%
D16*
%TO.P,C2,1*%
%TO.N,/VDD*%
X105587800Y-106149200D03*
%TO.P,C2,2*%
%TO.N,GND*%
X105587800Y-107109200D03*
%TD*%
D17*
%TO.P,C1,1*%
%TO.N,/VDD*%
X106857800Y-106133600D03*
%TO.P,C1,2*%
%TO.N,GND*%
X106857800Y-107683600D03*
%TD*%
D18*
%TO.P,J3,1,Pin_1*%
%TO.N,/nCS*%
X93000000Y-92000000D03*
%TO.P,J3,2,Pin_2*%
%TO.N,/SCK*%
X93000000Y-90000000D03*
%TO.P,J3,3,Pin_3*%
%TO.N,/MOSI*%
X93000000Y-88000000D03*
%TO.P,J3,4,Pin_4*%
%TO.N,/nRESET*%
X93000000Y-86000000D03*
%TD*%
%TO.P,J1,1,Pin_1*%
%TO.N,GND*%
X107000000Y-92000000D03*
%TO.P,J1,2,Pin_2*%
%TO.N,/VDD*%
X107000000Y-90000000D03*
%TO.P,J1,3,Pin_3*%
%TO.N,/BACKLIGHT_EN*%
X107000000Y-88000000D03*
%TO.P,J1,4,Pin_4*%
%TO.N,/DC*%
X107000000Y-86000000D03*
%TD*%
D19*
%TO.N,GND*%
X93497400Y-106857800D03*
X86182200Y-98500000D03*
X105613200Y-108178600D03*
X105500000Y-93000000D03*
X90957400Y-98501200D03*
X115000000Y-101500000D03*
X100000000Y-116500000D03*
X89357200Y-98501200D03*
X95732600Y-106857800D03*
X87782400Y-98501200D03*
X91262200Y-106857800D03*
X105613200Y-110032800D03*
X100000000Y-107500000D03*
X98500000Y-92500000D03*
%TO.N,/VDD*%
X108200000Y-90000000D03*
%TO.N,/DC*%
X108200000Y-86000000D03*
%TO.N,/BACKLIGHT_EN*%
X108200000Y-88000000D03*
%TO.N,/nRESET*%
X91800000Y-86000000D03*
%TO.N,/MOSI*%
X91800000Y-88000000D03*
%TO.N,/SCK*%
X91800000Y-90000000D03*
%TO.N,/nCS*%
X91800000Y-92000000D03*
%TD*%
D20*
%TO.N,/VDD*%
X106831169Y-106149200D02*
X105956300Y-106149200D01*
X106865600Y-106125800D02*
X106850000Y-106141400D01*
X102227296Y-108772702D02*
X104590231Y-106409768D01*
X108200000Y-90000000D02*
X107000000Y-90000000D01*
X101750000Y-109925000D02*
X101750000Y-110600000D01*
X106865600Y-106125800D02*
X108178900Y-104812500D01*
X108200000Y-90000000D02*
X108850000Y-90650000D01*
X105956300Y-106149200D02*
X105219300Y-106149200D01*
X109500000Y-92219238D02*
X109500000Y-101623082D01*
X105219300Y-106149200D02*
G75*
G03*
X104590239Y-106409776I0J-889600D01*
G01*
X109500000Y-101623082D02*
G75*
G02*
X108178905Y-104812505I-4510500J-18D01*
G01*
X108850000Y-90650000D02*
G75*
G02*
X109499984Y-92219238I-1569200J-1569200D01*
G01*
X102227296Y-108772702D02*
G75*
G03*
X101750000Y-109925000I1152304J-1152298D01*
G01*
X106850000Y-106141400D02*
G75*
G02*
X106831169Y-106149187I-18800J18800D01*
G01*
D21*
%TO.N,/DC*%
X106677100Y-86000000D02*
X107000000Y-86000000D01*
X99650000Y-109975000D02*
X99650000Y-110600000D01*
X107500000Y-99250000D02*
X107500000Y-99121320D01*
X106125875Y-86228324D02*
X105427100Y-86927100D01*
X104500000Y-91878679D02*
X104500000Y-89165317D01*
X105909009Y-103090990D02*
X100091941Y-108908058D01*
X106677100Y-86000000D02*
G75*
G03*
X106125886Y-86228335I0J-779500D01*
G01*
X104500000Y-91878679D02*
G75*
G03*
X105999994Y-95500006I5121300J-21D01*
G01*
X106000000Y-95500000D02*
G75*
G02*
X107499992Y-99121320I-3621300J-3621300D01*
G01*
X107500000Y-99250000D02*
G75*
G02*
X105909014Y-103090995I-5432000J0D01*
G01*
X105427100Y-86927100D02*
G75*
G03*
X104500007Y-89165317I2238200J-2238200D01*
G01*
X100091941Y-108908058D02*
G75*
G03*
X99650004Y-109975000I1066959J-1066942D01*
G01*
%TO.N,/BACKLIGHT_EN*%
X108200000Y-88000000D02*
X107000000Y-88000000D01*
X110015807Y-89815807D02*
X108200000Y-88000000D01*
X111609600Y-93663563D02*
X111609600Y-105765600D01*
X110015807Y-89815807D02*
G75*
G02*
X111609611Y-93663563I-3847807J-3847793D01*
G01*
%TO.N,/nRESET*%
X90560008Y-107273208D02*
X88563392Y-105276592D01*
X96850000Y-109765213D02*
X96850000Y-110600000D01*
X95847586Y-108762800D02*
X94156200Y-108762800D01*
X91800000Y-86000000D02*
X93000000Y-86000000D01*
X86969600Y-93084363D02*
X86969600Y-101428836D01*
X88563392Y-89236607D02*
X91800000Y-86000000D01*
X86969600Y-101428836D02*
G75*
G03*
X88563400Y-105276584I5441600J36D01*
G01*
X96556400Y-109056400D02*
G75*
G03*
X95847586Y-108762805I-708800J-708800D01*
G01*
X90560008Y-107273208D02*
G75*
G03*
X94156200Y-108762795I3596192J3596208D01*
G01*
X88563392Y-89236607D02*
G75*
G03*
X86969559Y-93084363I3847708J-3847793D01*
G01*
X96556400Y-109056400D02*
G75*
G02*
X96849995Y-109765213I-708800J-708800D01*
G01*
%TO.N,/MOSI*%
X97550000Y-110006794D02*
X97550000Y-110600000D01*
X92877866Y-107355866D02*
X90163592Y-104641592D01*
X91800000Y-88000000D02*
X93000000Y-88000000D01*
X95109405Y-108280200D02*
X95615183Y-108280200D01*
X96983305Y-108846894D02*
X97130540Y-108994129D01*
X88569800Y-93484163D02*
X88569800Y-100793836D01*
X90163592Y-89636407D02*
X91800000Y-88000000D01*
X92877866Y-107355866D02*
G75*
G03*
X95109405Y-108280188I2231534J2231566D01*
G01*
X88569800Y-100793836D02*
G75*
G03*
X90163600Y-104641584I5441600J36D01*
G01*
X90163592Y-89636407D02*
G75*
G03*
X88569759Y-93484163I3847708J-3847793D01*
G01*
X97130540Y-108994129D02*
G75*
G02*
X97550011Y-110006794I-1012640J-1012671D01*
G01*
X96983305Y-108846894D02*
G75*
G03*
X95615183Y-108280207I-1368105J-1368106D01*
G01*
%TO.N,/SCK*%
X97084596Y-108084596D02*
X97772702Y-108772702D01*
X90144600Y-100133436D02*
X90144600Y-92825944D01*
X90972300Y-90827700D02*
X91800000Y-90000000D01*
X98250000Y-109925000D02*
X98250000Y-110600000D01*
X91800000Y-90000000D02*
X93000000Y-90000000D01*
X94963003Y-107205803D02*
X91738392Y-103981192D01*
X97084596Y-108084596D02*
G75*
G03*
X96023800Y-107645202I-1060796J-1060804D01*
G01*
X90144600Y-100133436D02*
G75*
G03*
X91738400Y-103981184I5441600J36D01*
G01*
X94963003Y-107205803D02*
G75*
G03*
X96023800Y-107645198I1060797J1060803D01*
G01*
X97772702Y-108772702D02*
G75*
G02*
X98249998Y-109925000I-1152302J-1152298D01*
G01*
X90972300Y-90827700D02*
G75*
G03*
X90144618Y-92825944I1998200J-1998200D01*
G01*
%TO.N,/nCS*%
X98366636Y-108366636D02*
X93338592Y-103338592D01*
X91744800Y-95019960D02*
X91744800Y-99490836D01*
X93000000Y-92438600D02*
X93000000Y-92000000D01*
X98950000Y-109775000D02*
X98950000Y-110600000D01*
X92689862Y-93187337D02*
X92372400Y-93504800D01*
X92372400Y-93504800D02*
G75*
G03*
X91744754Y-95019960I1515100J-1515200D01*
G01*
X93000000Y-92438600D02*
G75*
G02*
X92689868Y-93187343I-1058900J0D01*
G01*
X91744800Y-99490836D02*
G75*
G03*
X93338600Y-103338584I5441600J36D01*
G01*
X98366636Y-108366636D02*
G75*
G02*
X98950008Y-109775000I-1408336J-1408364D01*
G01*
%TO.N,/LEDA*%
X102803553Y-109246446D02*
X103622927Y-108427072D01*
X102450000Y-110100000D02*
X102450000Y-110600000D01*
X104272024Y-108158224D02*
G75*
G03*
X103622941Y-108427086I-24J-917876D01*
G01*
X102803553Y-109246446D02*
G75*
G03*
X102449997Y-110100000I853547J-853554D01*
G01*
%TO.N,/LEDK*%
X103150000Y-110063867D02*
X103150000Y-110600000D01*
X104146267Y-109067600D02*
X108714300Y-109067600D01*
X104146267Y-109067600D02*
G75*
G03*
X103441810Y-109359410I33J-996300D01*
G01*
X103441800Y-109359400D02*
G75*
G03*
X103149987Y-110063867I704500J-704500D01*
G01*
%TO.N,Net-(Q1-G)*%
X110589600Y-107442000D02*
X110589600Y-108117087D01*
X110589600Y-106324400D02*
X110589600Y-107442000D01*
X110589450Y-108117450D02*
X110589300Y-108117600D01*
X110589600Y-106324400D02*
X110589600Y-105765600D01*
X110589600Y-108117087D02*
G75*
G02*
X110589454Y-108117454I-500J-13D01*
G01*
%TD*%
%TA.AperFunction,Conductor*%
%TO.N,GND*%
G36*
X108321014Y-88667338D02*
G01*
X108354723Y-88691417D01*
X109708877Y-90045571D01*
X109744105Y-90080800D01*
X109745706Y-90082401D01*
X109749133Y-90085965D01*
X109930261Y-90281909D01*
X110013903Y-90372392D01*
X110020328Y-90379916D01*
X110260269Y-90684282D01*
X110266084Y-90692285D01*
X110481409Y-91014540D01*
X110486578Y-91022976D01*
X110572290Y-91176026D01*
X110666725Y-91344652D01*
X110675947Y-91361118D01*
X110680438Y-91369931D01*
X110778563Y-91582780D01*
X110842702Y-91721906D01*
X110846487Y-91731043D01*
X110861230Y-91771005D01*
X110980634Y-92094663D01*
X110983691Y-92104072D01*
X111088893Y-92477083D01*
X111091203Y-92486703D01*
X111166816Y-92866827D01*
X111168364Y-92876599D01*
X111213921Y-93261488D01*
X111214697Y-93271350D01*
X111230003Y-93660841D01*
X111230100Y-93665789D01*
X111230100Y-105222074D01*
X111221316Y-105251989D01*
X111214688Y-105282459D01*
X111210873Y-105287554D01*
X111210098Y-105290195D01*
X111193195Y-105311169D01*
X111188695Y-105315669D01*
X111126383Y-105349695D01*
X111055568Y-105344630D01*
X111010505Y-105315669D01*
X110956395Y-105261559D01*
X110878900Y-105222074D01*
X110846462Y-105205546D01*
X110755253Y-105191100D01*
X110755249Y-105191100D01*
X110423948Y-105191100D01*
X110332739Y-105205545D01*
X110222804Y-105261559D01*
X110135559Y-105348804D01*
X110113451Y-105392195D01*
X110079546Y-105458738D01*
X110071489Y-105509611D01*
X110065100Y-105549950D01*
X110065100Y-105981251D01*
X110079545Y-106072460D01*
X110135559Y-106182395D01*
X110173195Y-106220031D01*
X110188139Y-106247399D01*
X110204996Y-106273628D01*
X110205901Y-106279926D01*
X110207221Y-106282343D01*
X110210100Y-106309126D01*
X110210100Y-106339674D01*
X110190098Y-106407795D01*
X110173195Y-106428769D01*
X110135561Y-106466402D01*
X110135559Y-106466404D01*
X110079547Y-106576336D01*
X110079546Y-106576338D01*
X110065100Y-106667547D01*
X110065100Y-106667550D01*
X110065100Y-107098851D01*
X110079545Y-107190060D01*
X110135559Y-107299995D01*
X110173195Y-107337631D01*
X110188139Y-107364999D01*
X110204996Y-107391228D01*
X110205901Y-107397526D01*
X110207221Y-107399943D01*
X110210100Y-107426726D01*
X110210100Y-107437100D01*
X110190098Y-107505221D01*
X110136442Y-107551714D01*
X110084100Y-107563100D01*
X109969966Y-107563100D01*
X109944066Y-107567202D01*
X109875246Y-107578101D01*
X109761076Y-107636273D01*
X109670473Y-107726876D01*
X109612301Y-107841046D01*
X109597300Y-107935767D01*
X109597300Y-108299433D01*
X109612842Y-108397570D01*
X109603742Y-108467981D01*
X109558019Y-108522294D01*
X109490191Y-108543266D01*
X109437809Y-108531086D01*
X109437784Y-108531165D01*
X109436865Y-108530866D01*
X109431195Y-108529548D01*
X109428356Y-108528101D01*
X109353972Y-108516321D01*
X109333634Y-108513100D01*
X108094966Y-108513100D01*
X108069066Y-108517202D01*
X108000246Y-108528101D01*
X107886076Y-108586273D01*
X107886074Y-108586275D01*
X107821155Y-108651195D01*
X107758843Y-108685221D01*
X107732060Y-108688100D01*
X104788093Y-108688100D01*
X104719972Y-108668098D01*
X104673479Y-108614442D01*
X104663375Y-108544168D01*
X104692869Y-108479588D01*
X104698998Y-108473005D01*
X104795387Y-108376615D01*
X104795391Y-108376611D01*
X104811077Y-108355021D01*
X104849671Y-108301902D01*
X104887798Y-108184559D01*
X104887798Y-108061178D01*
X104853114Y-107954432D01*
X106128800Y-107954432D01*
X106134931Y-108011460D01*
X106183068Y-108140520D01*
X106265613Y-108250786D01*
X106375879Y-108333331D01*
X106504939Y-108381468D01*
X106561967Y-108387599D01*
X106561984Y-108387600D01*
X106603800Y-108387600D01*
X107111800Y-108387600D01*
X107153616Y-108387600D01*
X107153632Y-108387599D01*
X107210660Y-108381468D01*
X107339720Y-108333331D01*
X107449986Y-108250786D01*
X107532531Y-108140520D01*
X107580668Y-108011460D01*
X107586799Y-107954432D01*
X107586800Y-107954415D01*
X107586800Y-107937600D01*
X107111800Y-107937600D01*
X107111800Y-108387600D01*
X106603800Y-108387600D01*
X106603800Y-107937600D01*
X106128800Y-107937600D01*
X106128800Y-107954432D01*
X104853114Y-107954432D01*
X104849671Y-107943835D01*
X104795391Y-107869126D01*
X104561122Y-107634858D01*
X104486413Y-107580577D01*
X104486412Y-107580576D01*
X104486410Y-107580575D01*
X104361767Y-107540077D01*
X104359459Y-107538499D01*
X104356671Y-107538300D01*
X104330330Y-107518581D01*
X104303161Y-107500004D01*
X104302072Y-107497427D01*
X104299835Y-107495753D01*
X104288337Y-107464927D01*
X104275524Y-107434607D01*
X104276000Y-107431851D01*
X104275024Y-107429233D01*
X104282020Y-107397071D01*
X104287631Y-107364651D01*
X104288669Y-107363200D01*
X105036944Y-107363200D01*
X105038412Y-107372468D01*
X105038412Y-107372469D01*
X105095072Y-107483670D01*
X105095075Y-107483675D01*
X105183326Y-107571926D01*
X105294528Y-107628585D01*
X105294533Y-107628587D01*
X105333799Y-107634806D01*
X105333800Y-107634806D01*
X105333800Y-107363200D01*
X105036944Y-107363200D01*
X104288669Y-107363200D01*
X104289702Y-107361757D01*
X104290115Y-107359859D01*
X104311605Y-107331152D01*
X104825684Y-106817073D01*
X104887994Y-106783049D01*
X104958809Y-106788114D01*
X105010588Y-106824339D01*
X105036946Y-106855200D01*
X105461800Y-106855200D01*
X105529921Y-106875202D01*
X105576414Y-106928858D01*
X105587800Y-106981200D01*
X105587800Y-107109200D01*
X105715800Y-107109200D01*
X105783921Y-107129202D01*
X105830414Y-107182858D01*
X105841800Y-107235200D01*
X105841800Y-107634806D01*
X105881066Y-107628587D01*
X105881071Y-107628585D01*
X105992273Y-107571926D01*
X105996800Y-107567399D01*
X105996800Y-107555600D01*
X106016802Y-107487479D01*
X106070458Y-107440986D01*
X106122800Y-107429600D01*
X107586800Y-107429600D01*
X107586800Y-107412784D01*
X107586799Y-107412767D01*
X107580668Y-107355739D01*
X107532531Y-107226679D01*
X107449986Y-107116413D01*
X107339719Y-107033867D01*
X107321095Y-107026921D01*
X107264261Y-106984373D01*
X107239451Y-106917853D01*
X107254543Y-106848479D01*
X107304747Y-106798277D01*
X107321082Y-106790817D01*
X107339963Y-106783775D01*
X107450344Y-106701144D01*
X107532975Y-106590763D01*
X107581160Y-106461573D01*
X107587300Y-106404464D01*
X107587300Y-106099050D01*
X107607302Y-106030929D01*
X107624200Y-106009959D01*
X108452889Y-105181269D01*
X108457968Y-105176191D01*
X108457970Y-105176191D01*
X108463380Y-105170781D01*
X108463402Y-105170768D01*
X108500285Y-105133885D01*
X108638225Y-104995945D01*
X108891609Y-104699271D01*
X109120935Y-104383630D01*
X109324789Y-104050970D01*
X109501914Y-103703341D01*
X109651218Y-103342887D01*
X109652892Y-103337737D01*
X109771778Y-102971839D01*
X109771778Y-102971836D01*
X109771781Y-102971829D01*
X109862859Y-102592456D01*
X109923891Y-102207107D01*
X109954501Y-101818157D01*
X109954500Y-101623080D01*
X109954500Y-101563244D01*
X109954500Y-92159402D01*
X109954500Y-92151165D01*
X109954484Y-92150926D01*
X109954485Y-92094663D01*
X109954486Y-92069092D01*
X109920866Y-91770671D01*
X109915671Y-91747907D01*
X109854048Y-91477902D01*
X109854045Y-91477892D01*
X109754862Y-91194435D01*
X109624565Y-90923865D01*
X109473318Y-90683153D01*
X109464795Y-90669589D01*
X109464794Y-90669587D01*
X109277555Y-90434797D01*
X109259357Y-90416599D01*
X109213693Y-90370935D01*
X109213691Y-90370931D01*
X109152782Y-90310022D01*
X109129070Y-90286309D01*
X109129069Y-90286308D01*
X109124670Y-90281909D01*
X109124660Y-90281900D01*
X108891405Y-90048645D01*
X108857379Y-89986333D01*
X108854500Y-89959550D01*
X108854500Y-89935538D01*
X108854499Y-89935534D01*
X108850092Y-89913377D01*
X108829348Y-89809089D01*
X108780011Y-89689978D01*
X108708383Y-89582780D01*
X108708378Y-89582774D01*
X108617225Y-89491621D01*
X108617219Y-89491616D01*
X108581649Y-89467849D01*
X108510022Y-89419989D01*
X108390911Y-89370652D01*
X108264465Y-89345500D01*
X108258307Y-89344894D01*
X108258455Y-89343388D01*
X108197524Y-89325498D01*
X108185707Y-89316896D01*
X108185653Y-89316851D01*
X108185649Y-89316847D01*
X108041600Y-89220597D01*
X107881541Y-89154298D01*
X107792248Y-89136536D01*
X107727104Y-89123579D01*
X107664194Y-89090672D01*
X107629062Y-89028977D01*
X107632862Y-88958082D01*
X107674388Y-88900496D01*
X107727104Y-88876421D01*
X107753656Y-88871139D01*
X107881541Y-88845702D01*
X108041600Y-88779403D01*
X108185649Y-88683153D01*
X108185661Y-88683140D01*
X108185690Y-88683118D01*
X108185718Y-88683105D01*
X108190795Y-88679714D01*
X108191438Y-88680676D01*
X108251035Y-88655361D01*
X108321014Y-88667338D01*
G37*
%TD.AperFunction*%
%TA.AperFunction,Conductor*%
G36*
X91778402Y-86662456D02*
G01*
X91808979Y-86680051D01*
X91809205Y-86679714D01*
X91814238Y-86683077D01*
X91814311Y-86683119D01*
X91814344Y-86683146D01*
X91814351Y-86683153D01*
X91958400Y-86779403D01*
X92118459Y-86845702D01*
X92231823Y-86868251D01*
X92272896Y-86876421D01*
X92335805Y-86909329D01*
X92370937Y-86971024D01*
X92367137Y-87041918D01*
X92325611Y-87099504D01*
X92272896Y-87123579D01*
X92118458Y-87154298D01*
X92118453Y-87154300D01*
X91958400Y-87220597D01*
X91814356Y-87316843D01*
X91814293Y-87316896D01*
X91814253Y-87316912D01*
X91809205Y-87320286D01*
X91808565Y-87319328D01*
X91748947Y-87344652D01*
X91737242Y-87345332D01*
X91735534Y-87345500D01*
X91609088Y-87370652D01*
X91609083Y-87370654D01*
X91489978Y-87419989D01*
X91382780Y-87491616D01*
X91382774Y-87491621D01*
X91291621Y-87582774D01*
X91291616Y-87582780D01*
X91219989Y-87689978D01*
X91170654Y-87809083D01*
X91170652Y-87809088D01*
X91145500Y-87935534D01*
X91145500Y-88065614D01*
X91125498Y-88133735D01*
X91108595Y-88154709D01*
X89854427Y-89408876D01*
X89854018Y-89409341D01*
X89733577Y-89529781D01*
X89733549Y-89529811D01*
X89436474Y-89877633D01*
X89167621Y-90247671D01*
X89167611Y-90247685D01*
X88928610Y-90637692D01*
X88928603Y-90637705D01*
X88720944Y-91045247D01*
X88551720Y-91453782D01*
X88545892Y-91467851D01*
X88404611Y-91902660D01*
X88404538Y-91902884D01*
X88404532Y-91902904D01*
X88297755Y-92347647D01*
X88297752Y-92347662D01*
X88226194Y-92799441D01*
X88226193Y-92799451D01*
X88190302Y-93255438D01*
X88190301Y-93255443D01*
X88190300Y-93434199D01*
X88190300Y-100741638D01*
X88190290Y-100741672D01*
X88190291Y-101022545D01*
X88226184Y-101478567D01*
X88297739Y-101930334D01*
X88297741Y-101930344D01*
X88394359Y-102332779D01*
X88404526Y-102375127D01*
X88404527Y-102375132D01*
X88545879Y-102810161D01*
X88628709Y-103010127D01*
X88720925Y-103232754D01*
X88928589Y-103640317D01*
X89067963Y-103867754D01*
X89167591Y-104030333D01*
X89167593Y-104030336D01*
X89436252Y-104400113D01*
X89436454Y-104400391D01*
X89733524Y-104748215D01*
X89733533Y-104748224D01*
X89852729Y-104867421D01*
X89852748Y-104867443D01*
X92572608Y-107587302D01*
X92572627Y-107587337D01*
X92609513Y-107624222D01*
X92609513Y-107624223D01*
X92732325Y-107747034D01*
X93000842Y-107967398D01*
X93038276Y-107992410D01*
X93083803Y-108046886D01*
X93092652Y-108117329D01*
X93062011Y-108181373D01*
X93001610Y-108218685D01*
X92934073Y-108218444D01*
X92706647Y-108154304D01*
X92697237Y-108151247D01*
X92453095Y-108061178D01*
X92359822Y-108026768D01*
X92350685Y-108022983D01*
X92024090Y-107872421D01*
X92015275Y-107867930D01*
X91701486Y-107692200D01*
X91693050Y-107687030D01*
X91394031Y-107487233D01*
X91386027Y-107481418D01*
X91153186Y-107297862D01*
X91103596Y-107258768D01*
X91096076Y-107252346D01*
X91093091Y-107249587D01*
X90830241Y-107006611D01*
X90826675Y-107003181D01*
X88833511Y-105010017D01*
X88830097Y-105006468D01*
X88565291Y-104720001D01*
X88558870Y-104712482D01*
X88318929Y-104408116D01*
X88313114Y-104400113D01*
X88188895Y-104214207D01*
X88097786Y-104077853D01*
X88092630Y-104069438D01*
X87903239Y-103731258D01*
X87898765Y-103722477D01*
X87736490Y-103370477D01*
X87732717Y-103361367D01*
X87598559Y-102997722D01*
X87595511Y-102988338D01*
X87490305Y-102615314D01*
X87487996Y-102605695D01*
X87461027Y-102470116D01*
X87412381Y-102225562D01*
X87410835Y-102215799D01*
X87365277Y-101830899D01*
X87364502Y-101821047D01*
X87364388Y-101818157D01*
X87349197Y-101431555D01*
X87349100Y-101426608D01*
X87349100Y-93086839D01*
X87349197Y-93081892D01*
X87351063Y-93034399D01*
X87364513Y-92692119D01*
X87365287Y-92682303D01*
X87410845Y-92297409D01*
X87412392Y-92287643D01*
X87418607Y-92256398D01*
X87488009Y-91907504D01*
X87490318Y-91897890D01*
X87595522Y-91524876D01*
X87598576Y-91515476D01*
X87732731Y-91151843D01*
X87736504Y-91142734D01*
X87898781Y-90790737D01*
X87903260Y-90781946D01*
X88092653Y-90443769D01*
X88097802Y-90435367D01*
X88313141Y-90113095D01*
X88318939Y-90105116D01*
X88558908Y-89800723D01*
X88565300Y-89793239D01*
X88830836Y-89505990D01*
X88834212Y-89502480D01*
X91645277Y-86691415D01*
X91707587Y-86657391D01*
X91778402Y-86662456D01*
G37*
%TD.AperFunction*%
%TA.AperFunction,Conductor*%
G36*
X91778401Y-88662456D02*
G01*
X91808980Y-88680049D01*
X91809205Y-88679714D01*
X91814214Y-88683061D01*
X91814301Y-88683111D01*
X91814346Y-88683148D01*
X91814351Y-88683153D01*
X91958400Y-88779403D01*
X92118459Y-88845702D01*
X92231823Y-88868251D01*
X92272896Y-88876421D01*
X92335805Y-88909329D01*
X92370937Y-88971024D01*
X92367137Y-89041918D01*
X92325611Y-89099504D01*
X92272896Y-89123579D01*
X92118458Y-89154298D01*
X92118453Y-89154300D01*
X91958400Y-89220597D01*
X91814356Y-89316843D01*
X91814293Y-89316896D01*
X91814253Y-89316912D01*
X91809205Y-89320286D01*
X91808565Y-89319328D01*
X91748947Y-89344652D01*
X91737242Y-89345332D01*
X91735534Y-89345500D01*
X91609088Y-89370652D01*
X91609083Y-89370654D01*
X91489978Y-89419989D01*
X91382780Y-89491616D01*
X91382774Y-89491621D01*
X91291621Y-89582774D01*
X91291616Y-89582780D01*
X91219989Y-89689978D01*
X91170654Y-89809083D01*
X91170652Y-89809088D01*
X91145500Y-89935534D01*
X91145500Y-90065614D01*
X91125498Y-90133735D01*
X91108596Y-90154709D01*
X90740871Y-90522435D01*
X90740811Y-90522467D01*
X90592605Y-90670673D01*
X90592588Y-90670691D01*
X90392794Y-90914142D01*
X90392776Y-90914166D01*
X90217818Y-91176011D01*
X90217810Y-91176026D01*
X90069354Y-91453769D01*
X89948825Y-91744754D01*
X89857402Y-92046146D01*
X89795964Y-92355036D01*
X89795964Y-92355041D01*
X89765097Y-92668459D01*
X89765097Y-92668475D01*
X89765100Y-92807836D01*
X89765100Y-100081238D01*
X89765090Y-100081272D01*
X89765091Y-100362145D01*
X89780533Y-100558332D01*
X89798893Y-100791608D01*
X89800984Y-100818167D01*
X89871441Y-101263000D01*
X89872541Y-101269944D01*
X89973060Y-101688629D01*
X89979326Y-101714727D01*
X89979327Y-101714732D01*
X90120679Y-102149761D01*
X90206974Y-102358093D01*
X90295725Y-102572354D01*
X90503389Y-102979917D01*
X90636965Y-103197893D01*
X90742391Y-103369933D01*
X90742393Y-103369936D01*
X91004926Y-103731281D01*
X91011254Y-103739991D01*
X91308324Y-104087815D01*
X91308333Y-104087824D01*
X91427529Y-104207021D01*
X91427548Y-104207043D01*
X94649045Y-107428539D01*
X94649049Y-107428547D01*
X94781761Y-107561259D01*
X94781771Y-107561268D01*
X94781772Y-107561269D01*
X94909578Y-107659337D01*
X94951445Y-107716675D01*
X94955667Y-107787546D01*
X94920903Y-107849449D01*
X94858191Y-107882730D01*
X94814387Y-107883936D01*
X94573885Y-107848262D01*
X94561757Y-107845850D01*
X94342799Y-107791005D01*
X94309469Y-107782656D01*
X94297641Y-107779069D01*
X94208086Y-107747026D01*
X94052752Y-107691447D01*
X94041329Y-107686715D01*
X93806220Y-107575518D01*
X93795315Y-107569689D01*
X93594298Y-107449206D01*
X93572237Y-107435983D01*
X93561959Y-107429116D01*
X93558736Y-107426726D01*
X93353053Y-107274183D01*
X93343495Y-107266339D01*
X93251387Y-107182858D01*
X93158701Y-107098852D01*
X93148657Y-107089749D01*
X93144178Y-107085484D01*
X90433711Y-104375017D01*
X90430297Y-104371468D01*
X90165491Y-104085001D01*
X90159070Y-104077482D01*
X89919129Y-103773116D01*
X89913314Y-103765113D01*
X89699562Y-103445211D01*
X89697986Y-103442853D01*
X89692830Y-103434438D01*
X89503439Y-103096258D01*
X89498965Y-103087477D01*
X89336690Y-102735477D01*
X89332917Y-102726367D01*
X89198759Y-102362722D01*
X89195711Y-102353338D01*
X89090505Y-101980314D01*
X89088196Y-101970695D01*
X89080052Y-101929754D01*
X89012581Y-101590562D01*
X89011035Y-101580799D01*
X89007164Y-101548094D01*
X88965477Y-101195899D01*
X88964702Y-101186047D01*
X88961691Y-101109431D01*
X88949397Y-100796555D01*
X88949300Y-100791608D01*
X88949300Y-93486639D01*
X88949397Y-93481692D01*
X88951263Y-93434199D01*
X88964713Y-93091919D01*
X88965487Y-93082103D01*
X89011045Y-92697209D01*
X89012592Y-92687443D01*
X89013445Y-92683156D01*
X89088209Y-92307304D01*
X89090518Y-92297690D01*
X89095771Y-92279066D01*
X89195722Y-91924676D01*
X89198776Y-91915276D01*
X89332931Y-91551643D01*
X89336704Y-91542534D01*
X89498981Y-91190537D01*
X89503460Y-91181746D01*
X89692853Y-90843569D01*
X89698002Y-90835167D01*
X89913341Y-90512895D01*
X89919139Y-90504916D01*
X90159108Y-90200523D01*
X90165500Y-90193039D01*
X90431025Y-89905802D01*
X90434396Y-89902296D01*
X90470519Y-89866175D01*
X90470520Y-89866172D01*
X91645276Y-88691415D01*
X91707586Y-88657391D01*
X91778401Y-88662456D01*
G37*
%TD.AperFunction*%
%TA.AperFunction,Conductor*%
G36*
X91778402Y-90662456D02*
G01*
X91808979Y-90680051D01*
X91809205Y-90679714D01*
X91814238Y-90683077D01*
X91814311Y-90683119D01*
X91814344Y-90683146D01*
X91814351Y-90683153D01*
X91958400Y-90779403D01*
X92118459Y-90845702D01*
X92231823Y-90868251D01*
X92272896Y-90876421D01*
X92335805Y-90909329D01*
X92370937Y-90971024D01*
X92367137Y-91041918D01*
X92325611Y-91099504D01*
X92272896Y-91123579D01*
X92118458Y-91154298D01*
X92118453Y-91154300D01*
X91958400Y-91220597D01*
X91814356Y-91316843D01*
X91814293Y-91316896D01*
X91814253Y-91316912D01*
X91809205Y-91320286D01*
X91808565Y-91319328D01*
X91748947Y-91344652D01*
X91737242Y-91345332D01*
X91735534Y-91345500D01*
X91609088Y-91370652D01*
X91609083Y-91370654D01*
X91489978Y-91419989D01*
X91382780Y-91491616D01*
X91382774Y-91491621D01*
X91291621Y-91582774D01*
X91291616Y-91582780D01*
X91219989Y-91689978D01*
X91170654Y-91809083D01*
X91170652Y-91809088D01*
X91145500Y-91935534D01*
X91145500Y-92064465D01*
X91162746Y-92151165D01*
X91170652Y-92190911D01*
X91219989Y-92310022D01*
X91267849Y-92381649D01*
X91291616Y-92417219D01*
X91291621Y-92417225D01*
X91382774Y-92508378D01*
X91382780Y-92508383D01*
X91489978Y-92580011D01*
X91609089Y-92629348D01*
X91735537Y-92654500D01*
X91735544Y-92654500D01*
X91741693Y-92655106D01*
X91741544Y-92656611D01*
X91802476Y-92674502D01*
X91814293Y-92683104D01*
X91814344Y-92683146D01*
X91814351Y-92683153D01*
X91958400Y-92779403D01*
X92118459Y-92845702D01*
X92201164Y-92862152D01*
X92264073Y-92895059D01*
X92299205Y-92956754D01*
X92295405Y-93027649D01*
X92265678Y-93074826D01*
X92063199Y-93277306D01*
X92062760Y-93277806D01*
X92003933Y-93336630D01*
X91827295Y-93558112D01*
X91676572Y-93797970D01*
X91676564Y-93797984D01*
X91553647Y-94053210D01*
X91553638Y-94053230D01*
X91460074Y-94320600D01*
X91460073Y-94320604D01*
X91397027Y-94596793D01*
X91365302Y-94878315D01*
X91365301Y-94954355D01*
X91365301Y-94969994D01*
X91365300Y-94969998D01*
X91365300Y-95005073D01*
X91365300Y-95019955D01*
X91365299Y-95084665D01*
X91365300Y-95084678D01*
X91365300Y-99438638D01*
X91365290Y-99438672D01*
X91365291Y-99719545D01*
X91390157Y-100035471D01*
X91397692Y-100131208D01*
X91401184Y-100175567D01*
X91469953Y-100609744D01*
X91472741Y-100627344D01*
X91567622Y-101022545D01*
X91579526Y-101072127D01*
X91579527Y-101072132D01*
X91720879Y-101507161D01*
X91850897Y-101821047D01*
X91895925Y-101929754D01*
X92103589Y-102337317D01*
X92268051Y-102605695D01*
X92342591Y-102727333D01*
X92342593Y-102727336D01*
X92611448Y-103097383D01*
X92611454Y-103097391D01*
X92908524Y-103445215D01*
X92908533Y-103445224D01*
X93027729Y-103564421D01*
X93027748Y-103564443D01*
X96564042Y-107100736D01*
X96598068Y-107163048D01*
X96593003Y-107233863D01*
X96550456Y-107290699D01*
X96483936Y-107315510D01*
X96442337Y-107311538D01*
X96391291Y-107297860D01*
X96147003Y-107265700D01*
X96147001Y-107265700D01*
X96028756Y-107265700D01*
X96018870Y-107265312D01*
X95858370Y-107252680D01*
X95838842Y-107249587D01*
X95687126Y-107213163D01*
X95668323Y-107207053D01*
X95524175Y-107147346D01*
X95506566Y-107138375D01*
X95373523Y-107056846D01*
X95357529Y-107045225D01*
X95235130Y-106940687D01*
X95227865Y-106933971D01*
X92008511Y-103714617D01*
X92005097Y-103711068D01*
X91740291Y-103424601D01*
X91733870Y-103417082D01*
X91493929Y-103112716D01*
X91488114Y-103104713D01*
X91291296Y-102810155D01*
X91272786Y-102782453D01*
X91267630Y-102774038D01*
X91078239Y-102435858D01*
X91073765Y-102427077D01*
X90911490Y-102075077D01*
X90907717Y-102065967D01*
X90773559Y-101702322D01*
X90770511Y-101692938D01*
X90665305Y-101319914D01*
X90662996Y-101310295D01*
X90623040Y-101109426D01*
X90587381Y-100930162D01*
X90585835Y-100920399D01*
X90574980Y-100828688D01*
X90540277Y-100535499D01*
X90539502Y-100525647D01*
X90534524Y-100398971D01*
X90524197Y-100136155D01*
X90524100Y-100131208D01*
X90524100Y-92829474D01*
X90524298Y-92822411D01*
X90525587Y-92799451D01*
X90539082Y-92559078D01*
X90540663Y-92545053D01*
X90584246Y-92288516D01*
X90587385Y-92274763D01*
X90659422Y-92024708D01*
X90664080Y-92011399D01*
X90763658Y-91770992D01*
X90769775Y-91758286D01*
X90895651Y-91530528D01*
X90903160Y-91518577D01*
X91053742Y-91306350D01*
X91062527Y-91295336D01*
X91238078Y-91098892D01*
X91242900Y-91093792D01*
X91645277Y-90691415D01*
X91707587Y-90657391D01*
X91778402Y-90662456D01*
G37*
%TD.AperFunction*%
%TA.AperFunction,Conductor*%
G36*
X100404790Y-82605276D02*
G01*
X101201927Y-82642130D01*
X101207695Y-82642530D01*
X102002308Y-82716161D01*
X102008028Y-82716825D01*
X102798400Y-82827077D01*
X102804074Y-82828003D01*
X103588521Y-82974641D01*
X103594161Y-82975832D01*
X104370973Y-83158537D01*
X104376552Y-83159986D01*
X105144107Y-83378373D01*
X105149609Y-83380077D01*
X105906256Y-83633680D01*
X105911670Y-83635634D01*
X106655830Y-83923923D01*
X106661131Y-83926119D01*
X107243445Y-84183236D01*
X107391125Y-84248443D01*
X107396388Y-84250913D01*
X107623411Y-84363957D01*
X108110723Y-84606610D01*
X108115872Y-84609325D01*
X108812975Y-84997609D01*
X108817993Y-85000558D01*
X109496419Y-85420621D01*
X109501296Y-85423798D01*
X109600305Y-85491621D01*
X110063749Y-85809088D01*
X110159629Y-85874767D01*
X110164346Y-85878161D01*
X110469966Y-86108955D01*
X110801132Y-86359040D01*
X110805695Y-86362654D01*
X111419598Y-86872432D01*
X111423989Y-86876253D01*
X111907293Y-87316843D01*
X112013703Y-87413848D01*
X112017912Y-87417868D01*
X112582131Y-87982087D01*
X112586151Y-87986296D01*
X113123746Y-88576010D01*
X113127567Y-88580401D01*
X113637345Y-89194304D01*
X113640959Y-89198867D01*
X114121832Y-89835645D01*
X114125232Y-89840370D01*
X114576201Y-90498703D01*
X114579378Y-90503580D01*
X114999441Y-91182006D01*
X115002390Y-91187024D01*
X115390674Y-91884127D01*
X115393389Y-91889276D01*
X115749083Y-92603605D01*
X115751556Y-92608874D01*
X116073871Y-93338848D01*
X116076084Y-93344190D01*
X116364356Y-94088305D01*
X116366323Y-94093754D01*
X116619913Y-94850361D01*
X116621635Y-94855922D01*
X116840006Y-95623420D01*
X116841469Y-95629053D01*
X117024161Y-96405810D01*
X117025363Y-96411506D01*
X117171990Y-97195890D01*
X117172927Y-97201634D01*
X117283170Y-97991940D01*
X117283841Y-97997722D01*
X117357467Y-98792284D01*
X117357870Y-98798091D01*
X117394724Y-99595209D01*
X117394858Y-99601028D01*
X117394858Y-100398971D01*
X117394724Y-100404790D01*
X117357870Y-101201908D01*
X117357467Y-101207715D01*
X117283841Y-102002277D01*
X117283170Y-102008059D01*
X117172927Y-102798365D01*
X117171990Y-102804109D01*
X117025363Y-103588493D01*
X117024161Y-103594189D01*
X116841469Y-104370946D01*
X116840006Y-104376579D01*
X116621635Y-105144077D01*
X116619913Y-105149638D01*
X116366323Y-105906245D01*
X116364350Y-105911708D01*
X116076090Y-106655793D01*
X116073871Y-106661151D01*
X115751556Y-107391125D01*
X115749083Y-107396394D01*
X115393389Y-108110723D01*
X115390674Y-108115872D01*
X115002390Y-108812975D01*
X114999441Y-108817993D01*
X114579378Y-109496419D01*
X114576201Y-109501296D01*
X114125232Y-110159629D01*
X114121832Y-110164354D01*
X113640959Y-110801132D01*
X113637345Y-110805695D01*
X113127567Y-111419598D01*
X113123746Y-111423989D01*
X112586151Y-112013703D01*
X112582131Y-112017912D01*
X112017912Y-112582131D01*
X112013703Y-112586151D01*
X111423989Y-113123746D01*
X111419598Y-113127567D01*
X110805695Y-113637345D01*
X110801132Y-113640959D01*
X110164354Y-114121832D01*
X110159629Y-114125232D01*
X109501296Y-114576201D01*
X109496419Y-114579378D01*
X108817993Y-114999441D01*
X108812975Y-115002390D01*
X108115872Y-115390674D01*
X108110723Y-115393389D01*
X107396394Y-115749083D01*
X107391125Y-115751556D01*
X106661151Y-116073871D01*
X106655793Y-116076090D01*
X105911708Y-116364350D01*
X105906245Y-116366323D01*
X105149638Y-116619913D01*
X105144077Y-116621635D01*
X104376579Y-116840006D01*
X104370946Y-116841469D01*
X103594189Y-117024161D01*
X103588493Y-117025363D01*
X102804109Y-117171990D01*
X102798365Y-117172927D01*
X102008059Y-117283170D01*
X102002277Y-117283841D01*
X101207715Y-117357467D01*
X101201908Y-117357870D01*
X100404790Y-117394724D01*
X100398971Y-117394858D01*
X99601029Y-117394858D01*
X99595210Y-117394724D01*
X98798091Y-117357870D01*
X98792284Y-117357467D01*
X97997722Y-117283841D01*
X97991940Y-117283170D01*
X97201634Y-117172927D01*
X97195890Y-117171990D01*
X96411506Y-117025363D01*
X96405810Y-117024161D01*
X95629053Y-116841469D01*
X95623420Y-116840006D01*
X94855922Y-116621635D01*
X94850361Y-116619913D01*
X94093754Y-116366323D01*
X94088305Y-116364356D01*
X93344190Y-116076084D01*
X93338848Y-116073871D01*
X92608874Y-115751556D01*
X92603605Y-115749083D01*
X91889276Y-115393389D01*
X91884127Y-115390674D01*
X91187024Y-115002390D01*
X91182006Y-114999441D01*
X90503580Y-114579378D01*
X90498703Y-114576201D01*
X89840370Y-114125232D01*
X89835645Y-114121832D01*
X89198867Y-113640959D01*
X89194304Y-113637345D01*
X88580401Y-113127567D01*
X88576010Y-113123746D01*
X87986296Y-112586151D01*
X87982087Y-112582131D01*
X87417868Y-112017912D01*
X87413848Y-112013703D01*
X87266909Y-111852518D01*
X95721000Y-111852518D01*
X95727547Y-111902248D01*
X95778445Y-112011400D01*
X95863599Y-112096554D01*
X95972751Y-112147451D01*
X95975000Y-112147747D01*
X95975000Y-111075000D01*
X95721000Y-111075000D01*
X95721000Y-111852518D01*
X87266909Y-111852518D01*
X86876253Y-111423989D01*
X86872432Y-111419598D01*
X86609785Y-111103304D01*
X86362654Y-110805695D01*
X86359040Y-110801132D01*
X86174389Y-110556615D01*
X85878161Y-110164346D01*
X85874767Y-110159629D01*
X85775398Y-110014568D01*
X85729442Y-109947481D01*
X95721000Y-109947481D01*
X95721000Y-110725000D01*
X95975000Y-110725000D01*
X95975000Y-109652250D01*
X95972755Y-109652547D01*
X95972748Y-109652549D01*
X95863599Y-109703445D01*
X95778445Y-109788599D01*
X95727547Y-109897751D01*
X95721000Y-109947481D01*
X85729442Y-109947481D01*
X85423798Y-109501296D01*
X85420621Y-109496419D01*
X85063554Y-108919735D01*
X85000556Y-108817990D01*
X84997609Y-108812975D01*
X84995092Y-108808457D01*
X84808247Y-108473005D01*
X84609325Y-108115872D01*
X84606610Y-108110723D01*
X84366534Y-107628585D01*
X84250913Y-107396388D01*
X84248443Y-107391125D01*
X84235476Y-107361757D01*
X83926119Y-106661131D01*
X83923923Y-106655830D01*
X83635634Y-105911670D01*
X83633676Y-105906245D01*
X83380077Y-105149609D01*
X83378373Y-105144107D01*
X83159986Y-104376552D01*
X83158537Y-104370973D01*
X82975832Y-103594161D01*
X82974641Y-103588521D01*
X82828003Y-102804074D01*
X82827077Y-102798400D01*
X82716825Y-102008028D01*
X82716161Y-102002308D01*
X82658188Y-101376672D01*
X86590090Y-101376672D01*
X86590091Y-101657545D01*
X86625984Y-102113567D01*
X86697539Y-102565334D01*
X86697541Y-102565344D01*
X86797073Y-102979916D01*
X86804326Y-103010127D01*
X86804327Y-103010132D01*
X86945679Y-103445161D01*
X87030981Y-103651095D01*
X87120725Y-103867754D01*
X87328389Y-104275317D01*
X87420413Y-104425486D01*
X87567391Y-104665333D01*
X87567393Y-104665336D01*
X87807592Y-104995941D01*
X87836254Y-105035391D01*
X88133324Y-105383215D01*
X88133333Y-105383224D01*
X88252529Y-105502421D01*
X88252548Y-105502443D01*
X90250993Y-107500887D01*
X90251002Y-107500904D01*
X90443473Y-107693375D01*
X90443485Y-107693386D01*
X90443496Y-107693397D01*
X90443508Y-107693407D01*
X90443511Y-107693410D01*
X90770052Y-107972302D01*
X90770063Y-107972311D01*
X91117496Y-108224734D01*
X91117498Y-108224736D01*
X91117502Y-108224738D01*
X91117507Y-108224742D01*
X91483685Y-108449136D01*
X91483689Y-108449138D01*
X91483690Y-108449139D01*
X91644090Y-108530866D01*
X91866340Y-108644107D01*
X92067017Y-108727230D01*
X92263116Y-108808457D01*
X92671546Y-108941163D01*
X92671548Y-108941163D01*
X92671556Y-108941166D01*
X93089153Y-109041422D01*
X93513329Y-109108605D01*
X93941468Y-109142300D01*
X94106238Y-109142300D01*
X95793028Y-109142300D01*
X95841406Y-109142300D01*
X95853754Y-109142906D01*
X95956764Y-109153051D01*
X95980986Y-109157869D01*
X96074094Y-109186112D01*
X96096908Y-109195561D01*
X96182722Y-109241428D01*
X96203253Y-109255146D01*
X96278448Y-109316857D01*
X96295901Y-109334310D01*
X96357646Y-109409547D01*
X96371366Y-109430080D01*
X96390285Y-109465476D01*
X96404756Y-109534983D01*
X96379351Y-109601278D01*
X96362224Y-109619616D01*
X96325000Y-109652249D01*
X96325000Y-112147747D01*
X96327248Y-112147451D01*
X96446291Y-112091942D01*
X96516483Y-112081281D01*
X96551981Y-112095182D01*
X96553320Y-112092313D01*
X96563310Y-112096971D01*
X96563311Y-112096972D01*
X96672618Y-112147943D01*
X96722424Y-112154500D01*
X96722431Y-112154500D01*
X96977569Y-112154500D01*
X96977576Y-112154500D01*
X97027382Y-112147943D01*
X97136689Y-112096972D01*
X97136689Y-112096971D01*
X97146680Y-112092313D01*
X97148561Y-112096348D01*
X97193822Y-112080610D01*
X97252213Y-112094685D01*
X97253320Y-112092313D01*
X97263310Y-112096971D01*
X97263311Y-112096972D01*
X97372618Y-112147943D01*
X97422424Y-112154500D01*
X97422431Y-112154500D01*
X97677569Y-112154500D01*
X97677576Y-112154500D01*
X97727382Y-112147943D01*
X97836689Y-112096972D01*
X97836689Y-112096971D01*
X97846680Y-112092313D01*
X97848561Y-112096348D01*
X97893822Y-112080610D01*
X97952213Y-112094685D01*
X97953320Y-112092313D01*
X97963310Y-112096971D01*
X97963311Y-112096972D01*
X98072618Y-112147943D01*
X98122424Y-112154500D01*
X98122431Y-112154500D01*
X98377569Y-112154500D01*
X98377576Y-112154500D01*
X98427382Y-112147943D01*
X98536689Y-112096972D01*
X98536689Y-112096971D01*
X98546680Y-112092313D01*
X98548561Y-112096348D01*
X98593822Y-112080610D01*
X98652213Y-112094685D01*
X98653320Y-112092313D01*
X98663310Y-112096971D01*
X98663311Y-112096972D01*
X98772618Y-112147943D01*
X98822424Y-112154500D01*
X98822431Y-112154500D01*
X99077569Y-112154500D01*
X99077576Y-112154500D01*
X99127382Y-112147943D01*
X99236689Y-112096972D01*
X99236689Y-112096971D01*
X99246680Y-112092313D01*
X99248561Y-112096348D01*
X99293822Y-112080610D01*
X99352213Y-112094685D01*
X99353320Y-112092313D01*
X99363310Y-112096971D01*
X99363311Y-112096972D01*
X99472618Y-112147943D01*
X99522424Y-112154500D01*
X99522431Y-112154500D01*
X99777569Y-112154500D01*
X99777576Y-112154500D01*
X99827382Y-112147943D01*
X99936689Y-112096972D01*
X99936689Y-112096971D01*
X99946680Y-112092313D01*
X99948447Y-112096102D01*
X99995368Y-112080240D01*
X100053709Y-112091942D01*
X100172751Y-112147451D01*
X100174999Y-112147747D01*
X100175000Y-112147747D01*
X100525000Y-112147747D01*
X100527248Y-112147451D01*
X100646388Y-112091897D01*
X100648180Y-112095741D01*
X100694881Y-112079942D01*
X100752473Y-112094339D01*
X100753612Y-112091897D01*
X100872751Y-112147451D01*
X100875000Y-112147747D01*
X100875000Y-111075000D01*
X100525000Y-111075000D01*
X100525000Y-112147747D01*
X100175000Y-112147747D01*
X100175000Y-109652250D01*
X100525000Y-109652250D01*
X100525000Y-110725000D01*
X100875000Y-110725000D01*
X100875000Y-109652250D01*
X100872755Y-109652547D01*
X100872748Y-109652549D01*
X100753612Y-109708103D01*
X100751829Y-109704280D01*
X100704886Y-109720066D01*
X100647546Y-109705619D01*
X100646388Y-109708103D01*
X100527251Y-109652549D01*
X100527244Y-109652547D01*
X100525000Y-109652250D01*
X100175000Y-109652250D01*
X100168739Y-109646762D01*
X100130702Y-109586814D01*
X100131112Y-109515819D01*
X100135384Y-109503819D01*
X100148806Y-109471414D01*
X100157769Y-109453824D01*
X100240013Y-109319610D01*
X100251632Y-109303620D01*
X100357049Y-109180189D01*
X100363742Y-109172949D01*
X106137527Y-103399165D01*
X106137547Y-103399154D01*
X106177360Y-103359340D01*
X106177361Y-103359341D01*
X106338817Y-103197884D01*
X106635398Y-102850631D01*
X106903820Y-102481179D01*
X107142427Y-102091805D01*
X107349749Y-101684911D01*
X107524508Y-101263005D01*
X107538787Y-101219061D01*
X107665623Y-100828697D01*
X107665622Y-100828697D01*
X107665626Y-100828688D01*
X107772232Y-100384639D01*
X107843671Y-99933593D01*
X107879500Y-99478334D01*
X107879500Y-99250000D01*
X107879500Y-99195436D01*
X107879500Y-99071358D01*
X107879500Y-99063025D01*
X107879491Y-99062891D01*
X107879491Y-98990295D01*
X107879492Y-98905194D01*
X107845579Y-98474271D01*
X107777960Y-98047337D01*
X107677054Y-97627024D01*
X107677053Y-97627023D01*
X107677052Y-97627016D01*
X107543482Y-97215929D01*
X107484533Y-97073614D01*
X107378064Y-96816572D01*
X107181825Y-96431430D01*
X106955972Y-96062871D01*
X106955968Y-96062866D01*
X106955966Y-96062862D01*
X106955964Y-96062860D01*
X106701899Y-95713169D01*
X106421185Y-95384494D01*
X106421182Y-95384491D01*
X106421172Y-95384479D01*
X106270101Y-95233407D01*
X106266672Y-95229841D01*
X106018967Y-94961873D01*
X106012546Y-94954355D01*
X105998972Y-94937137D01*
X105788171Y-94669737D01*
X105782356Y-94661733D01*
X105581008Y-94360394D01*
X105575838Y-94351958D01*
X105398746Y-94035735D01*
X105394255Y-94026920D01*
X105242526Y-93697792D01*
X105238740Y-93688652D01*
X105166408Y-93492589D01*
X105113292Y-93348612D01*
X105110239Y-93339212D01*
X105110136Y-93338848D01*
X105011865Y-92990399D01*
X105009557Y-92980786D01*
X104938850Y-92625310D01*
X104937306Y-92615564D01*
X104894705Y-92255620D01*
X104894578Y-92254000D01*
X105529305Y-92254000D01*
X105529781Y-92256397D01*
X105529781Y-92256398D01*
X105596040Y-92416363D01*
X105692235Y-92560329D01*
X105692240Y-92560335D01*
X105814664Y-92682759D01*
X105814670Y-92682764D01*
X105958636Y-92778959D01*
X106118601Y-92845218D01*
X106118604Y-92845219D01*
X106288422Y-92878999D01*
X106288426Y-92879000D01*
X106746000Y-92879000D01*
X107254000Y-92879000D01*
X107711574Y-92879000D01*
X107711577Y-92878999D01*
X107881395Y-92845219D01*
X107881398Y-92845218D01*
X108041363Y-92778959D01*
X108185329Y-92682764D01*
X108185335Y-92682759D01*
X108307759Y-92560335D01*
X108307764Y-92560329D01*
X108403959Y-92416363D01*
X108470218Y-92256398D01*
X108470218Y-92256397D01*
X108470695Y-92254000D01*
X107254000Y-92254000D01*
X107254000Y-92879000D01*
X106746000Y-92879000D01*
X106746000Y-92254000D01*
X105529305Y-92254000D01*
X104894578Y-92254000D01*
X104893930Y-92245766D01*
X104893117Y-92225060D01*
X104879597Y-91880917D01*
X104879500Y-91875971D01*
X104879500Y-89168402D01*
X104879652Y-89162220D01*
X104882733Y-89099504D01*
X104892609Y-88898428D01*
X104893819Y-88886144D01*
X104932118Y-88627943D01*
X104934529Y-88615826D01*
X104997951Y-88362627D01*
X105001531Y-88350825D01*
X105089475Y-88105034D01*
X105094191Y-88093649D01*
X105205797Y-87857677D01*
X105211624Y-87846777D01*
X105214423Y-87842107D01*
X105283011Y-87727674D01*
X105335187Y-87679530D01*
X105405111Y-87667236D01*
X105470582Y-87694698D01*
X105510812Y-87753196D01*
X105514663Y-87817034D01*
X105495500Y-87913371D01*
X105495500Y-88086628D01*
X105509043Y-88154711D01*
X105529298Y-88256541D01*
X105595597Y-88416600D01*
X105691847Y-88560649D01*
X105814351Y-88683153D01*
X105958400Y-88779403D01*
X106118459Y-88845702D01*
X106231823Y-88868251D01*
X106272896Y-88876421D01*
X106335805Y-88909329D01*
X106370937Y-88971024D01*
X106367137Y-89041918D01*
X106325611Y-89099504D01*
X106272896Y-89123579D01*
X106118458Y-89154298D01*
X106118453Y-89154300D01*
X105958400Y-89220597D01*
X105814352Y-89316846D01*
X105814346Y-89316851D01*
X105691851Y-89439346D01*
X105691846Y-89439352D01*
X105595597Y-89583400D01*
X105529300Y-89743453D01*
X105529298Y-89743460D01*
X105495500Y-89913371D01*
X105495500Y-90086628D01*
X105516663Y-90193020D01*
X105529298Y-90256541D01*
X105595597Y-90416600D01*
X105691847Y-90560649D01*
X105814351Y-90683153D01*
X105958400Y-90779403D01*
X106118459Y-90845702D01*
X106274178Y-90876675D01*
X106337087Y-90909582D01*
X106372219Y-90971277D01*
X106368419Y-91042172D01*
X106326894Y-91099758D01*
X106274179Y-91123833D01*
X106118602Y-91154780D01*
X106118601Y-91154781D01*
X105958636Y-91221040D01*
X105814670Y-91317235D01*
X105814664Y-91317240D01*
X105692240Y-91439664D01*
X105692235Y-91439670D01*
X105596040Y-91583636D01*
X105529781Y-91743601D01*
X105529781Y-91743602D01*
X105529305Y-91746000D01*
X108470695Y-91746000D01*
X108470218Y-91743602D01*
X108470218Y-91743601D01*
X108403959Y-91583636D01*
X108307764Y-91439670D01*
X108307759Y-91439664D01*
X108185335Y-91317240D01*
X108185329Y-91317235D01*
X108041363Y-91221040D01*
X107881398Y-91154781D01*
X107725820Y-91123833D01*
X107662911Y-91090925D01*
X107627780Y-91029229D01*
X107631581Y-90958334D01*
X107673107Y-90900749D01*
X107725819Y-90876676D01*
X107881541Y-90845702D01*
X108041600Y-90779403D01*
X108132488Y-90718673D01*
X108200240Y-90697459D01*
X108268707Y-90716242D01*
X108291584Y-90734344D01*
X108486307Y-90929067D01*
X108486309Y-90929070D01*
X108502517Y-90945278D01*
X108515321Y-90958082D01*
X108525686Y-90968447D01*
X108531324Y-90974466D01*
X108675379Y-91138730D01*
X108685407Y-91151799D01*
X108795951Y-91317240D01*
X108804475Y-91329997D01*
X108812715Y-91344270D01*
X108907505Y-91536488D01*
X108913813Y-91551716D01*
X108982704Y-91754669D01*
X108986969Y-91770589D01*
X109028778Y-91980788D01*
X109030929Y-91997130D01*
X109045229Y-92215378D01*
X109045499Y-92223616D01*
X109045499Y-92289214D01*
X109045500Y-92289227D01*
X109045500Y-101620336D01*
X109045380Y-101625832D01*
X109030306Y-101971093D01*
X109029348Y-101982043D01*
X108984599Y-102321954D01*
X108982690Y-102332779D01*
X108908488Y-102667488D01*
X108905643Y-102678106D01*
X108802551Y-103005074D01*
X108798792Y-103015403D01*
X108667593Y-103332147D01*
X108662948Y-103342109D01*
X108504639Y-103646220D01*
X108499142Y-103655740D01*
X108314937Y-103944885D01*
X108308634Y-103953886D01*
X108099918Y-104225890D01*
X108092869Y-104234290D01*
X107940674Y-104400383D01*
X107859485Y-104488985D01*
X107855685Y-104492954D01*
X107835895Y-104512743D01*
X107815209Y-104533430D01*
X107815207Y-104533431D01*
X107815206Y-104533432D01*
X107815207Y-104533432D01*
X106956444Y-105392195D01*
X106894132Y-105426221D01*
X106867349Y-105429100D01*
X106561928Y-105429100D01*
X106504827Y-105435240D01*
X106375633Y-105483426D01*
X106375632Y-105483427D01*
X106265258Y-105566054D01*
X106265257Y-105566055D01*
X106265256Y-105566056D01*
X106206748Y-105644211D01*
X106203034Y-105646992D01*
X106201107Y-105651212D01*
X106174885Y-105668063D01*
X106149915Y-105686756D01*
X106144194Y-105687788D01*
X106141381Y-105689596D01*
X106105883Y-105694700D01*
X106039769Y-105694700D01*
X105982566Y-105680967D01*
X105881229Y-105629333D01*
X105881230Y-105629333D01*
X105881228Y-105629332D01*
X105881227Y-105629332D01*
X105788845Y-105614700D01*
X105788841Y-105614700D01*
X105386757Y-105614700D01*
X105294374Y-105629331D01*
X105193056Y-105680956D01*
X105135853Y-105694689D01*
X105131197Y-105694689D01*
X104956506Y-105717688D01*
X104956505Y-105717688D01*
X104786310Y-105763293D01*
X104623518Y-105830727D01*
X104623514Y-105830729D01*
X104516772Y-105892359D01*
X104470925Y-105918831D01*
X104470922Y-105918832D01*
X104470917Y-105918836D01*
X104331141Y-106026096D01*
X104331132Y-106026103D01*
X104299990Y-106057247D01*
X104299988Y-106057248D01*
X103563005Y-106794231D01*
X103512846Y-106824969D01*
X103407098Y-106859328D01*
X103332387Y-106913609D01*
X103027408Y-107218589D01*
X102973128Y-107293299D01*
X102938769Y-107399047D01*
X102908031Y-107449206D01*
X101948226Y-108409011D01*
X101905915Y-108451323D01*
X101905913Y-108451324D01*
X101823157Y-108534079D01*
X101823150Y-108534086D01*
X101677214Y-108717086D01*
X101677206Y-108717097D01*
X101552671Y-108915296D01*
X101552668Y-108915301D01*
X101451112Y-109126184D01*
X101451101Y-109126212D01*
X101373798Y-109347131D01*
X101327380Y-109550496D01*
X101292720Y-109612457D01*
X101235782Y-109642797D01*
X101225000Y-109652250D01*
X101225000Y-112147747D01*
X101227248Y-112147451D01*
X101346291Y-112091942D01*
X101416483Y-112081281D01*
X101451981Y-112095182D01*
X101453320Y-112092313D01*
X101463310Y-112096971D01*
X101463311Y-112096972D01*
X101572618Y-112147943D01*
X101622424Y-112154500D01*
X101622431Y-112154500D01*
X101877569Y-112154500D01*
X101877576Y-112154500D01*
X101927382Y-112147943D01*
X102036689Y-112096972D01*
X102036689Y-112096971D01*
X102046680Y-112092313D01*
X102048561Y-112096348D01*
X102093822Y-112080610D01*
X102152213Y-112094685D01*
X102153320Y-112092313D01*
X102163310Y-112096971D01*
X102163311Y-112096972D01*
X102272618Y-112147943D01*
X102322424Y-112154500D01*
X102322431Y-112154500D01*
X102577569Y-112154500D01*
X102577576Y-112154500D01*
X102627382Y-112147943D01*
X102736689Y-112096972D01*
X102736689Y-112096971D01*
X102746680Y-112092313D01*
X102748561Y-112096348D01*
X102793822Y-112080610D01*
X102852213Y-112094685D01*
X102853320Y-112092313D01*
X102863310Y-112096971D01*
X102863311Y-112096972D01*
X102972618Y-112147943D01*
X103022424Y-112154500D01*
X103022431Y-112154500D01*
X103277569Y-112154500D01*
X103277576Y-112154500D01*
X103327382Y-112147943D01*
X103436689Y-112096972D01*
X103436689Y-112096971D01*
X103446680Y-112092313D01*
X103448447Y-112096102D01*
X103495368Y-112080240D01*
X103553709Y-112091942D01*
X103672751Y-112147451D01*
X103674999Y-112147747D01*
X103675000Y-112147747D01*
X104025000Y-112147747D01*
X104027248Y-112147451D01*
X104136400Y-112096554D01*
X104221554Y-112011400D01*
X104272452Y-111902248D01*
X104278999Y-111852518D01*
X104279000Y-111852507D01*
X104279000Y-111075000D01*
X104025000Y-111075000D01*
X104025000Y-112147747D01*
X103675000Y-112147747D01*
X103675000Y-111026000D01*
X103677591Y-111017174D01*
X103676282Y-111008068D01*
X103687437Y-110983642D01*
X103695002Y-110957879D01*
X103701955Y-110951854D01*
X103705776Y-110943488D01*
X103728361Y-110928973D01*
X103748658Y-110911386D01*
X103759344Y-110909061D01*
X103765502Y-110905104D01*
X103801000Y-110900000D01*
X103850000Y-110900000D01*
X103850000Y-110851000D01*
X103870002Y-110782879D01*
X103923658Y-110736386D01*
X103976000Y-110725000D01*
X104279000Y-110725000D01*
X104279000Y-110271600D01*
X109609237Y-110271600D01*
X109612783Y-110293993D01*
X109612786Y-110294002D01*
X109670881Y-110408021D01*
X109670884Y-110408026D01*
X109761375Y-110498517D01*
X109875399Y-110556615D01*
X109970008Y-110571599D01*
X110335300Y-110571599D01*
X110843300Y-110571599D01*
X111208592Y-110571599D01*
X111303197Y-110556616D01*
X111417224Y-110498517D01*
X111507715Y-110408026D01*
X111507717Y-110408023D01*
X111565816Y-110293999D01*
X111569364Y-110271601D01*
X111569363Y-110271600D01*
X110843300Y-110271600D01*
X110843300Y-110571599D01*
X110335300Y-110571599D01*
X110335300Y-110271600D01*
X109609237Y-110271600D01*
X104279000Y-110271600D01*
X104279000Y-109947493D01*
X104278999Y-109947481D01*
X104272452Y-109897751D01*
X104221554Y-109788599D01*
X104136400Y-109703445D01*
X104101765Y-109687295D01*
X104048480Y-109640378D01*
X104029019Y-109572101D01*
X104049561Y-109504141D01*
X104103584Y-109458075D01*
X104155015Y-109447100D01*
X107732060Y-109447100D01*
X107800181Y-109467102D01*
X107821155Y-109484005D01*
X107886076Y-109548926D01*
X107943161Y-109578012D01*
X108000245Y-109607098D01*
X108094966Y-109622100D01*
X108094968Y-109622100D01*
X109333632Y-109622100D01*
X109333634Y-109622100D01*
X109428355Y-109607098D01*
X109431738Y-109605374D01*
X109436300Y-109604517D01*
X109437784Y-109604035D01*
X109437846Y-109604226D01*
X109501510Y-109592266D01*
X109567297Y-109618962D01*
X109608207Y-109676986D01*
X109613394Y-109737350D01*
X109609236Y-109763599D01*
X109609237Y-109763600D01*
X110335300Y-109763600D01*
X110843300Y-109763600D01*
X111569363Y-109763600D01*
X111569363Y-109763599D01*
X111565816Y-109741206D01*
X111565813Y-109741197D01*
X111507718Y-109627178D01*
X111507715Y-109627173D01*
X111417224Y-109536682D01*
X111303200Y-109478584D01*
X111208592Y-109463600D01*
X110843300Y-109463600D01*
X110843300Y-109763600D01*
X110335300Y-109763600D01*
X110335300Y-109463600D01*
X109970007Y-109463600D01*
X109875400Y-109478583D01*
X109875398Y-109478584D01*
X109872304Y-109480161D01*
X109868141Y-109480942D01*
X109865970Y-109481648D01*
X109865878Y-109481367D01*
X109802526Y-109493260D01*
X109736743Y-109466555D01*
X109695841Y-109408525D01*
X109690660Y-109348179D01*
X109691297Y-109344156D01*
X109691298Y-109344155D01*
X109706300Y-109249434D01*
X109706300Y-108885766D01*
X109691298Y-108791045D01*
X109691297Y-108791044D01*
X109690757Y-108787630D01*
X109699857Y-108717219D01*
X109745579Y-108662905D01*
X109813407Y-108641933D01*
X109865790Y-108654113D01*
X109865816Y-108654035D01*
X109866729Y-108654331D01*
X109872407Y-108655652D01*
X109875245Y-108657098D01*
X109969966Y-108672100D01*
X109969968Y-108672100D01*
X111208632Y-108672100D01*
X111208634Y-108672100D01*
X111303355Y-108657098D01*
X111417523Y-108598926D01*
X111508126Y-108508323D01*
X111566298Y-108394155D01*
X111581300Y-108299434D01*
X111581300Y-107935766D01*
X111566298Y-107841045D01*
X111518393Y-107747026D01*
X111508126Y-107726876D01*
X111417525Y-107636275D01*
X111417521Y-107636273D01*
X111405162Y-107629975D01*
X111353547Y-107581225D01*
X111336483Y-107512310D01*
X111355600Y-107456215D01*
X111355600Y-107443201D01*
X111863600Y-107443201D01*
X111866303Y-107442773D01*
X111866304Y-107442773D01*
X111976098Y-107386831D01*
X112063231Y-107299698D01*
X112119171Y-107189907D01*
X112127520Y-107137200D01*
X111863600Y-107137200D01*
X111863600Y-107443201D01*
X111355600Y-107443201D01*
X111355600Y-107009200D01*
X111375602Y-106941079D01*
X111429258Y-106894586D01*
X111481600Y-106883200D01*
X111609600Y-106883200D01*
X111609600Y-106755200D01*
X111629602Y-106687079D01*
X111683258Y-106640586D01*
X111735600Y-106629200D01*
X112127520Y-106629200D01*
X112119171Y-106576492D01*
X112063231Y-106466701D01*
X112010378Y-106413848D01*
X111976352Y-106351536D01*
X111981417Y-106280721D01*
X112010378Y-106235658D01*
X112026005Y-106220031D01*
X112063640Y-106182396D01*
X112119654Y-106072462D01*
X112134100Y-105981253D01*
X112134099Y-105549948D01*
X112119654Y-105458738D01*
X112063640Y-105348804D01*
X112026005Y-105311169D01*
X111991979Y-105248857D01*
X111989100Y-105222074D01*
X111989100Y-93715760D01*
X111989109Y-93715725D01*
X111989109Y-93663560D01*
X111989110Y-93663560D01*
X111989108Y-93434851D01*
X111953217Y-92978842D01*
X111881658Y-92527055D01*
X111774874Y-92082275D01*
X111633522Y-91647244D01*
X111458475Y-91224645D01*
X111250810Y-90817082D01*
X111011809Y-90427068D01*
X110906338Y-90281900D01*
X110764465Y-90086628D01*
X110742945Y-90057008D01*
X110445875Y-89709184D01*
X110319484Y-89582792D01*
X110319483Y-89582789D01*
X110284154Y-89547460D01*
X110284155Y-89547460D01*
X110245572Y-89508878D01*
X108891405Y-88154711D01*
X108857379Y-88092399D01*
X108854500Y-88065616D01*
X108854500Y-87935538D01*
X108854499Y-87935534D01*
X108850092Y-87913377D01*
X108829348Y-87809089D01*
X108780011Y-87689978D01*
X108708383Y-87582780D01*
X108708378Y-87582774D01*
X108617225Y-87491621D01*
X108617219Y-87491616D01*
X108581649Y-87467849D01*
X108510022Y-87419989D01*
X108390911Y-87370652D01*
X108264465Y-87345500D01*
X108258307Y-87344894D01*
X108258455Y-87343388D01*
X108197524Y-87325498D01*
X108185707Y-87316896D01*
X108185653Y-87316851D01*
X108185649Y-87316847D01*
X108041600Y-87220597D01*
X107881541Y-87154298D01*
X107792248Y-87136536D01*
X107727104Y-87123579D01*
X107664194Y-87090672D01*
X107629062Y-87028977D01*
X107632862Y-86958082D01*
X107674388Y-86900496D01*
X107727104Y-86876421D01*
X107753656Y-86871139D01*
X107881541Y-86845702D01*
X108041600Y-86779403D01*
X108185649Y-86683153D01*
X108185659Y-86683143D01*
X108185707Y-86683104D01*
X108185746Y-86683087D01*
X108190795Y-86679714D01*
X108191434Y-86680671D01*
X108251053Y-86655348D01*
X108262757Y-86654667D01*
X108264455Y-86654500D01*
X108264463Y-86654500D01*
X108390911Y-86629348D01*
X108510022Y-86580011D01*
X108617220Y-86508383D01*
X108708383Y-86417220D01*
X108780011Y-86310022D01*
X108829348Y-86190911D01*
X108854500Y-86064463D01*
X108854500Y-85935537D01*
X108829348Y-85809089D01*
X108780011Y-85689978D01*
X108708383Y-85582780D01*
X108708378Y-85582774D01*
X108617225Y-85491621D01*
X108617219Y-85491616D01*
X108581649Y-85467849D01*
X108510022Y-85419989D01*
X108390911Y-85370652D01*
X108264465Y-85345500D01*
X108258307Y-85344894D01*
X108258455Y-85343388D01*
X108197524Y-85325498D01*
X108185707Y-85316896D01*
X108185653Y-85316851D01*
X108185649Y-85316847D01*
X108041600Y-85220597D01*
X107881541Y-85154298D01*
X107832993Y-85144641D01*
X107711628Y-85120500D01*
X107711623Y-85120500D01*
X106288377Y-85120500D01*
X106288371Y-85120500D01*
X106142733Y-85149469D01*
X106118459Y-85154298D01*
X106118456Y-85154298D01*
X106118453Y-85154300D01*
X105958400Y-85220597D01*
X105814352Y-85316846D01*
X105814346Y-85316851D01*
X105691851Y-85439346D01*
X105691846Y-85439352D01*
X105595597Y-85583400D01*
X105529300Y-85743453D01*
X105529298Y-85743460D01*
X105495500Y-85913371D01*
X105495500Y-86086628D01*
X105521412Y-86216898D01*
X105515084Y-86287612D01*
X105486929Y-86330574D01*
X105195663Y-86621843D01*
X105195638Y-86621856D01*
X105035620Y-86781874D01*
X105035602Y-86781893D01*
X104814660Y-87051113D01*
X104814649Y-87051128D01*
X104621155Y-87340713D01*
X104456971Y-87647881D01*
X104323686Y-87969660D01*
X104222580Y-88302968D01*
X104154635Y-88644564D01*
X104120499Y-88991158D01*
X104120499Y-88991172D01*
X104120500Y-89115355D01*
X104120500Y-91936302D01*
X104120508Y-91936431D01*
X104120508Y-92094805D01*
X104153875Y-92518794D01*
X104154422Y-92525738D01*
X104210464Y-92879580D01*
X104222039Y-92952662D01*
X104255477Y-93091943D01*
X104322948Y-93372984D01*
X104456517Y-93784070D01*
X104621934Y-94183422D01*
X104621939Y-94183433D01*
X104818171Y-94568564D01*
X104818172Y-94568565D01*
X104818175Y-94568570D01*
X104955261Y-94792275D01*
X105044033Y-94937137D01*
X105044035Y-94937139D01*
X105298100Y-95286830D01*
X105543804Y-95574514D01*
X105578828Y-95615521D01*
X105578837Y-95615530D01*
X105729898Y-95766592D01*
X105733327Y-95770158D01*
X105981028Y-96038120D01*
X105987453Y-96045643D01*
X106211828Y-96330262D01*
X106217643Y-96338266D01*
X106418990Y-96639605D01*
X106424160Y-96648041D01*
X106601253Y-96964264D01*
X106605744Y-96973079D01*
X106757473Y-97302207D01*
X106761259Y-97311347D01*
X106886703Y-97651377D01*
X106889760Y-97660787D01*
X106988132Y-98009592D01*
X106990442Y-98019212D01*
X107061147Y-98374675D01*
X107062695Y-98384447D01*
X107105293Y-98744366D01*
X107106069Y-98754229D01*
X107120403Y-99119082D01*
X107120500Y-99124028D01*
X107120500Y-99247521D01*
X107120403Y-99252468D01*
X107105119Y-99641463D01*
X107104343Y-99651325D01*
X107058877Y-100035471D01*
X107057329Y-100045244D01*
X106981864Y-100424630D01*
X106979554Y-100434249D01*
X106874560Y-100806533D01*
X106871503Y-100815943D01*
X106737617Y-101178858D01*
X106733831Y-101187998D01*
X106571888Y-101539279D01*
X106567397Y-101548094D01*
X106378385Y-101885601D01*
X106373215Y-101894037D01*
X106158315Y-102215658D01*
X106152500Y-102223661D01*
X105913024Y-102527437D01*
X105906599Y-102534961D01*
X105642438Y-102820729D01*
X105639008Y-102824295D01*
X99860500Y-108602805D01*
X99860486Y-108602812D01*
X99736073Y-108727226D01*
X99736063Y-108727237D01*
X99585378Y-108923616D01*
X99465683Y-109130938D01*
X99414300Y-109179932D01*
X99344587Y-109193369D01*
X99278676Y-109166982D01*
X99237634Y-109109555D01*
X99178711Y-108941166D01*
X99152457Y-108866138D01*
X99036898Y-108626182D01*
X98895200Y-108400674D01*
X98895195Y-108400667D01*
X98895192Y-108400663D01*
X98729152Y-108192459D01*
X98729143Y-108192449D01*
X98688034Y-108151340D01*
X98688032Y-108151337D01*
X93608711Y-103072017D01*
X93605297Y-103068468D01*
X93340491Y-102782001D01*
X93334070Y-102774482D01*
X93094129Y-102470116D01*
X93088314Y-102462113D01*
X92872989Y-102139857D01*
X92867830Y-102131438D01*
X92678439Y-101793258D01*
X92673965Y-101784477D01*
X92511690Y-101432477D01*
X92507917Y-101423367D01*
X92373759Y-101059722D01*
X92370711Y-101050338D01*
X92265505Y-100677314D01*
X92263196Y-100667695D01*
X92251668Y-100609739D01*
X92187581Y-100287562D01*
X92186035Y-100277800D01*
X92177289Y-100203907D01*
X92140477Y-99892895D01*
X92139897Y-99885528D01*
X92545500Y-99885528D01*
X92545500Y-100114472D01*
X92581314Y-100340596D01*
X92581315Y-100340599D01*
X92608618Y-100424630D01*
X92652062Y-100558334D01*
X92756000Y-100762324D01*
X92890569Y-100947543D01*
X92890571Y-100947545D01*
X92890573Y-100947548D01*
X93052451Y-101109426D01*
X93052454Y-101109428D01*
X93052457Y-101109431D01*
X93237676Y-101244000D01*
X93441666Y-101347938D01*
X93659404Y-101418686D01*
X93885528Y-101454500D01*
X93885531Y-101454500D01*
X94114469Y-101454500D01*
X94114472Y-101454500D01*
X94340596Y-101418686D01*
X94558334Y-101347938D01*
X94762324Y-101244000D01*
X94947543Y-101109431D01*
X95109431Y-100947543D01*
X95244000Y-100762324D01*
X95347938Y-100558334D01*
X95418686Y-100340596D01*
X95454500Y-100114472D01*
X95454500Y-99885528D01*
X95440335Y-99796092D01*
X95849500Y-99796092D01*
X95849500Y-100203907D01*
X95889470Y-100609723D01*
X95889473Y-100609744D01*
X95969026Y-101009691D01*
X95969029Y-101009702D01*
X95969030Y-101009705D01*
X96066356Y-101330546D01*
X96087409Y-101399947D01*
X96087410Y-101399951D01*
X96243468Y-101776707D01*
X96435705Y-102136359D01*
X96662262Y-102475424D01*
X96662273Y-102475439D01*
X96920968Y-102790661D01*
X96920986Y-102790680D01*
X97209319Y-103079013D01*
X97209338Y-103079031D01*
X97524560Y-103337726D01*
X97524569Y-103337733D01*
X97863643Y-103564296D01*
X98223293Y-103756532D01*
X98600053Y-103912591D01*
X98990295Y-104030970D01*
X98990304Y-104030971D01*
X98990308Y-104030973D01*
X99126000Y-104057963D01*
X99390261Y-104110528D01*
X99796099Y-104150500D01*
X99796108Y-104150500D01*
X100203892Y-104150500D01*
X100203901Y-104150500D01*
X100609739Y-104110528D01*
X100939171Y-104045000D01*
X101009691Y-104030973D01*
X101009693Y-104030972D01*
X101009705Y-104030970D01*
X101399947Y-103912591D01*
X101776707Y-103756532D01*
X102136357Y-103564296D01*
X102475431Y-103337733D01*
X102790667Y-103079026D01*
X103079026Y-102790667D01*
X103337733Y-102475431D01*
X103564296Y-102136357D01*
X103756532Y-101776707D01*
X103912591Y-101399947D01*
X104030970Y-101009705D01*
X104110528Y-100609739D01*
X104150500Y-100203901D01*
X104150500Y-99796099D01*
X104110528Y-99390261D01*
X104056587Y-99119082D01*
X104030973Y-98990308D01*
X104030971Y-98990304D01*
X104030970Y-98990295D01*
X103912591Y-98600053D01*
X103904829Y-98581315D01*
X103823284Y-98384447D01*
X103756532Y-98223293D01*
X103564296Y-97863643D01*
X103337733Y-97524569D01*
X103162747Y-97311347D01*
X103079031Y-97209338D01*
X103079013Y-97209319D01*
X102790680Y-96920986D01*
X102790661Y-96920968D01*
X102475439Y-96662273D01*
X102475424Y-96662262D01*
X102136359Y-96435705D01*
X101776707Y-96243468D01*
X101399951Y-96087410D01*
X101399947Y-96087409D01*
X101319056Y-96062871D01*
X101009705Y-95969030D01*
X101009702Y-95969029D01*
X101009691Y-95969026D01*
X100609744Y-95889473D01*
X100609739Y-95889472D01*
X100609732Y-95889471D01*
X100609723Y-95889470D01*
X100203907Y-95849500D01*
X100203901Y-95849500D01*
X99796099Y-95849500D01*
X99796092Y-95849500D01*
X99390276Y-95889470D01*
X99390264Y-95889471D01*
X99390261Y-95889472D01*
X99390258Y-95889472D01*
X99390255Y-95889473D01*
X98990308Y-95969026D01*
X98600052Y-96087409D01*
X98600048Y-96087410D01*
X98223292Y-96243468D01*
X97863640Y-96435705D01*
X97524575Y-96662262D01*
X97524560Y-96662273D01*
X97209338Y-96920968D01*
X97209319Y-96920986D01*
X96920986Y-97209319D01*
X96920968Y-97209338D01*
X96662273Y-97524560D01*
X96662262Y-97524575D01*
X96435705Y-97863640D01*
X96243468Y-98223292D01*
X96087410Y-98600048D01*
X96087409Y-98600052D01*
X95969026Y-98990308D01*
X95889473Y-99390255D01*
X95889470Y-99390276D01*
X95849500Y-99796092D01*
X95440335Y-99796092D01*
X95418686Y-99659404D01*
X95347938Y-99441666D01*
X95244000Y-99237676D01*
X95109431Y-99052457D01*
X95109428Y-99052454D01*
X95109426Y-99052451D01*
X94947548Y-98890573D01*
X94947545Y-98890571D01*
X94947543Y-98890569D01*
X94762324Y-98756000D01*
X94558334Y-98652062D01*
X94558333Y-98652061D01*
X94558332Y-98652061D01*
X94340599Y-98581315D01*
X94340596Y-98581314D01*
X94114472Y-98545500D01*
X93885528Y-98545500D01*
X93659404Y-98581314D01*
X93659401Y-98581314D01*
X93659400Y-98581315D01*
X93441667Y-98652061D01*
X93237672Y-98756002D01*
X93052454Y-98890571D01*
X93052451Y-98890573D01*
X92890573Y-99052451D01*
X92890571Y-99052454D01*
X92756002Y-99237672D01*
X92652061Y-99441667D01*
X92587143Y-99641463D01*
X92581314Y-99659404D01*
X92545500Y-99885528D01*
X92139897Y-99885528D01*
X92139702Y-99883047D01*
X92136938Y-99812717D01*
X92124397Y-99493555D01*
X92124300Y-99488608D01*
X92124300Y-95024091D01*
X92124570Y-95015848D01*
X92128108Y-94961878D01*
X92138849Y-94798043D01*
X92140998Y-94781730D01*
X92182780Y-94571700D01*
X92187041Y-94555800D01*
X92255882Y-94353018D01*
X92262179Y-94337815D01*
X92356899Y-94145757D01*
X92365132Y-94131497D01*
X92484112Y-93953441D01*
X92494125Y-93940394D01*
X92638528Y-93775743D01*
X92644135Y-93769759D01*
X92679322Y-93734574D01*
X92679324Y-93734569D01*
X92921305Y-93492587D01*
X92921331Y-93492573D01*
X92958218Y-93455684D01*
X92958219Y-93455685D01*
X93024881Y-93389021D01*
X93139662Y-93239432D01*
X93233936Y-93076140D01*
X93240190Y-93061039D01*
X93283168Y-92957282D01*
X93327716Y-92902001D01*
X93395079Y-92879580D01*
X93399577Y-92879500D01*
X93711622Y-92879500D01*
X93711623Y-92879500D01*
X93881541Y-92845702D01*
X94041600Y-92779403D01*
X94185649Y-92683153D01*
X94308153Y-92560649D01*
X94404403Y-92416600D01*
X94470702Y-92256541D01*
X94504500Y-92086623D01*
X94504500Y-91913377D01*
X94470702Y-91743459D01*
X94404403Y-91583400D01*
X94308153Y-91439351D01*
X94185649Y-91316847D01*
X94041600Y-91220597D01*
X93881541Y-91154298D01*
X93792248Y-91136536D01*
X93727104Y-91123579D01*
X93664194Y-91090672D01*
X93629062Y-91028977D01*
X93632862Y-90958082D01*
X93674388Y-90900496D01*
X93727104Y-90876421D01*
X93753656Y-90871139D01*
X93881541Y-90845702D01*
X94041600Y-90779403D01*
X94185649Y-90683153D01*
X94308153Y-90560649D01*
X94404403Y-90416600D01*
X94470702Y-90256541D01*
X94504500Y-90086623D01*
X94504500Y-89913377D01*
X94502999Y-89905833D01*
X94495111Y-89866175D01*
X94470702Y-89743459D01*
X94404403Y-89583400D01*
X94308153Y-89439351D01*
X94185649Y-89316847D01*
X94041600Y-89220597D01*
X93881541Y-89154298D01*
X93792248Y-89136536D01*
X93727104Y-89123579D01*
X93664194Y-89090672D01*
X93629062Y-89028977D01*
X93632862Y-88958082D01*
X93674388Y-88900496D01*
X93727104Y-88876421D01*
X93753656Y-88871139D01*
X93881541Y-88845702D01*
X94041600Y-88779403D01*
X94185649Y-88683153D01*
X94308153Y-88560649D01*
X94404403Y-88416600D01*
X94470702Y-88256541D01*
X94504500Y-88086623D01*
X94504500Y-87913377D01*
X94470702Y-87743459D01*
X94404403Y-87583400D01*
X94308153Y-87439351D01*
X94185649Y-87316847D01*
X94041600Y-87220597D01*
X93881541Y-87154298D01*
X93792248Y-87136536D01*
X93727104Y-87123579D01*
X93664194Y-87090672D01*
X93629062Y-87028977D01*
X93632862Y-86958082D01*
X93674388Y-86900496D01*
X93727104Y-86876421D01*
X93753656Y-86871139D01*
X93881541Y-86845702D01*
X94041600Y-86779403D01*
X94185649Y-86683153D01*
X94308153Y-86560649D01*
X94404403Y-86416600D01*
X94470702Y-86256541D01*
X94504500Y-86086623D01*
X94504500Y-85913377D01*
X94470702Y-85743459D01*
X94404403Y-85583400D01*
X94308153Y-85439351D01*
X94185649Y-85316847D01*
X94041600Y-85220597D01*
X93881541Y-85154298D01*
X93832993Y-85144641D01*
X93711628Y-85120500D01*
X93711623Y-85120500D01*
X92288377Y-85120500D01*
X92288371Y-85120500D01*
X92142733Y-85149469D01*
X92118459Y-85154298D01*
X92118456Y-85154298D01*
X92118453Y-85154300D01*
X91958400Y-85220597D01*
X91814356Y-85316843D01*
X91814293Y-85316896D01*
X91814253Y-85316912D01*
X91809205Y-85320286D01*
X91808565Y-85319328D01*
X91748947Y-85344652D01*
X91737242Y-85345332D01*
X91735534Y-85345500D01*
X91609088Y-85370652D01*
X91609083Y-85370654D01*
X91489978Y-85419989D01*
X91382780Y-85491616D01*
X91382774Y-85491621D01*
X91291621Y-85582774D01*
X91291616Y-85582780D01*
X91219989Y-85689978D01*
X91170654Y-85809083D01*
X91170652Y-85809088D01*
X91145500Y-85935534D01*
X91145500Y-86065614D01*
X91125498Y-86133735D01*
X91108595Y-86154709D01*
X88254227Y-89009076D01*
X88253818Y-89009541D01*
X88133377Y-89129981D01*
X88133349Y-89130011D01*
X87836274Y-89477833D01*
X87567421Y-89847871D01*
X87567411Y-89847885D01*
X87328410Y-90237892D01*
X87328403Y-90237905D01*
X87120744Y-90645447D01*
X86955138Y-91045247D01*
X86945692Y-91068051D01*
X86807733Y-91492637D01*
X86804338Y-91503084D01*
X86804332Y-91503104D01*
X86697555Y-91947847D01*
X86697552Y-91947862D01*
X86625994Y-92399641D01*
X86625993Y-92399651D01*
X86590102Y-92855638D01*
X86590101Y-92855643D01*
X86590100Y-93034399D01*
X86590100Y-101376638D01*
X86590090Y-101376672D01*
X82658188Y-101376672D01*
X82642530Y-101207695D01*
X82642129Y-101201908D01*
X82641063Y-101178858D01*
X82605276Y-100404790D01*
X82605142Y-100398971D01*
X82605142Y-99601028D01*
X82605276Y-99595209D01*
X82610101Y-99490839D01*
X82642130Y-98798069D01*
X82642530Y-98792307D01*
X82716162Y-97997686D01*
X82716824Y-97991976D01*
X82827078Y-97201592D01*
X82828002Y-97195932D01*
X82974643Y-96411469D01*
X82975830Y-96405847D01*
X83158539Y-95629015D01*
X83159983Y-95623458D01*
X83378376Y-94855880D01*
X83380073Y-94850402D01*
X83633684Y-94093729D01*
X83635629Y-94088343D01*
X83923929Y-93344153D01*
X83926113Y-93338883D01*
X84248453Y-92608851D01*
X84250905Y-92603627D01*
X84606615Y-91889264D01*
X84609325Y-91884127D01*
X84997621Y-91187002D01*
X85000545Y-91182027D01*
X85420631Y-90503564D01*
X85423788Y-90498718D01*
X85874788Y-89840340D01*
X85878146Y-89835673D01*
X86359055Y-89198847D01*
X86362638Y-89194323D01*
X86872448Y-88580381D01*
X86876236Y-88576029D01*
X87413869Y-87986274D01*
X87417846Y-87982109D01*
X87982109Y-87417846D01*
X87986274Y-87413869D01*
X88576029Y-86876236D01*
X88580381Y-86872448D01*
X89194323Y-86362638D01*
X89198847Y-86359055D01*
X89835673Y-85878146D01*
X89840340Y-85874788D01*
X90498718Y-85423788D01*
X90503564Y-85420631D01*
X91182027Y-85000545D01*
X91187002Y-84997621D01*
X91365813Y-84898024D01*
X98899500Y-84898024D01*
X98899500Y-84980009D01*
X98899500Y-90973071D01*
X98899500Y-91000000D01*
X98899500Y-91101976D01*
X98927607Y-91252336D01*
X98936976Y-91302457D01*
X98942570Y-91316896D01*
X99010652Y-91492637D01*
X99010653Y-91492638D01*
X99010658Y-91492648D01*
X99118017Y-91666039D01*
X99118018Y-91666040D01*
X99255421Y-91816765D01*
X99412698Y-91935534D01*
X99418179Y-91939673D01*
X99600750Y-92030582D01*
X99796917Y-92086397D01*
X100000000Y-92105215D01*
X100203083Y-92086397D01*
X100399250Y-92030582D01*
X100581821Y-91939673D01*
X100744579Y-91816764D01*
X100881981Y-91666041D01*
X100989348Y-91492637D01*
X101063024Y-91302456D01*
X101100500Y-91101976D01*
X101100500Y-91000000D01*
X101100500Y-90973071D01*
X101100500Y-84980009D01*
X101100500Y-84898024D01*
X101063024Y-84697544D01*
X100989348Y-84507363D01*
X100984953Y-84500265D01*
X100881982Y-84333960D01*
X100881981Y-84333959D01*
X100744578Y-84183234D01*
X100581824Y-84060329D01*
X100581822Y-84060328D01*
X100581821Y-84060327D01*
X100399250Y-83969418D01*
X100399247Y-83969417D01*
X100399245Y-83969416D01*
X100203084Y-83913603D01*
X100000000Y-83894785D01*
X99796915Y-83913603D01*
X99600754Y-83969416D01*
X99418175Y-84060329D01*
X99255421Y-84183234D01*
X99118018Y-84333959D01*
X99118017Y-84333960D01*
X99010658Y-84507351D01*
X99010653Y-84507361D01*
X98936976Y-84697542D01*
X98918238Y-84797784D01*
X98899500Y-84898024D01*
X91365813Y-84898024D01*
X91884138Y-84609318D01*
X91889264Y-84606615D01*
X92603627Y-84250905D01*
X92608851Y-84248453D01*
X93338883Y-83926113D01*
X93344153Y-83923929D01*
X94088343Y-83635629D01*
X94093729Y-83633684D01*
X94850402Y-83380073D01*
X94855880Y-83378376D01*
X95623458Y-83159983D01*
X95629015Y-83158539D01*
X96405847Y-82975830D01*
X96411469Y-82974643D01*
X97195932Y-82828002D01*
X97201592Y-82827078D01*
X97991976Y-82716824D01*
X97997686Y-82716162D01*
X98792307Y-82642530D01*
X98798069Y-82642130D01*
X99595210Y-82605276D01*
X99601029Y-82605142D01*
X100398971Y-82605142D01*
X100404790Y-82605276D01*
G37*
%TD.AperFunction*%
%TD*%
M02*
