ISO-10303-21;
HEADER;
FILE_DESCRIPTION(('FreeCAD Model'),'2;1');
FILE_NAME('Open CASCADE Shape Model','2025-03-24T22:18:08',(''),(''),
  'Open CASCADE STEP processor 7.8','FreeCAD','Unknown');
FILE_SCHEMA(('AUTOMOTIVE_DESIGN { 1 0 10303 214 1 1 1 1 }'));
ENDSEC;
DATA;
#1 = APPLICATION_PROTOCOL_DEFINITION('international standard',
  'automotive_design',2000,#2);
#2 = APPLICATION_CONTEXT(
  'core data for automotive mechanical design processes');
#3 = SHAPE_DEFINITION_REPRESENTATION(#4,#10);
#4 = PRODUCT_DEFINITION_SHAPE('','',#5);
#5 = PRODUCT_DEFINITION('design','',#6,#9);
#6 = PRODUCT_DEFINITION_FORMATION('','',#7);
#7 = PRODUCT('MountBase','MountBase','',(#8));
#8 = PRODUCT_CONTEXT('',#2,'mechanical');
#9 = PRODUCT_DEFINITION_CONTEXT('part definition',#2,'design');
#10 = ADVANCED_BREP_SHAPE_REPRESENTATION('',(#11,#15),#1418);
#11 = AXIS2_PLACEMENT_3D('',#12,#13,#14);
#12 = CARTESIAN_POINT('',(0.,0.,0.));
#13 = DIRECTION('',(0.,0.,1.));
#14 = DIRECTION('',(1.,0.,-0.));
#15 = MANIFOLD_SOLID_BREP('',#16);
#16 = CLOSED_SHELL('',(#17,#50,#70,#90,#115,#157,#189,#238,#280,#312,
    #361,#410,#459,#483,#525,#598,#610,#628,#646,#664,#697,#737,#768,
    #799,#830,#861,#885,#909,#933,#959,#993,#1027,#1051,#1063,#1096,
    #1184,#1215,#1239,#1263,#1281,#1306,#1331,#1356,#1373,#1385));
#17 = ADVANCED_FACE('',(#18),#45,.T.);
#18 = FACE_BOUND('',#19,.T.);
#19 = EDGE_LOOP('',(#20,#29,#37,#44));
#20 = ORIENTED_EDGE('',*,*,#21,.F.);
#21 = EDGE_CURVE('',#22,#22,#24,.T.);
#22 = VERTEX_POINT('',#23);
#23 = CARTESIAN_POINT('',(-21.5,-2.559443990801E-15,4.5));
#24 = CIRCLE('',#25,21.5);
#25 = AXIS2_PLACEMENT_3D('',#26,#27,#28);
#26 = CARTESIAN_POINT('',(0.,7.354662736538E-17,4.5));
#27 = DIRECTION('',(0.,0.,1.));
#28 = DIRECTION('',(1.,0.,-0.));
#29 = ORIENTED_EDGE('',*,*,#30,.T.);
#30 = EDGE_CURVE('',#22,#31,#33,.T.);
#31 = VERTEX_POINT('',#32);
#32 = CARTESIAN_POINT('',(-21.5,-2.559443990801E-15,3.));
#33 = LINE('',#34,#35);
#34 = CARTESIAN_POINT('',(-21.5,-2.559443990801E-15,3.));
#35 = VECTOR('',#36,1.);
#36 = DIRECTION('',(0.,0.,-1.));
#37 = ORIENTED_EDGE('',*,*,#38,.T.);
#38 = EDGE_CURVE('',#31,#31,#39,.T.);
#39 = CIRCLE('',#40,21.5);
#40 = AXIS2_PLACEMENT_3D('',#41,#42,#43);
#41 = CARTESIAN_POINT('',(0.,7.354662736538E-17,3.));
#42 = DIRECTION('',(0.,0.,1.));
#43 = DIRECTION('',(1.,0.,-0.));
#44 = ORIENTED_EDGE('',*,*,#30,.F.);
#45 = CYLINDRICAL_SURFACE('',#46,21.5);
#46 = AXIS2_PLACEMENT_3D('',#47,#48,#49);
#47 = CARTESIAN_POINT('',(0.,7.354662736538E-17,3.));
#48 = DIRECTION('',(0.,0.,1.));
#49 = DIRECTION('',(1.,0.,-0.));
#50 = ADVANCED_FACE('',(#51,#54),#65,.T.);
#51 = FACE_BOUND('',#52,.T.);
#52 = EDGE_LOOP('',(#53));
#53 = ORIENTED_EDGE('',*,*,#21,.T.);
#54 = FACE_BOUND('',#55,.T.);
#55 = EDGE_LOOP('',(#56));
#56 = ORIENTED_EDGE('',*,*,#57,.F.);
#57 = EDGE_CURVE('',#58,#58,#60,.T.);
#58 = VERTEX_POINT('',#59);
#59 = CARTESIAN_POINT('',(-15.,-1.836970198721E-15,4.5));
#60 = CIRCLE('',#61,15.);
#61 = AXIS2_PLACEMENT_3D('',#62,#63,#64);
#62 = CARTESIAN_POINT('',(0.,0.,4.5));
#63 = DIRECTION('',(0.,0.,1.));
#64 = DIRECTION('',(1.,0.,-0.));
#65 = PLANE('',#66);
#66 = AXIS2_PLACEMENT_3D('',#67,#68,#69);
#67 = CARTESIAN_POINT('',(0.,0.,4.5));
#68 = DIRECTION('',(0.,0.,1.));
#69 = DIRECTION('',(1.,0.,-0.));
#70 = ADVANCED_FACE('',(#71,#74),#85,.F.);
#71 = FACE_BOUND('',#72,.T.);
#72 = EDGE_LOOP('',(#73));
#73 = ORIENTED_EDGE('',*,*,#38,.F.);
#74 = FACE_BOUND('',#75,.T.);
#75 = EDGE_LOOP('',(#76));
#76 = ORIENTED_EDGE('',*,*,#77,.F.);
#77 = EDGE_CURVE('',#78,#78,#80,.T.);
#78 = VERTEX_POINT('',#79);
#79 = CARTESIAN_POINT('',(-15.,-1.836970198721E-15,3.));
#80 = CIRCLE('',#81,15.);
#81 = AXIS2_PLACEMENT_3D('',#82,#83,#84);
#82 = CARTESIAN_POINT('',(0.,0.,3.));
#83 = DIRECTION('',(0.,0.,-1.));
#84 = DIRECTION('',(1.,0.,0.));
#85 = PLANE('',#86);
#86 = AXIS2_PLACEMENT_3D('',#87,#88,#89);
#87 = CARTESIAN_POINT('',(0.,0.,3.));
#88 = DIRECTION('',(0.,0.,1.));
#89 = DIRECTION('',(1.,0.,-0.));
#90 = ADVANCED_FACE('',(#91),#110,.T.);
#91 = FACE_BOUND('',#92,.T.);
#92 = EDGE_LOOP('',(#93,#94,#102,#109));
#93 = ORIENTED_EDGE('',*,*,#77,.T.);
#94 = ORIENTED_EDGE('',*,*,#95,.T.);
#95 = EDGE_CURVE('',#78,#96,#98,.T.);
#96 = VERTEX_POINT('',#97);
#97 = CARTESIAN_POINT('',(-15.,-1.836970198721E-15,0.));
#98 = LINE('',#99,#100);
#99 = CARTESIAN_POINT('',(-15.,-1.836970198721E-15,0.));
#100 = VECTOR('',#101,1.);
#101 = DIRECTION('',(0.,0.,-1.));
#102 = ORIENTED_EDGE('',*,*,#103,.T.);
#103 = EDGE_CURVE('',#96,#96,#104,.T.);
#104 = CIRCLE('',#105,15.);
#105 = AXIS2_PLACEMENT_3D('',#106,#107,#108);
#106 = CARTESIAN_POINT('',(0.,0.,0.));
#107 = DIRECTION('',(0.,0.,1.));
#108 = DIRECTION('',(1.,0.,-0.));
#109 = ORIENTED_EDGE('',*,*,#95,.F.);
#110 = CYLINDRICAL_SURFACE('',#111,15.);
#111 = AXIS2_PLACEMENT_3D('',#112,#113,#114);
#112 = CARTESIAN_POINT('',(0.,0.,0.));
#113 = DIRECTION('',(0.,0.,1.));
#114 = DIRECTION('',(1.,0.,-0.));
#115 = ADVANCED_FACE('',(#116),#152,.T.);
#116 = FACE_BOUND('',#117,.T.);
#117 = EDGE_LOOP('',(#118,#128,#137,#145));
#118 = ORIENTED_EDGE('',*,*,#119,.T.);
#119 = EDGE_CURVE('',#120,#122,#124,.T.);
#120 = VERTEX_POINT('',#121);
#121 = CARTESIAN_POINT('',(-2.396216183004,-0.87215136548,21.95));
#122 = VERTEX_POINT('',#123);
#123 = CARTESIAN_POINT('',(-2.584154707161,-0.940555394146,21.75));
#124 = LINE('',#125,#126);
#125 = CARTESIAN_POINT('',(-2.490185445083,-0.906353379813,21.85));
#126 = VECTOR('',#127,1.);
#127 = DIRECTION('',(-0.664463024389,-0.241844762648,-0.707106781187));
#128 = ORIENTED_EDGE('',*,*,#129,.T.);
#129 = EDGE_CURVE('',#122,#130,#132,.T.);
#130 = VERTEX_POINT('',#131);
#131 = CARTESIAN_POINT('',(2.584154707161,-0.940555394146,21.75));
#132 = CIRCLE('',#133,2.75);
#133 = AXIS2_PLACEMENT_3D('',#134,#135,#136);
#134 = CARTESIAN_POINT('',(0.,7.354662736538E-17,21.75));
#135 = DIRECTION('',(0.,0.,1.));
#136 = DIRECTION('',(1.,0.,-0.));
#137 = ORIENTED_EDGE('',*,*,#138,.T.);
#138 = EDGE_CURVE('',#130,#139,#141,.T.);
#139 = VERTEX_POINT('',#140);
#140 = CARTESIAN_POINT('',(2.396216183004,-0.87215136548,21.95));
#141 = LINE('',#142,#143);
#142 = CARTESIAN_POINT('',(2.490185445083,-0.906353379813,21.85));
#143 = VECTOR('',#144,1.);
#144 = DIRECTION('',(-0.664463024389,0.241844762648,0.707106781187));
#145 = ORIENTED_EDGE('',*,*,#146,.T.);
#146 = EDGE_CURVE('',#139,#120,#147,.T.);
#147 = CIRCLE('',#148,2.55);
#148 = AXIS2_PLACEMENT_3D('',#149,#150,#151);
#149 = CARTESIAN_POINT('',(0.,7.354662736538E-17,21.95));
#150 = DIRECTION('',(0.,0.,-1.));
#151 = DIRECTION('',(1.,0.,0.));
#152 = CONICAL_SURFACE('',#153,2.65,0.785398163397);
#153 = AXIS2_PLACEMENT_3D('',#154,#155,#156);
#154 = CARTESIAN_POINT('',(0.,7.354662736538E-17,21.85));
#155 = DIRECTION('',(0.,0.,-1.));
#156 = DIRECTION('',(1.,0.,0.));
#157 = ADVANCED_FACE('',(#158),#184,.T.);
#158 = FACE_BOUND('',#159,.T.);
#159 = EDGE_LOOP('',(#160,#161,#169,#178));
#160 = ORIENTED_EDGE('',*,*,#129,.F.);
#161 = ORIENTED_EDGE('',*,*,#162,.T.);
#162 = EDGE_CURVE('',#122,#163,#165,.T.);
#163 = VERTEX_POINT('',#164);
#164 = CARTESIAN_POINT('',(-2.584154707161,-0.940555394146,21.205));
#165 = LINE('',#166,#167);
#166 = CARTESIAN_POINT('',(-2.584154707161,-0.940555394146,3.4));
#167 = VECTOR('',#168,1.);
#168 = DIRECTION('',(0.,0.,-1.));
#169 = ORIENTED_EDGE('',*,*,#170,.T.);
#170 = EDGE_CURVE('',#163,#171,#173,.T.);
#171 = VERTEX_POINT('',#172);
#172 = CARTESIAN_POINT('',(2.584154707161,-0.940555394146,21.205));
#173 = CIRCLE('',#174,2.75);
#174 = AXIS2_PLACEMENT_3D('',#175,#176,#177);
#175 = CARTESIAN_POINT('',(0.,0.,21.205));
#176 = DIRECTION('',(0.,0.,1.));
#177 = DIRECTION('',(1.,0.,-0.));
#178 = ORIENTED_EDGE('',*,*,#179,.T.);
#179 = EDGE_CURVE('',#171,#130,#180,.T.);
#180 = LINE('',#181,#182);
#181 = CARTESIAN_POINT('',(2.584154707161,-0.940555394146,3.4));
#182 = VECTOR('',#183,1.);
#183 = DIRECTION('',(0.,0.,1.));
#184 = CYLINDRICAL_SURFACE('',#185,2.75);
#185 = AXIS2_PLACEMENT_3D('',#186,#187,#188);
#186 = CARTESIAN_POINT('',(0.,7.354662736538E-17,3.4));
#187 = DIRECTION('',(0.,0.,1.));
#188 = DIRECTION('',(1.,0.,-0.));
#189 = ADVANCED_FACE('',(#190),#233,.F.);
#190 = FACE_BOUND('',#191,.T.);
#191 = EDGE_LOOP('',(#192,#193,#201,#209,#217,#225,#232));
#192 = ORIENTED_EDGE('',*,*,#119,.F.);
#193 = ORIENTED_EDGE('',*,*,#194,.F.);
#194 = EDGE_CURVE('',#195,#120,#197,.T.);
#195 = VERTEX_POINT('',#196);
#196 = CARTESIAN_POINT('',(-1.409538931179,-0.513030214989,21.95));
#197 = LINE('',#198,#199);
#198 = CARTESIAN_POINT('',(-0.704769465589,-0.256515107494,21.95));
#199 = VECTOR('',#200,1.);
#200 = DIRECTION('',(-0.939692620786,-0.342020143326,0.));
#201 = ORIENTED_EDGE('',*,*,#202,.F.);
#202 = EDGE_CURVE('',#203,#195,#205,.T.);
#203 = VERTEX_POINT('',#204);
#204 = CARTESIAN_POINT('',(-1.409538931179,-0.513030214989,19.55));
#205 = LINE('',#206,#207);
#206 = CARTESIAN_POINT('',(-1.409538931179,-0.513030214989,0.));
#207 = VECTOR('',#208,1.);
#208 = DIRECTION('',(0.,0.,1.));
#209 = ORIENTED_EDGE('',*,*,#210,.T.);
#210 = EDGE_CURVE('',#203,#211,#213,.T.);
#211 = VERTEX_POINT('',#212);
#212 = CARTESIAN_POINT('',(-2.584154707161,-0.940555394146,19.55));
#213 = LINE('',#214,#215);
#214 = CARTESIAN_POINT('',(0.,-7.354662736538E-17,19.55));
#215 = VECTOR('',#216,1.);
#216 = DIRECTION('',(-0.939692620786,-0.342020143326,0.));
#217 = ORIENTED_EDGE('',*,*,#218,.F.);
#218 = EDGE_CURVE('',#219,#211,#221,.T.);
#219 = VERTEX_POINT('',#220);
#220 = CARTESIAN_POINT('',(-2.584154707161,-0.940555394146,20.605));
#221 = LINE('',#222,#223);
#222 = CARTESIAN_POINT('',(-2.584154707161,-0.940555394146,3.4));
#223 = VECTOR('',#224,1.);
#224 = DIRECTION('',(0.,0.,-1.));
#225 = ORIENTED_EDGE('',*,*,#226,.F.);
#226 = EDGE_CURVE('',#163,#219,#227,.T.);
#227 = CIRCLE('',#228,0.3);
#228 = AXIS2_PLACEMENT_3D('',#229,#230,#231);
#229 = CARTESIAN_POINT('',(-2.584154707161,-0.940555394146,20.905));
#230 = DIRECTION('',(0.342020143326,-0.939692620786,0.));
#231 = DIRECTION('',(-0.939692620786,-0.342020143326,0.));
#232 = ORIENTED_EDGE('',*,*,#162,.F.);
#233 = PLANE('',#234);
#234 = AXIS2_PLACEMENT_3D('',#235,#236,#237);
#235 = CARTESIAN_POINT('',(-1.409538931179,-0.513030214989,21.95));
#236 = DIRECTION('',(0.342020143326,-0.939692620786,0.));
#237 = DIRECTION('',(-0.939692620786,-0.342020143326,0.));
#238 = ADVANCED_FACE('',(#239),#275,.T.);
#239 = FACE_BOUND('',#240,.T.);
#240 = EDGE_LOOP('',(#241,#251,#260,#268));
#241 = ORIENTED_EDGE('',*,*,#242,.T.);
#242 = EDGE_CURVE('',#243,#245,#247,.T.);
#243 = VERTEX_POINT('',#244);
#244 = CARTESIAN_POINT('',(2.396216183004,0.87215136548,21.95));
#245 = VERTEX_POINT('',#246);
#246 = CARTESIAN_POINT('',(2.584154707161,0.940555394146,21.75));
#247 = LINE('',#248,#249);
#248 = CARTESIAN_POINT('',(2.490185445083,0.906353379813,21.85));
#249 = VECTOR('',#250,1.);
#250 = DIRECTION('',(0.664463024389,0.241844762648,-0.707106781187));
#251 = ORIENTED_EDGE('',*,*,#252,.T.);
#252 = EDGE_CURVE('',#245,#253,#255,.T.);
#253 = VERTEX_POINT('',#254);
#254 = CARTESIAN_POINT('',(-2.584154707161,0.940555394146,21.75));
#255 = CIRCLE('',#256,2.75);
#256 = AXIS2_PLACEMENT_3D('',#257,#258,#259);
#257 = CARTESIAN_POINT('',(0.,7.354662736538E-17,21.75));
#258 = DIRECTION('',(0.,0.,1.));
#259 = DIRECTION('',(1.,0.,-0.));
#260 = ORIENTED_EDGE('',*,*,#261,.T.);
#261 = EDGE_CURVE('',#253,#262,#264,.T.);
#262 = VERTEX_POINT('',#263);
#263 = CARTESIAN_POINT('',(-2.396216183004,0.87215136548,21.95));
#264 = LINE('',#265,#266);
#265 = CARTESIAN_POINT('',(-2.490185445083,0.906353379813,21.85));
#266 = VECTOR('',#267,1.);
#267 = DIRECTION('',(0.664463024389,-0.241844762648,0.707106781187));
#268 = ORIENTED_EDGE('',*,*,#269,.T.);
#269 = EDGE_CURVE('',#262,#243,#270,.T.);
#270 = CIRCLE('',#271,2.55);
#271 = AXIS2_PLACEMENT_3D('',#272,#273,#274);
#272 = CARTESIAN_POINT('',(0.,7.354662736538E-17,21.95));
#273 = DIRECTION('',(0.,0.,-1.));
#274 = DIRECTION('',(1.,0.,0.));
#275 = CONICAL_SURFACE('',#276,2.65,0.785398163397);
#276 = AXIS2_PLACEMENT_3D('',#277,#278,#279);
#277 = CARTESIAN_POINT('',(0.,7.354662736538E-17,21.85));
#278 = DIRECTION('',(0.,0.,-1.));
#279 = DIRECTION('',(1.,0.,0.));
#280 = ADVANCED_FACE('',(#281),#307,.T.);
#281 = FACE_BOUND('',#282,.T.);
#282 = EDGE_LOOP('',(#283,#284,#292,#301));
#283 = ORIENTED_EDGE('',*,*,#269,.F.);
#284 = ORIENTED_EDGE('',*,*,#285,.T.);
#285 = EDGE_CURVE('',#262,#286,#288,.T.);
#286 = VERTEX_POINT('',#287);
#287 = CARTESIAN_POINT('',(-1.409538931179,0.513030214989,21.95));
#288 = LINE('',#289,#290);
#289 = CARTESIAN_POINT('',(-2.398507812944,0.872985450567,21.95));
#290 = VECTOR('',#291,1.);
#291 = DIRECTION('',(0.939692620786,-0.342020143326,0.));
#292 = ORIENTED_EDGE('',*,*,#293,.T.);
#293 = EDGE_CURVE('',#286,#294,#296,.T.);
#294 = VERTEX_POINT('',#295);
#295 = CARTESIAN_POINT('',(1.409538931179,0.513030214989,21.95));
#296 = CIRCLE('',#297,1.5);
#297 = AXIS2_PLACEMENT_3D('',#298,#299,#300);
#298 = CARTESIAN_POINT('',(0.,7.354662736538E-17,21.95));
#299 = DIRECTION('',(0.,0.,-1.));
#300 = DIRECTION('',(1.,0.,0.));
#301 = ORIENTED_EDGE('',*,*,#302,.T.);
#302 = EDGE_CURVE('',#294,#243,#303,.T.);
#303 = LINE('',#304,#305);
#304 = CARTESIAN_POINT('',(0.704769465589,0.256515107494,21.95));
#305 = VECTOR('',#306,1.);
#306 = DIRECTION('',(0.939692620786,0.342020143326,0.));
#307 = PLANE('',#308);
#308 = AXIS2_PLACEMENT_3D('',#309,#310,#311);
#309 = CARTESIAN_POINT('',(0.,0.,21.95));
#310 = DIRECTION('',(0.,0.,1.));
#311 = DIRECTION('',(1.,0.,-0.));
#312 = ADVANCED_FACE('',(#313),#356,.F.);
#313 = FACE_BOUND('',#314,.T.);
#314 = EDGE_LOOP('',(#315,#316,#324,#333,#341,#349,#355));
#315 = ORIENTED_EDGE('',*,*,#261,.F.);
#316 = ORIENTED_EDGE('',*,*,#317,.F.);
#317 = EDGE_CURVE('',#318,#253,#320,.T.);
#318 = VERTEX_POINT('',#319);
#319 = CARTESIAN_POINT('',(-2.584154707161,0.940555394146,21.205));
#320 = LINE('',#321,#322);
#321 = CARTESIAN_POINT('',(-2.584154707161,0.940555394146,3.4));
#322 = VECTOR('',#323,1.);
#323 = DIRECTION('',(0.,0.,1.));
#324 = ORIENTED_EDGE('',*,*,#325,.F.);
#325 = EDGE_CURVE('',#326,#318,#328,.T.);
#326 = VERTEX_POINT('',#327);
#327 = CARTESIAN_POINT('',(-2.584154707161,0.940555394146,20.605));
#328 = CIRCLE('',#329,0.3);
#329 = AXIS2_PLACEMENT_3D('',#330,#331,#332);
#330 = CARTESIAN_POINT('',(-2.584154707161,0.940555394146,20.905));
#331 = DIRECTION('',(0.342020143326,0.939692620786,0.));
#332 = DIRECTION('',(-0.939692620786,0.342020143326,0.));
#333 = ORIENTED_EDGE('',*,*,#334,.F.);
#334 = EDGE_CURVE('',#335,#326,#337,.T.);
#335 = VERTEX_POINT('',#336);
#336 = CARTESIAN_POINT('',(-2.584154707161,0.940555394146,19.55));
#337 = LINE('',#338,#339);
#338 = CARTESIAN_POINT('',(-2.584154707161,0.940555394146,3.4));
#339 = VECTOR('',#340,1.);
#340 = DIRECTION('',(0.,0.,1.));
#341 = ORIENTED_EDGE('',*,*,#342,.T.);
#342 = EDGE_CURVE('',#335,#343,#345,.T.);
#343 = VERTEX_POINT('',#344);
#344 = CARTESIAN_POINT('',(-1.409538931179,0.513030214989,19.55));
#345 = LINE('',#346,#347);
#346 = CARTESIAN_POINT('',(0.,7.354662736538E-17,19.55));
#347 = VECTOR('',#348,1.);
#348 = DIRECTION('',(0.939692620786,-0.342020143326,0.));
#349 = ORIENTED_EDGE('',*,*,#350,.F.);
#350 = EDGE_CURVE('',#286,#343,#351,.T.);
#351 = LINE('',#352,#353);
#352 = CARTESIAN_POINT('',(-1.409538931179,0.513030214989,0.));
#353 = VECTOR('',#354,1.);
#354 = DIRECTION('',(0.,0.,-1.));
#355 = ORIENTED_EDGE('',*,*,#285,.F.);
#356 = PLANE('',#357);
#357 = AXIS2_PLACEMENT_3D('',#358,#359,#360);
#358 = CARTESIAN_POINT('',(-4.797015625888,1.745970901133,21.95));
#359 = DIRECTION('',(0.342020143326,0.939692620786,0.));
#360 = DIRECTION('',(0.939692620786,-0.342020143326,0.));
#361 = ADVANCED_FACE('',(#362),#405,.F.);
#362 = FACE_BOUND('',#363,.T.);
#363 = EDGE_LOOP('',(#364,#365,#366,#375,#383,#391,#399));
#364 = ORIENTED_EDGE('',*,*,#138,.F.);
#365 = ORIENTED_EDGE('',*,*,#179,.F.);
#366 = ORIENTED_EDGE('',*,*,#367,.F.);
#367 = EDGE_CURVE('',#368,#171,#370,.T.);
#368 = VERTEX_POINT('',#369);
#369 = CARTESIAN_POINT('',(2.584154707161,-0.940555394146,20.605));
#370 = CIRCLE('',#371,0.3);
#371 = AXIS2_PLACEMENT_3D('',#372,#373,#374);
#372 = CARTESIAN_POINT('',(2.584154707161,-0.940555394146,20.905));
#373 = DIRECTION('',(-0.342020143326,-0.939692620786,0.));
#374 = DIRECTION('',(0.939692620786,-0.342020143326,0.));
#375 = ORIENTED_EDGE('',*,*,#376,.F.);
#376 = EDGE_CURVE('',#377,#368,#379,.T.);
#377 = VERTEX_POINT('',#378);
#378 = CARTESIAN_POINT('',(2.584154707161,-0.940555394146,19.55));
#379 = LINE('',#380,#381);
#380 = CARTESIAN_POINT('',(2.584154707161,-0.940555394146,3.4));
#381 = VECTOR('',#382,1.);
#382 = DIRECTION('',(0.,0.,1.));
#383 = ORIENTED_EDGE('',*,*,#384,.T.);
#384 = EDGE_CURVE('',#377,#385,#387,.T.);
#385 = VERTEX_POINT('',#386);
#386 = CARTESIAN_POINT('',(1.409538931179,-0.513030214989,19.55));
#387 = LINE('',#388,#389);
#388 = CARTESIAN_POINT('',(0.,0.,19.55));
#389 = VECTOR('',#390,1.);
#390 = DIRECTION('',(-0.939692620786,0.342020143326,0.));
#391 = ORIENTED_EDGE('',*,*,#392,.F.);
#392 = EDGE_CURVE('',#393,#385,#395,.T.);
#393 = VERTEX_POINT('',#394);
#394 = CARTESIAN_POINT('',(1.409538931179,-0.513030214989,21.95));
#395 = LINE('',#396,#397);
#396 = CARTESIAN_POINT('',(1.409538931179,-0.513030214989,0.));
#397 = VECTOR('',#398,1.);
#398 = DIRECTION('',(0.,0.,-1.));
#399 = ORIENTED_EDGE('',*,*,#400,.F.);
#400 = EDGE_CURVE('',#139,#393,#401,.T.);
#401 = LINE('',#402,#403);
#402 = CARTESIAN_POINT('',(2.398507812944,-0.872985450567,21.95));
#403 = VECTOR('',#404,1.);
#404 = DIRECTION('',(-0.939692620786,0.342020143326,0.));
#405 = PLANE('',#406);
#406 = AXIS2_PLACEMENT_3D('',#407,#408,#409);
#407 = CARTESIAN_POINT('',(4.797015625888,-1.745970901133,21.95));
#408 = DIRECTION('',(-0.342020143326,-0.939692620786,0.));
#409 = DIRECTION('',(-0.939692620786,0.342020143326,0.));
#410 = ADVANCED_FACE('',(#411),#454,.F.);
#411 = FACE_BOUND('',#412,.T.);
#412 = EDGE_LOOP('',(#413,#414,#415,#423,#431,#439,#448));
#413 = ORIENTED_EDGE('',*,*,#242,.F.);
#414 = ORIENTED_EDGE('',*,*,#302,.F.);
#415 = ORIENTED_EDGE('',*,*,#416,.F.);
#416 = EDGE_CURVE('',#417,#294,#419,.T.);
#417 = VERTEX_POINT('',#418);
#418 = CARTESIAN_POINT('',(1.409538931179,0.513030214989,19.55));
#419 = LINE('',#420,#421);
#420 = CARTESIAN_POINT('',(1.409538931179,0.513030214989,0.));
#421 = VECTOR('',#422,1.);
#422 = DIRECTION('',(0.,0.,1.));
#423 = ORIENTED_EDGE('',*,*,#424,.T.);
#424 = EDGE_CURVE('',#417,#425,#427,.T.);
#425 = VERTEX_POINT('',#426);
#426 = CARTESIAN_POINT('',(2.584154707161,0.940555394146,19.55));
#427 = LINE('',#428,#429);
#428 = CARTESIAN_POINT('',(0.,0.,19.55));
#429 = VECTOR('',#430,1.);
#430 = DIRECTION('',(0.939692620786,0.342020143326,0.));
#431 = ORIENTED_EDGE('',*,*,#432,.F.);
#432 = EDGE_CURVE('',#433,#425,#435,.T.);
#433 = VERTEX_POINT('',#434);
#434 = CARTESIAN_POINT('',(2.584154707161,0.940555394146,20.605));
#435 = LINE('',#436,#437);
#436 = CARTESIAN_POINT('',(2.584154707161,0.940555394146,3.4));
#437 = VECTOR('',#438,1.);
#438 = DIRECTION('',(0.,0.,-1.));
#439 = ORIENTED_EDGE('',*,*,#440,.F.);
#440 = EDGE_CURVE('',#441,#433,#443,.T.);
#441 = VERTEX_POINT('',#442);
#442 = CARTESIAN_POINT('',(2.584154707161,0.940555394146,21.205));
#443 = CIRCLE('',#444,0.3);
#444 = AXIS2_PLACEMENT_3D('',#445,#446,#447);
#445 = CARTESIAN_POINT('',(2.584154707161,0.940555394146,20.905));
#446 = DIRECTION('',(-0.342020143326,0.939692620786,0.));
#447 = DIRECTION('',(0.939692620786,0.342020143326,0.));
#448 = ORIENTED_EDGE('',*,*,#449,.F.);
#449 = EDGE_CURVE('',#245,#441,#450,.T.);
#450 = LINE('',#451,#452);
#451 = CARTESIAN_POINT('',(2.584154707161,0.940555394146,3.4));
#452 = VECTOR('',#453,1.);
#453 = DIRECTION('',(0.,0.,-1.));
#454 = PLANE('',#455);
#455 = AXIS2_PLACEMENT_3D('',#456,#457,#458);
#456 = CARTESIAN_POINT('',(1.409538931179,0.513030214989,21.95));
#457 = DIRECTION('',(-0.342020143326,0.939692620786,0.));
#458 = DIRECTION('',(0.939692620786,0.342020143326,0.));
#459 = ADVANCED_FACE('',(#460),#478,.T.);
#460 = FACE_BOUND('',#461,.T.);
#461 = EDGE_LOOP('',(#462,#469,#470,#477));
#462 = ORIENTED_EDGE('',*,*,#463,.F.);
#463 = EDGE_CURVE('',#425,#377,#464,.T.);
#464 = CIRCLE('',#465,2.75);
#465 = AXIS2_PLACEMENT_3D('',#466,#467,#468);
#466 = CARTESIAN_POINT('',(0.,7.354662736538E-17,19.55));
#467 = DIRECTION('',(0.,0.,-1.));
#468 = DIRECTION('',(1.,0.,0.));
#469 = ORIENTED_EDGE('',*,*,#424,.F.);
#470 = ORIENTED_EDGE('',*,*,#471,.F.);
#471 = EDGE_CURVE('',#385,#417,#472,.T.);
#472 = CIRCLE('',#473,1.5);
#473 = AXIS2_PLACEMENT_3D('',#474,#475,#476);
#474 = CARTESIAN_POINT('',(0.,7.354662736538E-17,19.55));
#475 = DIRECTION('',(0.,0.,1.));
#476 = DIRECTION('',(1.,0.,-0.));
#477 = ORIENTED_EDGE('',*,*,#384,.F.);
#478 = PLANE('',#479);
#479 = AXIS2_PLACEMENT_3D('',#480,#481,#482);
#480 = CARTESIAN_POINT('',(3.257208167234,0.,19.55));
#481 = DIRECTION('',(0.,0.,1.));
#482 = DIRECTION('',(-1.,0.,0.));
#483 = ADVANCED_FACE('',(#484),#520,.T.);
#484 = FACE_BOUND('',#485,.T.);
#485 = EDGE_LOOP('',(#486,#495,#496,#505,#512,#513));
#486 = ORIENTED_EDGE('',*,*,#487,.F.);
#487 = EDGE_CURVE('',#211,#488,#490,.T.);
#488 = VERTEX_POINT('',#489);
#489 = CARTESIAN_POINT('',(-2.75,-2.632312424001E-16,19.55));
#490 = CIRCLE('',#491,2.75);
#491 = AXIS2_PLACEMENT_3D('',#492,#493,#494);
#492 = CARTESIAN_POINT('',(0.,7.354662736538E-17,19.55));
#493 = DIRECTION('',(0.,0.,-1.));
#494 = DIRECTION('',(1.,0.,0.));
#495 = ORIENTED_EDGE('',*,*,#210,.F.);
#496 = ORIENTED_EDGE('',*,*,#497,.F.);
#497 = EDGE_CURVE('',#498,#203,#500,.T.);
#498 = VERTEX_POINT('',#499);
#499 = CARTESIAN_POINT('',(-1.5,-1.101503925067E-16,19.55));
#500 = CIRCLE('',#501,1.5);
#501 = AXIS2_PLACEMENT_3D('',#502,#503,#504);
#502 = CARTESIAN_POINT('',(0.,7.354662736538E-17,19.55));
#503 = DIRECTION('',(0.,0.,1.));
#504 = DIRECTION('',(1.,0.,-0.));
#505 = ORIENTED_EDGE('',*,*,#506,.F.);
#506 = EDGE_CURVE('',#343,#498,#507,.T.);
#507 = CIRCLE('',#508,1.5);
#508 = AXIS2_PLACEMENT_3D('',#509,#510,#511);
#509 = CARTESIAN_POINT('',(0.,7.354662736538E-17,19.55));
#510 = DIRECTION('',(0.,0.,1.));
#511 = DIRECTION('',(1.,0.,-0.));
#512 = ORIENTED_EDGE('',*,*,#342,.F.);
#513 = ORIENTED_EDGE('',*,*,#514,.F.);
#514 = EDGE_CURVE('',#488,#335,#515,.T.);
#515 = CIRCLE('',#516,2.75);
#516 = AXIS2_PLACEMENT_3D('',#517,#518,#519);
#517 = CARTESIAN_POINT('',(0.,7.354662736538E-17,19.55));
#518 = DIRECTION('',(0.,0.,-1.));
#519 = DIRECTION('',(1.,0.,0.));
#520 = PLANE('',#521);
#521 = AXIS2_PLACEMENT_3D('',#522,#523,#524);
#522 = CARTESIAN_POINT('',(-3.257208167234,0.,19.55));
#523 = DIRECTION('',(0.,0.,1.));
#524 = DIRECTION('',(-1.,0.,0.));
#525 = ADVANCED_FACE('',(#526),#593,.F.);
#526 = FACE_BOUND('',#527,.F.);
#527 = EDGE_LOOP('',(#528,#535,#536,#537,#545,#554,#562,#571,#579,#586,
    #587,#588,#589,#590,#591,#592));
#528 = ORIENTED_EDGE('',*,*,#529,.T.);
#529 = EDGE_CURVE('',#393,#195,#530,.T.);
#530 = CIRCLE('',#531,1.5);
#531 = AXIS2_PLACEMENT_3D('',#532,#533,#534);
#532 = CARTESIAN_POINT('',(0.,7.354662736538E-17,21.95));
#533 = DIRECTION('',(0.,0.,-1.));
#534 = DIRECTION('',(1.,0.,0.));
#535 = ORIENTED_EDGE('',*,*,#202,.F.);
#536 = ORIENTED_EDGE('',*,*,#497,.F.);
#537 = ORIENTED_EDGE('',*,*,#538,.T.);
#538 = EDGE_CURVE('',#498,#539,#541,.T.);
#539 = VERTEX_POINT('',#540);
#540 = CARTESIAN_POINT('',(-1.5,-1.101503925067E-16,1.9));
#541 = LINE('',#542,#543);
#542 = CARTESIAN_POINT('',(-1.5,-1.101503925067E-16,0.));
#543 = VECTOR('',#544,1.);
#544 = DIRECTION('',(0.,0.,-1.));
#545 = ORIENTED_EDGE('',*,*,#546,.F.);
#546 = EDGE_CURVE('',#547,#539,#549,.T.);
#547 = VERTEX_POINT('',#548);
#548 = CARTESIAN_POINT('',(1.06066017178,-1.06066017178,1.9));
#549 = CIRCLE('',#550,1.5);
#550 = AXIS2_PLACEMENT_3D('',#551,#552,#553);
#551 = CARTESIAN_POINT('',(0.,7.354662736538E-17,1.9));
#552 = DIRECTION('',(0.,0.,-1.));
#553 = DIRECTION('',(1.,0.,0.));
#554 = ORIENTED_EDGE('',*,*,#555,.F.);
#555 = EDGE_CURVE('',#556,#547,#558,.T.);
#556 = VERTEX_POINT('',#557);
#557 = CARTESIAN_POINT('',(1.06066017178,-1.06066017178,2.7));
#558 = LINE('',#559,#560);
#559 = CARTESIAN_POINT('',(1.06066017178,-1.06066017178,0.));
#560 = VECTOR('',#561,1.);
#561 = DIRECTION('',(0.,0.,-1.));
#562 = ORIENTED_EDGE('',*,*,#563,.F.);
#563 = EDGE_CURVE('',#564,#556,#566,.T.);
#564 = VERTEX_POINT('',#565);
#565 = CARTESIAN_POINT('',(-1.06066017178,1.06066017178,2.7));
#566 = CIRCLE('',#567,1.5);
#567 = AXIS2_PLACEMENT_3D('',#568,#569,#570);
#568 = CARTESIAN_POINT('',(0.,7.354662736538E-17,2.7));
#569 = DIRECTION('',(0.,0.,-1.));
#570 = DIRECTION('',(1.,0.,0.));
#571 = ORIENTED_EDGE('',*,*,#572,.T.);
#572 = EDGE_CURVE('',#564,#573,#575,.T.);
#573 = VERTEX_POINT('',#574);
#574 = CARTESIAN_POINT('',(-1.06066017178,1.06066017178,1.9));
#575 = LINE('',#576,#577);
#576 = CARTESIAN_POINT('',(-1.06066017178,1.06066017178,0.));
#577 = VECTOR('',#578,1.);
#578 = DIRECTION('',(0.,0.,-1.));
#579 = ORIENTED_EDGE('',*,*,#580,.F.);
#580 = EDGE_CURVE('',#539,#573,#581,.T.);
#581 = CIRCLE('',#582,1.5);
#582 = AXIS2_PLACEMENT_3D('',#583,#584,#585);
#583 = CARTESIAN_POINT('',(0.,7.354662736538E-17,1.9));
#584 = DIRECTION('',(0.,0.,-1.));
#585 = DIRECTION('',(1.,0.,0.));
#586 = ORIENTED_EDGE('',*,*,#538,.F.);
#587 = ORIENTED_EDGE('',*,*,#506,.F.);
#588 = ORIENTED_EDGE('',*,*,#350,.F.);
#589 = ORIENTED_EDGE('',*,*,#293,.T.);
#590 = ORIENTED_EDGE('',*,*,#416,.F.);
#591 = ORIENTED_EDGE('',*,*,#471,.F.);
#592 = ORIENTED_EDGE('',*,*,#392,.F.);
#593 = CYLINDRICAL_SURFACE('',#594,1.5);
#594 = AXIS2_PLACEMENT_3D('',#595,#596,#597);
#595 = CARTESIAN_POINT('',(0.,7.354662736538E-17,0.));
#596 = DIRECTION('',(0.,0.,1.));
#597 = DIRECTION('',(1.,0.,-0.));
#598 = ADVANCED_FACE('',(#599),#605,.T.);
#599 = FACE_BOUND('',#600,.T.);
#600 = EDGE_LOOP('',(#601,#602,#603,#604));
#601 = ORIENTED_EDGE('',*,*,#146,.F.);
#602 = ORIENTED_EDGE('',*,*,#400,.T.);
#603 = ORIENTED_EDGE('',*,*,#529,.T.);
#604 = ORIENTED_EDGE('',*,*,#194,.T.);
#605 = PLANE('',#606);
#606 = AXIS2_PLACEMENT_3D('',#607,#608,#609);
#607 = CARTESIAN_POINT('',(0.,0.,21.95));
#608 = DIRECTION('',(0.,0.,1.));
#609 = DIRECTION('',(1.,0.,-0.));
#610 = ADVANCED_FACE('',(#611),#623,.T.);
#611 = FACE_BOUND('',#612,.T.);
#612 = EDGE_LOOP('',(#613,#614,#615,#622));
#613 = ORIENTED_EDGE('',*,*,#252,.F.);
#614 = ORIENTED_EDGE('',*,*,#449,.T.);
#615 = ORIENTED_EDGE('',*,*,#616,.T.);
#616 = EDGE_CURVE('',#441,#318,#617,.T.);
#617 = CIRCLE('',#618,2.75);
#618 = AXIS2_PLACEMENT_3D('',#619,#620,#621);
#619 = CARTESIAN_POINT('',(0.,0.,21.205));
#620 = DIRECTION('',(0.,0.,1.));
#621 = DIRECTION('',(1.,0.,-0.));
#622 = ORIENTED_EDGE('',*,*,#317,.T.);
#623 = CYLINDRICAL_SURFACE('',#624,2.75);
#624 = AXIS2_PLACEMENT_3D('',#625,#626,#627);
#625 = CARTESIAN_POINT('',(0.,7.354662736538E-17,3.4));
#626 = DIRECTION('',(0.,0.,1.));
#627 = DIRECTION('',(1.,0.,-0.));
#628 = ADVANCED_FACE('',(#629),#641,.T.);
#629 = FACE_BOUND('',#630,.T.);
#630 = EDGE_LOOP('',(#631,#632,#639,#640));
#631 = ORIENTED_EDGE('',*,*,#440,.T.);
#632 = ORIENTED_EDGE('',*,*,#633,.F.);
#633 = EDGE_CURVE('',#326,#433,#634,.T.);
#634 = CIRCLE('',#635,2.75);
#635 = AXIS2_PLACEMENT_3D('',#636,#637,#638);
#636 = CARTESIAN_POINT('',(0.,0.,20.605));
#637 = DIRECTION('',(0.,0.,-1.));
#638 = DIRECTION('',(1.,0.,0.));
#639 = ORIENTED_EDGE('',*,*,#325,.T.);
#640 = ORIENTED_EDGE('',*,*,#616,.F.);
#641 = TOROIDAL_SURFACE('',#642,2.75,0.3);
#642 = AXIS2_PLACEMENT_3D('',#643,#644,#645);
#643 = CARTESIAN_POINT('',(0.,0.,20.905));
#644 = DIRECTION('',(0.,0.,-1.));
#645 = DIRECTION('',(-1.,0.,0.));
#646 = ADVANCED_FACE('',(#647),#659,.T.);
#647 = FACE_BOUND('',#648,.T.);
#648 = EDGE_LOOP('',(#649,#650,#651,#652));
#649 = ORIENTED_EDGE('',*,*,#367,.T.);
#650 = ORIENTED_EDGE('',*,*,#170,.F.);
#651 = ORIENTED_EDGE('',*,*,#226,.T.);
#652 = ORIENTED_EDGE('',*,*,#653,.F.);
#653 = EDGE_CURVE('',#368,#219,#654,.T.);
#654 = CIRCLE('',#655,2.75);
#655 = AXIS2_PLACEMENT_3D('',#656,#657,#658);
#656 = CARTESIAN_POINT('',(0.,0.,20.605));
#657 = DIRECTION('',(0.,0.,-1.));
#658 = DIRECTION('',(1.,0.,0.));
#659 = TOROIDAL_SURFACE('',#660,2.75,0.3);
#660 = AXIS2_PLACEMENT_3D('',#661,#662,#663);
#661 = CARTESIAN_POINT('',(0.,0.,20.905));
#662 = DIRECTION('',(0.,0.,-1.));
#663 = DIRECTION('',(-1.,0.,0.));
#664 = ADVANCED_FACE('',(#665),#692,.T.);
#665 = FACE_BOUND('',#666,.T.);
#666 = EDGE_LOOP('',(#667,#668,#669,#670,#671,#679,#686,#687,#688,#689,
    #690,#691));
#667 = ORIENTED_EDGE('',*,*,#376,.T.);
#668 = ORIENTED_EDGE('',*,*,#653,.T.);
#669 = ORIENTED_EDGE('',*,*,#218,.T.);
#670 = ORIENTED_EDGE('',*,*,#487,.T.);
#671 = ORIENTED_EDGE('',*,*,#672,.T.);
#672 = EDGE_CURVE('',#488,#673,#675,.T.);
#673 = VERTEX_POINT('',#674);
#674 = CARTESIAN_POINT('',(-2.75,4.103244971309E-16,3.4));
#675 = LINE('',#676,#677);
#676 = CARTESIAN_POINT('',(-2.75,-2.632312424001E-16,3.4));
#677 = VECTOR('',#678,1.);
#678 = DIRECTION('',(0.,0.,-1.));
#679 = ORIENTED_EDGE('',*,*,#680,.F.);
#680 = EDGE_CURVE('',#673,#673,#681,.T.);
#681 = CIRCLE('',#682,2.75);
#682 = AXIS2_PLACEMENT_3D('',#683,#684,#685);
#683 = CARTESIAN_POINT('',(0.,7.354662736538E-17,3.4));
#684 = DIRECTION('',(0.,0.,-1.));
#685 = DIRECTION('',(1.,0.,0.));
#686 = ORIENTED_EDGE('',*,*,#672,.F.);
#687 = ORIENTED_EDGE('',*,*,#514,.T.);
#688 = ORIENTED_EDGE('',*,*,#334,.T.);
#689 = ORIENTED_EDGE('',*,*,#633,.T.);
#690 = ORIENTED_EDGE('',*,*,#432,.T.);
#691 = ORIENTED_EDGE('',*,*,#463,.T.);
#692 = CYLINDRICAL_SURFACE('',#693,2.75);
#693 = AXIS2_PLACEMENT_3D('',#694,#695,#696);
#694 = CARTESIAN_POINT('',(0.,7.354662736538E-17,3.4));
#695 = DIRECTION('',(0.,0.,1.));
#696 = DIRECTION('',(1.,0.,-0.));
#697 = ADVANCED_FACE('',(#698),#732,.T.);
#698 = FACE_BOUND('',#699,.T.);
#699 = EDGE_LOOP('',(#700,#710,#718,#726));
#700 = ORIENTED_EDGE('',*,*,#701,.T.);
#701 = EDGE_CURVE('',#702,#704,#706,.T.);
#702 = VERTEX_POINT('',#703);
#703 = CARTESIAN_POINT('',(-3.5,4.25,1.3));
#704 = VERTEX_POINT('',#705);
#705 = CARTESIAN_POINT('',(2.128679656441,4.25,1.3));
#706 = LINE('',#707,#708);
#707 = CARTESIAN_POINT('',(1.75,4.25,1.3));
#708 = VECTOR('',#709,1.);
#709 = DIRECTION('',(1.,0.,0.));
#710 = ORIENTED_EDGE('',*,*,#711,.T.);
#711 = EDGE_CURVE('',#704,#712,#714,.T.);
#712 = VERTEX_POINT('',#713);
#713 = CARTESIAN_POINT('',(1.128679656441,3.25,1.9));
#714 = LINE('',#715,#716);
#715 = CARTESIAN_POINT('',(3.714437349421,5.83575769298,0.348545384212)
  );
#716 = VECTOR('',#717,1.);
#717 = DIRECTION('',(-0.650944554904,-0.650944554904,0.390566732942));
#718 = ORIENTED_EDGE('',*,*,#719,.T.);
#719 = EDGE_CURVE('',#712,#720,#722,.T.);
#720 = VERTEX_POINT('',#721);
#721 = CARTESIAN_POINT('',(-2.5,3.25,1.9));
#722 = LINE('',#723,#724);
#723 = CARTESIAN_POINT('',(1.75,3.25,1.9));
#724 = VECTOR('',#725,1.);
#725 = DIRECTION('',(-1.,0.,0.));
#726 = ORIENTED_EDGE('',*,*,#727,.T.);
#727 = EDGE_CURVE('',#720,#702,#728,.T.);
#728 = LINE('',#729,#730);
#729 = CARTESIAN_POINT('',(-2.5,3.25,1.9));
#730 = VECTOR('',#731,1.);
#731 = DIRECTION('',(-0.650944554904,0.650944554904,-0.390566732942));
#732 = PLANE('',#733);
#733 = AXIS2_PLACEMENT_3D('',#734,#735,#736);
#734 = CARTESIAN_POINT('',(1.75,3.75,1.6));
#735 = DIRECTION('',(0.,-0.514495755428,-0.857492925713));
#736 = DIRECTION('',(-1.,-0.,0.));
#737 = ADVANCED_FACE('',(#738),#763,.T.);
#738 = FACE_BOUND('',#739,.T.);
#739 = EDGE_LOOP('',(#740,#748,#756,#762));
#740 = ORIENTED_EDGE('',*,*,#741,.T.);
#741 = EDGE_CURVE('',#720,#742,#744,.T.);
#742 = VERTEX_POINT('',#743);
#743 = CARTESIAN_POINT('',(-2.5,-3.25,1.9));
#744 = LINE('',#745,#746);
#745 = CARTESIAN_POINT('',(-2.5,2.125,1.9));
#746 = VECTOR('',#747,1.);
#747 = DIRECTION('',(1.306144734853E-16,-1.,0.));
#748 = ORIENTED_EDGE('',*,*,#749,.T.);
#749 = EDGE_CURVE('',#742,#750,#752,.T.);
#750 = VERTEX_POINT('',#751);
#751 = CARTESIAN_POINT('',(-3.5,-4.25,1.3));
#752 = LINE('',#753,#754);
#753 = CARTESIAN_POINT('',(-2.5,-3.25,1.9));
#754 = VECTOR('',#755,1.);
#755 = DIRECTION('',(-0.650944554904,-0.650944554904,-0.390566732942));
#756 = ORIENTED_EDGE('',*,*,#757,.T.);
#757 = EDGE_CURVE('',#750,#702,#758,.T.);
#758 = LINE('',#759,#760);
#759 = CARTESIAN_POINT('',(-3.5,2.125,1.3));
#760 = VECTOR('',#761,1.);
#761 = DIRECTION('',(-1.306144734853E-16,1.,0.));
#762 = ORIENTED_EDGE('',*,*,#727,.F.);
#763 = PLANE('',#764);
#764 = AXIS2_PLACEMENT_3D('',#765,#766,#767);
#765 = CARTESIAN_POINT('',(-3.,2.125,1.6));
#766 = DIRECTION('',(0.514495755428,6.720059220559E-17,-0.857492925713)
  );
#767 = DIRECTION('',(-0.857492925713,6.162975822039E-33,-0.514495755428)
  );
#768 = ADVANCED_FACE('',(#769),#794,.T.);
#769 = FACE_BOUND('',#770,.T.);
#770 = EDGE_LOOP('',(#771,#779,#780,#788));
#771 = ORIENTED_EDGE('',*,*,#772,.T.);
#772 = EDGE_CURVE('',#773,#750,#775,.T.);
#773 = VERTEX_POINT('',#774);
#774 = CARTESIAN_POINT('',(3.5,-4.25,1.3));
#775 = LINE('',#776,#777);
#776 = CARTESIAN_POINT('',(-1.75,-4.25,1.3));
#777 = VECTOR('',#778,1.);
#778 = DIRECTION('',(-1.,0.,0.));
#779 = ORIENTED_EDGE('',*,*,#749,.F.);
#780 = ORIENTED_EDGE('',*,*,#781,.T.);
#781 = EDGE_CURVE('',#742,#782,#784,.T.);
#782 = VERTEX_POINT('',#783);
#783 = CARTESIAN_POINT('',(2.5,-3.25,1.9));
#784 = LINE('',#785,#786);
#785 = CARTESIAN_POINT('',(-1.75,-3.25,1.9));
#786 = VECTOR('',#787,1.);
#787 = DIRECTION('',(1.,0.,0.));
#788 = ORIENTED_EDGE('',*,*,#789,.T.);
#789 = EDGE_CURVE('',#782,#773,#790,.T.);
#790 = LINE('',#791,#792);
#791 = CARTESIAN_POINT('',(2.5,-3.25,1.9));
#792 = VECTOR('',#793,1.);
#793 = DIRECTION('',(0.650944554904,-0.650944554904,-0.390566732942));
#794 = PLANE('',#795);
#795 = AXIS2_PLACEMENT_3D('',#796,#797,#798);
#796 = CARTESIAN_POINT('',(-1.75,-3.75,1.6));
#797 = DIRECTION('',(0.,0.514495755428,-0.857492925713));
#798 = DIRECTION('',(-1.,0.,0.));
#799 = ADVANCED_FACE('',(#800),#825,.T.);
#800 = FACE_BOUND('',#801,.T.);
#801 = EDGE_LOOP('',(#802,#810,#818,#824));
#802 = ORIENTED_EDGE('',*,*,#803,.T.);
#803 = EDGE_CURVE('',#782,#804,#806,.T.);
#804 = VERTEX_POINT('',#805);
#805 = CARTESIAN_POINT('',(2.5,0.378679656441,1.9));
#806 = LINE('',#807,#808);
#807 = CARTESIAN_POINT('',(2.5,-2.125,1.9));
#808 = VECTOR('',#809,1.);
#809 = DIRECTION('',(0.,1.,0.));
#810 = ORIENTED_EDGE('',*,*,#811,.T.);
#811 = EDGE_CURVE('',#804,#812,#814,.T.);
#812 = VERTEX_POINT('',#813);
#813 = CARTESIAN_POINT('',(3.5,1.378679656441,1.3));
#814 = LINE('',#815,#816);
#815 = CARTESIAN_POINT('',(1.745262857441,-0.376057486119,2.352842285536
    ));
#816 = VECTOR('',#817,1.);
#817 = DIRECTION('',(0.650944554904,0.650944554904,-0.390566732942));
#818 = ORIENTED_EDGE('',*,*,#819,.T.);
#819 = EDGE_CURVE('',#812,#773,#820,.T.);
#820 = LINE('',#821,#822);
#821 = CARTESIAN_POINT('',(3.5,-2.125,1.3));
#822 = VECTOR('',#823,1.);
#823 = DIRECTION('',(0.,-1.,0.));
#824 = ORIENTED_EDGE('',*,*,#789,.F.);
#825 = PLANE('',#826);
#826 = AXIS2_PLACEMENT_3D('',#827,#828,#829);
#827 = CARTESIAN_POINT('',(3.,-2.125,1.6));
#828 = DIRECTION('',(-0.514495755428,0.,-0.857492925713));
#829 = DIRECTION('',(-0.857492925713,0.,0.514495755428));
#830 = ADVANCED_FACE('',(#831),#856,.F.);
#831 = FACE_BOUND('',#832,.T.);
#832 = EDGE_LOOP('',(#833,#834,#842,#850));
#833 = ORIENTED_EDGE('',*,*,#701,.F.);
#834 = ORIENTED_EDGE('',*,*,#835,.F.);
#835 = EDGE_CURVE('',#836,#702,#838,.T.);
#836 = VERTEX_POINT('',#837);
#837 = CARTESIAN_POINT('',(-3.5,4.25,0.));
#838 = LINE('',#839,#840);
#839 = CARTESIAN_POINT('',(-3.5,4.25,0.));
#840 = VECTOR('',#841,1.);
#841 = DIRECTION('',(0.,0.,1.));
#842 = ORIENTED_EDGE('',*,*,#843,.F.);
#843 = EDGE_CURVE('',#844,#836,#846,.T.);
#844 = VERTEX_POINT('',#845);
#845 = CARTESIAN_POINT('',(2.128679656441,4.25,0.));
#846 = LINE('',#847,#848);
#847 = CARTESIAN_POINT('',(1.75,4.25,0.));
#848 = VECTOR('',#849,1.);
#849 = DIRECTION('',(-1.,0.,0.));
#850 = ORIENTED_EDGE('',*,*,#851,.F.);
#851 = EDGE_CURVE('',#704,#844,#852,.T.);
#852 = LINE('',#853,#854);
#853 = CARTESIAN_POINT('',(2.128679656441,4.25,0.));
#854 = VECTOR('',#855,1.);
#855 = DIRECTION('',(0.,0.,-1.));
#856 = PLANE('',#857);
#857 = AXIS2_PLACEMENT_3D('',#858,#859,#860);
#858 = CARTESIAN_POINT('',(3.5,4.25,0.));
#859 = DIRECTION('',(0.,1.,0.));
#860 = DIRECTION('',(-1.,0.,0.));
#861 = ADVANCED_FACE('',(#862),#880,.F.);
#862 = FACE_BOUND('',#863,.T.);
#863 = EDGE_LOOP('',(#864,#865,#873,#879));
#864 = ORIENTED_EDGE('',*,*,#757,.F.);
#865 = ORIENTED_EDGE('',*,*,#866,.F.);
#866 = EDGE_CURVE('',#867,#750,#869,.T.);
#867 = VERTEX_POINT('',#868);
#868 = CARTESIAN_POINT('',(-3.5,-4.25,0.));
#869 = LINE('',#870,#871);
#870 = CARTESIAN_POINT('',(-3.5,-4.25,0.));
#871 = VECTOR('',#872,1.);
#872 = DIRECTION('',(0.,0.,1.));
#873 = ORIENTED_EDGE('',*,*,#874,.F.);
#874 = EDGE_CURVE('',#836,#867,#875,.T.);
#875 = LINE('',#876,#877);
#876 = CARTESIAN_POINT('',(-3.5,2.125,0.));
#877 = VECTOR('',#878,1.);
#878 = DIRECTION('',(1.306144734853E-16,-1.,0.));
#879 = ORIENTED_EDGE('',*,*,#835,.T.);
#880 = PLANE('',#881);
#881 = AXIS2_PLACEMENT_3D('',#882,#883,#884);
#882 = CARTESIAN_POINT('',(-3.5,4.25,0.));
#883 = DIRECTION('',(-1.,-1.306144734853E-16,0.));
#884 = DIRECTION('',(1.306144734853E-16,-1.,0.));
#885 = ADVANCED_FACE('',(#886),#904,.F.);
#886 = FACE_BOUND('',#887,.T.);
#887 = EDGE_LOOP('',(#888,#889,#897,#903));
#888 = ORIENTED_EDGE('',*,*,#772,.F.);
#889 = ORIENTED_EDGE('',*,*,#890,.F.);
#890 = EDGE_CURVE('',#891,#773,#893,.T.);
#891 = VERTEX_POINT('',#892);
#892 = CARTESIAN_POINT('',(3.5,-4.25,0.));
#893 = LINE('',#894,#895);
#894 = CARTESIAN_POINT('',(3.5,-4.25,0.));
#895 = VECTOR('',#896,1.);
#896 = DIRECTION('',(0.,0.,1.));
#897 = ORIENTED_EDGE('',*,*,#898,.F.);
#898 = EDGE_CURVE('',#867,#891,#899,.T.);
#899 = LINE('',#900,#901);
#900 = CARTESIAN_POINT('',(-1.75,-4.25,0.));
#901 = VECTOR('',#902,1.);
#902 = DIRECTION('',(1.,0.,0.));
#903 = ORIENTED_EDGE('',*,*,#866,.T.);
#904 = PLANE('',#905);
#905 = AXIS2_PLACEMENT_3D('',#906,#907,#908);
#906 = CARTESIAN_POINT('',(-3.5,-4.25,0.));
#907 = DIRECTION('',(0.,-1.,0.));
#908 = DIRECTION('',(1.,0.,0.));
#909 = ADVANCED_FACE('',(#910),#928,.F.);
#910 = FACE_BOUND('',#911,.T.);
#911 = EDGE_LOOP('',(#912,#913,#921,#927));
#912 = ORIENTED_EDGE('',*,*,#819,.F.);
#913 = ORIENTED_EDGE('',*,*,#914,.F.);
#914 = EDGE_CURVE('',#915,#812,#917,.T.);
#915 = VERTEX_POINT('',#916);
#916 = CARTESIAN_POINT('',(3.5,1.378679656441,0.));
#917 = LINE('',#918,#919);
#918 = CARTESIAN_POINT('',(3.5,1.378679656441,0.));
#919 = VECTOR('',#920,1.);
#920 = DIRECTION('',(0.,0.,1.));
#921 = ORIENTED_EDGE('',*,*,#922,.F.);
#922 = EDGE_CURVE('',#891,#915,#923,.T.);
#923 = LINE('',#924,#925);
#924 = CARTESIAN_POINT('',(3.5,-2.125,0.));
#925 = VECTOR('',#926,1.);
#926 = DIRECTION('',(0.,1.,0.));
#927 = ORIENTED_EDGE('',*,*,#890,.T.);
#928 = PLANE('',#929);
#929 = AXIS2_PLACEMENT_3D('',#930,#931,#932);
#930 = CARTESIAN_POINT('',(3.5,-4.25,0.));
#931 = DIRECTION('',(1.,0.,0.));
#932 = DIRECTION('',(-0.,1.,0.));
#933 = ADVANCED_FACE('',(#934),#954,.F.);
#934 = FACE_BOUND('',#935,.T.);
#935 = EDGE_LOOP('',(#936,#937,#943,#944,#945,#951,#952,#953));
#936 = ORIENTED_EDGE('',*,*,#719,.F.);
#937 = ORIENTED_EDGE('',*,*,#938,.F.);
#938 = EDGE_CURVE('',#573,#712,#939,.T.);
#939 = LINE('',#940,#941);
#940 = CARTESIAN_POINT('',(2.474873734157,4.596194077717,1.9));
#941 = VECTOR('',#942,1.);
#942 = DIRECTION('',(0.707106781187,0.707106781187,0.));
#943 = ORIENTED_EDGE('',*,*,#580,.F.);
#944 = ORIENTED_EDGE('',*,*,#546,.F.);
#945 = ORIENTED_EDGE('',*,*,#946,.F.);
#946 = EDGE_CURVE('',#804,#547,#947,.T.);
#947 = LINE('',#948,#949);
#948 = CARTESIAN_POINT('',(1.06066017178,-1.06066017178,1.9));
#949 = VECTOR('',#950,1.);
#950 = DIRECTION('',(-0.707106781187,-0.707106781187,0.));
#951 = ORIENTED_EDGE('',*,*,#803,.F.);
#952 = ORIENTED_EDGE('',*,*,#781,.F.);
#953 = ORIENTED_EDGE('',*,*,#741,.F.);
#954 = PLANE('',#955);
#955 = AXIS2_PLACEMENT_3D('',#956,#957,#958);
#956 = CARTESIAN_POINT('',(4.363176486777E-13,3.10862446895E-13,1.9));
#957 = DIRECTION('',(0.,0.,1.));
#958 = DIRECTION('',(1.,0.,-0.));
#959 = ADVANCED_FACE('',(#960),#988,.F.);
#960 = FACE_BOUND('',#961,.T.);
#961 = EDGE_LOOP('',(#962,#963,#964,#965,#966,#974,#982));
#962 = ORIENTED_EDGE('',*,*,#914,.T.);
#963 = ORIENTED_EDGE('',*,*,#811,.F.);
#964 = ORIENTED_EDGE('',*,*,#946,.T.);
#965 = ORIENTED_EDGE('',*,*,#555,.F.);
#966 = ORIENTED_EDGE('',*,*,#967,.T.);
#967 = EDGE_CURVE('',#556,#968,#970,.T.);
#968 = VERTEX_POINT('',#969);
#969 = CARTESIAN_POINT('',(8.131727983654,6.010407640094,2.7));
#970 = LINE('',#971,#972);
#971 = CARTESIAN_POINT('',(8.131727983654,6.010407640094,2.7));
#972 = VECTOR('',#973,1.);
#973 = DIRECTION('',(0.707106781187,0.707106781187,0.));
#974 = ORIENTED_EDGE('',*,*,#975,.F.);
#975 = EDGE_CURVE('',#976,#968,#978,.T.);
#976 = VERTEX_POINT('',#977);
#977 = CARTESIAN_POINT('',(8.131727983654,6.010407640094,0.));
#978 = LINE('',#979,#980);
#979 = CARTESIAN_POINT('',(8.131727983654,6.010407640094,0.));
#980 = VECTOR('',#981,1.);
#981 = DIRECTION('',(0.,0.,1.));
#982 = ORIENTED_EDGE('',*,*,#983,.F.);
#983 = EDGE_CURVE('',#915,#976,#984,.T.);
#984 = LINE('',#985,#986);
#985 = CARTESIAN_POINT('',(1.06066017178,-1.06066017178,0.));
#986 = VECTOR('',#987,1.);
#987 = DIRECTION('',(0.707106781187,0.707106781187,0.));
#988 = PLANE('',#989);
#989 = AXIS2_PLACEMENT_3D('',#990,#991,#992);
#990 = CARTESIAN_POINT('',(1.06066017178,-1.06066017178,0.));
#991 = DIRECTION('',(0.707106781187,-0.707106781187,0.));
#992 = DIRECTION('',(0.707106781187,0.707106781187,0.));
#993 = ADVANCED_FACE('',(#994),#1022,.F.);
#994 = FACE_BOUND('',#995,.T.);
#995 = EDGE_LOOP('',(#996,#997,#998,#999,#1007,#1015,#1021));
#996 = ORIENTED_EDGE('',*,*,#938,.T.);
#997 = ORIENTED_EDGE('',*,*,#711,.F.);
#998 = ORIENTED_EDGE('',*,*,#851,.T.);
#999 = ORIENTED_EDGE('',*,*,#1000,.F.);
#1000 = EDGE_CURVE('',#1001,#844,#1003,.T.);
#1001 = VERTEX_POINT('',#1002);
#1002 = CARTESIAN_POINT('',(6.010407640094,8.131727983654,0.));
#1003 = LINE('',#1004,#1005);
#1004 = CARTESIAN_POINT('',(2.474873734157,4.596194077717,0.));
#1005 = VECTOR('',#1006,1.);
#1006 = DIRECTION('',(-0.707106781187,-0.707106781187,0.));
#1007 = ORIENTED_EDGE('',*,*,#1008,.T.);
#1008 = EDGE_CURVE('',#1001,#1009,#1011,.T.);
#1009 = VERTEX_POINT('',#1010);
#1010 = CARTESIAN_POINT('',(6.010407640094,8.131727983654,2.7));
#1011 = LINE('',#1012,#1013);
#1012 = CARTESIAN_POINT('',(6.010407640094,8.131727983654,0.));
#1013 = VECTOR('',#1014,1.);
#1014 = DIRECTION('',(0.,0.,1.));
#1015 = ORIENTED_EDGE('',*,*,#1016,.T.);
#1016 = EDGE_CURVE('',#1009,#564,#1017,.T.);
#1017 = LINE('',#1018,#1019);
#1018 = CARTESIAN_POINT('',(-1.06066017178,1.06066017178,2.7));
#1019 = VECTOR('',#1020,1.);
#1020 = DIRECTION('',(-0.707106781187,-0.707106781187,0.));
#1021 = ORIENTED_EDGE('',*,*,#572,.T.);
#1022 = PLANE('',#1023);
#1023 = AXIS2_PLACEMENT_3D('',#1024,#1025,#1026);
#1024 = CARTESIAN_POINT('',(6.010407640094,8.131727983654,0.));
#1025 = DIRECTION('',(-0.707106781187,0.707106781187,0.));
#1026 = DIRECTION('',(-0.707106781187,-0.707106781187,0.));
#1027 = ADVANCED_FACE('',(#1028),#1046,.F.);
#1028 = FACE_BOUND('',#1029,.F.);
#1029 = EDGE_LOOP('',(#1030,#1031,#1038,#1039));
#1030 = ORIENTED_EDGE('',*,*,#1008,.T.);
#1031 = ORIENTED_EDGE('',*,*,#1032,.F.);
#1032 = EDGE_CURVE('',#968,#1009,#1033,.T.);
#1033 = CIRCLE('',#1034,1.5);
#1034 = AXIS2_PLACEMENT_3D('',#1035,#1036,#1037);
#1035 = CARTESIAN_POINT('',(7.071067811874,7.071067811874,2.7));
#1036 = DIRECTION('',(0.,0.,1.));
#1037 = DIRECTION('',(1.,0.,-0.));
#1038 = ORIENTED_EDGE('',*,*,#975,.F.);
#1039 = ORIENTED_EDGE('',*,*,#1040,.T.);
#1040 = EDGE_CURVE('',#976,#1001,#1041,.T.);
#1041 = CIRCLE('',#1042,1.5);
#1042 = AXIS2_PLACEMENT_3D('',#1043,#1044,#1045);
#1043 = CARTESIAN_POINT('',(7.071067811874,7.071067811874,0.));
#1044 = DIRECTION('',(0.,0.,1.));
#1045 = DIRECTION('',(1.,0.,-0.));
#1046 = CYLINDRICAL_SURFACE('',#1047,1.5);
#1047 = AXIS2_PLACEMENT_3D('',#1048,#1049,#1050);
#1048 = CARTESIAN_POINT('',(7.071067811874,7.071067811874,0.));
#1049 = DIRECTION('',(0.,0.,1.));
#1050 = DIRECTION('',(1.,0.,-0.));
#1051 = ADVANCED_FACE('',(#1052),#1058,.F.);
#1052 = FACE_BOUND('',#1053,.T.);
#1053 = EDGE_LOOP('',(#1054,#1055,#1056,#1057));
#1054 = ORIENTED_EDGE('',*,*,#1032,.F.);
#1055 = ORIENTED_EDGE('',*,*,#967,.F.);
#1056 = ORIENTED_EDGE('',*,*,#563,.F.);
#1057 = ORIENTED_EDGE('',*,*,#1016,.F.);
#1058 = PLANE('',#1059);
#1059 = AXIS2_PLACEMENT_3D('',#1060,#1061,#1062);
#1060 = CARTESIAN_POINT('',(3.755203820047,3.755203820047,2.7));
#1061 = DIRECTION('',(0.,0.,1.));
#1062 = DIRECTION('',(1.,0.,-0.));
#1063 = ADVANCED_FACE('',(#1064),#1091,.F.);
#1064 = FACE_BOUND('',#1065,.F.);
#1065 = EDGE_LOOP('',(#1066,#1076,#1083,#1084));
#1066 = ORIENTED_EDGE('',*,*,#1067,.T.);
#1067 = EDGE_CURVE('',#1068,#1070,#1072,.T.);
#1068 = VERTEX_POINT('',#1069);
#1069 = CARTESIAN_POINT('',(-6.25,-5.551115123126E-16,6.));
#1070 = VERTEX_POINT('',#1071);
#1071 = CARTESIAN_POINT('',(-6.25,-6.918576221017E-16,3.4));
#1072 = LINE('',#1073,#1074);
#1073 = CARTESIAN_POINT('',(-6.25,-6.918576221017E-16,3.4));
#1074 = VECTOR('',#1075,1.);
#1075 = DIRECTION('',(0.,0.,-1.));
#1076 = ORIENTED_EDGE('',*,*,#1077,.T.);
#1077 = EDGE_CURVE('',#1070,#1070,#1078,.T.);
#1078 = CIRCLE('',#1079,6.25);
#1079 = AXIS2_PLACEMENT_3D('',#1080,#1081,#1082);
#1080 = CARTESIAN_POINT('',(0.,7.354662736538E-17,3.4));
#1081 = DIRECTION('',(0.,0.,1.));
#1082 = DIRECTION('',(1.,0.,-0.));
#1083 = ORIENTED_EDGE('',*,*,#1067,.F.);
#1084 = ORIENTED_EDGE('',*,*,#1085,.T.);
#1085 = EDGE_CURVE('',#1068,#1068,#1086,.T.);
#1086 = CIRCLE('',#1087,6.25);
#1087 = AXIS2_PLACEMENT_3D('',#1088,#1089,#1090);
#1088 = CARTESIAN_POINT('',(0.,7.354662736538E-17,6.));
#1089 = DIRECTION('',(0.,0.,-1.));
#1090 = DIRECTION('',(1.,0.,0.));
#1091 = CYLINDRICAL_SURFACE('',#1092,6.25);
#1092 = AXIS2_PLACEMENT_3D('',#1093,#1094,#1095);
#1093 = CARTESIAN_POINT('',(0.,7.354662736538E-17,3.4));
#1094 = DIRECTION('',(0.,0.,1.));
#1095 = DIRECTION('',(1.,0.,-0.));
#1096 = ADVANCED_FACE('',(#1097,#1108,#1143,#1154,#1165,#1176),#1179,.T.
  );
#1097 = FACE_BOUND('',#1098,.T.);
#1098 = EDGE_LOOP('',(#1099));
#1099 = ORIENTED_EDGE('',*,*,#1100,.T.);
#1100 = EDGE_CURVE('',#1101,#1101,#1103,.T.);
#1101 = VERTEX_POINT('',#1102);
#1102 = CARTESIAN_POINT('',(-15.,1.665334536938E-15,6.));
#1103 = CIRCLE('',#1104,15.);
#1104 = AXIS2_PLACEMENT_3D('',#1105,#1106,#1107);
#1105 = CARTESIAN_POINT('',(0.,0.,6.));
#1106 = DIRECTION('',(0.,0.,1.));
#1107 = DIRECTION('',(1.,0.,-0.));
#1108 = FACE_BOUND('',#1109,.T.);
#1109 = EDGE_LOOP('',(#1110,#1120,#1129,#1137));
#1110 = ORIENTED_EDGE('',*,*,#1111,.T.);
#1111 = EDGE_CURVE('',#1112,#1114,#1116,.T.);
#1112 = VERTEX_POINT('',#1113);
#1113 = CARTESIAN_POINT('',(-8.999999999999,-4.,6.));
#1114 = VERTEX_POINT('',#1115);
#1115 = CARTESIAN_POINT('',(-12.36931687685,-4.,6.));
#1116 = LINE('',#1117,#1118);
#1117 = CARTESIAN_POINT('',(-4.5,-4.,6.));
#1118 = VECTOR('',#1119,1.);
#1119 = DIRECTION('',(-1.,0.,0.));
#1120 = ORIENTED_EDGE('',*,*,#1121,.T.);
#1121 = EDGE_CURVE('',#1114,#1122,#1124,.T.);
#1122 = VERTEX_POINT('',#1123);
#1123 = CARTESIAN_POINT('',(-12.36931687685,4.,6.));
#1124 = CIRCLE('',#1125,13.);
#1125 = AXIS2_PLACEMENT_3D('',#1126,#1127,#1128);
#1126 = CARTESIAN_POINT('',(0.,7.354662736538E-17,6.));
#1127 = DIRECTION('',(0.,0.,-1.));
#1128 = DIRECTION('',(1.,0.,0.));
#1129 = ORIENTED_EDGE('',*,*,#1130,.T.);
#1130 = EDGE_CURVE('',#1122,#1131,#1133,.T.);
#1131 = VERTEX_POINT('',#1132);
#1132 = CARTESIAN_POINT('',(-9.000000000001,4.,6.));
#1133 = LINE('',#1134,#1135);
#1134 = CARTESIAN_POINT('',(-6.184658438426,4.,6.));
#1135 = VECTOR('',#1136,1.);
#1136 = DIRECTION('',(1.,0.,0.));
#1137 = ORIENTED_EDGE('',*,*,#1138,.T.);
#1138 = EDGE_CURVE('',#1131,#1112,#1139,.T.);
#1139 = LINE('',#1140,#1141);
#1140 = CARTESIAN_POINT('',(-9.,1.999999999999,6.));
#1141 = VECTOR('',#1142,1.);
#1142 = DIRECTION('',(1.787459069647E-13,-1.,0.));
#1143 = FACE_BOUND('',#1144,.T.);
#1144 = EDGE_LOOP('',(#1145));
#1145 = ORIENTED_EDGE('',*,*,#1146,.T.);
#1146 = EDGE_CURVE('',#1147,#1147,#1149,.T.);
#1147 = VERTEX_POINT('',#1148);
#1148 = CARTESIAN_POINT('',(-6.025427014731,8.8775,6.));
#1149 = CIRCLE('',#1150,0.9);
#1150 = AXIS2_PLACEMENT_3D('',#1151,#1152,#1153);
#1151 = CARTESIAN_POINT('',(-5.125427014731,8.8775,6.));
#1152 = DIRECTION('',(0.,0.,-1.));
#1153 = DIRECTION('',(1.,0.,0.));
#1154 = FACE_BOUND('',#1155,.T.);
#1155 = EDGE_LOOP('',(#1156));
#1156 = ORIENTED_EDGE('',*,*,#1157,.T.);
#1157 = EDGE_CURVE('',#1158,#1158,#1160,.T.);
#1158 = VERTEX_POINT('',#1159);
#1159 = CARTESIAN_POINT('',(9.350854029459,-4.239941731043E-12,6.));
#1160 = CIRCLE('',#1161,0.9);
#1161 = AXIS2_PLACEMENT_3D('',#1162,#1163,#1164);
#1162 = CARTESIAN_POINT('',(10.250854029459,-4.239811912691E-12,6.));
#1163 = DIRECTION('',(0.,0.,-1.));
#1164 = DIRECTION('',(1.,0.,0.));
#1165 = FACE_BOUND('',#1166,.T.);
#1166 = EDGE_LOOP('',(#1167));
#1167 = ORIENTED_EDGE('',*,*,#1168,.T.);
#1168 = EDGE_CURVE('',#1169,#1169,#1171,.T.);
#1169 = VERTEX_POINT('',#1170);
#1170 = CARTESIAN_POINT('',(-6.025427014731,-8.8775,6.));
#1171 = CIRCLE('',#1172,0.9);
#1172 = AXIS2_PLACEMENT_3D('',#1173,#1174,#1175);
#1173 = CARTESIAN_POINT('',(-5.125427014731,-8.8775,6.));
#1174 = DIRECTION('',(0.,0.,-1.));
#1175 = DIRECTION('',(1.,0.,0.));
#1176 = FACE_BOUND('',#1177,.T.);
#1177 = EDGE_LOOP('',(#1178));
#1178 = ORIENTED_EDGE('',*,*,#1085,.T.);
#1179 = PLANE('',#1180);
#1180 = AXIS2_PLACEMENT_3D('',#1181,#1182,#1183);
#1181 = CARTESIAN_POINT('',(0.,0.,6.));
#1182 = DIRECTION('',(0.,0.,1.));
#1183 = DIRECTION('',(1.,0.,-0.));
#1184 = ADVANCED_FACE('',(#1185),#1210,.T.);
#1185 = FACE_BOUND('',#1186,.T.);
#1186 = EDGE_LOOP('',(#1187,#1197,#1203,#1204));
#1187 = ORIENTED_EDGE('',*,*,#1188,.T.);
#1188 = EDGE_CURVE('',#1189,#1191,#1193,.T.);
#1189 = VERTEX_POINT('',#1190);
#1190 = CARTESIAN_POINT('',(-8.999999999999,-4.,0.));
#1191 = VERTEX_POINT('',#1192);
#1192 = CARTESIAN_POINT('',(-12.36931687685,-4.,0.));
#1193 = LINE('',#1194,#1195);
#1194 = CARTESIAN_POINT('',(-8.999999999999,-4.,0.));
#1195 = VECTOR('',#1196,1.);
#1196 = DIRECTION('',(-1.,0.,0.));
#1197 = ORIENTED_EDGE('',*,*,#1198,.T.);
#1198 = EDGE_CURVE('',#1191,#1114,#1199,.T.);
#1199 = LINE('',#1200,#1201);
#1200 = CARTESIAN_POINT('',(-12.36931687685,-4.,0.));
#1201 = VECTOR('',#1202,1.);
#1202 = DIRECTION('',(0.,0.,1.));
#1203 = ORIENTED_EDGE('',*,*,#1111,.F.);
#1204 = ORIENTED_EDGE('',*,*,#1205,.F.);
#1205 = EDGE_CURVE('',#1189,#1112,#1206,.T.);
#1206 = LINE('',#1207,#1208);
#1207 = CARTESIAN_POINT('',(-8.999999999999,-4.,0.));
#1208 = VECTOR('',#1209,1.);
#1209 = DIRECTION('',(0.,0.,1.));
#1210 = PLANE('',#1211);
#1211 = AXIS2_PLACEMENT_3D('',#1212,#1213,#1214);
#1212 = CARTESIAN_POINT('',(-8.999999999999,-4.,0.));
#1213 = DIRECTION('',(0.,1.,0.));
#1214 = DIRECTION('',(-1.,0.,0.));
#1215 = ADVANCED_FACE('',(#1216),#1234,.T.);
#1216 = FACE_BOUND('',#1217,.T.);
#1217 = EDGE_LOOP('',(#1218,#1226,#1227,#1228));
#1218 = ORIENTED_EDGE('',*,*,#1219,.T.);
#1219 = EDGE_CURVE('',#1220,#1189,#1222,.T.);
#1220 = VERTEX_POINT('',#1221);
#1221 = CARTESIAN_POINT('',(-9.000000000001,4.,0.));
#1222 = LINE('',#1223,#1224);
#1223 = CARTESIAN_POINT('',(-9.000000000001,4.,0.));
#1224 = VECTOR('',#1225,1.);
#1225 = DIRECTION('',(1.787459069647E-13,-1.,0.));
#1226 = ORIENTED_EDGE('',*,*,#1205,.T.);
#1227 = ORIENTED_EDGE('',*,*,#1138,.F.);
#1228 = ORIENTED_EDGE('',*,*,#1229,.F.);
#1229 = EDGE_CURVE('',#1220,#1131,#1230,.T.);
#1230 = LINE('',#1231,#1232);
#1231 = CARTESIAN_POINT('',(-9.000000000001,4.,0.));
#1232 = VECTOR('',#1233,1.);
#1233 = DIRECTION('',(0.,0.,1.));
#1234 = PLANE('',#1235);
#1235 = AXIS2_PLACEMENT_3D('',#1236,#1237,#1238);
#1236 = CARTESIAN_POINT('',(-9.000000000001,4.,0.));
#1237 = DIRECTION('',(-1.,-1.787459069647E-13,0.));
#1238 = DIRECTION('',(1.787459069647E-13,-1.,0.));
#1239 = ADVANCED_FACE('',(#1240),#1258,.T.);
#1240 = FACE_BOUND('',#1241,.T.);
#1241 = EDGE_LOOP('',(#1242,#1250,#1251,#1252));
#1242 = ORIENTED_EDGE('',*,*,#1243,.T.);
#1243 = EDGE_CURVE('',#1244,#1220,#1246,.T.);
#1244 = VERTEX_POINT('',#1245);
#1245 = CARTESIAN_POINT('',(-12.36931687685,4.,0.));
#1246 = LINE('',#1247,#1248);
#1247 = CARTESIAN_POINT('',(-18.64553059605,4.,0.));
#1248 = VECTOR('',#1249,1.);
#1249 = DIRECTION('',(1.,0.,0.));
#1250 = ORIENTED_EDGE('',*,*,#1229,.T.);
#1251 = ORIENTED_EDGE('',*,*,#1130,.F.);
#1252 = ORIENTED_EDGE('',*,*,#1253,.F.);
#1253 = EDGE_CURVE('',#1244,#1122,#1254,.T.);
#1254 = LINE('',#1255,#1256);
#1255 = CARTESIAN_POINT('',(-12.36931687685,4.,0.));
#1256 = VECTOR('',#1257,1.);
#1257 = DIRECTION('',(0.,0.,1.));
#1258 = PLANE('',#1259);
#1259 = AXIS2_PLACEMENT_3D('',#1260,#1261,#1262);
#1260 = CARTESIAN_POINT('',(-12.36931687685,4.,0.));
#1261 = DIRECTION('',(0.,-1.,0.));
#1262 = DIRECTION('',(1.,0.,0.));
#1263 = ADVANCED_FACE('',(#1264),#1276,.F.);
#1264 = FACE_BOUND('',#1265,.F.);
#1265 = EDGE_LOOP('',(#1266,#1267,#1268,#1269));
#1266 = ORIENTED_EDGE('',*,*,#1198,.T.);
#1267 = ORIENTED_EDGE('',*,*,#1121,.T.);
#1268 = ORIENTED_EDGE('',*,*,#1253,.F.);
#1269 = ORIENTED_EDGE('',*,*,#1270,.F.);
#1270 = EDGE_CURVE('',#1191,#1244,#1271,.T.);
#1271 = CIRCLE('',#1272,13.);
#1272 = AXIS2_PLACEMENT_3D('',#1273,#1274,#1275);
#1273 = CARTESIAN_POINT('',(0.,7.354662736538E-17,0.));
#1274 = DIRECTION('',(0.,0.,-1.));
#1275 = DIRECTION('',(1.,0.,0.));
#1276 = CYLINDRICAL_SURFACE('',#1277,13.);
#1277 = AXIS2_PLACEMENT_3D('',#1278,#1279,#1280);
#1278 = CARTESIAN_POINT('',(0.,7.354662736538E-17,0.));
#1279 = DIRECTION('',(0.,0.,1.));
#1280 = DIRECTION('',(-1.,1.224646799147E-16,0.));
#1281 = ADVANCED_FACE('',(#1282),#1301,.F.);
#1282 = FACE_BOUND('',#1283,.F.);
#1283 = EDGE_LOOP('',(#1284,#1292,#1299,#1300));
#1284 = ORIENTED_EDGE('',*,*,#1285,.T.);
#1285 = EDGE_CURVE('',#1158,#1286,#1288,.T.);
#1286 = VERTEX_POINT('',#1287);
#1287 = CARTESIAN_POINT('',(9.350854029459,-4.239922130903E-12,0.));
#1288 = LINE('',#1289,#1290);
#1289 = CARTESIAN_POINT('',(9.350854029459,-4.239922130903E-12,0.));
#1290 = VECTOR('',#1291,1.);
#1291 = DIRECTION('',(0.,0.,-1.));
#1292 = ORIENTED_EDGE('',*,*,#1293,.F.);
#1293 = EDGE_CURVE('',#1286,#1286,#1294,.T.);
#1294 = CIRCLE('',#1295,0.9);
#1295 = AXIS2_PLACEMENT_3D('',#1296,#1297,#1298);
#1296 = CARTESIAN_POINT('',(10.250854029459,-4.239811912691E-12,0.));
#1297 = DIRECTION('',(0.,0.,-1.));
#1298 = DIRECTION('',(1.,0.,0.));
#1299 = ORIENTED_EDGE('',*,*,#1285,.F.);
#1300 = ORIENTED_EDGE('',*,*,#1157,.T.);
#1301 = CYLINDRICAL_SURFACE('',#1302,0.9);
#1302 = AXIS2_PLACEMENT_3D('',#1303,#1304,#1305);
#1303 = CARTESIAN_POINT('',(10.250854029459,-4.239811912691E-12,0.));
#1304 = DIRECTION('',(0.,0.,1.));
#1305 = DIRECTION('',(1.,0.,-0.));
#1306 = ADVANCED_FACE('',(#1307),#1326,.F.);
#1307 = FACE_BOUND('',#1308,.F.);
#1308 = EDGE_LOOP('',(#1309,#1317,#1324,#1325));
#1309 = ORIENTED_EDGE('',*,*,#1310,.T.);
#1310 = EDGE_CURVE('',#1169,#1311,#1313,.T.);
#1311 = VERTEX_POINT('',#1312);
#1312 = CARTESIAN_POINT('',(-6.025427014731,-8.8775,0.));
#1313 = LINE('',#1314,#1315);
#1314 = CARTESIAN_POINT('',(-6.025427014731,-8.8775,0.));
#1315 = VECTOR('',#1316,1.);
#1316 = DIRECTION('',(0.,0.,-1.));
#1317 = ORIENTED_EDGE('',*,*,#1318,.F.);
#1318 = EDGE_CURVE('',#1311,#1311,#1319,.T.);
#1319 = CIRCLE('',#1320,0.9);
#1320 = AXIS2_PLACEMENT_3D('',#1321,#1322,#1323);
#1321 = CARTESIAN_POINT('',(-5.125427014731,-8.8775,0.));
#1322 = DIRECTION('',(0.,0.,-1.));
#1323 = DIRECTION('',(1.,0.,0.));
#1324 = ORIENTED_EDGE('',*,*,#1310,.F.);
#1325 = ORIENTED_EDGE('',*,*,#1168,.T.);
#1326 = CYLINDRICAL_SURFACE('',#1327,0.9);
#1327 = AXIS2_PLACEMENT_3D('',#1328,#1329,#1330);
#1328 = CARTESIAN_POINT('',(-5.125427014731,-8.8775,0.));
#1329 = DIRECTION('',(0.,0.,1.));
#1330 = DIRECTION('',(1.,0.,-0.));
#1331 = ADVANCED_FACE('',(#1332),#1351,.F.);
#1332 = FACE_BOUND('',#1333,.F.);
#1333 = EDGE_LOOP('',(#1334,#1342,#1349,#1350));
#1334 = ORIENTED_EDGE('',*,*,#1335,.T.);
#1335 = EDGE_CURVE('',#1147,#1336,#1338,.T.);
#1336 = VERTEX_POINT('',#1337);
#1337 = CARTESIAN_POINT('',(-6.025427014731,8.8775,0.));
#1338 = LINE('',#1339,#1340);
#1339 = CARTESIAN_POINT('',(-6.025427014731,8.8775,0.));
#1340 = VECTOR('',#1341,1.);
#1341 = DIRECTION('',(0.,0.,-1.));
#1342 = ORIENTED_EDGE('',*,*,#1343,.F.);
#1343 = EDGE_CURVE('',#1336,#1336,#1344,.T.);
#1344 = CIRCLE('',#1345,0.9);
#1345 = AXIS2_PLACEMENT_3D('',#1346,#1347,#1348);
#1346 = CARTESIAN_POINT('',(-5.125427014731,8.8775,0.));
#1347 = DIRECTION('',(0.,0.,-1.));
#1348 = DIRECTION('',(1.,0.,0.));
#1349 = ORIENTED_EDGE('',*,*,#1335,.F.);
#1350 = ORIENTED_EDGE('',*,*,#1146,.T.);
#1351 = CYLINDRICAL_SURFACE('',#1352,0.9);
#1352 = AXIS2_PLACEMENT_3D('',#1353,#1354,#1355);
#1353 = CARTESIAN_POINT('',(-5.125427014731,8.8775,0.));
#1354 = DIRECTION('',(0.,0.,1.));
#1355 = DIRECTION('',(1.,0.,-0.));
#1356 = ADVANCED_FACE('',(#1357),#1368,.T.);
#1357 = FACE_BOUND('',#1358,.T.);
#1358 = EDGE_LOOP('',(#1359,#1360,#1366,#1367));
#1359 = ORIENTED_EDGE('',*,*,#1100,.F.);
#1360 = ORIENTED_EDGE('',*,*,#1361,.T.);
#1361 = EDGE_CURVE('',#1101,#58,#1362,.T.);
#1362 = LINE('',#1363,#1364);
#1363 = CARTESIAN_POINT('',(-15.,-1.836970198721E-15,0.));
#1364 = VECTOR('',#1365,1.);
#1365 = DIRECTION('',(0.,0.,-1.));
#1366 = ORIENTED_EDGE('',*,*,#57,.T.);
#1367 = ORIENTED_EDGE('',*,*,#1361,.F.);
#1368 = CYLINDRICAL_SURFACE('',#1369,15.);
#1369 = AXIS2_PLACEMENT_3D('',#1370,#1371,#1372);
#1370 = CARTESIAN_POINT('',(0.,0.,0.));
#1371 = DIRECTION('',(0.,0.,1.));
#1372 = DIRECTION('',(1.,0.,-0.));
#1373 = ADVANCED_FACE('',(#1374,#1377),#1380,.T.);
#1374 = FACE_BOUND('',#1375,.T.);
#1375 = EDGE_LOOP('',(#1376));
#1376 = ORIENTED_EDGE('',*,*,#1077,.T.);
#1377 = FACE_BOUND('',#1378,.T.);
#1378 = EDGE_LOOP('',(#1379));
#1379 = ORIENTED_EDGE('',*,*,#680,.T.);
#1380 = PLANE('',#1381);
#1381 = AXIS2_PLACEMENT_3D('',#1382,#1383,#1384);
#1382 = CARTESIAN_POINT('',(0.,0.,3.4));
#1383 = DIRECTION('',(0.,0.,1.));
#1384 = DIRECTION('',(1.,0.,-0.));
#1385 = ADVANCED_FACE('',(#1386,#1389,#1398,#1401,#1404,#1407),#1413,.F.
  );
#1386 = FACE_BOUND('',#1387,.T.);
#1387 = EDGE_LOOP('',(#1388));
#1388 = ORIENTED_EDGE('',*,*,#103,.F.);
#1389 = FACE_BOUND('',#1390,.T.);
#1390 = EDGE_LOOP('',(#1391,#1392,#1393,#1394,#1395,#1396,#1397));
#1391 = ORIENTED_EDGE('',*,*,#922,.T.);
#1392 = ORIENTED_EDGE('',*,*,#983,.T.);
#1393 = ORIENTED_EDGE('',*,*,#1040,.T.);
#1394 = ORIENTED_EDGE('',*,*,#1000,.T.);
#1395 = ORIENTED_EDGE('',*,*,#843,.T.);
#1396 = ORIENTED_EDGE('',*,*,#874,.T.);
#1397 = ORIENTED_EDGE('',*,*,#898,.T.);
#1398 = FACE_BOUND('',#1399,.T.);
#1399 = EDGE_LOOP('',(#1400));
#1400 = ORIENTED_EDGE('',*,*,#1343,.F.);
#1401 = FACE_BOUND('',#1402,.T.);
#1402 = EDGE_LOOP('',(#1403));
#1403 = ORIENTED_EDGE('',*,*,#1318,.F.);
#1404 = FACE_BOUND('',#1405,.T.);
#1405 = EDGE_LOOP('',(#1406));
#1406 = ORIENTED_EDGE('',*,*,#1293,.F.);
#1407 = FACE_BOUND('',#1408,.T.);
#1408 = EDGE_LOOP('',(#1409,#1410,#1411,#1412));
#1409 = ORIENTED_EDGE('',*,*,#1270,.F.);
#1410 = ORIENTED_EDGE('',*,*,#1188,.F.);
#1411 = ORIENTED_EDGE('',*,*,#1219,.F.);
#1412 = ORIENTED_EDGE('',*,*,#1243,.F.);
#1413 = PLANE('',#1414);
#1414 = AXIS2_PLACEMENT_3D('',#1415,#1416,#1417);
#1415 = CARTESIAN_POINT('',(0.,0.,0.));
#1416 = DIRECTION('',(0.,0.,1.));
#1417 = DIRECTION('',(1.,0.,-0.));
#1418 = ( GEOMETRIC_REPRESENTATION_CONTEXT(3) 
GLOBAL_UNCERTAINTY_ASSIGNED_CONTEXT((#1422)) 
GLOBAL_UNIT_ASSIGNED_CONTEXT((#1419,#1420,#1421)) REPRESENTATION_CONTEXT
('Context #1','3D Context with UNIT and UNCERTAINTY') );
#1419 = ( LENGTH_UNIT() NAMED_UNIT(*) SI_UNIT(.MILLI.,.METRE.) );
#1420 = ( NAMED_UNIT(*) PLANE_ANGLE_UNIT() SI_UNIT($,.RADIAN.) );
#1421 = ( NAMED_UNIT(*) SI_UNIT($,.STERADIAN.) SOLID_ANGLE_UNIT() );
#1422 = UNCERTAINTY_MEASURE_WITH_UNIT(LENGTH_MEASURE(1.E-07),#1419,
  'distance_accuracy_value','confusion accuracy');
#1423 = PRODUCT_RELATED_PRODUCT_CATEGORY('part',$,(#7));
#1424 = MECHANICAL_DESIGN_GEOMETRIC_PRESENTATION_REPRESENTATION('',(
    #1425),#1418);
#1425 = STYLED_ITEM('color',(#1426),#15);
#1426 = PRESENTATION_STYLE_ASSIGNMENT((#1427,#1433));
#1427 = SURFACE_STYLE_USAGE(.BOTH.,#1428);
#1428 = SURFACE_SIDE_STYLE('',(#1429));
#1429 = SURFACE_STYLE_FILL_AREA(#1430);
#1430 = FILL_AREA_STYLE('',(#1431));
#1431 = FILL_AREA_STYLE_COLOUR('',#1432);
#1432 = COLOUR_RGB('',0.28235292142,0.28235292142,0.28235292142);
#1433 = CURVE_STYLE('',#1434,POSITIVE_LENGTH_MEASURE(0.1),#1435);
#1434 = DRAUGHTING_PRE_DEFINED_CURVE_FONT('continuous');
#1435 = COLOUR_RGB('',9.803921802644E-02,9.803921802644E-02,
  9.803921802644E-02);
ENDSEC;
END-ISO-10303-21;
