ISO-10303-21;
HEADER;
FILE_DESCRIPTION(('FreeCAD Model'),'2;1');
FILE_NAME('Open CASCADE Shape Model','2025-04-19T20:58:45',(''),(''),
  'Open CASCADE STEP processor 7.8','FreeCAD','Unknown');
FILE_SCHEMA(('AUTOMOTIVE_DESIGN { 1 0 10303 214 1 1 1 1 }'));
ENDSEC;
DATA;
#1 = APPLICATION_PROTOCOL_DEFINITION('international standard',
  'automotive_design',2000,#2);
#2 = APPLICATION_CONTEXT(
  'core data for automotive mechanical design processes');
#3 = SHAPE_DEFINITION_REPRESENTATION(#4,#10);
#4 = PRODUCT_DEFINITION_SHAPE('','',#5);
#5 = PRODUCT_DEFINITION('design','',#6,#9);
#6 = PRODUCT_DEFINITION_FORMATION('','',#7);
#7 = PRODUCT('Body','Body','',(#8));
#8 = PRODUCT_CONTEXT('',#2,'mechanical');
#9 = PRODUCT_DEFINITION_CONTEXT('part definition',#2,'design');
#10 = ADVANCED_BREP_SHAPE_REPRESENTATION('',(#11,#15),#1282);
#11 = AXIS2_PLACEMENT_3D('',#12,#13,#14);
#12 = CARTESIAN_POINT('',(0.,0.,0.));
#13 = DIRECTION('',(0.,0.,1.));
#14 = DIRECTION('',(1.,0.,-0.));
#15 = MANIFOLD_SOLID_BREP('',#16);
#16 = CLOSED_SHELL('',(#17,#57,#88,#119,#150,#271,#295,#353,#370,#394,
    #428,#453,#478,#503,#535,#559,#583,#600,#625,#664,#682,#694,#797,
    #809,#829,#872,#912,#937,#970,#995,#1028,#1063,#1096,#1114,#1139,
    #1164,#1189,#1207,#1246,#1258,#1270));
#17 = ADVANCED_FACE('',(#18),#52,.T.);
#18 = FACE_BOUND('',#19,.T.);
#19 = EDGE_LOOP('',(#20,#30,#38,#46));
#20 = ORIENTED_EDGE('',*,*,#21,.F.);
#21 = EDGE_CURVE('',#22,#24,#26,.T.);
#22 = VERTEX_POINT('',#23);
#23 = CARTESIAN_POINT('',(-6.5,-4.25,1.3));
#24 = VERTEX_POINT('',#25);
#25 = CARTESIAN_POINT('',(-6.5,4.25,1.3));
#26 = LINE('',#27,#28);
#27 = CARTESIAN_POINT('',(-6.5,-3.25,1.3));
#28 = VECTOR('',#29,1.);
#29 = DIRECTION('',(0.,1.,0.));
#30 = ORIENTED_EDGE('',*,*,#31,.T.);
#31 = EDGE_CURVE('',#22,#32,#34,.T.);
#32 = VERTEX_POINT('',#33);
#33 = CARTESIAN_POINT('',(-6.5,-4.25,0.));
#34 = LINE('',#35,#36);
#35 = CARTESIAN_POINT('',(-6.5,-4.25,1.3));
#36 = VECTOR('',#37,1.);
#37 = DIRECTION('',(0.,0.,-1.));
#38 = ORIENTED_EDGE('',*,*,#39,.T.);
#39 = EDGE_CURVE('',#32,#40,#42,.T.);
#40 = VERTEX_POINT('',#41);
#41 = CARTESIAN_POINT('',(-6.5,4.25,0.));
#42 = LINE('',#43,#44);
#43 = CARTESIAN_POINT('',(-6.5,-4.25,0.));
#44 = VECTOR('',#45,1.);
#45 = DIRECTION('',(0.,1.,0.));
#46 = ORIENTED_EDGE('',*,*,#47,.T.);
#47 = EDGE_CURVE('',#40,#24,#48,.T.);
#48 = LINE('',#49,#50);
#49 = CARTESIAN_POINT('',(-6.5,4.25,0.));
#50 = VECTOR('',#51,1.);
#51 = DIRECTION('',(0.,0.,1.));
#52 = PLANE('',#53);
#53 = AXIS2_PLACEMENT_3D('',#54,#55,#56);
#54 = CARTESIAN_POINT('',(-6.5,-8.800516105981E-16,0.891604943159));
#55 = DIRECTION('',(1.,0.,0.));
#56 = DIRECTION('',(0.,0.,1.));
#57 = ADVANCED_FACE('',(#58),#83,.F.);
#58 = FACE_BOUND('',#59,.T.);
#59 = EDGE_LOOP('',(#60,#68,#69,#77));
#60 = ORIENTED_EDGE('',*,*,#61,.F.);
#61 = EDGE_CURVE('',#22,#62,#64,.T.);
#62 = VERTEX_POINT('',#63);
#63 = CARTESIAN_POINT('',(-5.9,-3.25,1.9));
#64 = LINE('',#65,#66);
#65 = CARTESIAN_POINT('',(-5.64287681913,-2.821461365218,2.157123180869)
  );
#66 = VECTOR('',#67,1.);
#67 = DIRECTION('',(0.457495710998,0.762492851663,0.457495710998));
#68 = ORIENTED_EDGE('',*,*,#21,.T.);
#69 = ORIENTED_EDGE('',*,*,#70,.T.);
#70 = EDGE_CURVE('',#24,#71,#73,.T.);
#71 = VERTEX_POINT('',#72);
#72 = CARTESIAN_POINT('',(-5.9,3.25,1.9));
#73 = LINE('',#74,#75);
#74 = CARTESIAN_POINT('',(-4.581701572918,1.052835954864,3.218298427082)
  );
#75 = VECTOR('',#76,1.);
#76 = DIRECTION('',(0.457495710998,-0.762492851663,0.457495710998));
#77 = ORIENTED_EDGE('',*,*,#78,.F.);
#78 = EDGE_CURVE('',#62,#71,#79,.T.);
#79 = LINE('',#80,#81);
#80 = CARTESIAN_POINT('',(-5.9,-3.25,1.9));
#81 = VECTOR('',#82,1.);
#82 = DIRECTION('',(0.,1.,0.));
#83 = PLANE('',#84);
#84 = AXIS2_PLACEMENT_3D('',#85,#86,#87);
#85 = CARTESIAN_POINT('',(-6.2,-3.25,1.6));
#86 = DIRECTION('',(-0.707106781187,-6.963829119075E-18,0.707106781187)
  );
#87 = DIRECTION('',(4.924170793122E-18,-1.,-4.924170793122E-18));
#88 = ADVANCED_FACE('',(#89),#114,.T.);
#89 = FACE_BOUND('',#90,.T.);
#90 = EDGE_LOOP('',(#91,#99,#100,#108));
#91 = ORIENTED_EDGE('',*,*,#92,.T.);
#92 = EDGE_CURVE('',#93,#32,#95,.T.);
#93 = VERTEX_POINT('',#94);
#94 = CARTESIAN_POINT('',(3.5,-4.25,0.));
#95 = LINE('',#96,#97);
#96 = CARTESIAN_POINT('',(-1.5,-4.25,0.));
#97 = VECTOR('',#98,1.);
#98 = DIRECTION('',(-1.,-0.,-0.));
#99 = ORIENTED_EDGE('',*,*,#31,.F.);
#100 = ORIENTED_EDGE('',*,*,#101,.F.);
#101 = EDGE_CURVE('',#102,#22,#104,.T.);
#102 = VERTEX_POINT('',#103);
#103 = CARTESIAN_POINT('',(3.5,-4.25,1.3));
#104 = LINE('',#105,#106);
#105 = CARTESIAN_POINT('',(-1.5,-4.25,1.3));
#106 = VECTOR('',#107,1.);
#107 = DIRECTION('',(-1.,-0.,-0.));
#108 = ORIENTED_EDGE('',*,*,#109,.F.);
#109 = EDGE_CURVE('',#93,#102,#110,.T.);
#110 = LINE('',#111,#112);
#111 = CARTESIAN_POINT('',(3.5,-4.25,0.));
#112 = VECTOR('',#113,1.);
#113 = DIRECTION('',(0.,0.,1.));
#114 = PLANE('',#115);
#115 = AXIS2_PLACEMENT_3D('',#116,#117,#118);
#116 = CARTESIAN_POINT('',(-1.5,-4.25,0.65));
#117 = DIRECTION('',(-2.99954992618E-14,1.,0.));
#118 = DIRECTION('',(1.,2.99954992618E-14,0.));
#119 = ADVANCED_FACE('',(#120),#145,.T.);
#120 = FACE_BOUND('',#121,.T.);
#121 = EDGE_LOOP('',(#122,#130,#138,#144));
#122 = ORIENTED_EDGE('',*,*,#123,.F.);
#123 = EDGE_CURVE('',#124,#40,#126,.T.);
#124 = VERTEX_POINT('',#125);
#125 = CARTESIAN_POINT('',(2.128679656441,4.25,0.));
#126 = LINE('',#127,#128);
#127 = CARTESIAN_POINT('',(1.75,4.25,0.));
#128 = VECTOR('',#129,1.);
#129 = DIRECTION('',(-1.,0.,0.));
#130 = ORIENTED_EDGE('',*,*,#131,.F.);
#131 = EDGE_CURVE('',#132,#124,#134,.T.);
#132 = VERTEX_POINT('',#133);
#133 = CARTESIAN_POINT('',(2.128679656441,4.25,1.3));
#134 = LINE('',#135,#136);
#135 = CARTESIAN_POINT('',(2.128679656441,4.25,0.));
#136 = VECTOR('',#137,1.);
#137 = DIRECTION('',(0.,0.,-1.));
#138 = ORIENTED_EDGE('',*,*,#139,.F.);
#139 = EDGE_CURVE('',#24,#132,#140,.T.);
#140 = LINE('',#141,#142);
#141 = CARTESIAN_POINT('',(1.75,4.25,1.3));
#142 = VECTOR('',#143,1.);
#143 = DIRECTION('',(1.,0.,0.));
#144 = ORIENTED_EDGE('',*,*,#47,.F.);
#145 = PLANE('',#146);
#146 = AXIS2_PLACEMENT_3D('',#147,#148,#149);
#147 = CARTESIAN_POINT('',(-2.185660171779,4.25,0.65));
#148 = DIRECTION('',(3.819882663295E-14,-1.,0.));
#149 = DIRECTION('',(-1.,-3.819882663295E-14,0.));
#150 = ADVANCED_FACE('',(#151,#162,#173,#184,#219,#230),#266,.F.);
#151 = FACE_BOUND('',#152,.F.);
#152 = EDGE_LOOP('',(#153));
#153 = ORIENTED_EDGE('',*,*,#154,.T.);
#154 = EDGE_CURVE('',#155,#155,#157,.T.);
#155 = VERTEX_POINT('',#156);
#156 = CARTESIAN_POINT('',(-15.,-1.836970198721E-15,0.));
#157 = CIRCLE('',#158,15.);
#158 = AXIS2_PLACEMENT_3D('',#159,#160,#161);
#159 = CARTESIAN_POINT('',(0.,0.,0.));
#160 = DIRECTION('',(0.,0.,1.));
#161 = DIRECTION('',(1.,0.,0.));
#162 = FACE_BOUND('',#163,.F.);
#163 = EDGE_LOOP('',(#164));
#164 = ORIENTED_EDGE('',*,*,#165,.T.);
#165 = EDGE_CURVE('',#166,#166,#168,.T.);
#166 = VERTEX_POINT('',#167);
#167 = CARTESIAN_POINT('',(-6.025427014731,-8.8775,0.));
#168 = CIRCLE('',#169,0.9);
#169 = AXIS2_PLACEMENT_3D('',#170,#171,#172);
#170 = CARTESIAN_POINT('',(-5.125427014731,-8.8775,0.));
#171 = DIRECTION('',(0.,0.,-1.));
#172 = DIRECTION('',(1.,0.,0.));
#173 = FACE_BOUND('',#174,.F.);
#174 = EDGE_LOOP('',(#175));
#175 = ORIENTED_EDGE('',*,*,#176,.T.);
#176 = EDGE_CURVE('',#177,#177,#179,.T.);
#177 = VERTEX_POINT('',#178);
#178 = CARTESIAN_POINT('',(9.350854029459,-4.239922130903E-12,0.));
#179 = CIRCLE('',#180,0.9);
#180 = AXIS2_PLACEMENT_3D('',#181,#182,#183);
#181 = CARTESIAN_POINT('',(10.250854029459,-4.239811912691E-12,0.));
#182 = DIRECTION('',(0.,0.,-1.));
#183 = DIRECTION('',(1.,0.,0.));
#184 = FACE_BOUND('',#185,.F.);
#185 = EDGE_LOOP('',(#186,#197,#205,#213));
#186 = ORIENTED_EDGE('',*,*,#187,.T.);
#187 = EDGE_CURVE('',#188,#190,#192,.T.);
#188 = VERTEX_POINT('',#189);
#189 = CARTESIAN_POINT('',(-12.36931687685,-4.,0.));
#190 = VERTEX_POINT('',#191);
#191 = CARTESIAN_POINT('',(-12.36931687685,4.,0.));
#192 = CIRCLE('',#193,13.);
#193 = AXIS2_PLACEMENT_3D('',#194,#195,#196);
#194 = CARTESIAN_POINT('',(0.,7.354662736538E-17,0.));
#195 = DIRECTION('',(0.,0.,-1.));
#196 = DIRECTION('',(1.,0.,0.));
#197 = ORIENTED_EDGE('',*,*,#198,.T.);
#198 = EDGE_CURVE('',#190,#199,#201,.T.);
#199 = VERTEX_POINT('',#200);
#200 = CARTESIAN_POINT('',(-9.000000000001,4.,0.));
#201 = LINE('',#202,#203);
#202 = CARTESIAN_POINT('',(-18.64553059605,4.,0.));
#203 = VECTOR('',#204,1.);
#204 = DIRECTION('',(1.,0.,0.));
#205 = ORIENTED_EDGE('',*,*,#206,.T.);
#206 = EDGE_CURVE('',#199,#207,#209,.T.);
#207 = VERTEX_POINT('',#208);
#208 = CARTESIAN_POINT('',(-8.999999999999,-4.,0.));
#209 = LINE('',#210,#211);
#210 = CARTESIAN_POINT('',(-9.000000000001,4.,0.));
#211 = VECTOR('',#212,1.);
#212 = DIRECTION('',(1.787459069647E-13,-1.,0.));
#213 = ORIENTED_EDGE('',*,*,#214,.T.);
#214 = EDGE_CURVE('',#207,#188,#215,.T.);
#215 = LINE('',#216,#217);
#216 = CARTESIAN_POINT('',(-8.999999999999,-4.,0.));
#217 = VECTOR('',#218,1.);
#218 = DIRECTION('',(-1.,0.,0.));
#219 = FACE_BOUND('',#220,.F.);
#220 = EDGE_LOOP('',(#221));
#221 = ORIENTED_EDGE('',*,*,#222,.T.);
#222 = EDGE_CURVE('',#223,#223,#225,.T.);
#223 = VERTEX_POINT('',#224);
#224 = CARTESIAN_POINT('',(-6.025427014731,8.8775,0.));
#225 = CIRCLE('',#226,0.9);
#226 = AXIS2_PLACEMENT_3D('',#227,#228,#229);
#227 = CARTESIAN_POINT('',(-5.125427014731,8.8775,0.));
#228 = DIRECTION('',(0.,0.,-1.));
#229 = DIRECTION('',(1.,0.,0.));
#230 = FACE_BOUND('',#231,.F.);
#231 = EDGE_LOOP('',(#232,#240,#241,#242,#243,#251,#260));
#232 = ORIENTED_EDGE('',*,*,#233,.F.);
#233 = EDGE_CURVE('',#93,#234,#236,.T.);
#234 = VERTEX_POINT('',#235);
#235 = CARTESIAN_POINT('',(3.5,1.378679656441,0.));
#236 = LINE('',#237,#238);
#237 = CARTESIAN_POINT('',(3.5,-2.125,0.));
#238 = VECTOR('',#239,1.);
#239 = DIRECTION('',(0.,1.,0.));
#240 = ORIENTED_EDGE('',*,*,#92,.T.);
#241 = ORIENTED_EDGE('',*,*,#39,.T.);
#242 = ORIENTED_EDGE('',*,*,#123,.F.);
#243 = ORIENTED_EDGE('',*,*,#244,.F.);
#244 = EDGE_CURVE('',#245,#124,#247,.T.);
#245 = VERTEX_POINT('',#246);
#246 = CARTESIAN_POINT('',(6.010407640094,8.131727983654,0.));
#247 = LINE('',#248,#249);
#248 = CARTESIAN_POINT('',(2.474873734157,4.596194077717,0.));
#249 = VECTOR('',#250,1.);
#250 = DIRECTION('',(-0.707106781187,-0.707106781187,0.));
#251 = ORIENTED_EDGE('',*,*,#252,.F.);
#252 = EDGE_CURVE('',#253,#245,#255,.T.);
#253 = VERTEX_POINT('',#254);
#254 = CARTESIAN_POINT('',(8.131727983654,6.010407640094,0.));
#255 = CIRCLE('',#256,1.5);
#256 = AXIS2_PLACEMENT_3D('',#257,#258,#259);
#257 = CARTESIAN_POINT('',(7.071067811874,7.071067811874,0.));
#258 = DIRECTION('',(0.,0.,1.));
#259 = DIRECTION('',(1.,0.,0.));
#260 = ORIENTED_EDGE('',*,*,#261,.F.);
#261 = EDGE_CURVE('',#234,#253,#262,.T.);
#262 = LINE('',#263,#264);
#263 = CARTESIAN_POINT('',(1.06066017178,-1.06066017178,0.));
#264 = VECTOR('',#265,1.);
#265 = DIRECTION('',(0.707106781187,0.707106781187,0.));
#266 = PLANE('',#267);
#267 = AXIS2_PLACEMENT_3D('',#268,#269,#270);
#268 = CARTESIAN_POINT('',(0.,0.,0.));
#269 = DIRECTION('',(0.,0.,1.));
#270 = DIRECTION('',(1.,0.,0.));
#271 = ADVANCED_FACE('',(#272),#290,.T.);
#272 = FACE_BOUND('',#273,.T.);
#273 = EDGE_LOOP('',(#274,#282,#288,#289));
#274 = ORIENTED_EDGE('',*,*,#275,.T.);
#275 = EDGE_CURVE('',#62,#276,#278,.T.);
#276 = VERTEX_POINT('',#277);
#277 = CARTESIAN_POINT('',(2.5,-3.25,1.9));
#278 = LINE('',#279,#280);
#279 = CARTESIAN_POINT('',(-1.75,-3.25,1.9));
#280 = VECTOR('',#281,1.);
#281 = DIRECTION('',(1.,0.,0.));
#282 = ORIENTED_EDGE('',*,*,#283,.T.);
#283 = EDGE_CURVE('',#276,#102,#284,.T.);
#284 = LINE('',#285,#286);
#285 = CARTESIAN_POINT('',(2.5,-3.25,1.9));
#286 = VECTOR('',#287,1.);
#287 = DIRECTION('',(0.650944554904,-0.650944554904,-0.390566732942));
#288 = ORIENTED_EDGE('',*,*,#101,.T.);
#289 = ORIENTED_EDGE('',*,*,#61,.T.);
#290 = PLANE('',#291);
#291 = AXIS2_PLACEMENT_3D('',#292,#293,#294);
#292 = CARTESIAN_POINT('',(-1.657490307348,-3.773038905839,
    1.586176656497));
#293 = DIRECTION('',(-1.686416077598E-14,0.514495755428,-0.857492925713)
  );
#294 = DIRECTION('',(-1.577721810442E-30,-0.857492925713,-0.514495755428
    ));
#295 = ADVANCED_FACE('',(#296),#348,.T.);
#296 = FACE_BOUND('',#297,.T.);
#297 = EDGE_LOOP('',(#298,#299,#300,#308,#316,#325,#334,#342));
#298 = ORIENTED_EDGE('',*,*,#275,.F.);
#299 = ORIENTED_EDGE('',*,*,#78,.T.);
#300 = ORIENTED_EDGE('',*,*,#301,.F.);
#301 = EDGE_CURVE('',#302,#71,#304,.T.);
#302 = VERTEX_POINT('',#303);
#303 = CARTESIAN_POINT('',(1.128679656441,3.25,1.9));
#304 = LINE('',#305,#306);
#305 = CARTESIAN_POINT('',(-1.5,3.25,1.9));
#306 = VECTOR('',#307,1.);
#307 = DIRECTION('',(-1.,-0.,-0.));
#308 = ORIENTED_EDGE('',*,*,#309,.F.);
#309 = EDGE_CURVE('',#310,#302,#312,.T.);
#310 = VERTEX_POINT('',#311);
#311 = CARTESIAN_POINT('',(-1.06066017178,1.06066017178,1.9));
#312 = LINE('',#313,#314);
#313 = CARTESIAN_POINT('',(2.474873734157,4.596194077717,1.9));
#314 = VECTOR('',#315,1.);
#315 = DIRECTION('',(0.707106781187,0.707106781187,0.));
#316 = ORIENTED_EDGE('',*,*,#317,.F.);
#317 = EDGE_CURVE('',#318,#310,#320,.T.);
#318 = VERTEX_POINT('',#319);
#319 = CARTESIAN_POINT('',(-1.5,-1.101503925067E-16,1.9));
#320 = CIRCLE('',#321,1.5);
#321 = AXIS2_PLACEMENT_3D('',#322,#323,#324);
#322 = CARTESIAN_POINT('',(0.,7.354662736538E-17,1.9));
#323 = DIRECTION('',(0.,0.,-1.));
#324 = DIRECTION('',(1.,0.,0.));
#325 = ORIENTED_EDGE('',*,*,#326,.F.);
#326 = EDGE_CURVE('',#327,#318,#329,.T.);
#327 = VERTEX_POINT('',#328);
#328 = CARTESIAN_POINT('',(1.06066017178,-1.06066017178,1.9));
#329 = CIRCLE('',#330,1.5);
#330 = AXIS2_PLACEMENT_3D('',#331,#332,#333);
#331 = CARTESIAN_POINT('',(0.,7.354662736538E-17,1.9));
#332 = DIRECTION('',(0.,0.,-1.));
#333 = DIRECTION('',(1.,0.,0.));
#334 = ORIENTED_EDGE('',*,*,#335,.F.);
#335 = EDGE_CURVE('',#336,#327,#338,.T.);
#336 = VERTEX_POINT('',#337);
#337 = CARTESIAN_POINT('',(2.5,0.378679656441,1.9));
#338 = LINE('',#339,#340);
#339 = CARTESIAN_POINT('',(1.06066017178,-1.06066017178,1.9));
#340 = VECTOR('',#341,1.);
#341 = DIRECTION('',(-0.707106781187,-0.707106781187,0.));
#342 = ORIENTED_EDGE('',*,*,#343,.F.);
#343 = EDGE_CURVE('',#276,#336,#344,.T.);
#344 = LINE('',#345,#346);
#345 = CARTESIAN_POINT('',(2.5,-2.125,1.9));
#346 = VECTOR('',#347,1.);
#347 = DIRECTION('',(0.,1.,0.));
#348 = PLANE('',#349);
#349 = AXIS2_PLACEMENT_3D('',#350,#351,#352);
#350 = CARTESIAN_POINT('',(-1.944352802757,-0.180299225449,1.9));
#351 = DIRECTION('',(-0.,-0.,-1.));
#352 = DIRECTION('',(-1.,0.,0.));
#353 = ADVANCED_FACE('',(#354),#365,.T.);
#354 = FACE_BOUND('',#355,.T.);
#355 = EDGE_LOOP('',(#356,#357,#358,#359));
#356 = ORIENTED_EDGE('',*,*,#301,.T.);
#357 = ORIENTED_EDGE('',*,*,#70,.F.);
#358 = ORIENTED_EDGE('',*,*,#139,.T.);
#359 = ORIENTED_EDGE('',*,*,#360,.T.);
#360 = EDGE_CURVE('',#132,#302,#361,.T.);
#361 = LINE('',#362,#363);
#362 = CARTESIAN_POINT('',(3.714437349421,5.83575769298,0.348545384212)
  );
#363 = VECTOR('',#364,1.);
#364 = DIRECTION('',(-0.650944554904,-0.650944554904,0.390566732942));
#365 = PLANE('',#366);
#366 = AXIS2_PLACEMENT_3D('',#367,#368,#369);
#367 = CARTESIAN_POINT('',(-2.343150479128,3.776371615628,1.584177030623
    ));
#368 = DIRECTION('',(2.068297957259E-14,-0.514495755428,-0.857492925713)
  );
#369 = DIRECTION('',(0.,-0.857492925713,0.514495755428));
#370 = ADVANCED_FACE('',(#371),#389,.F.);
#371 = FACE_BOUND('',#372,.T.);
#372 = EDGE_LOOP('',(#373,#381,#387,#388));
#373 = ORIENTED_EDGE('',*,*,#374,.F.);
#374 = EDGE_CURVE('',#375,#102,#377,.T.);
#375 = VERTEX_POINT('',#376);
#376 = CARTESIAN_POINT('',(3.5,1.378679656441,1.3));
#377 = LINE('',#378,#379);
#378 = CARTESIAN_POINT('',(3.5,-2.125,1.3));
#379 = VECTOR('',#380,1.);
#380 = DIRECTION('',(0.,-1.,0.));
#381 = ORIENTED_EDGE('',*,*,#382,.F.);
#382 = EDGE_CURVE('',#234,#375,#383,.T.);
#383 = LINE('',#384,#385);
#384 = CARTESIAN_POINT('',(3.5,1.378679656441,0.));
#385 = VECTOR('',#386,1.);
#386 = DIRECTION('',(0.,0.,1.));
#387 = ORIENTED_EDGE('',*,*,#233,.F.);
#388 = ORIENTED_EDGE('',*,*,#109,.T.);
#389 = PLANE('',#390);
#390 = AXIS2_PLACEMENT_3D('',#391,#392,#393);
#391 = CARTESIAN_POINT('',(3.5,-4.25,0.));
#392 = DIRECTION('',(1.,0.,0.));
#393 = DIRECTION('',(0.,1.,0.));
#394 = ADVANCED_FACE('',(#395),#423,.F.);
#395 = FACE_BOUND('',#396,.T.);
#396 = EDGE_LOOP('',(#397,#398,#399,#400,#401,#409,#417));
#397 = ORIENTED_EDGE('',*,*,#309,.T.);
#398 = ORIENTED_EDGE('',*,*,#360,.F.);
#399 = ORIENTED_EDGE('',*,*,#131,.T.);
#400 = ORIENTED_EDGE('',*,*,#244,.F.);
#401 = ORIENTED_EDGE('',*,*,#402,.T.);
#402 = EDGE_CURVE('',#245,#403,#405,.T.);
#403 = VERTEX_POINT('',#404);
#404 = CARTESIAN_POINT('',(6.010407640094,8.131727983654,2.7));
#405 = LINE('',#406,#407);
#406 = CARTESIAN_POINT('',(6.010407640094,8.131727983654,0.));
#407 = VECTOR('',#408,1.);
#408 = DIRECTION('',(0.,0.,1.));
#409 = ORIENTED_EDGE('',*,*,#410,.T.);
#410 = EDGE_CURVE('',#403,#411,#413,.T.);
#411 = VERTEX_POINT('',#412);
#412 = CARTESIAN_POINT('',(-1.06066017178,1.06066017178,2.7));
#413 = LINE('',#414,#415);
#414 = CARTESIAN_POINT('',(-1.06066017178,1.06066017178,2.7));
#415 = VECTOR('',#416,1.);
#416 = DIRECTION('',(-0.707106781187,-0.707106781187,0.));
#417 = ORIENTED_EDGE('',*,*,#418,.T.);
#418 = EDGE_CURVE('',#411,#310,#419,.T.);
#419 = LINE('',#420,#421);
#420 = CARTESIAN_POINT('',(-1.06066017178,1.06066017178,0.));
#421 = VECTOR('',#422,1.);
#422 = DIRECTION('',(0.,0.,-1.));
#423 = PLANE('',#424);
#424 = AXIS2_PLACEMENT_3D('',#425,#426,#427);
#425 = CARTESIAN_POINT('',(6.010407640094,8.131727983654,0.));
#426 = DIRECTION('',(-0.707106781187,0.707106781187,0.));
#427 = DIRECTION('',(-0.707106781187,-0.707106781187,0.));
#428 = ADVANCED_FACE('',(#429),#448,.T.);
#429 = FACE_BOUND('',#430,.T.);
#430 = EDGE_LOOP('',(#431,#440,#446,#447));
#431 = ORIENTED_EDGE('',*,*,#432,.T.);
#432 = EDGE_CURVE('',#433,#433,#435,.T.);
#433 = VERTEX_POINT('',#434);
#434 = CARTESIAN_POINT('',(-15.,-1.836970198721E-15,3.));
#435 = CIRCLE('',#436,15.);
#436 = AXIS2_PLACEMENT_3D('',#437,#438,#439);
#437 = CARTESIAN_POINT('',(0.,0.,3.));
#438 = DIRECTION('',(0.,0.,-1.));
#439 = DIRECTION('',(1.,0.,0.));
#440 = ORIENTED_EDGE('',*,*,#441,.T.);
#441 = EDGE_CURVE('',#433,#155,#442,.T.);
#442 = LINE('',#443,#444);
#443 = CARTESIAN_POINT('',(-15.,-1.836970198721E-15,0.));
#444 = VECTOR('',#445,1.);
#445 = DIRECTION('',(0.,0.,-1.));
#446 = ORIENTED_EDGE('',*,*,#154,.T.);
#447 = ORIENTED_EDGE('',*,*,#441,.F.);
#448 = CYLINDRICAL_SURFACE('',#449,15.);
#449 = AXIS2_PLACEMENT_3D('',#450,#451,#452);
#450 = CARTESIAN_POINT('',(0.,0.,0.));
#451 = DIRECTION('',(0.,0.,1.));
#452 = DIRECTION('',(1.,0.,0.));
#453 = ADVANCED_FACE('',(#454),#473,.F.);
#454 = FACE_BOUND('',#455,.F.);
#455 = EDGE_LOOP('',(#456,#464,#465,#466));
#456 = ORIENTED_EDGE('',*,*,#457,.T.);
#457 = EDGE_CURVE('',#458,#166,#460,.T.);
#458 = VERTEX_POINT('',#459);
#459 = CARTESIAN_POINT('',(-6.025427014731,-8.8775,6.));
#460 = LINE('',#461,#462);
#461 = CARTESIAN_POINT('',(-6.025427014731,-8.8775,0.));
#462 = VECTOR('',#463,1.);
#463 = DIRECTION('',(0.,0.,-1.));
#464 = ORIENTED_EDGE('',*,*,#165,.F.);
#465 = ORIENTED_EDGE('',*,*,#457,.F.);
#466 = ORIENTED_EDGE('',*,*,#467,.T.);
#467 = EDGE_CURVE('',#458,#458,#468,.T.);
#468 = CIRCLE('',#469,0.9);
#469 = AXIS2_PLACEMENT_3D('',#470,#471,#472);
#470 = CARTESIAN_POINT('',(-5.125427014731,-8.8775,6.));
#471 = DIRECTION('',(0.,0.,-1.));
#472 = DIRECTION('',(1.,0.,0.));
#473 = CYLINDRICAL_SURFACE('',#474,0.9);
#474 = AXIS2_PLACEMENT_3D('',#475,#476,#477);
#475 = CARTESIAN_POINT('',(-5.125427014731,-8.8775,0.));
#476 = DIRECTION('',(0.,0.,1.));
#477 = DIRECTION('',(1.,0.,0.));
#478 = ADVANCED_FACE('',(#479),#498,.F.);
#479 = FACE_BOUND('',#480,.F.);
#480 = EDGE_LOOP('',(#481,#489,#490,#491));
#481 = ORIENTED_EDGE('',*,*,#482,.T.);
#482 = EDGE_CURVE('',#483,#177,#485,.T.);
#483 = VERTEX_POINT('',#484);
#484 = CARTESIAN_POINT('',(9.350854029459,-4.239941731043E-12,6.));
#485 = LINE('',#486,#487);
#486 = CARTESIAN_POINT('',(9.350854029459,-4.239922130903E-12,0.));
#487 = VECTOR('',#488,1.);
#488 = DIRECTION('',(0.,0.,-1.));
#489 = ORIENTED_EDGE('',*,*,#176,.F.);
#490 = ORIENTED_EDGE('',*,*,#482,.F.);
#491 = ORIENTED_EDGE('',*,*,#492,.T.);
#492 = EDGE_CURVE('',#483,#483,#493,.T.);
#493 = CIRCLE('',#494,0.9);
#494 = AXIS2_PLACEMENT_3D('',#495,#496,#497);
#495 = CARTESIAN_POINT('',(10.250854029459,-4.239811912691E-12,6.));
#496 = DIRECTION('',(0.,0.,-1.));
#497 = DIRECTION('',(1.,0.,0.));
#498 = CYLINDRICAL_SURFACE('',#499,0.9);
#499 = AXIS2_PLACEMENT_3D('',#500,#501,#502);
#500 = CARTESIAN_POINT('',(10.250854029459,-4.239811912691E-12,0.));
#501 = DIRECTION('',(0.,0.,1.));
#502 = DIRECTION('',(1.,0.,0.));
#503 = ADVANCED_FACE('',(#504),#530,.F.);
#504 = FACE_BOUND('',#505,.F.);
#505 = EDGE_LOOP('',(#506,#514,#523,#529));
#506 = ORIENTED_EDGE('',*,*,#507,.T.);
#507 = EDGE_CURVE('',#188,#508,#510,.T.);
#508 = VERTEX_POINT('',#509);
#509 = CARTESIAN_POINT('',(-12.36931687685,-4.,6.));
#510 = LINE('',#511,#512);
#511 = CARTESIAN_POINT('',(-12.36931687685,-4.,0.));
#512 = VECTOR('',#513,1.);
#513 = DIRECTION('',(0.,0.,1.));
#514 = ORIENTED_EDGE('',*,*,#515,.T.);
#515 = EDGE_CURVE('',#508,#516,#518,.T.);
#516 = VERTEX_POINT('',#517);
#517 = CARTESIAN_POINT('',(-12.36931687685,4.,6.));
#518 = CIRCLE('',#519,13.);
#519 = AXIS2_PLACEMENT_3D('',#520,#521,#522);
#520 = CARTESIAN_POINT('',(0.,7.354662736538E-17,6.));
#521 = DIRECTION('',(0.,0.,-1.));
#522 = DIRECTION('',(1.,0.,0.));
#523 = ORIENTED_EDGE('',*,*,#524,.F.);
#524 = EDGE_CURVE('',#190,#516,#525,.T.);
#525 = LINE('',#526,#527);
#526 = CARTESIAN_POINT('',(-12.36931687685,4.,0.));
#527 = VECTOR('',#528,1.);
#528 = DIRECTION('',(0.,0.,1.));
#529 = ORIENTED_EDGE('',*,*,#187,.F.);
#530 = CYLINDRICAL_SURFACE('',#531,13.);
#531 = AXIS2_PLACEMENT_3D('',#532,#533,#534);
#532 = CARTESIAN_POINT('',(0.,7.354662736538E-17,0.));
#533 = DIRECTION('',(0.,0.,1.));
#534 = DIRECTION('',(-1.,1.224646799147E-16,0.));
#535 = ADVANCED_FACE('',(#536),#554,.T.);
#536 = FACE_BOUND('',#537,.T.);
#537 = EDGE_LOOP('',(#538,#539,#540,#548));
#538 = ORIENTED_EDGE('',*,*,#214,.T.);
#539 = ORIENTED_EDGE('',*,*,#507,.T.);
#540 = ORIENTED_EDGE('',*,*,#541,.F.);
#541 = EDGE_CURVE('',#542,#508,#544,.T.);
#542 = VERTEX_POINT('',#543);
#543 = CARTESIAN_POINT('',(-8.999999999999,-4.,6.));
#544 = LINE('',#545,#546);
#545 = CARTESIAN_POINT('',(-4.5,-4.,6.));
#546 = VECTOR('',#547,1.);
#547 = DIRECTION('',(-1.,0.,0.));
#548 = ORIENTED_EDGE('',*,*,#549,.F.);
#549 = EDGE_CURVE('',#207,#542,#550,.T.);
#550 = LINE('',#551,#552);
#551 = CARTESIAN_POINT('',(-8.999999999999,-4.,0.));
#552 = VECTOR('',#553,1.);
#553 = DIRECTION('',(0.,0.,1.));
#554 = PLANE('',#555);
#555 = AXIS2_PLACEMENT_3D('',#556,#557,#558);
#556 = CARTESIAN_POINT('',(-8.999999999999,-4.,0.));
#557 = DIRECTION('',(0.,1.,0.));
#558 = DIRECTION('',(-1.,0.,0.));
#559 = ADVANCED_FACE('',(#560),#578,.T.);
#560 = FACE_BOUND('',#561,.T.);
#561 = EDGE_LOOP('',(#562,#563,#571,#577));
#562 = ORIENTED_EDGE('',*,*,#198,.T.);
#563 = ORIENTED_EDGE('',*,*,#564,.T.);
#564 = EDGE_CURVE('',#199,#565,#567,.T.);
#565 = VERTEX_POINT('',#566);
#566 = CARTESIAN_POINT('',(-9.000000000001,4.,6.));
#567 = LINE('',#568,#569);
#568 = CARTESIAN_POINT('',(-9.000000000001,4.,0.));
#569 = VECTOR('',#570,1.);
#570 = DIRECTION('',(0.,0.,1.));
#571 = ORIENTED_EDGE('',*,*,#572,.F.);
#572 = EDGE_CURVE('',#516,#565,#573,.T.);
#573 = LINE('',#574,#575);
#574 = CARTESIAN_POINT('',(-6.184658438426,4.,6.));
#575 = VECTOR('',#576,1.);
#576 = DIRECTION('',(1.,0.,0.));
#577 = ORIENTED_EDGE('',*,*,#524,.F.);
#578 = PLANE('',#579);
#579 = AXIS2_PLACEMENT_3D('',#580,#581,#582);
#580 = CARTESIAN_POINT('',(-12.36931687685,4.,0.));
#581 = DIRECTION('',(0.,-1.,0.));
#582 = DIRECTION('',(1.,0.,0.));
#583 = ADVANCED_FACE('',(#584),#595,.T.);
#584 = FACE_BOUND('',#585,.T.);
#585 = EDGE_LOOP('',(#586,#587,#588,#594));
#586 = ORIENTED_EDGE('',*,*,#206,.T.);
#587 = ORIENTED_EDGE('',*,*,#549,.T.);
#588 = ORIENTED_EDGE('',*,*,#589,.F.);
#589 = EDGE_CURVE('',#565,#542,#590,.T.);
#590 = LINE('',#591,#592);
#591 = CARTESIAN_POINT('',(-9.,1.999999999999,6.));
#592 = VECTOR('',#593,1.);
#593 = DIRECTION('',(1.787459069647E-13,-1.,0.));
#594 = ORIENTED_EDGE('',*,*,#564,.F.);
#595 = PLANE('',#596);
#596 = AXIS2_PLACEMENT_3D('',#597,#598,#599);
#597 = CARTESIAN_POINT('',(-9.000000000001,4.,0.));
#598 = DIRECTION('',(-1.,-1.787459069647E-13,0.));
#599 = DIRECTION('',(1.787459069647E-13,-1.,0.));
#600 = ADVANCED_FACE('',(#601),#620,.F.);
#601 = FACE_BOUND('',#602,.F.);
#602 = EDGE_LOOP('',(#603,#611,#612,#613));
#603 = ORIENTED_EDGE('',*,*,#604,.T.);
#604 = EDGE_CURVE('',#605,#223,#607,.T.);
#605 = VERTEX_POINT('',#606);
#606 = CARTESIAN_POINT('',(-6.025427014731,8.8775,6.));
#607 = LINE('',#608,#609);
#608 = CARTESIAN_POINT('',(-6.025427014731,8.8775,0.));
#609 = VECTOR('',#610,1.);
#610 = DIRECTION('',(0.,0.,-1.));
#611 = ORIENTED_EDGE('',*,*,#222,.F.);
#612 = ORIENTED_EDGE('',*,*,#604,.F.);
#613 = ORIENTED_EDGE('',*,*,#614,.T.);
#614 = EDGE_CURVE('',#605,#605,#615,.T.);
#615 = CIRCLE('',#616,0.9);
#616 = AXIS2_PLACEMENT_3D('',#617,#618,#619);
#617 = CARTESIAN_POINT('',(-5.125427014731,8.8775,6.));
#618 = DIRECTION('',(0.,0.,-1.));
#619 = DIRECTION('',(1.,0.,0.));
#620 = CYLINDRICAL_SURFACE('',#621,0.9);
#621 = AXIS2_PLACEMENT_3D('',#622,#623,#624);
#622 = CARTESIAN_POINT('',(-5.125427014731,8.8775,0.));
#623 = DIRECTION('',(0.,0.,1.));
#624 = DIRECTION('',(1.,0.,0.));
#625 = ADVANCED_FACE('',(#626),#659,.F.);
#626 = FACE_BOUND('',#627,.T.);
#627 = EDGE_LOOP('',(#628,#629,#635,#636,#644,#652,#658));
#628 = ORIENTED_EDGE('',*,*,#382,.T.);
#629 = ORIENTED_EDGE('',*,*,#630,.F.);
#630 = EDGE_CURVE('',#336,#375,#631,.T.);
#631 = LINE('',#632,#633);
#632 = CARTESIAN_POINT('',(1.745262857441,-0.376057486119,2.352842285536
    ));
#633 = VECTOR('',#634,1.);
#634 = DIRECTION('',(0.650944554904,0.650944554904,-0.390566732942));
#635 = ORIENTED_EDGE('',*,*,#335,.T.);
#636 = ORIENTED_EDGE('',*,*,#637,.F.);
#637 = EDGE_CURVE('',#638,#327,#640,.T.);
#638 = VERTEX_POINT('',#639);
#639 = CARTESIAN_POINT('',(1.06066017178,-1.06066017178,2.7));
#640 = LINE('',#641,#642);
#641 = CARTESIAN_POINT('',(1.06066017178,-1.06066017178,0.));
#642 = VECTOR('',#643,1.);
#643 = DIRECTION('',(0.,0.,-1.));
#644 = ORIENTED_EDGE('',*,*,#645,.T.);
#645 = EDGE_CURVE('',#638,#646,#648,.T.);
#646 = VERTEX_POINT('',#647);
#647 = CARTESIAN_POINT('',(8.131727983654,6.010407640094,2.7));
#648 = LINE('',#649,#650);
#649 = CARTESIAN_POINT('',(8.131727983654,6.010407640094,2.7));
#650 = VECTOR('',#651,1.);
#651 = DIRECTION('',(0.707106781187,0.707106781187,0.));
#652 = ORIENTED_EDGE('',*,*,#653,.F.);
#653 = EDGE_CURVE('',#253,#646,#654,.T.);
#654 = LINE('',#655,#656);
#655 = CARTESIAN_POINT('',(8.131727983654,6.010407640094,0.));
#656 = VECTOR('',#657,1.);
#657 = DIRECTION('',(0.,0.,1.));
#658 = ORIENTED_EDGE('',*,*,#261,.F.);
#659 = PLANE('',#660);
#660 = AXIS2_PLACEMENT_3D('',#661,#662,#663);
#661 = CARTESIAN_POINT('',(1.06066017178,-1.06066017178,0.));
#662 = DIRECTION('',(0.707106781187,-0.707106781187,0.));
#663 = DIRECTION('',(0.707106781187,0.707106781187,0.));
#664 = ADVANCED_FACE('',(#665),#677,.F.);
#665 = FACE_BOUND('',#666,.F.);
#666 = EDGE_LOOP('',(#667,#668,#675,#676));
#667 = ORIENTED_EDGE('',*,*,#402,.T.);
#668 = ORIENTED_EDGE('',*,*,#669,.F.);
#669 = EDGE_CURVE('',#646,#403,#670,.T.);
#670 = CIRCLE('',#671,1.5);
#671 = AXIS2_PLACEMENT_3D('',#672,#673,#674);
#672 = CARTESIAN_POINT('',(7.071067811874,7.071067811874,2.7));
#673 = DIRECTION('',(0.,0.,1.));
#674 = DIRECTION('',(1.,0.,0.));
#675 = ORIENTED_EDGE('',*,*,#653,.F.);
#676 = ORIENTED_EDGE('',*,*,#252,.T.);
#677 = CYLINDRICAL_SURFACE('',#678,1.5);
#678 = AXIS2_PLACEMENT_3D('',#679,#680,#681);
#679 = CARTESIAN_POINT('',(7.071067811874,7.071067811874,0.));
#680 = DIRECTION('',(0.,0.,1.));
#681 = DIRECTION('',(1.,0.,0.));
#682 = ADVANCED_FACE('',(#683),#689,.T.);
#683 = FACE_BOUND('',#684,.T.);
#684 = EDGE_LOOP('',(#685,#686,#687,#688));
#685 = ORIENTED_EDGE('',*,*,#343,.T.);
#686 = ORIENTED_EDGE('',*,*,#630,.T.);
#687 = ORIENTED_EDGE('',*,*,#374,.T.);
#688 = ORIENTED_EDGE('',*,*,#283,.F.);
#689 = PLANE('',#690);
#690 = AXIS2_PLACEMENT_3D('',#691,#692,#693);
#691 = CARTESIAN_POINT('',(3.,-2.125,1.6));
#692 = DIRECTION('',(-0.514495755428,0.,-0.857492925713));
#693 = DIRECTION('',(-0.857492925713,0.,0.514495755428));
#694 = ADVANCED_FACE('',(#695),#792,.F.);
#695 = FACE_BOUND('',#696,.F.);
#696 = EDGE_LOOP('',(#697,#707,#716,#724,#733,#739,#740,#741,#748,#749,
    #750,#751,#760,#768,#777,#785));
#697 = ORIENTED_EDGE('',*,*,#698,.F.);
#698 = EDGE_CURVE('',#699,#701,#703,.T.);
#699 = VERTEX_POINT('',#700);
#700 = CARTESIAN_POINT('',(1.409538931179,-0.513030214989,21.2));
#701 = VERTEX_POINT('',#702);
#702 = CARTESIAN_POINT('',(1.409538931179,-0.513030214989,19.55));
#703 = LINE('',#704,#705);
#704 = CARTESIAN_POINT('',(1.409538931179,-0.513030214989,0.));
#705 = VECTOR('',#706,1.);
#706 = DIRECTION('',(0.,0.,-1.));
#707 = ORIENTED_EDGE('',*,*,#708,.F.);
#708 = EDGE_CURVE('',#709,#699,#711,.T.);
#709 = VERTEX_POINT('',#710);
#710 = CARTESIAN_POINT('',(-1.409538931179,-0.513030214989,21.2));
#711 = CIRCLE('',#712,1.5);
#712 = AXIS2_PLACEMENT_3D('',#713,#714,#715);
#713 = CARTESIAN_POINT('',(0.,7.354662736538E-17,21.2));
#714 = DIRECTION('',(0.,0.,1.));
#715 = DIRECTION('',(1.,0.,0.));
#716 = ORIENTED_EDGE('',*,*,#717,.F.);
#717 = EDGE_CURVE('',#718,#709,#720,.T.);
#718 = VERTEX_POINT('',#719);
#719 = CARTESIAN_POINT('',(-1.409538931179,-0.513030214989,19.55));
#720 = LINE('',#721,#722);
#721 = CARTESIAN_POINT('',(-1.409538931179,-0.513030214989,0.));
#722 = VECTOR('',#723,1.);
#723 = DIRECTION('',(0.,0.,1.));
#724 = ORIENTED_EDGE('',*,*,#725,.F.);
#725 = EDGE_CURVE('',#726,#718,#728,.T.);
#726 = VERTEX_POINT('',#727);
#727 = CARTESIAN_POINT('',(-1.5,-1.101503925067E-16,19.55));
#728 = CIRCLE('',#729,1.5);
#729 = AXIS2_PLACEMENT_3D('',#730,#731,#732);
#730 = CARTESIAN_POINT('',(0.,7.354662736538E-17,19.55));
#731 = DIRECTION('',(0.,0.,1.));
#732 = DIRECTION('',(1.,0.,0.));
#733 = ORIENTED_EDGE('',*,*,#734,.T.);
#734 = EDGE_CURVE('',#726,#318,#735,.T.);
#735 = LINE('',#736,#737);
#736 = CARTESIAN_POINT('',(-1.5,-1.101503925067E-16,0.));
#737 = VECTOR('',#738,1.);
#738 = DIRECTION('',(0.,0.,-1.));
#739 = ORIENTED_EDGE('',*,*,#326,.F.);
#740 = ORIENTED_EDGE('',*,*,#637,.F.);
#741 = ORIENTED_EDGE('',*,*,#742,.F.);
#742 = EDGE_CURVE('',#411,#638,#743,.T.);
#743 = CIRCLE('',#744,1.5);
#744 = AXIS2_PLACEMENT_3D('',#745,#746,#747);
#745 = CARTESIAN_POINT('',(0.,7.354662736538E-17,2.7));
#746 = DIRECTION('',(0.,0.,-1.));
#747 = DIRECTION('',(1.,0.,0.));
#748 = ORIENTED_EDGE('',*,*,#418,.T.);
#749 = ORIENTED_EDGE('',*,*,#317,.F.);
#750 = ORIENTED_EDGE('',*,*,#734,.F.);
#751 = ORIENTED_EDGE('',*,*,#752,.F.);
#752 = EDGE_CURVE('',#753,#726,#755,.T.);
#753 = VERTEX_POINT('',#754);
#754 = CARTESIAN_POINT('',(-1.409538931179,0.513030214989,19.55));
#755 = CIRCLE('',#756,1.5);
#756 = AXIS2_PLACEMENT_3D('',#757,#758,#759);
#757 = CARTESIAN_POINT('',(0.,7.354662736538E-17,19.55));
#758 = DIRECTION('',(0.,0.,1.));
#759 = DIRECTION('',(1.,0.,0.));
#760 = ORIENTED_EDGE('',*,*,#761,.F.);
#761 = EDGE_CURVE('',#762,#753,#764,.T.);
#762 = VERTEX_POINT('',#763);
#763 = CARTESIAN_POINT('',(-1.409538931179,0.513030214989,21.2));
#764 = LINE('',#765,#766);
#765 = CARTESIAN_POINT('',(-1.409538931179,0.513030214989,0.));
#766 = VECTOR('',#767,1.);
#767 = DIRECTION('',(0.,0.,-1.));
#768 = ORIENTED_EDGE('',*,*,#769,.F.);
#769 = EDGE_CURVE('',#770,#762,#772,.T.);
#770 = VERTEX_POINT('',#771);
#771 = CARTESIAN_POINT('',(1.409538931179,0.513030214989,21.2));
#772 = CIRCLE('',#773,1.5);
#773 = AXIS2_PLACEMENT_3D('',#774,#775,#776);
#774 = CARTESIAN_POINT('',(0.,7.354662736538E-17,21.2));
#775 = DIRECTION('',(0.,0.,1.));
#776 = DIRECTION('',(1.,0.,0.));
#777 = ORIENTED_EDGE('',*,*,#778,.F.);
#778 = EDGE_CURVE('',#779,#770,#781,.T.);
#779 = VERTEX_POINT('',#780);
#780 = CARTESIAN_POINT('',(1.409538931179,0.513030214989,19.55));
#781 = LINE('',#782,#783);
#782 = CARTESIAN_POINT('',(1.409538931179,0.513030214989,0.));
#783 = VECTOR('',#784,1.);
#784 = DIRECTION('',(0.,0.,1.));
#785 = ORIENTED_EDGE('',*,*,#786,.F.);
#786 = EDGE_CURVE('',#701,#779,#787,.T.);
#787 = CIRCLE('',#788,1.5);
#788 = AXIS2_PLACEMENT_3D('',#789,#790,#791);
#789 = CARTESIAN_POINT('',(0.,7.354662736538E-17,19.55));
#790 = DIRECTION('',(0.,0.,1.));
#791 = DIRECTION('',(1.,0.,0.));
#792 = CYLINDRICAL_SURFACE('',#793,1.5);
#793 = AXIS2_PLACEMENT_3D('',#794,#795,#796);
#794 = CARTESIAN_POINT('',(0.,7.354662736538E-17,0.));
#795 = DIRECTION('',(0.,0.,1.));
#796 = DIRECTION('',(1.,0.,0.));
#797 = ADVANCED_FACE('',(#798),#804,.F.);
#798 = FACE_BOUND('',#799,.T.);
#799 = EDGE_LOOP('',(#800,#801,#802,#803));
#800 = ORIENTED_EDGE('',*,*,#669,.F.);
#801 = ORIENTED_EDGE('',*,*,#645,.F.);
#802 = ORIENTED_EDGE('',*,*,#742,.F.);
#803 = ORIENTED_EDGE('',*,*,#410,.F.);
#804 = PLANE('',#805);
#805 = AXIS2_PLACEMENT_3D('',#806,#807,#808);
#806 = CARTESIAN_POINT('',(3.755203820047,3.755203820047,2.7));
#807 = DIRECTION('',(0.,0.,1.));
#808 = DIRECTION('',(1.,0.,0.));
#809 = ADVANCED_FACE('',(#810,#821),#824,.F.);
#810 = FACE_BOUND('',#811,.T.);
#811 = EDGE_LOOP('',(#812));
#812 = ORIENTED_EDGE('',*,*,#813,.F.);
#813 = EDGE_CURVE('',#814,#814,#816,.T.);
#814 = VERTEX_POINT('',#815);
#815 = CARTESIAN_POINT('',(-21.5,-2.559443990801E-15,3.));
#816 = CIRCLE('',#817,21.5);
#817 = AXIS2_PLACEMENT_3D('',#818,#819,#820);
#818 = CARTESIAN_POINT('',(0.,7.354662736538E-17,3.));
#819 = DIRECTION('',(0.,0.,1.));
#820 = DIRECTION('',(1.,0.,0.));
#821 = FACE_BOUND('',#822,.T.);
#822 = EDGE_LOOP('',(#823));
#823 = ORIENTED_EDGE('',*,*,#432,.F.);
#824 = PLANE('',#825);
#825 = AXIS2_PLACEMENT_3D('',#826,#827,#828);
#826 = CARTESIAN_POINT('',(0.,0.,3.));
#827 = DIRECTION('',(0.,0.,1.));
#828 = DIRECTION('',(1.,0.,0.));
#829 = ADVANCED_FACE('',(#830,#841,#847,#850,#853,#856),#867,.T.);
#830 = FACE_BOUND('',#831,.T.);
#831 = EDGE_LOOP('',(#832));
#832 = ORIENTED_EDGE('',*,*,#833,.T.);
#833 = EDGE_CURVE('',#834,#834,#836,.T.);
#834 = VERTEX_POINT('',#835);
#835 = CARTESIAN_POINT('',(-15.,1.665334536938E-15,6.));
#836 = CIRCLE('',#837,15.);
#837 = AXIS2_PLACEMENT_3D('',#838,#839,#840);
#838 = CARTESIAN_POINT('',(0.,0.,6.));
#839 = DIRECTION('',(0.,0.,1.));
#840 = DIRECTION('',(1.,0.,0.));
#841 = FACE_BOUND('',#842,.T.);
#842 = EDGE_LOOP('',(#843,#844,#845,#846));
#843 = ORIENTED_EDGE('',*,*,#541,.T.);
#844 = ORIENTED_EDGE('',*,*,#515,.T.);
#845 = ORIENTED_EDGE('',*,*,#572,.T.);
#846 = ORIENTED_EDGE('',*,*,#589,.T.);
#847 = FACE_BOUND('',#848,.T.);
#848 = EDGE_LOOP('',(#849));
#849 = ORIENTED_EDGE('',*,*,#614,.T.);
#850 = FACE_BOUND('',#851,.T.);
#851 = EDGE_LOOP('',(#852));
#852 = ORIENTED_EDGE('',*,*,#492,.T.);
#853 = FACE_BOUND('',#854,.T.);
#854 = EDGE_LOOP('',(#855));
#855 = ORIENTED_EDGE('',*,*,#467,.T.);
#856 = FACE_BOUND('',#857,.T.);
#857 = EDGE_LOOP('',(#858));
#858 = ORIENTED_EDGE('',*,*,#859,.T.);
#859 = EDGE_CURVE('',#860,#860,#862,.T.);
#860 = VERTEX_POINT('',#861);
#861 = CARTESIAN_POINT('',(-6.25,-5.551115123126E-16,6.));
#862 = CIRCLE('',#863,6.25);
#863 = AXIS2_PLACEMENT_3D('',#864,#865,#866);
#864 = CARTESIAN_POINT('',(0.,7.354662736538E-17,6.));
#865 = DIRECTION('',(0.,0.,-1.));
#866 = DIRECTION('',(1.,0.,0.));
#867 = PLANE('',#868);
#868 = AXIS2_PLACEMENT_3D('',#869,#870,#871);
#869 = CARTESIAN_POINT('',(0.,0.,6.));
#870 = DIRECTION('',(0.,0.,1.));
#871 = DIRECTION('',(1.,0.,0.));
#872 = ADVANCED_FACE('',(#873),#907,.F.);
#873 = FACE_BOUND('',#874,.F.);
#874 = EDGE_LOOP('',(#875,#886,#892,#893,#901));
#875 = ORIENTED_EDGE('',*,*,#876,.T.);
#876 = EDGE_CURVE('',#877,#879,#881,.T.);
#877 = VERTEX_POINT('',#878);
#878 = CARTESIAN_POINT('',(2.584154707161,-0.940555394146,20.605));
#879 = VERTEX_POINT('',#880);
#880 = CARTESIAN_POINT('',(2.635408888543,-0.95921039055,21.2));
#881 = CIRCLE('',#882,0.3);
#882 = AXIS2_PLACEMENT_3D('',#883,#884,#885);
#883 = CARTESIAN_POINT('',(2.584154707161,-0.940555394146,20.905));
#884 = DIRECTION('',(-0.342020143326,-0.939692620786,0.));
#885 = DIRECTION('',(0.939692620786,-0.342020143326,0.));
#886 = ORIENTED_EDGE('',*,*,#887,.T.);
#887 = EDGE_CURVE('',#879,#699,#888,.T.);
#888 = LINE('',#889,#890);
#889 = CARTESIAN_POINT('',(2.377758808683,-0.865433430625,21.2));
#890 = VECTOR('',#891,1.);
#891 = DIRECTION('',(-0.939692620786,0.342020143326,0.));
#892 = ORIENTED_EDGE('',*,*,#698,.T.);
#893 = ORIENTED_EDGE('',*,*,#894,.F.);
#894 = EDGE_CURVE('',#895,#701,#897,.T.);
#895 = VERTEX_POINT('',#896);
#896 = CARTESIAN_POINT('',(2.584154707161,-0.940555394146,19.55));
#897 = LINE('',#898,#899);
#898 = CARTESIAN_POINT('',(0.,0.,19.55));
#899 = VECTOR('',#900,1.);
#900 = DIRECTION('',(-0.939692620786,0.342020143326,0.));
#901 = ORIENTED_EDGE('',*,*,#902,.T.);
#902 = EDGE_CURVE('',#895,#877,#903,.T.);
#903 = LINE('',#904,#905);
#904 = CARTESIAN_POINT('',(2.584154707161,-0.940555394146,3.4));
#905 = VECTOR('',#906,1.);
#906 = DIRECTION('',(0.,0.,1.));
#907 = PLANE('',#908);
#908 = AXIS2_PLACEMENT_3D('',#909,#910,#911);
#909 = CARTESIAN_POINT('',(4.797015625888,-1.745970901133,21.95));
#910 = DIRECTION('',(-0.342020143326,-0.939692620786,0.));
#911 = DIRECTION('',(-0.939692620786,0.342020143326,0.));
#912 = ADVANCED_FACE('',(#913),#932,.T.);
#913 = FACE_BOUND('',#914,.T.);
#914 = EDGE_LOOP('',(#915,#924,#930,#931));
#915 = ORIENTED_EDGE('',*,*,#916,.F.);
#916 = EDGE_CURVE('',#917,#895,#919,.T.);
#917 = VERTEX_POINT('',#918);
#918 = CARTESIAN_POINT('',(2.584154707161,0.940555394146,19.55));
#919 = CIRCLE('',#920,2.75);
#920 = AXIS2_PLACEMENT_3D('',#921,#922,#923);
#921 = CARTESIAN_POINT('',(0.,7.354662736538E-17,19.55));
#922 = DIRECTION('',(0.,0.,-1.));
#923 = DIRECTION('',(1.,0.,0.));
#924 = ORIENTED_EDGE('',*,*,#925,.F.);
#925 = EDGE_CURVE('',#779,#917,#926,.T.);
#926 = LINE('',#927,#928);
#927 = CARTESIAN_POINT('',(0.,0.,19.55));
#928 = VECTOR('',#929,1.);
#929 = DIRECTION('',(0.939692620786,0.342020143326,0.));
#930 = ORIENTED_EDGE('',*,*,#786,.F.);
#931 = ORIENTED_EDGE('',*,*,#894,.F.);
#932 = PLANE('',#933);
#933 = AXIS2_PLACEMENT_3D('',#934,#935,#936);
#934 = CARTESIAN_POINT('',(3.257208167234,0.,19.55));
#935 = DIRECTION('',(0.,0.,1.));
#936 = DIRECTION('',(-1.,0.,0.));
#937 = ADVANCED_FACE('',(#938),#965,.F.);
#938 = FACE_BOUND('',#939,.F.);
#939 = EDGE_LOOP('',(#940,#941,#949,#958,#964));
#940 = ORIENTED_EDGE('',*,*,#778,.T.);
#941 = ORIENTED_EDGE('',*,*,#942,.T.);
#942 = EDGE_CURVE('',#770,#943,#945,.T.);
#943 = VERTEX_POINT('',#944);
#944 = CARTESIAN_POINT('',(2.635408888543,0.95921039055,21.2));
#945 = LINE('',#946,#947);
#946 = CARTESIAN_POINT('',(0.686315373791,0.249798367379,21.2));
#947 = VECTOR('',#948,1.);
#948 = DIRECTION('',(0.939692620786,0.342020143326,0.));
#949 = ORIENTED_EDGE('',*,*,#950,.T.);
#950 = EDGE_CURVE('',#943,#951,#953,.T.);
#951 = VERTEX_POINT('',#952);
#952 = CARTESIAN_POINT('',(2.584154707161,0.940555394146,20.605));
#953 = CIRCLE('',#954,0.3);
#954 = AXIS2_PLACEMENT_3D('',#955,#956,#957);
#955 = CARTESIAN_POINT('',(2.584154707161,0.940555394146,20.905));
#956 = DIRECTION('',(-0.342020143326,0.939692620786,0.));
#957 = DIRECTION('',(0.939692620786,0.342020143326,0.));
#958 = ORIENTED_EDGE('',*,*,#959,.T.);
#959 = EDGE_CURVE('',#951,#917,#960,.T.);
#960 = LINE('',#961,#962);
#961 = CARTESIAN_POINT('',(2.584154707161,0.940555394146,3.4));
#962 = VECTOR('',#963,1.);
#963 = DIRECTION('',(0.,0.,-1.));
#964 = ORIENTED_EDGE('',*,*,#925,.F.);
#965 = PLANE('',#966);
#966 = AXIS2_PLACEMENT_3D('',#967,#968,#969);
#967 = CARTESIAN_POINT('',(1.409538931179,0.513030214989,21.95));
#968 = DIRECTION('',(-0.342020143326,0.939692620786,0.));
#969 = DIRECTION('',(0.939692620786,0.342020143326,0.));
#970 = ADVANCED_FACE('',(#971),#990,.T.);
#971 = FACE_BOUND('',#972,.T.);
#972 = EDGE_LOOP('',(#973,#982,#988,#989));
#973 = ORIENTED_EDGE('',*,*,#974,.F.);
#974 = EDGE_CURVE('',#975,#943,#977,.T.);
#975 = VERTEX_POINT('',#976);
#976 = CARTESIAN_POINT('',(-2.635408888543,0.95921039055,21.2));
#977 = CIRCLE('',#978,2.804543560573);
#978 = AXIS2_PLACEMENT_3D('',#979,#980,#981);
#979 = CARTESIAN_POINT('',(0.,0.,21.2));
#980 = DIRECTION('',(0.,0.,-1.));
#981 = DIRECTION('',(-1.,0.,0.));
#982 = ORIENTED_EDGE('',*,*,#983,.T.);
#983 = EDGE_CURVE('',#975,#762,#984,.T.);
#984 = LINE('',#985,#986);
#985 = CARTESIAN_POINT('',(-2.419256817206,0.880537470508,21.2));
#986 = VECTOR('',#987,1.);
#987 = DIRECTION('',(0.939692620786,-0.342020143326,0.));
#988 = ORIENTED_EDGE('',*,*,#769,.F.);
#989 = ORIENTED_EDGE('',*,*,#942,.T.);
#990 = PLANE('',#991);
#991 = AXIS2_PLACEMENT_3D('',#992,#993,#994);
#992 = CARTESIAN_POINT('',(-4.43965E-02,7.1405E-03,21.2));
#993 = DIRECTION('',(0.,0.,1.));
#994 = DIRECTION('',(1.,0.,0.));
#995 = ADVANCED_FACE('',(#996),#1023,.F.);
#996 = FACE_BOUND('',#997,.F.);
#997 = EDGE_LOOP('',(#998,#1007,#1008,#1009,#1017));
#998 = ORIENTED_EDGE('',*,*,#999,.T.);
#999 = EDGE_CURVE('',#1000,#975,#1002,.T.);
#1000 = VERTEX_POINT('',#1001);
#1001 = CARTESIAN_POINT('',(-2.584154707161,0.940555394146,20.605));
#1002 = CIRCLE('',#1003,0.3);
#1003 = AXIS2_PLACEMENT_3D('',#1004,#1005,#1006);
#1004 = CARTESIAN_POINT('',(-2.584154707161,0.940555394146,20.905));
#1005 = DIRECTION('',(0.342020143326,0.939692620786,-0.));
#1006 = DIRECTION('',(-0.939692620786,0.342020143326,0.));
#1007 = ORIENTED_EDGE('',*,*,#983,.T.);
#1008 = ORIENTED_EDGE('',*,*,#761,.T.);
#1009 = ORIENTED_EDGE('',*,*,#1010,.F.);
#1010 = EDGE_CURVE('',#1011,#753,#1013,.T.);
#1011 = VERTEX_POINT('',#1012);
#1012 = CARTESIAN_POINT('',(-2.584154707161,0.940555394146,19.55));
#1013 = LINE('',#1014,#1015);
#1014 = CARTESIAN_POINT('',(0.,7.354662736538E-17,19.55));
#1015 = VECTOR('',#1016,1.);
#1016 = DIRECTION('',(0.939692620786,-0.342020143326,0.));
#1017 = ORIENTED_EDGE('',*,*,#1018,.T.);
#1018 = EDGE_CURVE('',#1011,#1000,#1019,.T.);
#1019 = LINE('',#1020,#1021);
#1020 = CARTESIAN_POINT('',(-2.584154707161,0.940555394146,3.4));
#1021 = VECTOR('',#1022,1.);
#1022 = DIRECTION('',(0.,0.,1.));
#1023 = PLANE('',#1024);
#1024 = AXIS2_PLACEMENT_3D('',#1025,#1026,#1027);
#1025 = CARTESIAN_POINT('',(-4.797015625888,1.745970901133,21.95));
#1026 = DIRECTION('',(0.342020143326,0.939692620786,0.));
#1027 = DIRECTION('',(0.939692620786,-0.342020143326,0.));
#1028 = ADVANCED_FACE('',(#1029),#1058,.T.);
#1029 = FACE_BOUND('',#1030,.T.);
#1030 = EDGE_LOOP('',(#1031,#1042,#1048,#1049,#1050,#1051));
#1031 = ORIENTED_EDGE('',*,*,#1032,.F.);
#1032 = EDGE_CURVE('',#1033,#1035,#1037,.T.);
#1033 = VERTEX_POINT('',#1034);
#1034 = CARTESIAN_POINT('',(-2.584154707161,-0.940555394146,19.55));
#1035 = VERTEX_POINT('',#1036);
#1036 = CARTESIAN_POINT('',(-2.75,-2.632312424001E-16,19.55));
#1037 = CIRCLE('',#1038,2.75);
#1038 = AXIS2_PLACEMENT_3D('',#1039,#1040,#1041);
#1039 = CARTESIAN_POINT('',(0.,7.354662736538E-17,19.55));
#1040 = DIRECTION('',(0.,0.,-1.));
#1041 = DIRECTION('',(1.,0.,0.));
#1042 = ORIENTED_EDGE('',*,*,#1043,.F.);
#1043 = EDGE_CURVE('',#718,#1033,#1044,.T.);
#1044 = LINE('',#1045,#1046);
#1045 = CARTESIAN_POINT('',(0.,-7.354662736538E-17,19.55));
#1046 = VECTOR('',#1047,1.);
#1047 = DIRECTION('',(-0.939692620786,-0.342020143326,0.));
#1048 = ORIENTED_EDGE('',*,*,#725,.F.);
#1049 = ORIENTED_EDGE('',*,*,#752,.F.);
#1050 = ORIENTED_EDGE('',*,*,#1010,.F.);
#1051 = ORIENTED_EDGE('',*,*,#1052,.F.);
#1052 = EDGE_CURVE('',#1035,#1011,#1053,.T.);
#1053 = CIRCLE('',#1054,2.75);
#1054 = AXIS2_PLACEMENT_3D('',#1055,#1056,#1057);
#1055 = CARTESIAN_POINT('',(0.,7.354662736538E-17,19.55));
#1056 = DIRECTION('',(0.,0.,-1.));
#1057 = DIRECTION('',(1.,0.,0.));
#1058 = PLANE('',#1059);
#1059 = AXIS2_PLACEMENT_3D('',#1060,#1061,#1062);
#1060 = CARTESIAN_POINT('',(-3.257208167234,0.,19.55));
#1061 = DIRECTION('',(0.,0.,1.));
#1062 = DIRECTION('',(-1.,0.,0.));
#1063 = ADVANCED_FACE('',(#1064),#1091,.F.);
#1064 = FACE_BOUND('',#1065,.F.);
#1065 = EDGE_LOOP('',(#1066,#1067,#1075,#1084,#1090));
#1066 = ORIENTED_EDGE('',*,*,#717,.T.);
#1067 = ORIENTED_EDGE('',*,*,#1068,.T.);
#1068 = EDGE_CURVE('',#709,#1069,#1071,.T.);
#1069 = VERTEX_POINT('',#1070);
#1070 = CARTESIAN_POINT('',(-2.635408888543,-0.95921039055,21.2));
#1071 = LINE('',#1072,#1073);
#1072 = CARTESIAN_POINT('',(-0.723223557387,-0.263231847609,21.2));
#1073 = VECTOR('',#1074,1.);
#1074 = DIRECTION('',(-0.939692620786,-0.342020143326,0.));
#1075 = ORIENTED_EDGE('',*,*,#1076,.T.);
#1076 = EDGE_CURVE('',#1069,#1077,#1079,.T.);
#1077 = VERTEX_POINT('',#1078);
#1078 = CARTESIAN_POINT('',(-2.584154707161,-0.940555394146,20.605));
#1079 = CIRCLE('',#1080,0.3);
#1080 = AXIS2_PLACEMENT_3D('',#1081,#1082,#1083);
#1081 = CARTESIAN_POINT('',(-2.584154707161,-0.940555394146,20.905));
#1082 = DIRECTION('',(0.342020143326,-0.939692620786,0.));
#1083 = DIRECTION('',(-0.939692620786,-0.342020143326,0.));
#1084 = ORIENTED_EDGE('',*,*,#1085,.T.);
#1085 = EDGE_CURVE('',#1077,#1033,#1086,.T.);
#1086 = LINE('',#1087,#1088);
#1087 = CARTESIAN_POINT('',(-2.584154707161,-0.940555394146,3.4));
#1088 = VECTOR('',#1089,1.);
#1089 = DIRECTION('',(0.,0.,-1.));
#1090 = ORIENTED_EDGE('',*,*,#1043,.F.);
#1091 = PLANE('',#1092);
#1092 = AXIS2_PLACEMENT_3D('',#1093,#1094,#1095);
#1093 = CARTESIAN_POINT('',(-1.409538931179,-0.513030214989,21.95));
#1094 = DIRECTION('',(0.342020143326,-0.939692620786,0.));
#1095 = DIRECTION('',(-0.939692620786,-0.342020143326,0.));
#1096 = ADVANCED_FACE('',(#1097),#1109,.T.);
#1097 = FACE_BOUND('',#1098,.T.);
#1098 = EDGE_LOOP('',(#1099,#1100,#1101,#1108));
#1099 = ORIENTED_EDGE('',*,*,#708,.F.);
#1100 = ORIENTED_EDGE('',*,*,#1068,.T.);
#1101 = ORIENTED_EDGE('',*,*,#1102,.F.);
#1102 = EDGE_CURVE('',#879,#1069,#1103,.T.);
#1103 = CIRCLE('',#1104,2.804543560573);
#1104 = AXIS2_PLACEMENT_3D('',#1105,#1106,#1107);
#1105 = CARTESIAN_POINT('',(0.,0.,21.2));
#1106 = DIRECTION('',(0.,0.,-1.));
#1107 = DIRECTION('',(-1.,0.,0.));
#1108 = ORIENTED_EDGE('',*,*,#887,.T.);
#1109 = PLANE('',#1110);
#1110 = AXIS2_PLACEMENT_3D('',#1111,#1112,#1113);
#1111 = CARTESIAN_POINT('',(-4.43965E-02,7.1405E-03,21.2));
#1112 = DIRECTION('',(0.,0.,1.));
#1113 = DIRECTION('',(1.,0.,0.));
#1114 = ADVANCED_FACE('',(#1115),#1134,.T.);
#1115 = FACE_BOUND('',#1116,.T.);
#1116 = EDGE_LOOP('',(#1117,#1126,#1132,#1133));
#1117 = ORIENTED_EDGE('',*,*,#1118,.F.);
#1118 = EDGE_CURVE('',#1119,#1119,#1121,.T.);
#1119 = VERTEX_POINT('',#1120);
#1120 = CARTESIAN_POINT('',(-21.5,-2.559443990801E-15,4.5));
#1121 = CIRCLE('',#1122,21.5);
#1122 = AXIS2_PLACEMENT_3D('',#1123,#1124,#1125);
#1123 = CARTESIAN_POINT('',(0.,7.354662736538E-17,4.5));
#1124 = DIRECTION('',(0.,0.,1.));
#1125 = DIRECTION('',(1.,0.,0.));
#1126 = ORIENTED_EDGE('',*,*,#1127,.T.);
#1127 = EDGE_CURVE('',#1119,#814,#1128,.T.);
#1128 = LINE('',#1129,#1130);
#1129 = CARTESIAN_POINT('',(-21.5,-2.559443990801E-15,3.));
#1130 = VECTOR('',#1131,1.);
#1131 = DIRECTION('',(0.,0.,-1.));
#1132 = ORIENTED_EDGE('',*,*,#813,.T.);
#1133 = ORIENTED_EDGE('',*,*,#1127,.F.);
#1134 = CYLINDRICAL_SURFACE('',#1135,21.5);
#1135 = AXIS2_PLACEMENT_3D('',#1136,#1137,#1138);
#1136 = CARTESIAN_POINT('',(0.,7.354662736538E-17,3.));
#1137 = DIRECTION('',(0.,0.,1.));
#1138 = DIRECTION('',(1.,0.,0.));
#1139 = ADVANCED_FACE('',(#1140),#1159,.T.);
#1140 = FACE_BOUND('',#1141,.T.);
#1141 = EDGE_LOOP('',(#1142,#1143,#1151,#1158));
#1142 = ORIENTED_EDGE('',*,*,#833,.F.);
#1143 = ORIENTED_EDGE('',*,*,#1144,.T.);
#1144 = EDGE_CURVE('',#834,#1145,#1147,.T.);
#1145 = VERTEX_POINT('',#1146);
#1146 = CARTESIAN_POINT('',(-15.,-1.836970198721E-15,4.5));
#1147 = LINE('',#1148,#1149);
#1148 = CARTESIAN_POINT('',(-15.,-1.836970198721E-15,0.));
#1149 = VECTOR('',#1150,1.);
#1150 = DIRECTION('',(0.,0.,-1.));
#1151 = ORIENTED_EDGE('',*,*,#1152,.T.);
#1152 = EDGE_CURVE('',#1145,#1145,#1153,.T.);
#1153 = CIRCLE('',#1154,15.);
#1154 = AXIS2_PLACEMENT_3D('',#1155,#1156,#1157);
#1155 = CARTESIAN_POINT('',(0.,0.,4.5));
#1156 = DIRECTION('',(0.,0.,1.));
#1157 = DIRECTION('',(1.,0.,0.));
#1158 = ORIENTED_EDGE('',*,*,#1144,.F.);
#1159 = CYLINDRICAL_SURFACE('',#1160,15.);
#1160 = AXIS2_PLACEMENT_3D('',#1161,#1162,#1163);
#1161 = CARTESIAN_POINT('',(0.,0.,0.));
#1162 = DIRECTION('',(0.,0.,1.));
#1163 = DIRECTION('',(1.,0.,0.));
#1164 = ADVANCED_FACE('',(#1165),#1184,.F.);
#1165 = FACE_BOUND('',#1166,.F.);
#1166 = EDGE_LOOP('',(#1167,#1175,#1182,#1183));
#1167 = ORIENTED_EDGE('',*,*,#1168,.T.);
#1168 = EDGE_CURVE('',#860,#1169,#1171,.T.);
#1169 = VERTEX_POINT('',#1170);
#1170 = CARTESIAN_POINT('',(-6.25,-6.918576221017E-16,3.4));
#1171 = LINE('',#1172,#1173);
#1172 = CARTESIAN_POINT('',(-6.25,-6.918576221017E-16,3.4));
#1173 = VECTOR('',#1174,1.);
#1174 = DIRECTION('',(0.,0.,-1.));
#1175 = ORIENTED_EDGE('',*,*,#1176,.T.);
#1176 = EDGE_CURVE('',#1169,#1169,#1177,.T.);
#1177 = CIRCLE('',#1178,6.25);
#1178 = AXIS2_PLACEMENT_3D('',#1179,#1180,#1181);
#1179 = CARTESIAN_POINT('',(0.,7.354662736538E-17,3.4));
#1180 = DIRECTION('',(0.,0.,1.));
#1181 = DIRECTION('',(1.,0.,0.));
#1182 = ORIENTED_EDGE('',*,*,#1168,.F.);
#1183 = ORIENTED_EDGE('',*,*,#859,.T.);
#1184 = CYLINDRICAL_SURFACE('',#1185,6.25);
#1185 = AXIS2_PLACEMENT_3D('',#1186,#1187,#1188);
#1186 = CARTESIAN_POINT('',(0.,7.354662736538E-17,3.4));
#1187 = DIRECTION('',(0.,0.,1.));
#1188 = DIRECTION('',(1.,0.,0.));
#1189 = ADVANCED_FACE('',(#1190),#1202,.T.);
#1190 = FACE_BOUND('',#1191,.T.);
#1191 = EDGE_LOOP('',(#1192,#1199,#1200,#1201));
#1192 = ORIENTED_EDGE('',*,*,#1193,.F.);
#1193 = EDGE_CURVE('',#877,#1077,#1194,.T.);
#1194 = CIRCLE('',#1195,2.75);
#1195 = AXIS2_PLACEMENT_3D('',#1196,#1197,#1198);
#1196 = CARTESIAN_POINT('',(0.,0.,20.605));
#1197 = DIRECTION('',(0.,0.,-1.));
#1198 = DIRECTION('',(1.,0.,0.));
#1199 = ORIENTED_EDGE('',*,*,#876,.T.);
#1200 = ORIENTED_EDGE('',*,*,#1102,.T.);
#1201 = ORIENTED_EDGE('',*,*,#1076,.T.);
#1202 = TOROIDAL_SURFACE('',#1203,2.75,0.3);
#1203 = AXIS2_PLACEMENT_3D('',#1204,#1205,#1206);
#1204 = CARTESIAN_POINT('',(0.,0.,20.905));
#1205 = DIRECTION('',(0.,0.,-1.));
#1206 = DIRECTION('',(-1.,0.,0.));
#1207 = ADVANCED_FACE('',(#1208),#1241,.T.);
#1208 = FACE_BOUND('',#1209,.T.);
#1209 = EDGE_LOOP('',(#1210,#1211,#1212,#1213,#1214,#1222,#1229,#1230,
    #1231,#1232,#1239,#1240));
#1210 = ORIENTED_EDGE('',*,*,#902,.T.);
#1211 = ORIENTED_EDGE('',*,*,#1193,.T.);
#1212 = ORIENTED_EDGE('',*,*,#1085,.T.);
#1213 = ORIENTED_EDGE('',*,*,#1032,.T.);
#1214 = ORIENTED_EDGE('',*,*,#1215,.T.);
#1215 = EDGE_CURVE('',#1035,#1216,#1218,.T.);
#1216 = VERTEX_POINT('',#1217);
#1217 = CARTESIAN_POINT('',(-2.75,4.103244971309E-16,3.4));
#1218 = LINE('',#1219,#1220);
#1219 = CARTESIAN_POINT('',(-2.75,-2.632312424001E-16,3.4));
#1220 = VECTOR('',#1221,1.);
#1221 = DIRECTION('',(0.,0.,-1.));
#1222 = ORIENTED_EDGE('',*,*,#1223,.F.);
#1223 = EDGE_CURVE('',#1216,#1216,#1224,.T.);
#1224 = CIRCLE('',#1225,2.75);
#1225 = AXIS2_PLACEMENT_3D('',#1226,#1227,#1228);
#1226 = CARTESIAN_POINT('',(0.,7.354662736538E-17,3.4));
#1227 = DIRECTION('',(0.,0.,-1.));
#1228 = DIRECTION('',(1.,0.,0.));
#1229 = ORIENTED_EDGE('',*,*,#1215,.F.);
#1230 = ORIENTED_EDGE('',*,*,#1052,.T.);
#1231 = ORIENTED_EDGE('',*,*,#1018,.T.);
#1232 = ORIENTED_EDGE('',*,*,#1233,.T.);
#1233 = EDGE_CURVE('',#1000,#951,#1234,.T.);
#1234 = CIRCLE('',#1235,2.75);
#1235 = AXIS2_PLACEMENT_3D('',#1236,#1237,#1238);
#1236 = CARTESIAN_POINT('',(0.,0.,20.605));
#1237 = DIRECTION('',(0.,0.,-1.));
#1238 = DIRECTION('',(1.,0.,0.));
#1239 = ORIENTED_EDGE('',*,*,#959,.T.);
#1240 = ORIENTED_EDGE('',*,*,#916,.T.);
#1241 = CYLINDRICAL_SURFACE('',#1242,2.75);
#1242 = AXIS2_PLACEMENT_3D('',#1243,#1244,#1245);
#1243 = CARTESIAN_POINT('',(0.,7.354662736538E-17,3.4));
#1244 = DIRECTION('',(0.,0.,1.));
#1245 = DIRECTION('',(1.,0.,0.));
#1246 = ADVANCED_FACE('',(#1247),#1253,.T.);
#1247 = FACE_BOUND('',#1248,.T.);
#1248 = EDGE_LOOP('',(#1249,#1250,#1251,#1252));
#1249 = ORIENTED_EDGE('',*,*,#974,.T.);
#1250 = ORIENTED_EDGE('',*,*,#950,.T.);
#1251 = ORIENTED_EDGE('',*,*,#1233,.F.);
#1252 = ORIENTED_EDGE('',*,*,#999,.T.);
#1253 = TOROIDAL_SURFACE('',#1254,2.75,0.3);
#1254 = AXIS2_PLACEMENT_3D('',#1255,#1256,#1257);
#1255 = CARTESIAN_POINT('',(0.,0.,20.905));
#1256 = DIRECTION('',(0.,0.,-1.));
#1257 = DIRECTION('',(-1.,0.,0.));
#1258 = ADVANCED_FACE('',(#1259,#1262),#1265,.T.);
#1259 = FACE_BOUND('',#1260,.T.);
#1260 = EDGE_LOOP('',(#1261));
#1261 = ORIENTED_EDGE('',*,*,#1118,.T.);
#1262 = FACE_BOUND('',#1263,.T.);
#1263 = EDGE_LOOP('',(#1264));
#1264 = ORIENTED_EDGE('',*,*,#1152,.F.);
#1265 = PLANE('',#1266);
#1266 = AXIS2_PLACEMENT_3D('',#1267,#1268,#1269);
#1267 = CARTESIAN_POINT('',(0.,0.,4.5));
#1268 = DIRECTION('',(0.,0.,1.));
#1269 = DIRECTION('',(1.,0.,0.));
#1270 = ADVANCED_FACE('',(#1271,#1274),#1277,.T.);
#1271 = FACE_BOUND('',#1272,.T.);
#1272 = EDGE_LOOP('',(#1273));
#1273 = ORIENTED_EDGE('',*,*,#1176,.T.);
#1274 = FACE_BOUND('',#1275,.T.);
#1275 = EDGE_LOOP('',(#1276));
#1276 = ORIENTED_EDGE('',*,*,#1223,.T.);
#1277 = PLANE('',#1278);
#1278 = AXIS2_PLACEMENT_3D('',#1279,#1280,#1281);
#1279 = CARTESIAN_POINT('',(0.,0.,3.4));
#1280 = DIRECTION('',(0.,0.,1.));
#1281 = DIRECTION('',(1.,0.,0.));
#1282 = ( GEOMETRIC_REPRESENTATION_CONTEXT(3) 
GLOBAL_UNCERTAINTY_ASSIGNED_CONTEXT((#1286)) 
GLOBAL_UNIT_ASSIGNED_CONTEXT((#1283,#1284,#1285)) REPRESENTATION_CONTEXT
('Context #1','3D Context with UNIT and UNCERTAINTY') );
#1283 = ( LENGTH_UNIT() NAMED_UNIT(*) SI_UNIT(.MILLI.,.METRE.) );
#1284 = ( NAMED_UNIT(*) PLANE_ANGLE_UNIT() SI_UNIT($,.RADIAN.) );
#1285 = ( NAMED_UNIT(*) SI_UNIT($,.STERADIAN.) SOLID_ANGLE_UNIT() );
#1286 = UNCERTAINTY_MEASURE_WITH_UNIT(LENGTH_MEASURE(1.E-05),#1283,
  'distance_accuracy_value','confusion accuracy');
#1287 = PRODUCT_RELATED_PRODUCT_CATEGORY('part',$,(#7));
#1288 = MECHANICAL_DESIGN_GEOMETRIC_PRESENTATION_REPRESENTATION('',(
    #1289),#1282);
#1289 = STYLED_ITEM('color',(#1290),#15);
#1290 = PRESENTATION_STYLE_ASSIGNMENT((#1291,#1297));
#1291 = SURFACE_STYLE_USAGE(.BOTH.,#1292);
#1292 = SURFACE_SIDE_STYLE('',(#1293));
#1293 = SURFACE_STYLE_FILL_AREA(#1294);
#1294 = FILL_AREA_STYLE('',(#1295));
#1295 = FILL_AREA_STYLE_COLOUR('',#1296);
#1296 = COLOUR_RGB('',0.447059003357,0.474510015008,0.501960993452);
#1297 = CURVE_STYLE('',#1298,POSITIVE_LENGTH_MEASURE(0.1),#1299);
#1298 = DRAUGHTING_PRE_DEFINED_CURVE_FONT('continuous');
#1299 = COLOUR_RGB('',9.803921802644E-02,9.803921802644E-02,
  9.803921802644E-02);
ENDSEC;
END-ISO-10303-21;
