ISO-10303-21;
HEADER;
FILE_DESCRIPTION(('FreeCAD Model'),'2;1');
FILE_NAME('Open CASCADE Shape Model','2025-04-14T21:08:17',(''),(''),
  'Open CASCADE STEP processor 7.8','FreeCAD','Unknown');
FILE_SCHEMA(('AUTOMOTIVE_DESIGN { 1 0 10303 214 1 1 1 1 }'));
ENDSEC;
DATA;
#1 = APPLICATION_PROTOCOL_DEFINITION('international standard',
  'automotive_design',2000,#2);
#2 = APPLICATION_CONTEXT(
  'core data for automotive mechanical design processes');
#3 = SHAPE_DEFINITION_REPRESENTATION(#4,#10);
#4 = PRODUCT_DEFINITION_SHAPE('','',#5);
#5 = PRODUCT_DEFINITION('design','',#6,#9);
#6 = PRODUCT_DEFINITION_FORMATION('','',#7);
#7 = PRODUCT('Body','Body','',(#8));
#8 = PRODUCT_CONTEXT('',#2,'mechanical');
#9 = PRODUCT_DEFINITION_CONTEXT('part definition',#2,'design');
#10 = ADVANCED_BREP_SHAPE_REPRESENTATION('',(#11,#15),#1780);
#11 = AXIS2_PLACEMENT_3D('',#12,#13,#14);
#12 = CARTESIAN_POINT('',(0.,0.,0.));
#13 = DIRECTION('',(0.,0.,1.));
#14 = DIRECTION('',(1.,0.,-0.));
#15 = MANIFOLD_SOLID_BREP('',#16);
#16 = CLOSED_SHELL('',(#17,#204,#254,#279,#304,#358,#402,#458,#483,#531,
    #556,#581,#623,#664,#689,#706,#748,#773,#808,#883,#900,#917,#949,
    #973,#1005,#1022,#1054,#1173,#1185,#1220,#1245,#1273,#1290,#1308,
    #1320,#1340,#1358,#1375,#1400,#1417,#1429,#1454,#1479,#1511,#1535,
    #1559,#1576,#1601,#1626,#1638,#1663,#1683,#1718,#1743,#1768));
#17 = ADVANCED_FACE('',(#18),#199,.F.);
#18 = FACE_BOUND('',#19,.F.);
#19 = EDGE_LOOP('',(#20,#31,#39,#48,#57,#66,#74,#82,#91,#99,#107,#116,
    #125,#133,#142,#150,#159,#167,#174,#175,#184,#193));
#20 = ORIENTED_EDGE('',*,*,#21,.T.);
#21 = EDGE_CURVE('',#22,#24,#26,.T.);
#22 = VERTEX_POINT('',#23);
#23 = CARTESIAN_POINT('',(-1.236522647825,0.849124102483,21.95));
#24 = VERTEX_POINT('',#25);
#25 = CARTESIAN_POINT('',(1.236522647825,0.849124102483,21.95));
#26 = CIRCLE('',#27,1.5);
#27 = AXIS2_PLACEMENT_3D('',#28,#29,#30);
#28 = CARTESIAN_POINT('',(0.,7.E-17,21.95));
#29 = DIRECTION('',(0.,0.,-1.));
#30 = DIRECTION('',(1.,0.,0.));
#31 = ORIENTED_EDGE('',*,*,#32,.T.);
#32 = EDGE_CURVE('',#24,#33,#35,.T.);
#33 = VERTEX_POINT('',#34);
#34 = CARTESIAN_POINT('',(1.236522647825,0.849124102483,14.55));
#35 = LINE('',#36,#37);
#36 = CARTESIAN_POINT('',(1.236522647825,0.849124102483,21.95));
#37 = VECTOR('',#38,1.);
#38 = DIRECTION('',(-0.,-0.,-1.));
#39 = ORIENTED_EDGE('',*,*,#40,.F.);
#40 = EDGE_CURVE('',#41,#33,#43,.T.);
#41 = VERTEX_POINT('',#42);
#42 = CARTESIAN_POINT('',(1.409538931179,0.513030214989,14.55));
#43 = CIRCLE('',#44,1.5);
#44 = AXIS2_PLACEMENT_3D('',#45,#46,#47);
#45 = CARTESIAN_POINT('',(0.,7.E-17,14.55));
#46 = DIRECTION('',(-0.,0.,1.));
#47 = DIRECTION('',(0.,-1.,0.));
#48 = ORIENTED_EDGE('',*,*,#49,.F.);
#49 = EDGE_CURVE('',#50,#41,#52,.T.);
#50 = VERTEX_POINT('',#51);
#51 = CARTESIAN_POINT('',(1.409538645458,-0.513031,14.55));
#52 = CIRCLE('',#53,1.5);
#53 = AXIS2_PLACEMENT_3D('',#54,#55,#56);
#54 = CARTESIAN_POINT('',(0.,0.,14.55));
#55 = DIRECTION('',(0.,0.,1.));
#56 = DIRECTION('',(1.,0.,0.));
#57 = ORIENTED_EDGE('',*,*,#58,.T.);
#58 = EDGE_CURVE('',#50,#59,#61,.T.);
#59 = VERTEX_POINT('',#60);
#60 = CARTESIAN_POINT('',(1.236522217092,-0.849124729729,14.55));
#61 = CIRCLE('',#62,1.5);
#62 = AXIS2_PLACEMENT_3D('',#63,#64,#65);
#63 = CARTESIAN_POINT('',(0.,7.E-17,14.55));
#64 = DIRECTION('',(-0.,-0.,-1.));
#65 = DIRECTION('',(0.,-1.,0.));
#66 = ORIENTED_EDGE('',*,*,#67,.F.);
#67 = EDGE_CURVE('',#68,#59,#70,.T.);
#68 = VERTEX_POINT('',#69);
#69 = CARTESIAN_POINT('',(1.236522647825,-0.849124102483,19.55));
#70 = LINE('',#71,#72);
#71 = CARTESIAN_POINT('',(1.236522217092,-0.849124729729,19.55));
#72 = VECTOR('',#73,1.);
#73 = DIRECTION('',(-0.,-0.,-1.));
#74 = ORIENTED_EDGE('',*,*,#75,.F.);
#75 = EDGE_CURVE('',#76,#68,#78,.T.);
#76 = VERTEX_POINT('',#77);
#77 = CARTESIAN_POINT('',(1.236522647825,-0.849124102483,21.95));
#78 = LINE('',#79,#80);
#79 = CARTESIAN_POINT('',(1.236522647825,-0.849124102483,21.95));
#80 = VECTOR('',#81,1.);
#81 = DIRECTION('',(-0.,-0.,-1.));
#82 = ORIENTED_EDGE('',*,*,#83,.T.);
#83 = EDGE_CURVE('',#76,#84,#86,.T.);
#84 = VERTEX_POINT('',#85);
#85 = CARTESIAN_POINT('',(-1.236522647825,-0.849124102483,21.95));
#86 = CIRCLE('',#87,1.5);
#87 = AXIS2_PLACEMENT_3D('',#88,#89,#90);
#88 = CARTESIAN_POINT('',(0.,7.E-17,21.95));
#89 = DIRECTION('',(0.,0.,-1.));
#90 = DIRECTION('',(1.,0.,0.));
#91 = ORIENTED_EDGE('',*,*,#92,.F.);
#92 = EDGE_CURVE('',#93,#84,#95,.T.);
#93 = VERTEX_POINT('',#94);
#94 = CARTESIAN_POINT('',(-1.236522173842,-0.849124792712,19.55));
#95 = LINE('',#96,#97);
#96 = CARTESIAN_POINT('',(-1.236522647825,-0.849124102483,19.55));
#97 = VECTOR('',#98,1.);
#98 = DIRECTION('',(0.,0.,1.));
#99 = ORIENTED_EDGE('',*,*,#100,.F.);
#100 = EDGE_CURVE('',#101,#93,#103,.T.);
#101 = VERTEX_POINT('',#102);
#102 = CARTESIAN_POINT('',(-1.236522173842,-0.849124792712,14.55));
#103 = LINE('',#104,#105);
#104 = CARTESIAN_POINT('',(-1.236522173842,-0.849124792712,14.55));
#105 = VECTOR('',#106,1.);
#106 = DIRECTION('',(0.,0.,1.));
#107 = ORIENTED_EDGE('',*,*,#108,.F.);
#108 = EDGE_CURVE('',#109,#101,#111,.T.);
#109 = VERTEX_POINT('',#110);
#110 = CARTESIAN_POINT('',(-1.40953867671,-0.513030914136,14.55));
#111 = CIRCLE('',#112,1.5);
#112 = AXIS2_PLACEMENT_3D('',#113,#114,#115);
#113 = CARTESIAN_POINT('',(0.,7.E-17,14.55));
#114 = DIRECTION('',(-0.,0.,1.));
#115 = DIRECTION('',(0.,-1.,0.));
#116 = ORIENTED_EDGE('',*,*,#117,.F.);
#117 = EDGE_CURVE('',#118,#109,#120,.T.);
#118 = VERTEX_POINT('',#119);
#119 = CARTESIAN_POINT('',(-1.5,2.035249954261E-15,14.55));
#120 = CIRCLE('',#121,1.5);
#121 = AXIS2_PLACEMENT_3D('',#122,#123,#124);
#122 = CARTESIAN_POINT('',(0.,0.,14.55));
#123 = DIRECTION('',(0.,0.,1.));
#124 = DIRECTION('',(1.,0.,0.));
#125 = ORIENTED_EDGE('',*,*,#126,.T.);
#126 = EDGE_CURVE('',#118,#127,#129,.T.);
#127 = VERTEX_POINT('',#128);
#128 = CARTESIAN_POINT('',(-1.5,0.,1.9));
#129 = LINE('',#130,#131);
#130 = CARTESIAN_POINT('',(-1.5,-1.1E-16,0.));
#131 = VECTOR('',#132,1.);
#132 = DIRECTION('',(0.,0.,-1.));
#133 = ORIENTED_EDGE('',*,*,#134,.F.);
#134 = EDGE_CURVE('',#135,#127,#137,.T.);
#135 = VERTEX_POINT('',#136);
#136 = CARTESIAN_POINT('',(1.06066017178,-1.06066017178,1.9));
#137 = CIRCLE('',#138,1.5);
#138 = AXIS2_PLACEMENT_3D('',#139,#140,#141);
#139 = CARTESIAN_POINT('',(0.,7.E-17,1.9));
#140 = DIRECTION('',(0.,0.,-1.));
#141 = DIRECTION('',(1.,0.,0.));
#142 = ORIENTED_EDGE('',*,*,#143,.F.);
#143 = EDGE_CURVE('',#144,#135,#146,.T.);
#144 = VERTEX_POINT('',#145);
#145 = CARTESIAN_POINT('',(1.06066017178,-1.06066017178,2.7));
#146 = LINE('',#147,#148);
#147 = CARTESIAN_POINT('',(1.06066017178,-1.06066017178,0.));
#148 = VECTOR('',#149,1.);
#149 = DIRECTION('',(0.,0.,-1.));
#150 = ORIENTED_EDGE('',*,*,#151,.F.);
#151 = EDGE_CURVE('',#152,#144,#154,.T.);
#152 = VERTEX_POINT('',#153);
#153 = CARTESIAN_POINT('',(-1.06066017178,1.06066017178,2.7));
#154 = CIRCLE('',#155,1.5);
#155 = AXIS2_PLACEMENT_3D('',#156,#157,#158);
#156 = CARTESIAN_POINT('',(0.,7.E-17,2.7));
#157 = DIRECTION('',(0.,0.,-1.));
#158 = DIRECTION('',(1.,0.,0.));
#159 = ORIENTED_EDGE('',*,*,#160,.T.);
#160 = EDGE_CURVE('',#152,#161,#163,.T.);
#161 = VERTEX_POINT('',#162);
#162 = CARTESIAN_POINT('',(-1.06066017178,1.06066017178,1.9));
#163 = LINE('',#164,#165);
#164 = CARTESIAN_POINT('',(-1.06066017178,1.06066017178,0.));
#165 = VECTOR('',#166,1.);
#166 = DIRECTION('',(0.,0.,-1.));
#167 = ORIENTED_EDGE('',*,*,#168,.F.);
#168 = EDGE_CURVE('',#127,#161,#169,.T.);
#169 = CIRCLE('',#170,1.5);
#170 = AXIS2_PLACEMENT_3D('',#171,#172,#173);
#171 = CARTESIAN_POINT('',(0.,7.E-17,1.9));
#172 = DIRECTION('',(0.,0.,-1.));
#173 = DIRECTION('',(1.,0.,0.));
#174 = ORIENTED_EDGE('',*,*,#126,.F.);
#175 = ORIENTED_EDGE('',*,*,#176,.F.);
#176 = EDGE_CURVE('',#177,#118,#179,.T.);
#177 = VERTEX_POINT('',#178);
#178 = CARTESIAN_POINT('',(-1.409538931179,0.513030214988,14.55));
#179 = CIRCLE('',#180,1.5);
#180 = AXIS2_PLACEMENT_3D('',#181,#182,#183);
#181 = CARTESIAN_POINT('',(0.,0.,14.55));
#182 = DIRECTION('',(0.,0.,1.));
#183 = DIRECTION('',(1.,0.,0.));
#184 = ORIENTED_EDGE('',*,*,#185,.T.);
#185 = EDGE_CURVE('',#177,#186,#188,.T.);
#186 = VERTEX_POINT('',#187);
#187 = CARTESIAN_POINT('',(-1.236522647825,0.849124102483,14.55));
#188 = CIRCLE('',#189,1.5);
#189 = AXIS2_PLACEMENT_3D('',#190,#191,#192);
#190 = CARTESIAN_POINT('',(0.,7.E-17,14.55));
#191 = DIRECTION('',(-0.,-0.,-1.));
#192 = DIRECTION('',(0.,-1.,0.));
#193 = ORIENTED_EDGE('',*,*,#194,.F.);
#194 = EDGE_CURVE('',#22,#186,#195,.T.);
#195 = LINE('',#196,#197);
#196 = CARTESIAN_POINT('',(-1.236522647825,0.849124102483,21.95));
#197 = VECTOR('',#198,1.);
#198 = DIRECTION('',(-0.,-0.,-1.));
#199 = CYLINDRICAL_SURFACE('',#200,1.5);
#200 = AXIS2_PLACEMENT_3D('',#201,#202,#203);
#201 = CARTESIAN_POINT('',(0.,7.E-17,0.));
#202 = DIRECTION('',(0.,0.,1.));
#203 = DIRECTION('',(1.,0.,0.));
#204 = ADVANCED_FACE('',(#205),#249,.T.);
#205 = FACE_BOUND('',#206,.T.);
#206 = EDGE_LOOP('',(#207,#217,#224,#225,#234,#242));
#207 = ORIENTED_EDGE('',*,*,#208,.T.);
#208 = EDGE_CURVE('',#209,#211,#213,.T.);
#209 = VERTEX_POINT('',#210);
#210 = CARTESIAN_POINT('',(-2.396216183004,0.87215136548,21.95));
#211 = VERTEX_POINT('',#212);
#212 = CARTESIAN_POINT('',(-1.819706935429,0.662319159584,21.95));
#213 = LINE('',#214,#215);
#214 = CARTESIAN_POINT('',(-2.398507812944,0.872985450567,21.95));
#215 = VECTOR('',#216,1.);
#216 = DIRECTION('',(0.939692620786,-0.342020143326,0.));
#217 = ORIENTED_EDGE('',*,*,#218,.F.);
#218 = EDGE_CURVE('',#22,#211,#219,.T.);
#219 = CIRCLE('',#220,0.5);
#220 = AXIS2_PLACEMENT_3D('',#221,#222,#223);
#221 = CARTESIAN_POINT('',(-1.648696863766,1.132165469977,21.95));
#222 = DIRECTION('',(0.,0.,-1.));
#223 = DIRECTION('',(0.,1.,0.));
#224 = ORIENTED_EDGE('',*,*,#21,.T.);
#225 = ORIENTED_EDGE('',*,*,#226,.T.);
#226 = EDGE_CURVE('',#24,#227,#229,.T.);
#227 = VERTEX_POINT('',#228);
#228 = CARTESIAN_POINT('',(1.819706935429,0.662319159584,21.95));
#229 = CIRCLE('',#230,0.5);
#230 = AXIS2_PLACEMENT_3D('',#231,#232,#233);
#231 = CARTESIAN_POINT('',(1.648696863766,1.132165469977,21.95));
#232 = DIRECTION('',(0.,-0.,1.));
#233 = DIRECTION('',(0.,1.,0.));
#234 = ORIENTED_EDGE('',*,*,#235,.T.);
#235 = EDGE_CURVE('',#227,#236,#238,.T.);
#236 = VERTEX_POINT('',#237);
#237 = CARTESIAN_POINT('',(2.396216183004,0.87215136548,21.95));
#238 = LINE('',#239,#240);
#239 = CARTESIAN_POINT('',(0.704769465589,0.256515107494,21.95));
#240 = VECTOR('',#241,1.);
#241 = DIRECTION('',(0.939692620786,0.342020143326,0.));
#242 = ORIENTED_EDGE('',*,*,#243,.F.);
#243 = EDGE_CURVE('',#209,#236,#244,.T.);
#244 = CIRCLE('',#245,2.55);
#245 = AXIS2_PLACEMENT_3D('',#246,#247,#248);
#246 = CARTESIAN_POINT('',(0.,7.E-17,21.95));
#247 = DIRECTION('',(0.,0.,-1.));
#248 = DIRECTION('',(1.,0.,0.));
#249 = PLANE('',#250);
#250 = AXIS2_PLACEMENT_3D('',#251,#252,#253);
#251 = CARTESIAN_POINT('',(0.,0.,21.95));
#252 = DIRECTION('',(0.,0.,1.));
#253 = DIRECTION('',(1.,0.,0.));
#254 = ADVANCED_FACE('',(#255),#274,.T.);
#255 = FACE_BOUND('',#256,.T.);
#256 = EDGE_LOOP('',(#257,#258,#266,#273));
#257 = ORIENTED_EDGE('',*,*,#218,.T.);
#258 = ORIENTED_EDGE('',*,*,#259,.T.);
#259 = EDGE_CURVE('',#211,#260,#262,.T.);
#260 = VERTEX_POINT('',#261);
#261 = CARTESIAN_POINT('',(-1.819706935429,0.662319159584,14.55));
#262 = LINE('',#263,#264);
#263 = CARTESIAN_POINT('',(-1.819706935429,0.662319159584,21.95));
#264 = VECTOR('',#265,1.);
#265 = DIRECTION('',(-0.,-0.,-1.));
#266 = ORIENTED_EDGE('',*,*,#267,.F.);
#267 = EDGE_CURVE('',#186,#260,#268,.T.);
#268 = CIRCLE('',#269,0.5);
#269 = AXIS2_PLACEMENT_3D('',#270,#271,#272);
#270 = CARTESIAN_POINT('',(-1.648696863766,1.132165469977,14.55));
#271 = DIRECTION('',(0.,0.,-1.));
#272 = DIRECTION('',(0.,1.,0.));
#273 = ORIENTED_EDGE('',*,*,#194,.F.);
#274 = CYLINDRICAL_SURFACE('',#275,0.5);
#275 = AXIS2_PLACEMENT_3D('',#276,#277,#278);
#276 = CARTESIAN_POINT('',(-1.648696863766,1.132165469977,21.95));
#277 = DIRECTION('',(-0.,-0.,-1.));
#278 = DIRECTION('',(0.824348431883,-0.566082734988,0.));
#279 = ADVANCED_FACE('',(#280),#299,.T.);
#280 = FACE_BOUND('',#281,.F.);
#281 = EDGE_LOOP('',(#282,#283,#291,#298));
#282 = ORIENTED_EDGE('',*,*,#226,.T.);
#283 = ORIENTED_EDGE('',*,*,#284,.T.);
#284 = EDGE_CURVE('',#227,#285,#287,.T.);
#285 = VERTEX_POINT('',#286);
#286 = CARTESIAN_POINT('',(1.819706935429,0.662319159584,14.55));
#287 = LINE('',#288,#289);
#288 = CARTESIAN_POINT('',(1.819706935429,0.662319159584,21.95));
#289 = VECTOR('',#290,1.);
#290 = DIRECTION('',(-0.,-0.,-1.));
#291 = ORIENTED_EDGE('',*,*,#292,.F.);
#292 = EDGE_CURVE('',#33,#285,#293,.T.);
#293 = CIRCLE('',#294,0.5);
#294 = AXIS2_PLACEMENT_3D('',#295,#296,#297);
#295 = CARTESIAN_POINT('',(1.648696863766,1.132165469977,14.55));
#296 = DIRECTION('',(0.,-0.,1.));
#297 = DIRECTION('',(0.,1.,0.));
#298 = ORIENTED_EDGE('',*,*,#32,.F.);
#299 = CYLINDRICAL_SURFACE('',#300,0.5);
#300 = AXIS2_PLACEMENT_3D('',#301,#302,#303);
#301 = CARTESIAN_POINT('',(1.648696863766,1.132165469977,21.95));
#302 = DIRECTION('',(-0.,-0.,-1.));
#303 = DIRECTION('',(-0.824348431883,-0.566082734988,0.));
#304 = ADVANCED_FACE('',(#305),#353,.T.);
#305 = FACE_BOUND('',#306,.T.);
#306 = EDGE_LOOP('',(#307,#315,#324,#333,#341,#348,#349,#350,#351,#352)
  );
#307 = ORIENTED_EDGE('',*,*,#308,.F.);
#308 = EDGE_CURVE('',#309,#260,#311,.T.);
#309 = VERTEX_POINT('',#310);
#310 = CARTESIAN_POINT('',(-2.584154707161,0.940555394146,14.55));
#311 = LINE('',#312,#313);
#312 = CARTESIAN_POINT('',(-2.584154707161,0.940555394146,14.55));
#313 = VECTOR('',#314,1.);
#314 = DIRECTION('',(0.939692620786,-0.342020143326,0.));
#315 = ORIENTED_EDGE('',*,*,#316,.T.);
#316 = EDGE_CURVE('',#309,#317,#319,.T.);
#317 = VERTEX_POINT('',#318);
#318 = CARTESIAN_POINT('',(-2.75,-6.590885872785E-14,14.55));
#319 = CIRCLE('',#320,2.75);
#320 = AXIS2_PLACEMENT_3D('',#321,#322,#323);
#321 = CARTESIAN_POINT('',(0.,0.,14.55));
#322 = DIRECTION('',(0.,0.,1.));
#323 = DIRECTION('',(1.,0.,0.));
#324 = ORIENTED_EDGE('',*,*,#325,.T.);
#325 = EDGE_CURVE('',#317,#326,#328,.T.);
#326 = VERTEX_POINT('',#327);
#327 = CARTESIAN_POINT('',(-2.584154122677,-0.940557,14.55));
#328 = CIRCLE('',#329,2.75);
#329 = AXIS2_PLACEMENT_3D('',#330,#331,#332);
#330 = CARTESIAN_POINT('',(0.,0.,14.55));
#331 = DIRECTION('',(0.,0.,1.));
#332 = DIRECTION('',(1.,0.,0.));
#333 = ORIENTED_EDGE('',*,*,#334,.T.);
#334 = EDGE_CURVE('',#326,#335,#337,.T.);
#335 = VERTEX_POINT('',#336);
#336 = CARTESIAN_POINT('',(-1.819706666135,-0.662320211895,14.55));
#337 = LINE('',#338,#339);
#338 = CARTESIAN_POINT('',(-2.584154122677,-0.940557,14.55));
#339 = VECTOR('',#340,1.);
#340 = DIRECTION('',(0.939692356774,0.342020868691,0.));
#341 = ORIENTED_EDGE('',*,*,#342,.F.);
#342 = EDGE_CURVE('',#101,#335,#343,.T.);
#343 = CIRCLE('',#344,0.5);
#344 = AXIS2_PLACEMENT_3D('',#345,#346,#347);
#345 = CARTESIAN_POINT('',(-1.648696231789,-1.132166390282,14.55));
#346 = DIRECTION('',(-0.,0.,1.));
#347 = DIRECTION('',(0.,-1.,0.));
#348 = ORIENTED_EDGE('',*,*,#108,.F.);
#349 = ORIENTED_EDGE('',*,*,#117,.F.);
#350 = ORIENTED_EDGE('',*,*,#176,.F.);
#351 = ORIENTED_EDGE('',*,*,#185,.T.);
#352 = ORIENTED_EDGE('',*,*,#267,.T.);
#353 = PLANE('',#354);
#354 = AXIS2_PLACEMENT_3D('',#355,#356,#357);
#355 = CARTESIAN_POINT('',(-8.628232041494E-08,-5.717339323356E-07,14.55
    ));
#356 = DIRECTION('',(0.,0.,1.));
#357 = DIRECTION('',(1.,0.,0.));
#358 = ADVANCED_FACE('',(#359),#397,.T.);
#359 = FACE_BOUND('',#360,.T.);
#360 = EDGE_LOOP('',(#361,#371,#380,#386,#387,#388,#389,#390));
#361 = ORIENTED_EDGE('',*,*,#362,.T.);
#362 = EDGE_CURVE('',#363,#365,#367,.T.);
#363 = VERTEX_POINT('',#364);
#364 = CARTESIAN_POINT('',(1.819706519272,-0.662320053475,14.55));
#365 = VERTEX_POINT('',#366);
#366 = CARTESIAN_POINT('',(2.584154277533,-0.940556574538,14.55));
#367 = LINE('',#368,#369);
#368 = CARTESIAN_POINT('',(1.409538645458,-0.513031,14.55));
#369 = VECTOR('',#370,1.);
#370 = DIRECTION('',(0.93969250566,-0.34202045963,0.));
#371 = ORIENTED_EDGE('',*,*,#372,.T.);
#372 = EDGE_CURVE('',#365,#373,#375,.T.);
#373 = VERTEX_POINT('',#374);
#374 = CARTESIAN_POINT('',(2.584154707161,0.940555394146,14.55));
#375 = CIRCLE('',#376,2.75);
#376 = AXIS2_PLACEMENT_3D('',#377,#378,#379);
#377 = CARTESIAN_POINT('',(0.,0.,14.55));
#378 = DIRECTION('',(0.,0.,1.));
#379 = DIRECTION('',(1.,0.,0.));
#380 = ORIENTED_EDGE('',*,*,#381,.F.);
#381 = EDGE_CURVE('',#285,#373,#382,.T.);
#382 = LINE('',#383,#384);
#383 = CARTESIAN_POINT('',(1.409538931179,0.513030214989,14.55));
#384 = VECTOR('',#385,1.);
#385 = DIRECTION('',(0.939692620786,0.342020143326,0.));
#386 = ORIENTED_EDGE('',*,*,#292,.F.);
#387 = ORIENTED_EDGE('',*,*,#40,.F.);
#388 = ORIENTED_EDGE('',*,*,#49,.F.);
#389 = ORIENTED_EDGE('',*,*,#58,.T.);
#390 = ORIENTED_EDGE('',*,*,#391,.T.);
#391 = EDGE_CURVE('',#59,#363,#392,.T.);
#392 = CIRCLE('',#393,0.5);
#393 = AXIS2_PLACEMENT_3D('',#394,#395,#396);
#394 = CARTESIAN_POINT('',(1.648696289457,-1.132166306305,14.55));
#395 = DIRECTION('',(0.,0.,-1.));
#396 = DIRECTION('',(0.,1.,0.));
#397 = PLANE('',#398);
#398 = AXIS2_PLACEMENT_3D('',#399,#400,#401);
#399 = CARTESIAN_POINT('',(-8.628232041494E-08,-5.717339323356E-07,14.55
    ));
#400 = DIRECTION('',(0.,0.,1.));
#401 = DIRECTION('',(1.,0.,0.));
#402 = ADVANCED_FACE('',(#403),#453,.F.);
#403 = FACE_BOUND('',#404,.T.);
#404 = EDGE_LOOP('',(#405,#415,#421,#422,#423,#431,#439,#447));
#405 = ORIENTED_EDGE('',*,*,#406,.F.);
#406 = EDGE_CURVE('',#407,#409,#411,.T.);
#407 = VERTEX_POINT('',#408);
#408 = CARTESIAN_POINT('',(1.128679656441,3.25,1.9));
#409 = VERTEX_POINT('',#410);
#410 = CARTESIAN_POINT('',(-2.5,3.25,1.9));
#411 = LINE('',#412,#413);
#412 = CARTESIAN_POINT('',(1.75,3.25,1.9));
#413 = VECTOR('',#414,1.);
#414 = DIRECTION('',(-1.,0.,0.));
#415 = ORIENTED_EDGE('',*,*,#416,.F.);
#416 = EDGE_CURVE('',#161,#407,#417,.T.);
#417 = LINE('',#418,#419);
#418 = CARTESIAN_POINT('',(2.474873734157,4.596194077717,1.9));
#419 = VECTOR('',#420,1.);
#420 = DIRECTION('',(0.707106781187,0.707106781187,0.));
#421 = ORIENTED_EDGE('',*,*,#168,.F.);
#422 = ORIENTED_EDGE('',*,*,#134,.F.);
#423 = ORIENTED_EDGE('',*,*,#424,.F.);
#424 = EDGE_CURVE('',#425,#135,#427,.T.);
#425 = VERTEX_POINT('',#426);
#426 = CARTESIAN_POINT('',(2.5,0.378679656441,1.9));
#427 = LINE('',#428,#429);
#428 = CARTESIAN_POINT('',(1.06066017178,-1.06066017178,1.9));
#429 = VECTOR('',#430,1.);
#430 = DIRECTION('',(-0.707106781187,-0.707106781187,0.));
#431 = ORIENTED_EDGE('',*,*,#432,.F.);
#432 = EDGE_CURVE('',#433,#425,#435,.T.);
#433 = VERTEX_POINT('',#434);
#434 = CARTESIAN_POINT('',(2.5,-3.25,1.9));
#435 = LINE('',#436,#437);
#436 = CARTESIAN_POINT('',(2.5,-2.125,1.9));
#437 = VECTOR('',#438,1.);
#438 = DIRECTION('',(0.,1.,0.));
#439 = ORIENTED_EDGE('',*,*,#440,.F.);
#440 = EDGE_CURVE('',#441,#433,#443,.T.);
#441 = VERTEX_POINT('',#442);
#442 = CARTESIAN_POINT('',(-2.5,-3.25,1.9));
#443 = LINE('',#444,#445);
#444 = CARTESIAN_POINT('',(-1.75,-3.25,1.9));
#445 = VECTOR('',#446,1.);
#446 = DIRECTION('',(1.,0.,0.));
#447 = ORIENTED_EDGE('',*,*,#448,.F.);
#448 = EDGE_CURVE('',#409,#441,#449,.T.);
#449 = LINE('',#450,#451);
#450 = CARTESIAN_POINT('',(-2.5,2.125,1.9));
#451 = VECTOR('',#452,1.);
#452 = DIRECTION('',(1.3E-16,-1.,0.));
#453 = PLANE('',#454);
#454 = AXIS2_PLACEMENT_3D('',#455,#456,#457);
#455 = CARTESIAN_POINT('',(4.3632E-13,3.1086E-13,1.9));
#456 = DIRECTION('',(0.,0.,1.));
#457 = DIRECTION('',(1.,0.,0.));
#458 = ADVANCED_FACE('',(#459),#478,.T.);
#459 = FACE_BOUND('',#460,.T.);
#460 = EDGE_LOOP('',(#461,#470,#476,#477));
#461 = ORIENTED_EDGE('',*,*,#462,.T.);
#462 = EDGE_CURVE('',#68,#463,#465,.T.);
#463 = VERTEX_POINT('',#464);
#464 = CARTESIAN_POINT('',(1.819706935429,-0.662319159584,19.55));
#465 = CIRCLE('',#466,0.5);
#466 = AXIS2_PLACEMENT_3D('',#467,#468,#469);
#467 = CARTESIAN_POINT('',(1.648696863766,-1.132165469977,19.55));
#468 = DIRECTION('',(0.,0.,-1.));
#469 = DIRECTION('',(-0.824348431883,0.566082734988,0.));
#470 = ORIENTED_EDGE('',*,*,#471,.T.);
#471 = EDGE_CURVE('',#463,#363,#472,.T.);
#472 = LINE('',#473,#474);
#473 = CARTESIAN_POINT('',(1.819706519272,-0.662320053475,19.55));
#474 = VECTOR('',#475,1.);
#475 = DIRECTION('',(-0.,-0.,-1.));
#476 = ORIENTED_EDGE('',*,*,#391,.F.);
#477 = ORIENTED_EDGE('',*,*,#67,.F.);
#478 = CYLINDRICAL_SURFACE('',#479,0.5);
#479 = AXIS2_PLACEMENT_3D('',#480,#481,#482);
#480 = CARTESIAN_POINT('',(1.648696289457,-1.132166306305,19.55));
#481 = DIRECTION('',(-0.,-0.,-1.));
#482 = DIRECTION('',(-0.824348144728,0.566083153152,0.));
#483 = ADVANCED_FACE('',(#484),#526,.F.);
#484 = FACE_BOUND('',#485,.T.);
#485 = EDGE_LOOP('',(#486,#487,#495,#503,#511,#519,#525));
#486 = ORIENTED_EDGE('',*,*,#416,.T.);
#487 = ORIENTED_EDGE('',*,*,#488,.F.);
#488 = EDGE_CURVE('',#489,#407,#491,.T.);
#489 = VERTEX_POINT('',#490);
#490 = CARTESIAN_POINT('',(2.128679656441,4.25,1.3));
#491 = LINE('',#492,#493);
#492 = CARTESIAN_POINT('',(3.714437349421,5.83575769298,0.348545384212)
  );
#493 = VECTOR('',#494,1.);
#494 = DIRECTION('',(-0.650944554904,-0.650944554904,0.390566732942));
#495 = ORIENTED_EDGE('',*,*,#496,.T.);
#496 = EDGE_CURVE('',#489,#497,#499,.T.);
#497 = VERTEX_POINT('',#498);
#498 = CARTESIAN_POINT('',(2.128679656441,4.25,0.));
#499 = LINE('',#500,#501);
#500 = CARTESIAN_POINT('',(2.128679656441,4.25,0.));
#501 = VECTOR('',#502,1.);
#502 = DIRECTION('',(0.,0.,-1.));
#503 = ORIENTED_EDGE('',*,*,#504,.F.);
#504 = EDGE_CURVE('',#505,#497,#507,.T.);
#505 = VERTEX_POINT('',#506);
#506 = CARTESIAN_POINT('',(6.010407640094,8.131727983654,0.));
#507 = LINE('',#508,#509);
#508 = CARTESIAN_POINT('',(2.474873734157,4.596194077717,0.));
#509 = VECTOR('',#510,1.);
#510 = DIRECTION('',(-0.707106781187,-0.707106781187,0.));
#511 = ORIENTED_EDGE('',*,*,#512,.T.);
#512 = EDGE_CURVE('',#505,#513,#515,.T.);
#513 = VERTEX_POINT('',#514);
#514 = CARTESIAN_POINT('',(6.010407640094,8.131727983654,2.7));
#515 = LINE('',#516,#517);
#516 = CARTESIAN_POINT('',(6.010407640094,8.131727983654,0.));
#517 = VECTOR('',#518,1.);
#518 = DIRECTION('',(0.,0.,1.));
#519 = ORIENTED_EDGE('',*,*,#520,.T.);
#520 = EDGE_CURVE('',#513,#152,#521,.T.);
#521 = LINE('',#522,#523);
#522 = CARTESIAN_POINT('',(-1.06066017178,1.06066017178,2.7));
#523 = VECTOR('',#524,1.);
#524 = DIRECTION('',(-0.707106781187,-0.707106781187,0.));
#525 = ORIENTED_EDGE('',*,*,#160,.T.);
#526 = PLANE('',#527);
#527 = AXIS2_PLACEMENT_3D('',#528,#529,#530);
#528 = CARTESIAN_POINT('',(6.010407640094,8.131727983654,0.));
#529 = DIRECTION('',(-0.707106781187,0.707106781187,0.));
#530 = DIRECTION('',(-0.707106781187,-0.707106781187,0.));
#531 = ADVANCED_FACE('',(#532),#551,.T.);
#532 = FACE_BOUND('',#533,.T.);
#533 = EDGE_LOOP('',(#534,#543,#549,#550));
#534 = ORIENTED_EDGE('',*,*,#535,.T.);
#535 = EDGE_CURVE('',#76,#536,#538,.T.);
#536 = VERTEX_POINT('',#537);
#537 = CARTESIAN_POINT('',(1.819706935429,-0.662319159584,21.95));
#538 = CIRCLE('',#539,0.5);
#539 = AXIS2_PLACEMENT_3D('',#540,#541,#542);
#540 = CARTESIAN_POINT('',(1.648696863766,-1.132165469977,21.95));
#541 = DIRECTION('',(0.,0.,-1.));
#542 = DIRECTION('',(0.,1.,0.));
#543 = ORIENTED_EDGE('',*,*,#544,.T.);
#544 = EDGE_CURVE('',#536,#463,#545,.T.);
#545 = LINE('',#546,#547);
#546 = CARTESIAN_POINT('',(1.819706935429,-0.662319159584,21.95));
#547 = VECTOR('',#548,1.);
#548 = DIRECTION('',(-0.,-0.,-1.));
#549 = ORIENTED_EDGE('',*,*,#462,.F.);
#550 = ORIENTED_EDGE('',*,*,#75,.F.);
#551 = CYLINDRICAL_SURFACE('',#552,0.5);
#552 = AXIS2_PLACEMENT_3D('',#553,#554,#555);
#553 = CARTESIAN_POINT('',(1.648696863766,-1.132165469977,21.95));
#554 = DIRECTION('',(-0.,-0.,-1.));
#555 = DIRECTION('',(-0.824348431883,0.566082734988,0.));
#556 = ADVANCED_FACE('',(#557),#576,.F.);
#557 = FACE_BOUND('',#558,.T.);
#558 = EDGE_LOOP('',(#559,#568,#574,#575));
#559 = ORIENTED_EDGE('',*,*,#560,.F.);
#560 = EDGE_CURVE('',#561,#513,#563,.T.);
#561 = VERTEX_POINT('',#562);
#562 = CARTESIAN_POINT('',(8.131727983654,6.010407640094,2.7));
#563 = CIRCLE('',#564,1.5);
#564 = AXIS2_PLACEMENT_3D('',#565,#566,#567);
#565 = CARTESIAN_POINT('',(7.071067811874,7.071067811874,2.7));
#566 = DIRECTION('',(0.,0.,1.));
#567 = DIRECTION('',(1.,0.,0.));
#568 = ORIENTED_EDGE('',*,*,#569,.F.);
#569 = EDGE_CURVE('',#144,#561,#570,.T.);
#570 = LINE('',#571,#572);
#571 = CARTESIAN_POINT('',(8.131727983654,6.010407640094,2.7));
#572 = VECTOR('',#573,1.);
#573 = DIRECTION('',(0.707106781187,0.707106781187,0.));
#574 = ORIENTED_EDGE('',*,*,#151,.F.);
#575 = ORIENTED_EDGE('',*,*,#520,.F.);
#576 = PLANE('',#577);
#577 = AXIS2_PLACEMENT_3D('',#578,#579,#580);
#578 = CARTESIAN_POINT('',(3.755203820047,3.755203820047,2.7));
#579 = DIRECTION('',(0.,0.,1.));
#580 = DIRECTION('',(1.,0.,0.));
#581 = ADVANCED_FACE('',(#582),#618,.T.);
#582 = FACE_BOUND('',#583,.T.);
#583 = EDGE_LOOP('',(#584,#592,#593,#594,#603,#611));
#584 = ORIENTED_EDGE('',*,*,#585,.T.);
#585 = EDGE_CURVE('',#586,#536,#588,.T.);
#586 = VERTEX_POINT('',#587);
#587 = CARTESIAN_POINT('',(2.396216183004,-0.87215136548,21.95));
#588 = LINE('',#589,#590);
#589 = CARTESIAN_POINT('',(2.398507812944,-0.872985450567,21.95));
#590 = VECTOR('',#591,1.);
#591 = DIRECTION('',(-0.939692620786,0.342020143326,0.));
#592 = ORIENTED_EDGE('',*,*,#535,.F.);
#593 = ORIENTED_EDGE('',*,*,#83,.T.);
#594 = ORIENTED_EDGE('',*,*,#595,.T.);
#595 = EDGE_CURVE('',#84,#596,#598,.T.);
#596 = VERTEX_POINT('',#597);
#597 = CARTESIAN_POINT('',(-1.819706935429,-0.662319159584,21.95));
#598 = CIRCLE('',#599,0.5);
#599 = AXIS2_PLACEMENT_3D('',#600,#601,#602);
#600 = CARTESIAN_POINT('',(-1.648696863766,-1.132165469977,21.95));
#601 = DIRECTION('',(-0.,0.,1.));
#602 = DIRECTION('',(0.,-1.,0.));
#603 = ORIENTED_EDGE('',*,*,#604,.T.);
#604 = EDGE_CURVE('',#596,#605,#607,.T.);
#605 = VERTEX_POINT('',#606);
#606 = CARTESIAN_POINT('',(-2.396216183004,-0.87215136548,21.95));
#607 = LINE('',#608,#609);
#608 = CARTESIAN_POINT('',(-0.704769465589,-0.256515107494,21.95));
#609 = VECTOR('',#610,1.);
#610 = DIRECTION('',(-0.939692620786,-0.342020143326,0.));
#611 = ORIENTED_EDGE('',*,*,#612,.F.);
#612 = EDGE_CURVE('',#586,#605,#613,.T.);
#613 = CIRCLE('',#614,2.55);
#614 = AXIS2_PLACEMENT_3D('',#615,#616,#617);
#615 = CARTESIAN_POINT('',(0.,7.E-17,21.95));
#616 = DIRECTION('',(0.,0.,-1.));
#617 = DIRECTION('',(1.,0.,0.));
#618 = PLANE('',#619);
#619 = AXIS2_PLACEMENT_3D('',#620,#621,#622);
#620 = CARTESIAN_POINT('',(0.,0.,21.95));
#621 = DIRECTION('',(0.,0.,1.));
#622 = DIRECTION('',(1.,0.,0.));
#623 = ADVANCED_FACE('',(#624),#659,.F.);
#624 = FACE_BOUND('',#625,.T.);
#625 = EDGE_LOOP('',(#626,#636,#642,#643,#644,#645,#653));
#626 = ORIENTED_EDGE('',*,*,#627,.T.);
#627 = EDGE_CURVE('',#628,#630,#632,.T.);
#628 = VERTEX_POINT('',#629);
#629 = CARTESIAN_POINT('',(3.5,1.378679656441,0.));
#630 = VERTEX_POINT('',#631);
#631 = CARTESIAN_POINT('',(3.5,1.378679656441,1.3));
#632 = LINE('',#633,#634);
#633 = CARTESIAN_POINT('',(3.5,1.378679656441,0.));
#634 = VECTOR('',#635,1.);
#635 = DIRECTION('',(0.,0.,1.));
#636 = ORIENTED_EDGE('',*,*,#637,.F.);
#637 = EDGE_CURVE('',#425,#630,#638,.T.);
#638 = LINE('',#639,#640);
#639 = CARTESIAN_POINT('',(1.745262857441,-0.376057486119,2.352842285536
    ));
#640 = VECTOR('',#641,1.);
#641 = DIRECTION('',(0.650944554904,0.650944554904,-0.390566732942));
#642 = ORIENTED_EDGE('',*,*,#424,.T.);
#643 = ORIENTED_EDGE('',*,*,#143,.F.);
#644 = ORIENTED_EDGE('',*,*,#569,.T.);
#645 = ORIENTED_EDGE('',*,*,#646,.F.);
#646 = EDGE_CURVE('',#647,#561,#649,.T.);
#647 = VERTEX_POINT('',#648);
#648 = CARTESIAN_POINT('',(8.131727983654,6.010407640094,0.));
#649 = LINE('',#650,#651);
#650 = CARTESIAN_POINT('',(8.131727983654,6.010407640094,0.));
#651 = VECTOR('',#652,1.);
#652 = DIRECTION('',(0.,0.,1.));
#653 = ORIENTED_EDGE('',*,*,#654,.F.);
#654 = EDGE_CURVE('',#628,#647,#655,.T.);
#655 = LINE('',#656,#657);
#656 = CARTESIAN_POINT('',(1.06066017178,-1.06066017178,0.));
#657 = VECTOR('',#658,1.);
#658 = DIRECTION('',(0.707106781187,0.707106781187,0.));
#659 = PLANE('',#660);
#660 = AXIS2_PLACEMENT_3D('',#661,#662,#663);
#661 = CARTESIAN_POINT('',(1.06066017178,-1.06066017178,0.));
#662 = DIRECTION('',(0.707106781187,-0.707106781187,0.));
#663 = DIRECTION('',(0.707106781187,0.707106781187,0.));
#664 = ADVANCED_FACE('',(#665),#684,.T.);
#665 = FACE_BOUND('',#666,.T.);
#666 = EDGE_LOOP('',(#667,#676,#682,#683));
#667 = ORIENTED_EDGE('',*,*,#668,.T.);
#668 = EDGE_CURVE('',#93,#669,#671,.T.);
#669 = VERTEX_POINT('',#670);
#670 = CARTESIAN_POINT('',(-1.819706666135,-0.662320211895,19.55));
#671 = CIRCLE('',#672,0.5);
#672 = AXIS2_PLACEMENT_3D('',#673,#674,#675);
#673 = CARTESIAN_POINT('',(-1.648696231789,-1.132166390282,19.55));
#674 = DIRECTION('',(0.,-0.,1.));
#675 = DIRECTION('',(0.824348115895,0.566083195141,0.));
#676 = ORIENTED_EDGE('',*,*,#677,.T.);
#677 = EDGE_CURVE('',#669,#596,#678,.T.);
#678 = LINE('',#679,#680);
#679 = CARTESIAN_POINT('',(-1.819706935429,-0.662319159584,19.55));
#680 = VECTOR('',#681,1.);
#681 = DIRECTION('',(0.,0.,1.));
#682 = ORIENTED_EDGE('',*,*,#595,.F.);
#683 = ORIENTED_EDGE('',*,*,#92,.F.);
#684 = CYLINDRICAL_SURFACE('',#685,0.5);
#685 = AXIS2_PLACEMENT_3D('',#686,#687,#688);
#686 = CARTESIAN_POINT('',(-1.648696863766,-1.132165469977,19.55));
#687 = DIRECTION('',(0.,0.,1.));
#688 = DIRECTION('',(0.824348431883,0.566082734988,0.));
#689 = ADVANCED_FACE('',(#690),#701,.T.);
#690 = FACE_BOUND('',#691,.T.);
#691 = EDGE_LOOP('',(#692,#693,#699,#700));
#692 = ORIENTED_EDGE('',*,*,#342,.T.);
#693 = ORIENTED_EDGE('',*,*,#694,.T.);
#694 = EDGE_CURVE('',#335,#669,#695,.T.);
#695 = LINE('',#696,#697);
#696 = CARTESIAN_POINT('',(-1.819706666135,-0.662320211895,14.55));
#697 = VECTOR('',#698,1.);
#698 = DIRECTION('',(0.,0.,1.));
#699 = ORIENTED_EDGE('',*,*,#668,.F.);
#700 = ORIENTED_EDGE('',*,*,#100,.F.);
#701 = CYLINDRICAL_SURFACE('',#702,0.5);
#702 = AXIS2_PLACEMENT_3D('',#703,#704,#705);
#703 = CARTESIAN_POINT('',(-1.648696231789,-1.132166390282,14.55));
#704 = DIRECTION('',(0.,0.,1.));
#705 = DIRECTION('',(0.824348115895,0.566083195141,0.));
#706 = ADVANCED_FACE('',(#707),#743,.T.);
#707 = FACE_BOUND('',#708,.T.);
#708 = EDGE_LOOP('',(#709,#710,#711,#712,#720,#728,#737));
#709 = ORIENTED_EDGE('',*,*,#308,.T.);
#710 = ORIENTED_EDGE('',*,*,#259,.F.);
#711 = ORIENTED_EDGE('',*,*,#208,.F.);
#712 = ORIENTED_EDGE('',*,*,#713,.F.);
#713 = EDGE_CURVE('',#714,#209,#716,.T.);
#714 = VERTEX_POINT('',#715);
#715 = CARTESIAN_POINT('',(-2.584154707161,0.940555394146,21.75));
#716 = LINE('',#717,#718);
#717 = CARTESIAN_POINT('',(-2.490185445083,0.906353379813,21.85));
#718 = VECTOR('',#719,1.);
#719 = DIRECTION('',(0.664463024389,-0.241844762648,0.707106781187));
#720 = ORIENTED_EDGE('',*,*,#721,.F.);
#721 = EDGE_CURVE('',#722,#714,#724,.T.);
#722 = VERTEX_POINT('',#723);
#723 = CARTESIAN_POINT('',(-2.584154707161,0.940555394146,21.205));
#724 = LINE('',#725,#726);
#725 = CARTESIAN_POINT('',(-2.584154707161,0.940555394146,3.4));
#726 = VECTOR('',#727,1.);
#727 = DIRECTION('',(0.,0.,1.));
#728 = ORIENTED_EDGE('',*,*,#729,.F.);
#729 = EDGE_CURVE('',#730,#722,#732,.T.);
#730 = VERTEX_POINT('',#731);
#731 = CARTESIAN_POINT('',(-2.584154707161,0.940555394146,20.605));
#732 = CIRCLE('',#733,0.3);
#733 = AXIS2_PLACEMENT_3D('',#734,#735,#736);
#734 = CARTESIAN_POINT('',(-2.584154707161,0.940555394146,20.905));
#735 = DIRECTION('',(0.342020143326,0.939692620786,-0.));
#736 = DIRECTION('',(-0.939692620786,0.342020143326,0.));
#737 = ORIENTED_EDGE('',*,*,#738,.T.);
#738 = EDGE_CURVE('',#730,#309,#739,.T.);
#739 = LINE('',#740,#741);
#740 = CARTESIAN_POINT('',(-2.584154707161,0.940555394146,19.55));
#741 = VECTOR('',#742,1.);
#742 = DIRECTION('',(-0.,-0.,-1.));
#743 = PLANE('',#744);
#744 = AXIS2_PLACEMENT_3D('',#745,#746,#747);
#745 = CARTESIAN_POINT('',(-2.010922555332,0.731915953555,
    18.270290393887));
#746 = DIRECTION('',(-0.342020143326,-0.939692620786,-0.));
#747 = DIRECTION('',(-0.939692620786,0.342020143326,0.));
#748 = ADVANCED_FACE('',(#749),#768,.T.);
#749 = FACE_BOUND('',#750,.T.);
#750 = EDGE_LOOP('',(#751,#759,#766,#767));
#751 = ORIENTED_EDGE('',*,*,#752,.T.);
#752 = EDGE_CURVE('',#236,#753,#755,.T.);
#753 = VERTEX_POINT('',#754);
#754 = CARTESIAN_POINT('',(2.584154707161,0.940555394146,21.75));
#755 = LINE('',#756,#757);
#756 = CARTESIAN_POINT('',(2.490185445083,0.906353379813,21.85));
#757 = VECTOR('',#758,1.);
#758 = DIRECTION('',(0.664463024389,0.241844762648,-0.707106781187));
#759 = ORIENTED_EDGE('',*,*,#760,.T.);
#760 = EDGE_CURVE('',#753,#714,#761,.T.);
#761 = CIRCLE('',#762,2.75);
#762 = AXIS2_PLACEMENT_3D('',#763,#764,#765);
#763 = CARTESIAN_POINT('',(0.,7.E-17,21.75));
#764 = DIRECTION('',(0.,0.,1.));
#765 = DIRECTION('',(1.,0.,0.));
#766 = ORIENTED_EDGE('',*,*,#713,.T.);
#767 = ORIENTED_EDGE('',*,*,#243,.T.);
#768 = CONICAL_SURFACE('',#769,2.65,0.785398163397);
#769 = AXIS2_PLACEMENT_3D('',#770,#771,#772);
#770 = CARTESIAN_POINT('',(0.,7.E-17,21.85));
#771 = DIRECTION('',(0.,0.,-1.));
#772 = DIRECTION('',(1.,0.,0.));
#773 = ADVANCED_FACE('',(#774),#803,.T.);
#774 = FACE_BOUND('',#775,.T.);
#775 = EDGE_LOOP('',(#776,#777,#785,#794,#800,#801,#802));
#776 = ORIENTED_EDGE('',*,*,#381,.T.);
#777 = ORIENTED_EDGE('',*,*,#778,.F.);
#778 = EDGE_CURVE('',#779,#373,#781,.T.);
#779 = VERTEX_POINT('',#780);
#780 = CARTESIAN_POINT('',(2.584154707161,0.940555394146,20.605));
#781 = LINE('',#782,#783);
#782 = CARTESIAN_POINT('',(2.584154707161,0.940555394146,3.4));
#783 = VECTOR('',#784,1.);
#784 = DIRECTION('',(0.,0.,-1.));
#785 = ORIENTED_EDGE('',*,*,#786,.F.);
#786 = EDGE_CURVE('',#787,#779,#789,.T.);
#787 = VERTEX_POINT('',#788);
#788 = CARTESIAN_POINT('',(2.584154707161,0.940555394146,21.205));
#789 = CIRCLE('',#790,0.3);
#790 = AXIS2_PLACEMENT_3D('',#791,#792,#793);
#791 = CARTESIAN_POINT('',(2.584154707161,0.940555394146,20.905));
#792 = DIRECTION('',(-0.342020143326,0.939692620786,0.));
#793 = DIRECTION('',(0.939692620786,0.342020143326,0.));
#794 = ORIENTED_EDGE('',*,*,#795,.F.);
#795 = EDGE_CURVE('',#753,#787,#796,.T.);
#796 = LINE('',#797,#798);
#797 = CARTESIAN_POINT('',(2.584154707161,0.940555394146,3.4));
#798 = VECTOR('',#799,1.);
#799 = DIRECTION('',(0.,0.,-1.));
#800 = ORIENTED_EDGE('',*,*,#752,.F.);
#801 = ORIENTED_EDGE('',*,*,#235,.F.);
#802 = ORIENTED_EDGE('',*,*,#284,.T.);
#803 = PLANE('',#804);
#804 = AXIS2_PLACEMENT_3D('',#805,#806,#807);
#805 = CARTESIAN_POINT('',(2.010922555332,0.731915953555,18.270290393887
    ));
#806 = DIRECTION('',(0.342020143326,-0.939692620786,0.));
#807 = DIRECTION('',(-0.939692620786,-0.342020143326,0.));
#808 = ADVANCED_FACE('',(#809),#878,.T.);
#809 = FACE_BOUND('',#810,.T.);
#810 = EDGE_LOOP('',(#811,#819,#827,#836,#844,#850,#851,#859,#866,#867,
    #868,#869,#876,#877));
#811 = ORIENTED_EDGE('',*,*,#812,.F.);
#812 = EDGE_CURVE('',#813,#365,#815,.T.);
#813 = VERTEX_POINT('',#814);
#814 = CARTESIAN_POINT('',(2.584154492347,-0.940555984342,19.55));
#815 = LINE('',#816,#817);
#816 = CARTESIAN_POINT('',(2.584154277533,-0.940556574538,19.55));
#817 = VECTOR('',#818,1.);
#818 = DIRECTION('',(-0.,-0.,-1.));
#819 = ORIENTED_EDGE('',*,*,#820,.T.);
#820 = EDGE_CURVE('',#813,#821,#823,.T.);
#821 = VERTEX_POINT('',#822);
#822 = CARTESIAN_POINT('',(2.584154707161,-0.940555394146,20.605));
#823 = LINE('',#824,#825);
#824 = CARTESIAN_POINT('',(2.584154707161,-0.940555394146,3.4));
#825 = VECTOR('',#826,1.);
#826 = DIRECTION('',(0.,0.,1.));
#827 = ORIENTED_EDGE('',*,*,#828,.T.);
#828 = EDGE_CURVE('',#821,#829,#831,.T.);
#829 = VERTEX_POINT('',#830);
#830 = CARTESIAN_POINT('',(-2.584154707161,-0.940555394146,20.605));
#831 = CIRCLE('',#832,2.75);
#832 = AXIS2_PLACEMENT_3D('',#833,#834,#835);
#833 = CARTESIAN_POINT('',(0.,0.,20.605));
#834 = DIRECTION('',(0.,0.,-1.));
#835 = DIRECTION('',(1.,0.,0.));
#836 = ORIENTED_EDGE('',*,*,#837,.T.);
#837 = EDGE_CURVE('',#829,#838,#840,.T.);
#838 = VERTEX_POINT('',#839);
#839 = CARTESIAN_POINT('',(-2.584154414919,-0.940556197073,19.55));
#840 = LINE('',#841,#842);
#841 = CARTESIAN_POINT('',(-2.584154707161,-0.940555394146,3.4));
#842 = VECTOR('',#843,1.);
#843 = DIRECTION('',(0.,0.,-1.));
#844 = ORIENTED_EDGE('',*,*,#845,.T.);
#845 = EDGE_CURVE('',#838,#326,#846,.T.);
#846 = LINE('',#847,#848);
#847 = CARTESIAN_POINT('',(-2.584154122677,-0.940557,19.55));
#848 = VECTOR('',#849,1.);
#849 = DIRECTION('',(-0.,-0.,-1.));
#850 = ORIENTED_EDGE('',*,*,#325,.F.);
#851 = ORIENTED_EDGE('',*,*,#852,.T.);
#852 = EDGE_CURVE('',#317,#853,#855,.T.);
#853 = VERTEX_POINT('',#854);
#854 = CARTESIAN_POINT('',(-2.75,0.,3.4));
#855 = LINE('',#856,#857);
#856 = CARTESIAN_POINT('',(-2.75,-2.6E-16,3.4));
#857 = VECTOR('',#858,1.);
#858 = DIRECTION('',(0.,0.,-1.));
#859 = ORIENTED_EDGE('',*,*,#860,.F.);
#860 = EDGE_CURVE('',#853,#853,#861,.T.);
#861 = CIRCLE('',#862,2.75);
#862 = AXIS2_PLACEMENT_3D('',#863,#864,#865);
#863 = CARTESIAN_POINT('',(0.,7.E-17,3.4));
#864 = DIRECTION('',(0.,0.,-1.));
#865 = DIRECTION('',(1.,0.,0.));
#866 = ORIENTED_EDGE('',*,*,#852,.F.);
#867 = ORIENTED_EDGE('',*,*,#316,.F.);
#868 = ORIENTED_EDGE('',*,*,#738,.F.);
#869 = ORIENTED_EDGE('',*,*,#870,.T.);
#870 = EDGE_CURVE('',#730,#779,#871,.T.);
#871 = CIRCLE('',#872,2.75);
#872 = AXIS2_PLACEMENT_3D('',#873,#874,#875);
#873 = CARTESIAN_POINT('',(0.,0.,20.605));
#874 = DIRECTION('',(0.,0.,-1.));
#875 = DIRECTION('',(1.,0.,0.));
#876 = ORIENTED_EDGE('',*,*,#778,.T.);
#877 = ORIENTED_EDGE('',*,*,#372,.F.);
#878 = CYLINDRICAL_SURFACE('',#879,2.75);
#879 = AXIS2_PLACEMENT_3D('',#880,#881,#882);
#880 = CARTESIAN_POINT('',(0.,7.E-17,3.4));
#881 = DIRECTION('',(0.,0.,1.));
#882 = DIRECTION('',(1.,0.,0.));
#883 = ADVANCED_FACE('',(#884),#895,.F.);
#884 = FACE_BOUND('',#885,.F.);
#885 = EDGE_LOOP('',(#886,#892,#893,#894));
#886 = ORIENTED_EDGE('',*,*,#887,.T.);
#887 = EDGE_CURVE('',#669,#838,#888,.T.);
#888 = LINE('',#889,#890);
#889 = CARTESIAN_POINT('',(0.,-7.E-17,19.55));
#890 = VECTOR('',#891,1.);
#891 = DIRECTION('',(-0.939692620786,-0.342020143326,0.));
#892 = ORIENTED_EDGE('',*,*,#845,.T.);
#893 = ORIENTED_EDGE('',*,*,#334,.T.);
#894 = ORIENTED_EDGE('',*,*,#694,.T.);
#895 = PLANE('',#896);
#896 = AXIS2_PLACEMENT_3D('',#897,#898,#899);
#897 = CARTESIAN_POINT('',(-2.584154122677,-0.940557,19.55));
#898 = DIRECTION('',(0.342020868691,-0.939692356774,0.));
#899 = DIRECTION('',(0.939692356774,0.342020868691,0.));
#900 = ADVANCED_FACE('',(#901),#912,.F.);
#901 = FACE_BOUND('',#902,.F.);
#902 = EDGE_LOOP('',(#903,#909,#910,#911));
#903 = ORIENTED_EDGE('',*,*,#904,.T.);
#904 = EDGE_CURVE('',#813,#463,#905,.T.);
#905 = LINE('',#906,#907);
#906 = CARTESIAN_POINT('',(0.,0.,19.55));
#907 = VECTOR('',#908,1.);
#908 = DIRECTION('',(-0.939692620786,0.342020143326,0.));
#909 = ORIENTED_EDGE('',*,*,#471,.T.);
#910 = ORIENTED_EDGE('',*,*,#362,.T.);
#911 = ORIENTED_EDGE('',*,*,#812,.F.);
#912 = PLANE('',#913);
#913 = AXIS2_PLACEMENT_3D('',#914,#915,#916);
#914 = CARTESIAN_POINT('',(1.409538645458,-0.513031,19.55));
#915 = DIRECTION('',(-0.34202045963,-0.93969250566,0.));
#916 = DIRECTION('',(0.93969250566,-0.34202045963,0.));
#917 = ADVANCED_FACE('',(#918),#944,.T.);
#918 = FACE_BOUND('',#919,.T.);
#919 = EDGE_LOOP('',(#920,#928,#936,#942,#943));
#920 = ORIENTED_EDGE('',*,*,#921,.T.);
#921 = EDGE_CURVE('',#409,#922,#924,.T.);
#922 = VERTEX_POINT('',#923);
#923 = CARTESIAN_POINT('',(-2.642507074287,3.392507074288,1.814495755428
    ));
#924 = LINE('',#925,#926);
#925 = CARTESIAN_POINT('',(-2.5,3.25,1.9));
#926 = VECTOR('',#927,1.);
#927 = DIRECTION('',(-0.650944554904,0.650944554904,-0.390566732942));
#928 = ORIENTED_EDGE('',*,*,#929,.F.);
#929 = EDGE_CURVE('',#930,#922,#932,.T.);
#930 = VERTEX_POINT('',#931);
#931 = CARTESIAN_POINT('',(-4.5,4.25,1.3));
#932 = LINE('',#933,#934);
#933 = CARTESIAN_POINT('',(-4.676165215713E-02,2.194207309257,
    2.533475614446));
#934 = VECTOR('',#935,1.);
#935 = DIRECTION('',(0.880508396356,-0.406477844655,0.243886706793));
#936 = ORIENTED_EDGE('',*,*,#937,.T.);
#937 = EDGE_CURVE('',#930,#489,#938,.T.);
#938 = LINE('',#939,#940);
#939 = CARTESIAN_POINT('',(1.75,4.25,1.3));
#940 = VECTOR('',#941,1.);
#941 = DIRECTION('',(1.,0.,0.));
#942 = ORIENTED_EDGE('',*,*,#488,.T.);
#943 = ORIENTED_EDGE('',*,*,#406,.T.);
#944 = PLANE('',#945);
#945 = AXIS2_PLACEMENT_3D('',#946,#947,#948);
#946 = CARTESIAN_POINT('',(1.75,3.75,1.6));
#947 = DIRECTION('',(0.,-0.514495755428,-0.857492925713));
#948 = DIRECTION('',(-1.,0.,0.));
#949 = ADVANCED_FACE('',(#950),#968,.T.);
#950 = FACE_BOUND('',#951,.T.);
#951 = EDGE_LOOP('',(#952,#953,#954,#962));
#952 = ORIENTED_EDGE('',*,*,#432,.T.);
#953 = ORIENTED_EDGE('',*,*,#637,.T.);
#954 = ORIENTED_EDGE('',*,*,#955,.T.);
#955 = EDGE_CURVE('',#630,#956,#958,.T.);
#956 = VERTEX_POINT('',#957);
#957 = CARTESIAN_POINT('',(3.5,-4.25,1.3));
#958 = LINE('',#959,#960);
#959 = CARTESIAN_POINT('',(3.5,-2.125,1.3));
#960 = VECTOR('',#961,1.);
#961 = DIRECTION('',(0.,-1.,0.));
#962 = ORIENTED_EDGE('',*,*,#963,.F.);
#963 = EDGE_CURVE('',#433,#956,#964,.T.);
#964 = LINE('',#965,#966);
#965 = CARTESIAN_POINT('',(2.5,-3.25,1.9));
#966 = VECTOR('',#967,1.);
#967 = DIRECTION('',(0.650944554904,-0.650944554904,-0.390566732942));
#968 = PLANE('',#969);
#969 = AXIS2_PLACEMENT_3D('',#970,#971,#972);
#970 = CARTESIAN_POINT('',(3.,-2.125,1.6));
#971 = DIRECTION('',(-0.514495755428,0.,-0.857492925713));
#972 = DIRECTION('',(-0.857492925713,0.,0.514495755428));
#973 = ADVANCED_FACE('',(#974),#1000,.T.);
#974 = FACE_BOUND('',#975,.T.);
#975 = EDGE_LOOP('',(#976,#984,#985,#986,#994));
#976 = ORIENTED_EDGE('',*,*,#977,.F.);
#977 = EDGE_CURVE('',#441,#978,#980,.T.);
#978 = VERTEX_POINT('',#979);
#979 = CARTESIAN_POINT('',(-2.642507074287,-3.392507074287,
    1.814495755428));
#980 = LINE('',#981,#982);
#981 = CARTESIAN_POINT('',(-2.5,-3.25,1.9));
#982 = VECTOR('',#983,1.);
#983 = DIRECTION('',(-0.650944554904,-0.650944554904,-0.390566732942));
#984 = ORIENTED_EDGE('',*,*,#440,.T.);
#985 = ORIENTED_EDGE('',*,*,#963,.T.);
#986 = ORIENTED_EDGE('',*,*,#987,.T.);
#987 = EDGE_CURVE('',#956,#988,#990,.T.);
#988 = VERTEX_POINT('',#989);
#989 = CARTESIAN_POINT('',(-4.5,-4.25,1.3));
#990 = LINE('',#991,#992);
#991 = CARTESIAN_POINT('',(-1.75,-4.25,1.3));
#992 = VECTOR('',#993,1.);
#993 = DIRECTION('',(-1.,0.,0.));
#994 = ORIENTED_EDGE('',*,*,#995,.T.);
#995 = EDGE_CURVE('',#988,#978,#996,.T.);
#996 = LINE('',#997,#998);
#997 = CARTESIAN_POINT('',(-2.924633374647,-3.522747843104,
    1.736351294138));
#998 = VECTOR('',#999,1.);
#999 = DIRECTION('',(0.880508396356,0.406477844655,0.243886706793));
#1000 = PLANE('',#1001);
#1001 = AXIS2_PLACEMENT_3D('',#1002,#1003,#1004);
#1002 = CARTESIAN_POINT('',(-1.75,-3.75,1.6));
#1003 = DIRECTION('',(0.,0.514495755428,-0.857492925713));
#1004 = DIRECTION('',(-1.,0.,0.));
#1005 = ADVANCED_FACE('',(#1006),#1017,.T.);
#1006 = FACE_BOUND('',#1007,.T.);
#1007 = EDGE_LOOP('',(#1008,#1009,#1015,#1016));
#1008 = ORIENTED_EDGE('',*,*,#977,.T.);
#1009 = ORIENTED_EDGE('',*,*,#1010,.T.);
#1010 = EDGE_CURVE('',#978,#922,#1011,.T.);
#1011 = LINE('',#1012,#1013);
#1012 = CARTESIAN_POINT('',(-2.642507074287,-4.25,1.814495755428));
#1013 = VECTOR('',#1014,1.);
#1014 = DIRECTION('',(-1.3E-16,1.,0.));
#1015 = ORIENTED_EDGE('',*,*,#921,.F.);
#1016 = ORIENTED_EDGE('',*,*,#448,.T.);
#1017 = PLANE('',#1018);
#1018 = AXIS2_PLACEMENT_3D('',#1019,#1020,#1021);
#1019 = CARTESIAN_POINT('',(-3.,2.125,1.6));
#1020 = DIRECTION('',(0.514495755428,7.E-17,-0.857492925713));
#1021 = DIRECTION('',(-0.857492925713,0.,-0.514495755428));
#1022 = ADVANCED_FACE('',(#1023),#1049,.T.);
#1023 = FACE_BOUND('',#1024,.T.);
#1024 = EDGE_LOOP('',(#1025,#1033,#1041,#1047,#1048));
#1025 = ORIENTED_EDGE('',*,*,#1026,.T.);
#1026 = EDGE_CURVE('',#930,#1027,#1029,.T.);
#1027 = VERTEX_POINT('',#1028);
#1028 = CARTESIAN_POINT('',(-5.5,4.25,1.3));
#1029 = LINE('',#1030,#1031);
#1030 = CARTESIAN_POINT('',(-3.5,4.25,1.3));
#1031 = VECTOR('',#1032,1.);
#1032 = DIRECTION('',(-1.,-0.,-0.));
#1033 = ORIENTED_EDGE('',*,*,#1034,.F.);
#1034 = EDGE_CURVE('',#1035,#1027,#1037,.T.);
#1035 = VERTEX_POINT('',#1036);
#1036 = CARTESIAN_POINT('',(-5.5,4.25,0.));
#1037 = LINE('',#1038,#1039);
#1038 = CARTESIAN_POINT('',(-5.5,4.25,0.));
#1039 = VECTOR('',#1040,1.);
#1040 = DIRECTION('',(0.,0.,1.));
#1041 = ORIENTED_EDGE('',*,*,#1042,.F.);
#1042 = EDGE_CURVE('',#497,#1035,#1043,.T.);
#1043 = LINE('',#1044,#1045);
#1044 = CARTESIAN_POINT('',(1.75,4.25,0.));
#1045 = VECTOR('',#1046,1.);
#1046 = DIRECTION('',(-1.,0.,0.));
#1047 = ORIENTED_EDGE('',*,*,#496,.F.);
#1048 = ORIENTED_EDGE('',*,*,#937,.F.);
#1049 = PLANE('',#1050);
#1050 = AXIS2_PLACEMENT_3D('',#1051,#1052,#1053);
#1051 = CARTESIAN_POINT('',(-1.685660171779,4.25,0.65));
#1052 = DIRECTION('',(-0.,-1.,-0.));
#1053 = DIRECTION('',(0.,0.,-1.));
#1054 = ADVANCED_FACE('',(#1055,#1066,#1077,#1112,#1123,#1134),#1168,.F.
  );
#1055 = FACE_BOUND('',#1056,.F.);
#1056 = EDGE_LOOP('',(#1057));
#1057 = ORIENTED_EDGE('',*,*,#1058,.T.);
#1058 = EDGE_CURVE('',#1059,#1059,#1061,.T.);
#1059 = VERTEX_POINT('',#1060);
#1060 = CARTESIAN_POINT('',(-15.,-2.E-15,0.));
#1061 = CIRCLE('',#1062,15.);
#1062 = AXIS2_PLACEMENT_3D('',#1063,#1064,#1065);
#1063 = CARTESIAN_POINT('',(0.,0.,0.));
#1064 = DIRECTION('',(0.,0.,1.));
#1065 = DIRECTION('',(1.,0.,0.));
#1066 = FACE_BOUND('',#1067,.F.);
#1067 = EDGE_LOOP('',(#1068));
#1068 = ORIENTED_EDGE('',*,*,#1069,.T.);
#1069 = EDGE_CURVE('',#1070,#1070,#1072,.T.);
#1070 = VERTEX_POINT('',#1071);
#1071 = CARTESIAN_POINT('',(-6.025427014731,-8.8775,0.));
#1072 = CIRCLE('',#1073,0.9);
#1073 = AXIS2_PLACEMENT_3D('',#1074,#1075,#1076);
#1074 = CARTESIAN_POINT('',(-5.125427014731,-8.8775,0.));
#1075 = DIRECTION('',(0.,0.,-1.));
#1076 = DIRECTION('',(1.,0.,0.));
#1077 = FACE_BOUND('',#1078,.F.);
#1078 = EDGE_LOOP('',(#1079,#1090,#1098,#1106));
#1079 = ORIENTED_EDGE('',*,*,#1080,.T.);
#1080 = EDGE_CURVE('',#1081,#1083,#1085,.T.);
#1081 = VERTEX_POINT('',#1082);
#1082 = CARTESIAN_POINT('',(-12.36931687685,-4.,0.));
#1083 = VERTEX_POINT('',#1084);
#1084 = CARTESIAN_POINT('',(-12.36931687685,4.,0.));
#1085 = CIRCLE('',#1086,13.);
#1086 = AXIS2_PLACEMENT_3D('',#1087,#1088,#1089);
#1087 = CARTESIAN_POINT('',(0.,7.E-17,0.));
#1088 = DIRECTION('',(0.,0.,-1.));
#1089 = DIRECTION('',(1.,0.,0.));
#1090 = ORIENTED_EDGE('',*,*,#1091,.T.);
#1091 = EDGE_CURVE('',#1083,#1092,#1094,.T.);
#1092 = VERTEX_POINT('',#1093);
#1093 = CARTESIAN_POINT('',(-9.000000000001,4.,0.));
#1094 = LINE('',#1095,#1096);
#1095 = CARTESIAN_POINT('',(-18.64553059605,4.,0.));
#1096 = VECTOR('',#1097,1.);
#1097 = DIRECTION('',(1.,0.,0.));
#1098 = ORIENTED_EDGE('',*,*,#1099,.T.);
#1099 = EDGE_CURVE('',#1092,#1100,#1102,.T.);
#1100 = VERTEX_POINT('',#1101);
#1101 = CARTESIAN_POINT('',(-8.999999999999,-4.,0.));
#1102 = LINE('',#1103,#1104);
#1103 = CARTESIAN_POINT('',(-9.000000000001,4.,0.));
#1104 = VECTOR('',#1105,1.);
#1105 = DIRECTION('',(1.7875E-13,-1.,0.));
#1106 = ORIENTED_EDGE('',*,*,#1107,.T.);
#1107 = EDGE_CURVE('',#1100,#1081,#1108,.T.);
#1108 = LINE('',#1109,#1110);
#1109 = CARTESIAN_POINT('',(-8.999999999999,-4.,0.));
#1110 = VECTOR('',#1111,1.);
#1111 = DIRECTION('',(-1.,0.,0.));
#1112 = FACE_BOUND('',#1113,.F.);
#1113 = EDGE_LOOP('',(#1114));
#1114 = ORIENTED_EDGE('',*,*,#1115,.T.);
#1115 = EDGE_CURVE('',#1116,#1116,#1118,.T.);
#1116 = VERTEX_POINT('',#1117);
#1117 = CARTESIAN_POINT('',(9.350854029459,-4.24E-12,0.));
#1118 = CIRCLE('',#1119,0.9);
#1119 = AXIS2_PLACEMENT_3D('',#1120,#1121,#1122);
#1120 = CARTESIAN_POINT('',(10.250854029459,-4.23981E-12,0.));
#1121 = DIRECTION('',(0.,0.,-1.));
#1122 = DIRECTION('',(1.,0.,0.));
#1123 = FACE_BOUND('',#1124,.F.);
#1124 = EDGE_LOOP('',(#1125));
#1125 = ORIENTED_EDGE('',*,*,#1126,.T.);
#1126 = EDGE_CURVE('',#1127,#1127,#1129,.T.);
#1127 = VERTEX_POINT('',#1128);
#1128 = CARTESIAN_POINT('',(-6.025427014731,8.8775,0.));
#1129 = CIRCLE('',#1130,0.9);
#1130 = AXIS2_PLACEMENT_3D('',#1131,#1132,#1133);
#1131 = CARTESIAN_POINT('',(-5.125427014731,8.8775,0.));
#1132 = DIRECTION('',(0.,0.,-1.));
#1133 = DIRECTION('',(1.,0.,0.));
#1134 = FACE_BOUND('',#1135,.F.);
#1135 = EDGE_LOOP('',(#1136,#1144,#1152,#1158,#1159,#1160,#1167));
#1136 = ORIENTED_EDGE('',*,*,#1137,.F.);
#1137 = EDGE_CURVE('',#1138,#628,#1140,.T.);
#1138 = VERTEX_POINT('',#1139);
#1139 = CARTESIAN_POINT('',(3.5,-4.25,0.));
#1140 = LINE('',#1141,#1142);
#1141 = CARTESIAN_POINT('',(3.5,-2.125,0.));
#1142 = VECTOR('',#1143,1.);
#1143 = DIRECTION('',(0.,1.,0.));
#1144 = ORIENTED_EDGE('',*,*,#1145,.T.);
#1145 = EDGE_CURVE('',#1138,#1146,#1148,.T.);
#1146 = VERTEX_POINT('',#1147);
#1147 = CARTESIAN_POINT('',(-5.5,-4.25,0.));
#1148 = LINE('',#1149,#1150);
#1149 = CARTESIAN_POINT('',(-3.5,-4.25,0.));
#1150 = VECTOR('',#1151,1.);
#1151 = DIRECTION('',(-1.,-0.,-0.));
#1152 = ORIENTED_EDGE('',*,*,#1153,.T.);
#1153 = EDGE_CURVE('',#1146,#1035,#1154,.T.);
#1154 = LINE('',#1155,#1156);
#1155 = CARTESIAN_POINT('',(-5.5,-4.25,0.));
#1156 = VECTOR('',#1157,1.);
#1157 = DIRECTION('',(0.,1.,0.));
#1158 = ORIENTED_EDGE('',*,*,#1042,.F.);
#1159 = ORIENTED_EDGE('',*,*,#504,.F.);
#1160 = ORIENTED_EDGE('',*,*,#1161,.F.);
#1161 = EDGE_CURVE('',#647,#505,#1162,.T.);
#1162 = CIRCLE('',#1163,1.5);
#1163 = AXIS2_PLACEMENT_3D('',#1164,#1165,#1166);
#1164 = CARTESIAN_POINT('',(7.071067811874,7.071067811874,0.));
#1165 = DIRECTION('',(0.,0.,1.));
#1166 = DIRECTION('',(1.,0.,0.));
#1167 = ORIENTED_EDGE('',*,*,#654,.F.);
#1168 = PLANE('',#1169);
#1169 = AXIS2_PLACEMENT_3D('',#1170,#1171,#1172);
#1170 = CARTESIAN_POINT('',(0.,0.,0.));
#1171 = DIRECTION('',(0.,0.,1.));
#1172 = DIRECTION('',(1.,0.,0.));
#1173 = ADVANCED_FACE('',(#1174),#1180,.F.);
#1174 = FACE_BOUND('',#1175,.F.);
#1175 = EDGE_LOOP('',(#1176,#1177,#1178,#1179));
#1176 = ORIENTED_EDGE('',*,*,#512,.T.);
#1177 = ORIENTED_EDGE('',*,*,#560,.F.);
#1178 = ORIENTED_EDGE('',*,*,#646,.F.);
#1179 = ORIENTED_EDGE('',*,*,#1161,.T.);
#1180 = CYLINDRICAL_SURFACE('',#1181,1.5);
#1181 = AXIS2_PLACEMENT_3D('',#1182,#1183,#1184);
#1182 = CARTESIAN_POINT('',(7.071067811874,7.071067811874,0.));
#1183 = DIRECTION('',(0.,0.,1.));
#1184 = DIRECTION('',(1.,0.,0.));
#1185 = ADVANCED_FACE('',(#1186),#1215,.F.);
#1186 = FACE_BOUND('',#1187,.F.);
#1187 = EDGE_LOOP('',(#1188,#1189,#1190,#1199,#1207,#1213,#1214));
#1188 = ORIENTED_EDGE('',*,*,#904,.F.);
#1189 = ORIENTED_EDGE('',*,*,#820,.T.);
#1190 = ORIENTED_EDGE('',*,*,#1191,.T.);
#1191 = EDGE_CURVE('',#821,#1192,#1194,.T.);
#1192 = VERTEX_POINT('',#1193);
#1193 = CARTESIAN_POINT('',(2.584154707161,-0.940555394146,21.205));
#1194 = CIRCLE('',#1195,0.3);
#1195 = AXIS2_PLACEMENT_3D('',#1196,#1197,#1198);
#1196 = CARTESIAN_POINT('',(2.584154707161,-0.940555394146,20.905));
#1197 = DIRECTION('',(-0.342020143326,-0.939692620786,0.));
#1198 = DIRECTION('',(0.939692620786,-0.342020143326,0.));
#1199 = ORIENTED_EDGE('',*,*,#1200,.T.);
#1200 = EDGE_CURVE('',#1192,#1201,#1203,.T.);
#1201 = VERTEX_POINT('',#1202);
#1202 = CARTESIAN_POINT('',(2.584154707161,-0.940555394146,21.75));
#1203 = LINE('',#1204,#1205);
#1204 = CARTESIAN_POINT('',(2.584154707161,-0.940555394146,3.4));
#1205 = VECTOR('',#1206,1.);
#1206 = DIRECTION('',(0.,0.,1.));
#1207 = ORIENTED_EDGE('',*,*,#1208,.T.);
#1208 = EDGE_CURVE('',#1201,#586,#1209,.T.);
#1209 = LINE('',#1210,#1211);
#1210 = CARTESIAN_POINT('',(2.490185445083,-0.906353379813,21.85));
#1211 = VECTOR('',#1212,1.);
#1212 = DIRECTION('',(-0.664463024389,0.241844762648,0.707106781187));
#1213 = ORIENTED_EDGE('',*,*,#585,.T.);
#1214 = ORIENTED_EDGE('',*,*,#544,.T.);
#1215 = PLANE('',#1216);
#1216 = AXIS2_PLACEMENT_3D('',#1217,#1218,#1219);
#1217 = CARTESIAN_POINT('',(4.797015625888,-1.745970901133,21.95));
#1218 = DIRECTION('',(-0.342020143326,-0.939692620786,0.));
#1219 = DIRECTION('',(-0.939692620786,0.342020143326,0.));
#1220 = ADVANCED_FACE('',(#1221),#1240,.T.);
#1221 = FACE_BOUND('',#1222,.T.);
#1222 = EDGE_LOOP('',(#1223,#1231,#1238,#1239));
#1223 = ORIENTED_EDGE('',*,*,#1224,.T.);
#1224 = EDGE_CURVE('',#605,#1225,#1227,.T.);
#1225 = VERTEX_POINT('',#1226);
#1226 = CARTESIAN_POINT('',(-2.584154707161,-0.940555394146,21.75));
#1227 = LINE('',#1228,#1229);
#1228 = CARTESIAN_POINT('',(-2.490185445083,-0.906353379813,21.85));
#1229 = VECTOR('',#1230,1.);
#1230 = DIRECTION('',(-0.664463024389,-0.241844762648,-0.707106781187));
#1231 = ORIENTED_EDGE('',*,*,#1232,.T.);
#1232 = EDGE_CURVE('',#1225,#1201,#1233,.T.);
#1233 = CIRCLE('',#1234,2.75);
#1234 = AXIS2_PLACEMENT_3D('',#1235,#1236,#1237);
#1235 = CARTESIAN_POINT('',(0.,7.E-17,21.75));
#1236 = DIRECTION('',(0.,0.,1.));
#1237 = DIRECTION('',(1.,0.,0.));
#1238 = ORIENTED_EDGE('',*,*,#1208,.T.);
#1239 = ORIENTED_EDGE('',*,*,#612,.T.);
#1240 = CONICAL_SURFACE('',#1241,2.65,0.785398163397);
#1241 = AXIS2_PLACEMENT_3D('',#1242,#1243,#1244);
#1242 = CARTESIAN_POINT('',(0.,7.E-17,21.85));
#1243 = DIRECTION('',(0.,0.,-1.));
#1244 = DIRECTION('',(1.,0.,0.));
#1245 = ADVANCED_FACE('',(#1246),#1268,.F.);
#1246 = FACE_BOUND('',#1247,.F.);
#1247 = EDGE_LOOP('',(#1248,#1249,#1250,#1258,#1265,#1266,#1267));
#1248 = ORIENTED_EDGE('',*,*,#604,.T.);
#1249 = ORIENTED_EDGE('',*,*,#1224,.T.);
#1250 = ORIENTED_EDGE('',*,*,#1251,.T.);
#1251 = EDGE_CURVE('',#1225,#1252,#1254,.T.);
#1252 = VERTEX_POINT('',#1253);
#1253 = CARTESIAN_POINT('',(-2.584154707161,-0.940555394146,21.205));
#1254 = LINE('',#1255,#1256);
#1255 = CARTESIAN_POINT('',(-2.584154707161,-0.940555394146,3.4));
#1256 = VECTOR('',#1257,1.);
#1257 = DIRECTION('',(0.,0.,-1.));
#1258 = ORIENTED_EDGE('',*,*,#1259,.T.);
#1259 = EDGE_CURVE('',#1252,#829,#1260,.T.);
#1260 = CIRCLE('',#1261,0.3);
#1261 = AXIS2_PLACEMENT_3D('',#1262,#1263,#1264);
#1262 = CARTESIAN_POINT('',(-2.584154707161,-0.940555394146,20.905));
#1263 = DIRECTION('',(0.342020143326,-0.939692620786,0.));
#1264 = DIRECTION('',(-0.939692620786,-0.342020143326,0.));
#1265 = ORIENTED_EDGE('',*,*,#837,.T.);
#1266 = ORIENTED_EDGE('',*,*,#887,.F.);
#1267 = ORIENTED_EDGE('',*,*,#677,.T.);
#1268 = PLANE('',#1269);
#1269 = AXIS2_PLACEMENT_3D('',#1270,#1271,#1272);
#1270 = CARTESIAN_POINT('',(-1.409538931179,-0.513030214989,21.95));
#1271 = DIRECTION('',(0.342020143326,-0.939692620786,0.));
#1272 = DIRECTION('',(-0.939692620786,-0.342020143326,0.));
#1273 = ADVANCED_FACE('',(#1274),#1285,.F.);
#1274 = FACE_BOUND('',#1275,.T.);
#1275 = EDGE_LOOP('',(#1276,#1277,#1278,#1279));
#1276 = ORIENTED_EDGE('',*,*,#955,.F.);
#1277 = ORIENTED_EDGE('',*,*,#627,.F.);
#1278 = ORIENTED_EDGE('',*,*,#1137,.F.);
#1279 = ORIENTED_EDGE('',*,*,#1280,.T.);
#1280 = EDGE_CURVE('',#1138,#956,#1281,.T.);
#1281 = LINE('',#1282,#1283);
#1282 = CARTESIAN_POINT('',(3.5,-4.25,0.));
#1283 = VECTOR('',#1284,1.);
#1284 = DIRECTION('',(0.,0.,1.));
#1285 = PLANE('',#1286);
#1286 = AXIS2_PLACEMENT_3D('',#1287,#1288,#1289);
#1287 = CARTESIAN_POINT('',(3.5,-4.25,0.));
#1288 = DIRECTION('',(1.,0.,0.));
#1289 = DIRECTION('',(0.,1.,0.));
#1290 = ADVANCED_FACE('',(#1291),#1303,.T.);
#1291 = FACE_BOUND('',#1292,.T.);
#1292 = EDGE_LOOP('',(#1293,#1294,#1295,#1296));
#1293 = ORIENTED_EDGE('',*,*,#786,.T.);
#1294 = ORIENTED_EDGE('',*,*,#870,.F.);
#1295 = ORIENTED_EDGE('',*,*,#729,.T.);
#1296 = ORIENTED_EDGE('',*,*,#1297,.F.);
#1297 = EDGE_CURVE('',#787,#722,#1298,.T.);
#1298 = CIRCLE('',#1299,2.75);
#1299 = AXIS2_PLACEMENT_3D('',#1300,#1301,#1302);
#1300 = CARTESIAN_POINT('',(0.,0.,21.205));
#1301 = DIRECTION('',(0.,0.,1.));
#1302 = DIRECTION('',(1.,0.,0.));
#1303 = TOROIDAL_SURFACE('',#1304,2.75,0.3);
#1304 = AXIS2_PLACEMENT_3D('',#1305,#1306,#1307);
#1305 = CARTESIAN_POINT('',(0.,0.,20.905));
#1306 = DIRECTION('',(0.,0.,-1.));
#1307 = DIRECTION('',(-1.,0.,0.));
#1308 = ADVANCED_FACE('',(#1309),#1315,.T.);
#1309 = FACE_BOUND('',#1310,.T.);
#1310 = EDGE_LOOP('',(#1311,#1312,#1313,#1314));
#1311 = ORIENTED_EDGE('',*,*,#760,.F.);
#1312 = ORIENTED_EDGE('',*,*,#795,.T.);
#1313 = ORIENTED_EDGE('',*,*,#1297,.T.);
#1314 = ORIENTED_EDGE('',*,*,#721,.T.);
#1315 = CYLINDRICAL_SURFACE('',#1316,2.75);
#1316 = AXIS2_PLACEMENT_3D('',#1317,#1318,#1319);
#1317 = CARTESIAN_POINT('',(0.,7.E-17,3.4));
#1318 = DIRECTION('',(0.,0.,1.));
#1319 = DIRECTION('',(1.,0.,0.));
#1320 = ADVANCED_FACE('',(#1321,#1332),#1335,.T.);
#1321 = FACE_BOUND('',#1322,.T.);
#1322 = EDGE_LOOP('',(#1323));
#1323 = ORIENTED_EDGE('',*,*,#1324,.T.);
#1324 = EDGE_CURVE('',#1325,#1325,#1327,.T.);
#1325 = VERTEX_POINT('',#1326);
#1326 = CARTESIAN_POINT('',(-6.25,-1.E-15,3.4));
#1327 = CIRCLE('',#1328,6.25);
#1328 = AXIS2_PLACEMENT_3D('',#1329,#1330,#1331);
#1329 = CARTESIAN_POINT('',(0.,7.E-17,3.4));
#1330 = DIRECTION('',(0.,0.,1.));
#1331 = DIRECTION('',(1.,0.,0.));
#1332 = FACE_BOUND('',#1333,.T.);
#1333 = EDGE_LOOP('',(#1334));
#1334 = ORIENTED_EDGE('',*,*,#860,.T.);
#1335 = PLANE('',#1336);
#1336 = AXIS2_PLACEMENT_3D('',#1337,#1338,#1339);
#1337 = CARTESIAN_POINT('',(0.,0.,3.4));
#1338 = DIRECTION('',(0.,0.,1.));
#1339 = DIRECTION('',(1.,0.,0.));
#1340 = ADVANCED_FACE('',(#1341),#1353,.T.);
#1341 = FACE_BOUND('',#1342,.T.);
#1342 = EDGE_LOOP('',(#1343,#1344,#1351,#1352));
#1343 = ORIENTED_EDGE('',*,*,#1191,.T.);
#1344 = ORIENTED_EDGE('',*,*,#1345,.F.);
#1345 = EDGE_CURVE('',#1252,#1192,#1346,.T.);
#1346 = CIRCLE('',#1347,2.75);
#1347 = AXIS2_PLACEMENT_3D('',#1348,#1349,#1350);
#1348 = CARTESIAN_POINT('',(0.,0.,21.205));
#1349 = DIRECTION('',(0.,0.,1.));
#1350 = DIRECTION('',(1.,0.,0.));
#1351 = ORIENTED_EDGE('',*,*,#1259,.T.);
#1352 = ORIENTED_EDGE('',*,*,#828,.F.);
#1353 = TOROIDAL_SURFACE('',#1354,2.75,0.3);
#1354 = AXIS2_PLACEMENT_3D('',#1355,#1356,#1357);
#1355 = CARTESIAN_POINT('',(0.,0.,20.905));
#1356 = DIRECTION('',(0.,0.,-1.));
#1357 = DIRECTION('',(-1.,0.,0.));
#1358 = ADVANCED_FACE('',(#1359),#1370,.F.);
#1359 = FACE_BOUND('',#1360,.T.);
#1360 = EDGE_LOOP('',(#1361,#1362,#1368,#1369));
#1361 = ORIENTED_EDGE('',*,*,#995,.F.);
#1362 = ORIENTED_EDGE('',*,*,#1363,.T.);
#1363 = EDGE_CURVE('',#988,#930,#1364,.T.);
#1364 = LINE('',#1365,#1366);
#1365 = CARTESIAN_POINT('',(-4.5,-4.25,1.3));
#1366 = VECTOR('',#1367,1.);
#1367 = DIRECTION('',(-1.3E-16,1.,0.));
#1368 = ORIENTED_EDGE('',*,*,#929,.T.);
#1369 = ORIENTED_EDGE('',*,*,#1010,.F.);
#1370 = PLANE('',#1371);
#1371 = AXIS2_PLACEMENT_3D('',#1372,#1373,#1374);
#1372 = CARTESIAN_POINT('',(-3.571253537143,-4.25,1.557247877714));
#1373 = DIRECTION('',(-0.266933581896,-2.826643217196E-17,0.963714928211
    ));
#1374 = DIRECTION('',(1.282823001584E-16,-1.,6.201441451418E-18));
#1375 = ADVANCED_FACE('',(#1376),#1395,.T.);
#1376 = FACE_BOUND('',#1377,.T.);
#1377 = EDGE_LOOP('',(#1378,#1386,#1387,#1388,#1389));
#1378 = ORIENTED_EDGE('',*,*,#1379,.F.);
#1379 = EDGE_CURVE('',#988,#1380,#1382,.T.);
#1380 = VERTEX_POINT('',#1381);
#1381 = CARTESIAN_POINT('',(-5.5,-4.25,1.3));
#1382 = LINE('',#1383,#1384);
#1383 = CARTESIAN_POINT('',(-3.5,-4.25,1.3));
#1384 = VECTOR('',#1385,1.);
#1385 = DIRECTION('',(-1.,-0.,-0.));
#1386 = ORIENTED_EDGE('',*,*,#987,.F.);
#1387 = ORIENTED_EDGE('',*,*,#1280,.F.);
#1388 = ORIENTED_EDGE('',*,*,#1145,.T.);
#1389 = ORIENTED_EDGE('',*,*,#1390,.F.);
#1390 = EDGE_CURVE('',#1380,#1146,#1391,.T.);
#1391 = LINE('',#1392,#1393);
#1392 = CARTESIAN_POINT('',(-5.5,-4.25,1.3));
#1393 = VECTOR('',#1394,1.);
#1394 = DIRECTION('',(0.,0.,-1.));
#1395 = PLANE('',#1396);
#1396 = AXIS2_PLACEMENT_3D('',#1397,#1398,#1399);
#1397 = CARTESIAN_POINT('',(-1.,-4.25,0.65));
#1398 = DIRECTION('',(0.,1.,0.));
#1399 = DIRECTION('',(0.,0.,1.));
#1400 = ADVANCED_FACE('',(#1401),#1412,.F.);
#1401 = FACE_BOUND('',#1402,.F.);
#1402 = EDGE_LOOP('',(#1403,#1404,#1410,#1411));
#1403 = ORIENTED_EDGE('',*,*,#1026,.T.);
#1404 = ORIENTED_EDGE('',*,*,#1405,.T.);
#1405 = EDGE_CURVE('',#1027,#1380,#1406,.T.);
#1406 = LINE('',#1407,#1408);
#1407 = CARTESIAN_POINT('',(-5.5,4.25,1.3));
#1408 = VECTOR('',#1409,1.);
#1409 = DIRECTION('',(0.,-1.,0.));
#1410 = ORIENTED_EDGE('',*,*,#1379,.F.);
#1411 = ORIENTED_EDGE('',*,*,#1363,.T.);
#1412 = PLANE('',#1413);
#1413 = AXIS2_PLACEMENT_3D('',#1414,#1415,#1416);
#1414 = CARTESIAN_POINT('',(-3.5,4.25,1.3));
#1415 = DIRECTION('',(0.,0.,1.));
#1416 = DIRECTION('',(0.,-1.,0.));
#1417 = ADVANCED_FACE('',(#1418),#1424,.T.);
#1418 = FACE_BOUND('',#1419,.T.);
#1419 = EDGE_LOOP('',(#1420,#1421,#1422,#1423));
#1420 = ORIENTED_EDGE('',*,*,#1390,.T.);
#1421 = ORIENTED_EDGE('',*,*,#1153,.T.);
#1422 = ORIENTED_EDGE('',*,*,#1034,.T.);
#1423 = ORIENTED_EDGE('',*,*,#1405,.T.);
#1424 = PLANE('',#1425);
#1425 = AXIS2_PLACEMENT_3D('',#1426,#1427,#1428);
#1426 = CARTESIAN_POINT('',(-5.5,3.101374032871E-13,0.65));
#1427 = DIRECTION('',(1.,0.,0.));
#1428 = DIRECTION('',(0.,0.,1.));
#1429 = ADVANCED_FACE('',(#1430),#1449,.T.);
#1430 = FACE_BOUND('',#1431,.T.);
#1431 = EDGE_LOOP('',(#1432,#1441,#1447,#1448));
#1432 = ORIENTED_EDGE('',*,*,#1433,.T.);
#1433 = EDGE_CURVE('',#1434,#1434,#1436,.T.);
#1434 = VERTEX_POINT('',#1435);
#1435 = CARTESIAN_POINT('',(-15.,-2.E-15,3.));
#1436 = CIRCLE('',#1437,15.);
#1437 = AXIS2_PLACEMENT_3D('',#1438,#1439,#1440);
#1438 = CARTESIAN_POINT('',(0.,0.,3.));
#1439 = DIRECTION('',(0.,0.,-1.));
#1440 = DIRECTION('',(1.,0.,0.));
#1441 = ORIENTED_EDGE('',*,*,#1442,.T.);
#1442 = EDGE_CURVE('',#1434,#1059,#1443,.T.);
#1443 = LINE('',#1444,#1445);
#1444 = CARTESIAN_POINT('',(-15.,-1.84E-15,0.));
#1445 = VECTOR('',#1446,1.);
#1446 = DIRECTION('',(0.,0.,-1.));
#1447 = ORIENTED_EDGE('',*,*,#1058,.T.);
#1448 = ORIENTED_EDGE('',*,*,#1442,.F.);
#1449 = CYLINDRICAL_SURFACE('',#1450,15.);
#1450 = AXIS2_PLACEMENT_3D('',#1451,#1452,#1453);
#1451 = CARTESIAN_POINT('',(0.,0.,0.));
#1452 = DIRECTION('',(0.,0.,1.));
#1453 = DIRECTION('',(1.,0.,0.));
#1454 = ADVANCED_FACE('',(#1455),#1474,.F.);
#1455 = FACE_BOUND('',#1456,.F.);
#1456 = EDGE_LOOP('',(#1457,#1465,#1466,#1467));
#1457 = ORIENTED_EDGE('',*,*,#1458,.T.);
#1458 = EDGE_CURVE('',#1459,#1070,#1461,.T.);
#1459 = VERTEX_POINT('',#1460);
#1460 = CARTESIAN_POINT('',(-6.025427014731,-8.8775,6.));
#1461 = LINE('',#1462,#1463);
#1462 = CARTESIAN_POINT('',(-6.025427014731,-8.8775,0.));
#1463 = VECTOR('',#1464,1.);
#1464 = DIRECTION('',(0.,0.,-1.));
#1465 = ORIENTED_EDGE('',*,*,#1069,.F.);
#1466 = ORIENTED_EDGE('',*,*,#1458,.F.);
#1467 = ORIENTED_EDGE('',*,*,#1468,.T.);
#1468 = EDGE_CURVE('',#1459,#1459,#1469,.T.);
#1469 = CIRCLE('',#1470,0.9);
#1470 = AXIS2_PLACEMENT_3D('',#1471,#1472,#1473);
#1471 = CARTESIAN_POINT('',(-5.125427014731,-8.8775,6.));
#1472 = DIRECTION('',(0.,0.,-1.));
#1473 = DIRECTION('',(1.,0.,0.));
#1474 = CYLINDRICAL_SURFACE('',#1475,0.9);
#1475 = AXIS2_PLACEMENT_3D('',#1476,#1477,#1478);
#1476 = CARTESIAN_POINT('',(-5.125427014731,-8.8775,0.));
#1477 = DIRECTION('',(0.,0.,1.));
#1478 = DIRECTION('',(1.,0.,0.));
#1479 = ADVANCED_FACE('',(#1480),#1506,.F.);
#1480 = FACE_BOUND('',#1481,.F.);
#1481 = EDGE_LOOP('',(#1482,#1490,#1499,#1505));
#1482 = ORIENTED_EDGE('',*,*,#1483,.T.);
#1483 = EDGE_CURVE('',#1081,#1484,#1486,.T.);
#1484 = VERTEX_POINT('',#1485);
#1485 = CARTESIAN_POINT('',(-12.36931687685,-4.,6.));
#1486 = LINE('',#1487,#1488);
#1487 = CARTESIAN_POINT('',(-12.36931687685,-4.,0.));
#1488 = VECTOR('',#1489,1.);
#1489 = DIRECTION('',(0.,0.,1.));
#1490 = ORIENTED_EDGE('',*,*,#1491,.T.);
#1491 = EDGE_CURVE('',#1484,#1492,#1494,.T.);
#1492 = VERTEX_POINT('',#1493);
#1493 = CARTESIAN_POINT('',(-12.36931687685,4.,6.));
#1494 = CIRCLE('',#1495,13.);
#1495 = AXIS2_PLACEMENT_3D('',#1496,#1497,#1498);
#1496 = CARTESIAN_POINT('',(0.,7.E-17,6.));
#1497 = DIRECTION('',(0.,0.,-1.));
#1498 = DIRECTION('',(1.,0.,0.));
#1499 = ORIENTED_EDGE('',*,*,#1500,.F.);
#1500 = EDGE_CURVE('',#1083,#1492,#1501,.T.);
#1501 = LINE('',#1502,#1503);
#1502 = CARTESIAN_POINT('',(-12.36931687685,4.,0.));
#1503 = VECTOR('',#1504,1.);
#1504 = DIRECTION('',(0.,0.,1.));
#1505 = ORIENTED_EDGE('',*,*,#1080,.F.);
#1506 = CYLINDRICAL_SURFACE('',#1507,13.);
#1507 = AXIS2_PLACEMENT_3D('',#1508,#1509,#1510);
#1508 = CARTESIAN_POINT('',(0.,7.E-17,0.));
#1509 = DIRECTION('',(0.,0.,1.));
#1510 = DIRECTION('',(-1.,1.2E-16,0.));
#1511 = ADVANCED_FACE('',(#1512),#1530,.T.);
#1512 = FACE_BOUND('',#1513,.T.);
#1513 = EDGE_LOOP('',(#1514,#1515,#1516,#1524));
#1514 = ORIENTED_EDGE('',*,*,#1107,.T.);
#1515 = ORIENTED_EDGE('',*,*,#1483,.T.);
#1516 = ORIENTED_EDGE('',*,*,#1517,.F.);
#1517 = EDGE_CURVE('',#1518,#1484,#1520,.T.);
#1518 = VERTEX_POINT('',#1519);
#1519 = CARTESIAN_POINT('',(-8.999999999999,-4.,6.));
#1520 = LINE('',#1521,#1522);
#1521 = CARTESIAN_POINT('',(-4.5,-4.,6.));
#1522 = VECTOR('',#1523,1.);
#1523 = DIRECTION('',(-1.,0.,0.));
#1524 = ORIENTED_EDGE('',*,*,#1525,.F.);
#1525 = EDGE_CURVE('',#1100,#1518,#1526,.T.);
#1526 = LINE('',#1527,#1528);
#1527 = CARTESIAN_POINT('',(-8.999999999999,-4.,0.));
#1528 = VECTOR('',#1529,1.);
#1529 = DIRECTION('',(0.,0.,1.));
#1530 = PLANE('',#1531);
#1531 = AXIS2_PLACEMENT_3D('',#1532,#1533,#1534);
#1532 = CARTESIAN_POINT('',(-8.999999999999,-4.,0.));
#1533 = DIRECTION('',(0.,1.,0.));
#1534 = DIRECTION('',(-1.,0.,0.));
#1535 = ADVANCED_FACE('',(#1536),#1554,.T.);
#1536 = FACE_BOUND('',#1537,.T.);
#1537 = EDGE_LOOP('',(#1538,#1539,#1547,#1553));
#1538 = ORIENTED_EDGE('',*,*,#1091,.T.);
#1539 = ORIENTED_EDGE('',*,*,#1540,.T.);
#1540 = EDGE_CURVE('',#1092,#1541,#1543,.T.);
#1541 = VERTEX_POINT('',#1542);
#1542 = CARTESIAN_POINT('',(-9.000000000001,4.,6.));
#1543 = LINE('',#1544,#1545);
#1544 = CARTESIAN_POINT('',(-9.000000000001,4.,0.));
#1545 = VECTOR('',#1546,1.);
#1546 = DIRECTION('',(0.,0.,1.));
#1547 = ORIENTED_EDGE('',*,*,#1548,.F.);
#1548 = EDGE_CURVE('',#1492,#1541,#1549,.T.);
#1549 = LINE('',#1550,#1551);
#1550 = CARTESIAN_POINT('',(-6.184658438426,4.,6.));
#1551 = VECTOR('',#1552,1.);
#1552 = DIRECTION('',(1.,0.,0.));
#1553 = ORIENTED_EDGE('',*,*,#1500,.F.);
#1554 = PLANE('',#1555);
#1555 = AXIS2_PLACEMENT_3D('',#1556,#1557,#1558);
#1556 = CARTESIAN_POINT('',(-12.36931687685,4.,0.));
#1557 = DIRECTION('',(0.,-1.,0.));
#1558 = DIRECTION('',(1.,0.,0.));
#1559 = ADVANCED_FACE('',(#1560),#1571,.T.);
#1560 = FACE_BOUND('',#1561,.T.);
#1561 = EDGE_LOOP('',(#1562,#1563,#1564,#1570));
#1562 = ORIENTED_EDGE('',*,*,#1099,.T.);
#1563 = ORIENTED_EDGE('',*,*,#1525,.T.);
#1564 = ORIENTED_EDGE('',*,*,#1565,.F.);
#1565 = EDGE_CURVE('',#1541,#1518,#1566,.T.);
#1566 = LINE('',#1567,#1568);
#1567 = CARTESIAN_POINT('',(-9.,1.999999999999,6.));
#1568 = VECTOR('',#1569,1.);
#1569 = DIRECTION('',(1.7875E-13,-1.,0.));
#1570 = ORIENTED_EDGE('',*,*,#1540,.F.);
#1571 = PLANE('',#1572);
#1572 = AXIS2_PLACEMENT_3D('',#1573,#1574,#1575);
#1573 = CARTESIAN_POINT('',(-9.000000000001,4.,0.));
#1574 = DIRECTION('',(-1.,-1.7875E-13,0.));
#1575 = DIRECTION('',(1.7875E-13,-1.,0.));
#1576 = ADVANCED_FACE('',(#1577),#1596,.F.);
#1577 = FACE_BOUND('',#1578,.F.);
#1578 = EDGE_LOOP('',(#1579,#1587,#1588,#1589));
#1579 = ORIENTED_EDGE('',*,*,#1580,.T.);
#1580 = EDGE_CURVE('',#1581,#1116,#1583,.T.);
#1581 = VERTEX_POINT('',#1582);
#1582 = CARTESIAN_POINT('',(9.350854029459,-4.24E-12,6.));
#1583 = LINE('',#1584,#1585);
#1584 = CARTESIAN_POINT('',(9.350854029459,-4.23992E-12,0.));
#1585 = VECTOR('',#1586,1.);
#1586 = DIRECTION('',(0.,0.,-1.));
#1587 = ORIENTED_EDGE('',*,*,#1115,.F.);
#1588 = ORIENTED_EDGE('',*,*,#1580,.F.);
#1589 = ORIENTED_EDGE('',*,*,#1590,.T.);
#1590 = EDGE_CURVE('',#1581,#1581,#1591,.T.);
#1591 = CIRCLE('',#1592,0.9);
#1592 = AXIS2_PLACEMENT_3D('',#1593,#1594,#1595);
#1593 = CARTESIAN_POINT('',(10.250854029459,-4.23981E-12,6.));
#1594 = DIRECTION('',(0.,0.,-1.));
#1595 = DIRECTION('',(1.,0.,0.));
#1596 = CYLINDRICAL_SURFACE('',#1597,0.9);
#1597 = AXIS2_PLACEMENT_3D('',#1598,#1599,#1600);
#1598 = CARTESIAN_POINT('',(10.250854029459,-4.23981E-12,0.));
#1599 = DIRECTION('',(0.,0.,1.));
#1600 = DIRECTION('',(1.,0.,0.));
#1601 = ADVANCED_FACE('',(#1602),#1621,.F.);
#1602 = FACE_BOUND('',#1603,.F.);
#1603 = EDGE_LOOP('',(#1604,#1612,#1613,#1614));
#1604 = ORIENTED_EDGE('',*,*,#1605,.T.);
#1605 = EDGE_CURVE('',#1606,#1127,#1608,.T.);
#1606 = VERTEX_POINT('',#1607);
#1607 = CARTESIAN_POINT('',(-6.025427014731,8.8775,6.));
#1608 = LINE('',#1609,#1610);
#1609 = CARTESIAN_POINT('',(-6.025427014731,8.8775,0.));
#1610 = VECTOR('',#1611,1.);
#1611 = DIRECTION('',(0.,0.,-1.));
#1612 = ORIENTED_EDGE('',*,*,#1126,.F.);
#1613 = ORIENTED_EDGE('',*,*,#1605,.F.);
#1614 = ORIENTED_EDGE('',*,*,#1615,.T.);
#1615 = EDGE_CURVE('',#1606,#1606,#1616,.T.);
#1616 = CIRCLE('',#1617,0.9);
#1617 = AXIS2_PLACEMENT_3D('',#1618,#1619,#1620);
#1618 = CARTESIAN_POINT('',(-5.125427014731,8.8775,6.));
#1619 = DIRECTION('',(0.,0.,-1.));
#1620 = DIRECTION('',(1.,0.,0.));
#1621 = CYLINDRICAL_SURFACE('',#1622,0.9);
#1622 = AXIS2_PLACEMENT_3D('',#1623,#1624,#1625);
#1623 = CARTESIAN_POINT('',(-5.125427014731,8.8775,0.));
#1624 = DIRECTION('',(0.,0.,1.));
#1625 = DIRECTION('',(1.,0.,0.));
#1626 = ADVANCED_FACE('',(#1627),#1633,.T.);
#1627 = FACE_BOUND('',#1628,.T.);
#1628 = EDGE_LOOP('',(#1629,#1630,#1631,#1632));
#1629 = ORIENTED_EDGE('',*,*,#1232,.F.);
#1630 = ORIENTED_EDGE('',*,*,#1251,.T.);
#1631 = ORIENTED_EDGE('',*,*,#1345,.T.);
#1632 = ORIENTED_EDGE('',*,*,#1200,.T.);
#1633 = CYLINDRICAL_SURFACE('',#1634,2.75);
#1634 = AXIS2_PLACEMENT_3D('',#1635,#1636,#1637);
#1635 = CARTESIAN_POINT('',(0.,7.E-17,3.4));
#1636 = DIRECTION('',(0.,0.,1.));
#1637 = DIRECTION('',(1.,0.,0.));
#1638 = ADVANCED_FACE('',(#1639),#1658,.F.);
#1639 = FACE_BOUND('',#1640,.F.);
#1640 = EDGE_LOOP('',(#1641,#1649,#1650,#1651));
#1641 = ORIENTED_EDGE('',*,*,#1642,.T.);
#1642 = EDGE_CURVE('',#1643,#1325,#1645,.T.);
#1643 = VERTEX_POINT('',#1644);
#1644 = CARTESIAN_POINT('',(-6.25,-1.E-15,6.));
#1645 = LINE('',#1646,#1647);
#1646 = CARTESIAN_POINT('',(-6.25,-6.9E-16,3.4));
#1647 = VECTOR('',#1648,1.);
#1648 = DIRECTION('',(0.,0.,-1.));
#1649 = ORIENTED_EDGE('',*,*,#1324,.T.);
#1650 = ORIENTED_EDGE('',*,*,#1642,.F.);
#1651 = ORIENTED_EDGE('',*,*,#1652,.T.);
#1652 = EDGE_CURVE('',#1643,#1643,#1653,.T.);
#1653 = CIRCLE('',#1654,6.25);
#1654 = AXIS2_PLACEMENT_3D('',#1655,#1656,#1657);
#1655 = CARTESIAN_POINT('',(0.,7.E-17,6.));
#1656 = DIRECTION('',(0.,0.,-1.));
#1657 = DIRECTION('',(1.,0.,0.));
#1658 = CYLINDRICAL_SURFACE('',#1659,6.25);
#1659 = AXIS2_PLACEMENT_3D('',#1660,#1661,#1662);
#1660 = CARTESIAN_POINT('',(0.,7.E-17,3.4));
#1661 = DIRECTION('',(0.,0.,1.));
#1662 = DIRECTION('',(1.,0.,0.));
#1663 = ADVANCED_FACE('',(#1664,#1675),#1678,.F.);
#1664 = FACE_BOUND('',#1665,.T.);
#1665 = EDGE_LOOP('',(#1666));
#1666 = ORIENTED_EDGE('',*,*,#1667,.F.);
#1667 = EDGE_CURVE('',#1668,#1668,#1670,.T.);
#1668 = VERTEX_POINT('',#1669);
#1669 = CARTESIAN_POINT('',(-21.5,-3.E-15,3.));
#1670 = CIRCLE('',#1671,21.5);
#1671 = AXIS2_PLACEMENT_3D('',#1672,#1673,#1674);
#1672 = CARTESIAN_POINT('',(0.,7.E-17,3.));
#1673 = DIRECTION('',(0.,0.,1.));
#1674 = DIRECTION('',(1.,0.,0.));
#1675 = FACE_BOUND('',#1676,.T.);
#1676 = EDGE_LOOP('',(#1677));
#1677 = ORIENTED_EDGE('',*,*,#1433,.F.);
#1678 = PLANE('',#1679);
#1679 = AXIS2_PLACEMENT_3D('',#1680,#1681,#1682);
#1680 = CARTESIAN_POINT('',(0.,0.,3.));
#1681 = DIRECTION('',(0.,0.,1.));
#1682 = DIRECTION('',(1.,0.,0.));
#1683 = ADVANCED_FACE('',(#1684,#1695,#1701,#1704,#1707,#1710),#1713,.T.
  );
#1684 = FACE_BOUND('',#1685,.T.);
#1685 = EDGE_LOOP('',(#1686));
#1686 = ORIENTED_EDGE('',*,*,#1687,.T.);
#1687 = EDGE_CURVE('',#1688,#1688,#1690,.T.);
#1688 = VERTEX_POINT('',#1689);
#1689 = CARTESIAN_POINT('',(-15.,2.E-15,6.));
#1690 = CIRCLE('',#1691,15.);
#1691 = AXIS2_PLACEMENT_3D('',#1692,#1693,#1694);
#1692 = CARTESIAN_POINT('',(0.,0.,6.));
#1693 = DIRECTION('',(0.,0.,1.));
#1694 = DIRECTION('',(1.,0.,0.));
#1695 = FACE_BOUND('',#1696,.T.);
#1696 = EDGE_LOOP('',(#1697,#1698,#1699,#1700));
#1697 = ORIENTED_EDGE('',*,*,#1517,.T.);
#1698 = ORIENTED_EDGE('',*,*,#1491,.T.);
#1699 = ORIENTED_EDGE('',*,*,#1548,.T.);
#1700 = ORIENTED_EDGE('',*,*,#1565,.T.);
#1701 = FACE_BOUND('',#1702,.T.);
#1702 = EDGE_LOOP('',(#1703));
#1703 = ORIENTED_EDGE('',*,*,#1615,.T.);
#1704 = FACE_BOUND('',#1705,.T.);
#1705 = EDGE_LOOP('',(#1706));
#1706 = ORIENTED_EDGE('',*,*,#1590,.T.);
#1707 = FACE_BOUND('',#1708,.T.);
#1708 = EDGE_LOOP('',(#1709));
#1709 = ORIENTED_EDGE('',*,*,#1468,.T.);
#1710 = FACE_BOUND('',#1711,.T.);
#1711 = EDGE_LOOP('',(#1712));
#1712 = ORIENTED_EDGE('',*,*,#1652,.T.);
#1713 = PLANE('',#1714);
#1714 = AXIS2_PLACEMENT_3D('',#1715,#1716,#1717);
#1715 = CARTESIAN_POINT('',(0.,0.,6.));
#1716 = DIRECTION('',(0.,0.,1.));
#1717 = DIRECTION('',(1.,0.,0.));
#1718 = ADVANCED_FACE('',(#1719),#1738,.T.);
#1719 = FACE_BOUND('',#1720,.T.);
#1720 = EDGE_LOOP('',(#1721,#1730,#1736,#1737));
#1721 = ORIENTED_EDGE('',*,*,#1722,.F.);
#1722 = EDGE_CURVE('',#1723,#1723,#1725,.T.);
#1723 = VERTEX_POINT('',#1724);
#1724 = CARTESIAN_POINT('',(-21.5,-3.E-15,4.5));
#1725 = CIRCLE('',#1726,21.5);
#1726 = AXIS2_PLACEMENT_3D('',#1727,#1728,#1729);
#1727 = CARTESIAN_POINT('',(0.,7.E-17,4.5));
#1728 = DIRECTION('',(0.,0.,1.));
#1729 = DIRECTION('',(1.,0.,0.));
#1730 = ORIENTED_EDGE('',*,*,#1731,.T.);
#1731 = EDGE_CURVE('',#1723,#1668,#1732,.T.);
#1732 = LINE('',#1733,#1734);
#1733 = CARTESIAN_POINT('',(-21.5,-2.56E-15,3.));
#1734 = VECTOR('',#1735,1.);
#1735 = DIRECTION('',(0.,0.,-1.));
#1736 = ORIENTED_EDGE('',*,*,#1667,.T.);
#1737 = ORIENTED_EDGE('',*,*,#1731,.F.);
#1738 = CYLINDRICAL_SURFACE('',#1739,21.5);
#1739 = AXIS2_PLACEMENT_3D('',#1740,#1741,#1742);
#1740 = CARTESIAN_POINT('',(0.,7.E-17,3.));
#1741 = DIRECTION('',(0.,0.,1.));
#1742 = DIRECTION('',(1.,0.,0.));
#1743 = ADVANCED_FACE('',(#1744),#1763,.T.);
#1744 = FACE_BOUND('',#1745,.T.);
#1745 = EDGE_LOOP('',(#1746,#1747,#1755,#1762));
#1746 = ORIENTED_EDGE('',*,*,#1687,.F.);
#1747 = ORIENTED_EDGE('',*,*,#1748,.T.);
#1748 = EDGE_CURVE('',#1688,#1749,#1751,.T.);
#1749 = VERTEX_POINT('',#1750);
#1750 = CARTESIAN_POINT('',(-15.,-2.E-15,4.5));
#1751 = LINE('',#1752,#1753);
#1752 = CARTESIAN_POINT('',(-15.,-1.84E-15,0.));
#1753 = VECTOR('',#1754,1.);
#1754 = DIRECTION('',(0.,0.,-1.));
#1755 = ORIENTED_EDGE('',*,*,#1756,.T.);
#1756 = EDGE_CURVE('',#1749,#1749,#1757,.T.);
#1757 = CIRCLE('',#1758,15.);
#1758 = AXIS2_PLACEMENT_3D('',#1759,#1760,#1761);
#1759 = CARTESIAN_POINT('',(0.,0.,4.5));
#1760 = DIRECTION('',(0.,0.,1.));
#1761 = DIRECTION('',(1.,0.,0.));
#1762 = ORIENTED_EDGE('',*,*,#1748,.F.);
#1763 = CYLINDRICAL_SURFACE('',#1764,15.);
#1764 = AXIS2_PLACEMENT_3D('',#1765,#1766,#1767);
#1765 = CARTESIAN_POINT('',(0.,0.,0.));
#1766 = DIRECTION('',(0.,0.,1.));
#1767 = DIRECTION('',(1.,0.,0.));
#1768 = ADVANCED_FACE('',(#1769,#1772),#1775,.T.);
#1769 = FACE_BOUND('',#1770,.T.);
#1770 = EDGE_LOOP('',(#1771));
#1771 = ORIENTED_EDGE('',*,*,#1722,.T.);
#1772 = FACE_BOUND('',#1773,.T.);
#1773 = EDGE_LOOP('',(#1774));
#1774 = ORIENTED_EDGE('',*,*,#1756,.F.);
#1775 = PLANE('',#1776);
#1776 = AXIS2_PLACEMENT_3D('',#1777,#1778,#1779);
#1777 = CARTESIAN_POINT('',(0.,0.,4.5));
#1778 = DIRECTION('',(0.,0.,1.));
#1779 = DIRECTION('',(1.,0.,0.));
#1780 = ( GEOMETRIC_REPRESENTATION_CONTEXT(3) 
GLOBAL_UNCERTAINTY_ASSIGNED_CONTEXT((#1784)) 
GLOBAL_UNIT_ASSIGNED_CONTEXT((#1781,#1782,#1783)) REPRESENTATION_CONTEXT
('Context #1','3D Context with UNIT and UNCERTAINTY') );
#1781 = ( LENGTH_UNIT() NAMED_UNIT(*) SI_UNIT(.MILLI.,.METRE.) );
#1782 = ( NAMED_UNIT(*) PLANE_ANGLE_UNIT() SI_UNIT($,.RADIAN.) );
#1783 = ( NAMED_UNIT(*) SI_UNIT($,.STERADIAN.) SOLID_ANGLE_UNIT() );
#1784 = UNCERTAINTY_MEASURE_WITH_UNIT(LENGTH_MEASURE(2.E-06),#1781,
  'distance_accuracy_value','confusion accuracy');
#1785 = PRODUCT_RELATED_PRODUCT_CATEGORY('part',$,(#7));
#1786 = MECHANICAL_DESIGN_GEOMETRIC_PRESENTATION_REPRESENTATION('',(
    #1787),#1780);
#1787 = STYLED_ITEM('color',(#1788),#15);
#1788 = PRESENTATION_STYLE_ASSIGNMENT((#1789,#1795));
#1789 = SURFACE_STYLE_USAGE(.BOTH.,#1790);
#1790 = SURFACE_SIDE_STYLE('',(#1791));
#1791 = SURFACE_STYLE_FILL_AREA(#1792);
#1792 = FILL_AREA_STYLE('',(#1793));
#1793 = FILL_AREA_STYLE_COLOUR('',#1794);
#1794 = COLOUR_RGB('',0.447059003357,0.474510015008,0.501960993452);
#1795 = CURVE_STYLE('',#1796,POSITIVE_LENGTH_MEASURE(0.1),#1797);
#1796 = DRAUGHTING_PRE_DEFINED_CURVE_FONT('continuous');
#1797 = COLOUR_RGB('',9.803921802644E-02,9.803921802644E-02,
  9.803921802644E-02);
ENDSEC;
END-ISO-10303-21;
