%TF.GenerationSoftware,KiCad,Pcbnew,9.0.0*%
%TF.CreationDate,2025-03-28T18:15:13-04:00*%
%TF.ProjectId,view_base,76696577-5f62-4617-9365-2e6b69636164,rev?*%
%TF.SameCoordinates,Original*%
%TF.FileFunction,Soldermask,Top*%
%TF.FilePolarity,Negative*%
%FSLAX46Y46*%
G04 Gerber Fmt 4.6, Leading zero omitted, Abs format (unit mm)*
G04 Created by KiCad (PCBNEW 9.0.0) date 2025-03-28 18:15:13*
%MOMM*%
%LPD*%
G01*
G04 APERTURE LIST*
G04 Aperture macros list*
%AMRoundRect*
0 Rectangle with rounded corners*
0 $1 Rounding radius*
0 $2 $3 $4 $5 $6 $7 $8 $9 X,Y pos of 4 corners*
0 Add a 4 corners polygon primitive as box body*
4,1,4,$2,$3,$4,$5,$6,$7,$8,$9,$2,$3,0*
0 Add four circle primitives for the rounded corners*
1,1,$1+$1,$2,$3*
1,1,$1+$1,$4,$5*
1,1,$1+$1,$6,$7*
1,1,$1+$1,$8,$9*
0 Add four rect primitives between the rounded corners*
20,1,$1+$1,$2,$3,$4,$5,0*
20,1,$1+$1,$4,$5,$6,$7,0*
20,1,$1+$1,$6,$7,$8,$9,0*
20,1,$1+$1,$8,$9,$2,$3,0*%
%AMRotRect*
0 Rectangle, with rotation*
0 The origin of the aperture is its center*
0 $1 length*
0 $2 width*
0 $3 Rotation angle, in degrees counterclockwise*
0 Add horizontal line*
21,1,$1,$2,0,0,$3*%
%AMOutline5P*
0 Free polygon, 5 corners , with rotation*
0 The origin of the aperture is its center*
0 number of corners: always 5*
0 $1 to $10 corner X, Y*
0 $11 Rotation angle, in degrees counterclockwise*
0 create outline with 5 corners*
4,1,5,$1,$2,$3,$4,$5,$6,$7,$8,$9,$10,$1,$2,$11*%
%AMOutline6P*
0 Free polygon, 6 corners , with rotation*
0 The origin of the aperture is its center*
0 number of corners: always 6*
0 $1 to $12 corner X, Y*
0 $13 Rotation angle, in degrees counterclockwise*
0 create outline with 6 corners*
4,1,6,$1,$2,$3,$4,$5,$6,$7,$8,$9,$10,$11,$12,$1,$2,$13*%
%AMOutline7P*
0 Free polygon, 7 corners , with rotation*
0 The origin of the aperture is its center*
0 number of corners: always 7*
0 $1 to $14 corner X, Y*
0 $15 Rotation angle, in degrees counterclockwise*
0 create outline with 7 corners*
4,1,7,$1,$2,$3,$4,$5,$6,$7,$8,$9,$10,$11,$12,$13,$14,$1,$2,$15*%
%AMOutline8P*
0 Free polygon, 8 corners , with rotation*
0 The origin of the aperture is its center*
0 number of corners: always 8*
0 $1 to $16 corner X, Y*
0 $17 Rotation angle, in degrees counterclockwise*
0 create outline with 8 corners*
4,1,8,$1,$2,$3,$4,$5,$6,$7,$8,$9,$10,$11,$12,$13,$14,$15,$16,$1,$2,$17*%
G04 Aperture macros list end*
%ADD10RoundRect,0.082500X0.192500X0.567500X-0.192500X0.567500X-0.192500X-0.567500X0.192500X-0.567500X0*%
%ADD11RoundRect,0.082500X-0.567500X0.192500X-0.567500X-0.192500X0.567500X-0.192500X0.567500X0.192500X0*%
%ADD12C,2.400000*%
%ADD13C,3.500000*%
%ADD14RotRect,0.420000X1.300000X157.500000*%
%ADD15RotRect,0.420000X1.300000X112.500000*%
%ADD16R,0.600000X1.090000*%
%ADD17R,0.300000X1.090000*%
%ADD18O,1.000000X1.800000*%
%ADD19O,1.000000X2.200000*%
%ADD20RoundRect,0.135000X-0.185000X0.135000X-0.185000X-0.135000X0.185000X-0.135000X0.185000X0.135000X0*%
%ADD21RoundRect,0.225000X-0.017678X0.335876X-0.335876X0.017678X0.017678X-0.335876X0.335876X-0.017678X0*%
%ADD22RoundRect,0.140000X-0.021213X0.219203X-0.219203X0.021213X0.021213X-0.219203X0.219203X-0.021213X0*%
%ADD23RoundRect,0.140000X-0.140000X-0.170000X0.140000X-0.170000X0.140000X0.170000X-0.140000X0.170000X0*%
%ADD24RoundRect,0.140000X-0.219203X-0.021213X-0.021213X-0.219203X0.219203X0.021213X0.021213X0.219203X0*%
%ADD25RoundRect,0.225000X0.335876X0.017678X0.017678X0.335876X-0.335876X-0.017678X-0.017678X-0.335876X0*%
%ADD26RoundRect,0.140000X0.021213X-0.219203X0.219203X-0.021213X-0.021213X0.219203X-0.219203X0.021213X0*%
%ADD27RoundRect,0.150000X-0.521491X0.309359X0.309359X-0.521491X0.521491X-0.309359X-0.309359X0.521491X0*%
%ADD28RoundRect,0.135000X0.035355X-0.226274X0.226274X-0.035355X-0.035355X0.226274X-0.226274X0.035355X0*%
%ADD29RoundRect,0.135000X-0.226274X-0.035355X-0.035355X-0.226274X0.226274X0.035355X0.035355X0.226274X0*%
%ADD30RotRect,0.420000X1.300000X22.500000*%
%ADD31RotRect,0.420000X1.300000X67.500000*%
%ADD32RoundRect,0.218750X-0.335876X-0.026517X-0.026517X-0.335876X0.335876X0.026517X0.026517X0.335876X0*%
%ADD33RoundRect,0.050000X-0.229810X-0.300520X0.300520X0.229810X0.229810X0.300520X-0.300520X-0.229810X0*%
%ADD34RoundRect,0.050000X0.229810X-0.300520X0.300520X-0.229810X-0.229810X0.300520X-0.300520X0.229810X0*%
%ADD35RotRect,1.650000X1.650000X45.000000*%
%ADD36RoundRect,0.140000X0.140000X0.170000X-0.140000X0.170000X-0.140000X-0.170000X0.140000X-0.170000X0*%
%ADD37C,2.000000*%
%ADD38RoundRect,0.140000X0.219203X0.021213X0.021213X0.219203X-0.219203X-0.021213X-0.021213X-0.219203X0*%
%ADD39RoundRect,0.135000X0.135000X0.185000X-0.135000X0.185000X-0.135000X-0.185000X0.135000X-0.185000X0*%
%ADD40RoundRect,0.150000X0.825000X0.150000X-0.825000X0.150000X-0.825000X-0.150000X0.825000X-0.150000X0*%
%ADD41RoundRect,0.140000X0.170000X-0.140000X0.170000X0.140000X-0.170000X0.140000X-0.170000X-0.140000X0*%
%ADD42RoundRect,0.135000X-0.135000X-0.185000X0.135000X-0.185000X0.135000X0.185000X-0.135000X0.185000X0*%
%ADD43RoundRect,0.150000X0.689429X-0.477297X-0.477297X0.689429X-0.689429X0.477297X0.477297X-0.689429X0*%
%ADD44RoundRect,0.135000X0.226274X0.035355X0.035355X0.226274X-0.226274X-0.035355X-0.035355X-0.226274X0*%
%ADD45RoundRect,0.225000X-0.250000X0.225000X-0.250000X-0.225000X0.250000X-0.225000X0.250000X0.225000X0*%
%ADD46RoundRect,0.225000X0.225000X0.250000X-0.225000X0.250000X-0.225000X-0.250000X0.225000X-0.250000X0*%
%ADD47RotRect,0.420000X1.300000X292.500000*%
%ADD48R,0.400000X0.800000*%
%ADD49R,0.800000X0.400000*%
%ADD50Outline5P,-0.600000X0.204000X-0.204000X0.600000X0.600000X0.600000X0.600000X-0.600000X-0.600000X-0.600000X90.000000*%
%ADD51R,1.200000X1.200000*%
%ADD52R,0.800000X0.800000*%
%ADD53RoundRect,0.225000X-0.225000X-0.250000X0.225000X-0.250000X0.225000X0.250000X-0.225000X0.250000X0*%
%ADD54R,2.000000X1.500000*%
%ADD55R,2.000000X3.800000*%
%ADD56RoundRect,0.150000X0.512500X0.150000X-0.512500X0.150000X-0.512500X-0.150000X0.512500X-0.150000X0*%
%ADD57RotRect,0.420000X1.300000X337.500000*%
%ADD58R,1.350000X1.350000*%
%ADD59O,1.350000X1.350000*%
%ADD60RotRect,0.420000X1.300000X247.500000*%
%ADD61RoundRect,0.225000X0.250000X-0.225000X0.250000X0.225000X-0.250000X0.225000X-0.250000X-0.225000X0*%
%ADD62RoundRect,0.050000X-0.285000X-0.100000X0.285000X-0.100000X0.285000X0.100000X-0.285000X0.100000X0*%
%ADD63RotRect,0.420000X1.300000X202.500000*%
G04 APERTURE END LIST*
D10*
%TO.C,SW2*%
X75289799Y-128168400D03*
X72639801Y-128168400D03*
%TD*%
D11*
%TO.C,SW1*%
X68453000Y-108250601D03*
X68453000Y-110900599D03*
%TD*%
D12*
%TO.C,H3*%
X106725427Y-80022500D03*
%TD*%
%TO.C,H1*%
X106725427Y-97777499D03*
%TD*%
%TO.C,H2*%
X91349146Y-88900000D03*
%TD*%
D13*
%TO.C,H4*%
X101600000Y-118700000D03*
%TD*%
%TO.C,H5*%
X71800000Y-88900000D03*
%TD*%
%TO.C,H6*%
X101600000Y-59100000D03*
%TD*%
D14*
%TO.C,D2*%
X93845137Y-104506199D03*
X94630435Y-104831480D03*
X95415732Y-105156761D03*
X96201030Y-105482042D03*
%TD*%
D13*
%TO.C,H7*%
X131400000Y-88900000D03*
%TD*%
D15*
%TO.C,D1*%
X85094158Y-94476770D03*
X85419439Y-95262068D03*
X85744720Y-96047365D03*
X86070001Y-96832663D03*
%TD*%
D16*
%TO.C,J2*%
X98400000Y-122750000D03*
X99200000Y-122750000D03*
D17*
X100350000Y-122750000D03*
X101350000Y-122750000D03*
X101850000Y-122750000D03*
X102850000Y-122750000D03*
D16*
X104000000Y-122750000D03*
X104800000Y-122750000D03*
X104800000Y-122750000D03*
X104000000Y-122750000D03*
D17*
X103350000Y-122750000D03*
X102350000Y-122750000D03*
X100850000Y-122750000D03*
X99850000Y-122750000D03*
D16*
X99200000Y-122750000D03*
X98400000Y-122750000D03*
D18*
X95980000Y-123900000D03*
D19*
X95980000Y-127900000D03*
D18*
X107220000Y-123900000D03*
D19*
X107220000Y-127900000D03*
%TD*%
D20*
%TO.C,R1*%
X94615000Y-123188001D03*
X94615000Y-124207999D03*
%TD*%
%TO.C,R2*%
X108585000Y-123188001D03*
X108585000Y-124207999D03*
%TD*%
D21*
%TO.C,C13*%
X122849008Y-109814992D03*
X121752992Y-110911008D03*
%TD*%
D22*
%TO.C,C14*%
X123529411Y-110912589D03*
X122850589Y-111591411D03*
%TD*%
D23*
%TO.C,C15*%
X121821000Y-114046000D03*
X122781000Y-114046000D03*
%TD*%
D21*
%TO.C,C16*%
X69454854Y-65357515D03*
X68358838Y-66453531D03*
%TD*%
D24*
%TO.C,C17*%
X128057589Y-111547589D03*
X128736411Y-112226411D03*
%TD*%
D25*
%TO.C,C18*%
X79961754Y-67620964D03*
X78865738Y-66524948D03*
%TD*%
D26*
%TO.C,C22*%
X77906902Y-64089672D03*
X78585724Y-63410850D03*
%TD*%
D27*
%TO.C,Q1*%
X75112062Y-67534343D03*
X73768559Y-68877846D03*
X75766136Y-69531920D03*
%TD*%
D28*
%TO.C,R4*%
X77706084Y-65727332D03*
X78427332Y-65006084D03*
%TD*%
D29*
%TO.C,R5*%
X80382200Y-63048388D03*
X81103448Y-63769636D03*
%TD*%
D22*
%TO.C,C12*%
X70413691Y-66194730D03*
X69734869Y-66873552D03*
%TD*%
D30*
%TO.C,D7*%
X96124830Y-72343358D03*
X95339532Y-72668639D03*
X94554235Y-72993920D03*
X93768937Y-73319201D03*
%TD*%
D31*
%TO.C,D8*%
X86019201Y-81094337D03*
X85693920Y-81879635D03*
X85368639Y-82664932D03*
X85043358Y-83450230D03*
%TD*%
D32*
%TO.C,L1*%
X77689466Y-67683543D03*
X78803160Y-68797237D03*
%TD*%
D33*
%TO.C,U5*%
X123885010Y-113235619D03*
X124167852Y-113518462D03*
X124450695Y-113801305D03*
X124733538Y-114084148D03*
X125016381Y-114366990D03*
D34*
X125935619Y-114366990D03*
X126218462Y-114084148D03*
X126501305Y-113801305D03*
X126784148Y-113518462D03*
X127066990Y-113235619D03*
D33*
X127066990Y-112316381D03*
X126784148Y-112033538D03*
X126501305Y-111750695D03*
X126218462Y-111467852D03*
X125935619Y-111185010D03*
D34*
X125016381Y-111185010D03*
X124733538Y-111467852D03*
X124450695Y-111750695D03*
X124167852Y-112033538D03*
X123885010Y-112316381D03*
D35*
X125476000Y-112776000D03*
%TD*%
D36*
%TO.C,C27*%
X102080000Y-52324000D03*
X101120000Y-52324000D03*
%TD*%
D37*
%TO.C,TP4*%
X99695000Y-54356000D03*
%TD*%
%TO.C,TP5*%
X103505000Y-54356000D03*
%TD*%
D38*
%TO.C,C21*%
X127339411Y-110575411D03*
X126660589Y-109896589D03*
%TD*%
D39*
%TO.C,R16*%
X101094000Y-92202000D03*
X100074000Y-92202000D03*
%TD*%
D40*
%TO.C,U1*%
X104075000Y-90805000D03*
X104075000Y-89535000D03*
X104075000Y-88265000D03*
X104075000Y-86995000D03*
X99125000Y-86995000D03*
X99125000Y-88265000D03*
X99125000Y-89535000D03*
X99125000Y-90805000D03*
%TD*%
D41*
%TO.C,C20*%
X105918000Y-88745000D03*
X105918000Y-87785000D03*
%TD*%
D39*
%TO.C,R15*%
X103125999Y-92202000D03*
X102106001Y-92202000D03*
%TD*%
D42*
%TO.C,R14*%
X102995000Y-52324000D03*
X104015000Y-52324000D03*
%TD*%
D39*
%TO.C,R13*%
X100205000Y-52324000D03*
X99185000Y-52324000D03*
%TD*%
D43*
%TO.C,U4*%
X72902000Y-66488179D03*
X73800025Y-65590153D03*
X74698051Y-64692128D03*
X75596076Y-63794102D03*
X76494102Y-62896076D03*
X77392128Y-61998051D03*
X78290153Y-61100025D03*
X79188179Y-60202000D03*
X75688000Y-56701821D03*
X74789975Y-57599847D03*
X73891949Y-58497872D03*
X72993924Y-59395898D03*
X72095898Y-60293924D03*
X71197872Y-61191949D03*
X70299847Y-62089975D03*
X69401821Y-62988000D03*
%TD*%
D44*
%TO.C,R6*%
X81857789Y-63015294D03*
X81136541Y-62294046D03*
%TD*%
D38*
%TO.C,C19*%
X80794867Y-66478421D03*
X80116045Y-65799599D03*
%TD*%
D28*
%TO.C,R3*%
X76089637Y-65906937D03*
X76810885Y-65185689D03*
%TD*%
D22*
%TO.C,C23*%
X80381775Y-61614799D03*
X79702953Y-62293621D03*
%TD*%
D20*
%TO.C,R7*%
X122936000Y-119378000D03*
X122936000Y-120398000D03*
%TD*%
%TO.C,R8*%
X123952000Y-119378000D03*
X123952000Y-120398000D03*
%TD*%
%TO.C,R12*%
X128016000Y-119378000D03*
X128016000Y-120398000D03*
%TD*%
%TO.C,R9*%
X124968000Y-119378000D03*
X124968000Y-120398000D03*
%TD*%
%TO.C,R10*%
X125984000Y-119378000D03*
X125984000Y-120398000D03*
%TD*%
%TO.C,R11*%
X127000000Y-119378000D03*
X127000000Y-120398000D03*
%TD*%
D39*
%TO.C,R17*%
X70741000Y-110744000D03*
X69721000Y-110744000D03*
%TD*%
D23*
%TO.C,C28*%
X69751000Y-109601000D03*
X70711000Y-109601000D03*
%TD*%
D45*
%TO.C,C10*%
X93345000Y-124447000D03*
X93345000Y-125997000D03*
%TD*%
%TO.C,C9*%
X93345000Y-121399000D03*
X93345000Y-122949000D03*
%TD*%
D13*
%TO.C,H8*%
X136600000Y-88900000D03*
%TD*%
%TO.C,H9*%
X66600000Y-88900000D03*
%TD*%
D37*
%TO.C,TP18*%
X70358000Y-106781600D03*
%TD*%
D46*
%TO.C,C30*%
X71514000Y-128143000D03*
X69964000Y-128143000D03*
%TD*%
D47*
%TO.C,D5*%
X118130481Y-83374030D03*
X117805200Y-82588732D03*
X117479919Y-81803435D03*
X117154638Y-81018137D03*
%TD*%
D48*
%TO.C,U10*%
X69752000Y-126380000D03*
X70602000Y-126380000D03*
X71452000Y-126380000D03*
X72302000Y-126380000D03*
X73152000Y-126380000D03*
X74002000Y-126380000D03*
X74852000Y-126380000D03*
X75702000Y-126380000D03*
X76552000Y-126380000D03*
X77402000Y-126380000D03*
X78252000Y-126380000D03*
X79102000Y-126380000D03*
X79952000Y-126380000D03*
X80802000Y-126380000D03*
X81652000Y-126380000D03*
D49*
X82702000Y-125330000D03*
X82702000Y-124480000D03*
X82702000Y-123630000D03*
X82702000Y-122780000D03*
X82702000Y-121930000D03*
X82702000Y-121080000D03*
X82702000Y-120230000D03*
X82702000Y-119380000D03*
X82702000Y-118530000D03*
X82702000Y-117680000D03*
X82702000Y-116830000D03*
X82702000Y-115980000D03*
X82702000Y-115130000D03*
X82702000Y-114280000D03*
X82702000Y-113430000D03*
D48*
X81652000Y-112380000D03*
X80802000Y-112380000D03*
X79952000Y-112380000D03*
X79102000Y-112380000D03*
X78252000Y-112380000D03*
X77402000Y-112380000D03*
X76552000Y-112380000D03*
X75702000Y-112380000D03*
X74852000Y-112380000D03*
X74002000Y-112380000D03*
X73152000Y-112380000D03*
X72302000Y-112380000D03*
X71452000Y-112380000D03*
X70602000Y-112380000D03*
X69752000Y-112380000D03*
D49*
X68702000Y-113430000D03*
X68702000Y-114280000D03*
X68702000Y-115130000D03*
X68702000Y-115980000D03*
X68702000Y-116830000D03*
X68702000Y-117680000D03*
X68702000Y-118530000D03*
X68702000Y-119380000D03*
X68702000Y-120230000D03*
X68702000Y-121080000D03*
X68702000Y-121930000D03*
X68702000Y-122780000D03*
X68702000Y-123630000D03*
X68702000Y-124480000D03*
X68702000Y-125330000D03*
D50*
X74052000Y-121030000D03*
D51*
X75702000Y-121030000D03*
X77352000Y-121030000D03*
X74052000Y-119380000D03*
X75702000Y-119380000D03*
X77352000Y-119380000D03*
X74052000Y-117730000D03*
X75702000Y-117730000D03*
X77352000Y-117730000D03*
D52*
X68702000Y-126380000D03*
X82702000Y-126380000D03*
X82702000Y-112380000D03*
X68702000Y-112380000D03*
%TD*%
D53*
%TO.C,C24*%
X114439400Y-123190000D03*
X115989400Y-123190000D03*
%TD*%
D54*
%TO.C,U9*%
X91288000Y-125998000D03*
X91288000Y-123698000D03*
D55*
X84988000Y-123698000D03*
D54*
X91288000Y-121398000D03*
%TD*%
D56*
%TO.C,U6*%
X116351900Y-126679999D03*
X116351900Y-125730000D03*
X116351900Y-124780001D03*
X114076900Y-124780001D03*
X114076900Y-126679999D03*
%TD*%
D37*
%TO.C,TP17*%
X72898000Y-106781600D03*
%TD*%
D57*
%TO.C,D6*%
X109431063Y-73319201D03*
X108645765Y-72993920D03*
X107860468Y-72668639D03*
X107075170Y-72343358D03*
%TD*%
D42*
%TO.C,R23*%
X111656400Y-124206000D03*
X112676400Y-124206000D03*
%TD*%
D58*
%TO.C,J6*%
X120294400Y-124967999D03*
D59*
X120294400Y-122968000D03*
%TD*%
D60*
%TO.C,D4*%
X117155399Y-96756463D03*
X117480680Y-95971165D03*
X117805961Y-95185868D03*
X118131242Y-94400570D03*
%TD*%
D61*
%TO.C,C25*%
X118008400Y-124727000D03*
X118008400Y-123177000D03*
%TD*%
D42*
%TO.C,R24*%
X109624401Y-124206000D03*
X110644399Y-124206000D03*
%TD*%
D20*
%TO.C,R22*%
X112674400Y-125220001D03*
X112674400Y-126239999D03*
%TD*%
D62*
%TO.C,U2*%
X111426400Y-121678000D03*
X111426400Y-122178000D03*
X111426400Y-122678000D03*
X111426400Y-123178000D03*
X112906400Y-123178000D03*
X112906400Y-122678000D03*
X112906400Y-122178000D03*
X112906400Y-121678000D03*
%TD*%
D63*
%TO.C,D3*%
X107075170Y-105456642D03*
X107860468Y-105131361D03*
X108645765Y-104806080D03*
X109431063Y-104480799D03*
%TD*%
M02*
