M48
; DRILL file {KiCad 9.0.0} date 2025-03-27T21:50:23-0400
; FORMAT={-:-/ absolute / inch / decimal}
; #@! TF.CreationDate,2025-03-27T21:50:23-04:00
; #@! TF.GenerationSoftware,Kicad,Pcbnew,9.0.0
; #@! TF.FileFunction,Plated,1,2,PTH
FMAT,2
INCH
; #@! TA.AperFunction,Plated,PTH,ViaDrill
T1C0.0118
; #@! TA.AperFunction,Plated,PTH,ComponentDrill
T2C0.0236
; #@! TA.AperFunction,Plated,PTH,ComponentDrill
T3C0.0315
; #@! TA.AperFunction,Plated,PTH,ComponentDrill
T4C0.0669
; #@! TA.AperFunction,Plated,PTH,ComponentDrill
T5C0.0866
%
G90
G05
T1
X2.43Y-2.46
X2.46Y-2.43
X2.46Y-2.49
X2.46Y-3.242
X2.524Y-2.378
X2.524Y-3.302
X2.56Y-2.38
X2.5603Y-2.4103
X2.586Y-3.256
X2.588Y-2.496
X2.594Y-2.428
X2.608Y-3.742
X2.638Y-2.606
X2.654Y-3.748
X2.666Y-2.578
X2.686Y-3.748
X2.69Y-3.7
X2.694Y-2.55
X2.694Y-2.664
X2.696Y-3.834
X2.718Y-3.748
X2.724Y-2.52
X2.726Y-2.696
X2.748Y-3.412
X2.748Y-3.748
X2.758Y-2.728
X2.763Y-4.469
X2.765Y-4.926
X2.788Y-2.502
X2.79Y-2.762
X2.792Y-3.746
X2.81Y-4.36
X2.8131Y-4.95
X2.816Y-2.63
X2.822Y-2.464
X2.824Y-2.796
X2.856Y-2.43
X2.864Y-3.82
X2.89Y-2.81
X2.894Y-2.394
X2.904Y-4.284
X2.928Y-2.358
X2.93Y-2.842
X2.938Y-2.694
X2.962Y-2.874
X2.964Y-2.322
X2.99Y-2.638
X2.994Y-2.906
X2.996Y-4.917
X3.0Y-2.288
X3.001Y-4.817
X3.006Y-4.467
X3.006Y-4.588
X3.028Y-2.22
X3.028Y-2.386
X3.028Y-2.942
X3.03Y-4.912
X3.06Y-2.622
X3.06Y-4.912
X3.064Y-2.352
X3.064Y-2.978
X3.068Y-2.18
X3.092Y-4.912
X3.096Y-3.01
X3.104Y-2.316
X3.106Y-2.532
X3.11Y-2.198
X3.124Y-4.912
X3.128Y-2.49
X3.13Y-4.482
X3.148Y-3.062
X3.15Y-2.24
X3.154Y-4.57
X3.156Y-4.912
X3.176Y-3.092
X3.186Y-2.554
X3.192Y-4.912
X3.196Y-2.286
X3.198Y-2.412
X3.208Y-3.124
X3.212Y-4.503
X3.2164Y-3.0319
X3.217Y-4.739
X3.219Y-4.887
X3.225Y-2.62
X3.225Y-2.705
X3.235Y-2.55
X3.238Y-3.094
X3.246Y-2.334
X3.28Y-2.494
X3.284Y-2.372
X3.285Y-2.585
X3.285Y-2.68
X3.285Y-2.765
X3.286Y-3.048
X3.3Y-3.724
X3.302Y-3.288
X3.315Y-4.65
X3.315Y-4.715
X3.324Y-2.412
X3.34Y-2.99
X3.346Y-4.87
X3.365Y-2.625
X3.366Y-2.454
X3.38Y-4.65
X3.38Y-4.715
X3.394Y-2.936
X3.412Y-2.498
X3.412Y-3.856
X3.42Y-2.835
X3.432Y-2.9
X3.445Y-4.65
X3.445Y-4.715
X3.458Y-2.544
X3.4757Y-2.7793
X3.486Y-2.846
X3.502Y-2.588
X3.51Y-4.65
X3.51Y-4.715
X3.542Y-2.79
X3.554Y-2.64
X3.575Y-4.65
X3.575Y-4.715
X3.594Y-4.87
X3.596Y-2.736
X3.598Y-2.682
X3.64Y-4.65
X3.64Y-4.715
X3.642Y-2.914
X3.645Y-4.7794
X3.705Y-4.65
X3.705Y-4.715
X3.726Y-4.41
X3.726Y-4.44
X3.726Y-4.47
X3.73Y-4.952
X3.77Y-4.65
X3.77Y-4.715
X3.786Y-4.366
X3.788Y-4.2
X3.835Y-4.65
X3.835Y-4.72
X3.87Y-4.73
X3.8819Y-3.736
X3.9055Y-4.8
X3.91Y-4.675
X3.925Y-2.0177
X3.975Y-2.0177
X3.9801Y-3.602
X3.985Y-4.795
X4.0199Y-3.602
X4.025Y-2.0177
X4.035Y-4.795
X4.075Y-2.0177
X4.081Y-3.609
X4.0945Y-4.8
X4.142Y-4.709
X4.152Y-4.505
X4.2Y-4.81
X4.214Y-2.8
X4.25Y-4.94
X4.27Y-4.81
X4.3455Y-4.8563
X4.346Y-4.774
X4.362Y-4.084
X4.3638Y-4.8298
X4.452Y-4.554
X4.4879Y-3.9879
X4.507Y-4.741
X4.562Y-4.102
X4.586Y-3.138
X4.614Y-4.246
X4.646Y-4.54
X4.68Y-4.47
X4.698Y-3.712
X4.723Y-4.745
X4.725Y-4.31
X4.76Y-4.116
X4.76Y-4.49
X4.78Y-4.582
X4.78Y-4.626
X4.78Y-4.67
X4.789Y-4.73
X4.802Y-4.54
X4.804Y-4.604
X4.804Y-4.648
X4.8184Y-4.3916
X4.83Y-4.245
X4.84Y-4.78
X4.8484Y-4.3516
X4.88Y-4.67
X4.88Y-4.78
X4.885Y-4.345
X4.912Y-4.44
X4.92Y-4.648
X4.92Y-4.78
X4.94Y-4.31
X4.94Y-4.412
X4.94Y-4.468
X4.96Y-4.626
X4.96Y-4.78
X4.966Y-4.442
X5.0Y-4.604
X5.0Y-4.78
X5.01Y-4.5
X5.028Y-4.436
X5.04Y-4.582
X5.04Y-4.78
X5.06Y-4.47
T3
X4.736Y-4.8413
X4.736Y-4.92
T4
X3.5964Y-3.5
X4.2018Y-3.1505
X4.2018Y-3.8495
T5
X2.622Y-3.5
X2.8268Y-3.5
X4.0Y-2.3268
X4.0Y-4.6732
X5.1732Y-3.5
X5.378Y-3.5
T2
G00X3.7787Y-4.8622
M15
G01X3.7787Y-4.8937
M16
G05
G00X3.7787Y-5.0118
M15
G01X3.7787Y-5.0591
M16
G05
G00X4.2213Y-4.8622
M15
G01X4.2213Y-4.8937
M16
G05
G00X4.2213Y-5.0118
M15
G01X4.2213Y-5.0591
M16
G05
M30
