%TF.GenerationSoftware,KiCad,Pcbnew,9.0.0*%
%TF.CreationDate,2025-03-27T21:50:25-04:00*%
%TF.ProjectId,view_base,76696577-5f62-4617-9365-2e6b69636164,rev?*%
%TF.SameCoordinates,Original*%
%TF.FileFunction,Profile,NP*%
%FSLAX46Y46*%
G04 Gerber Fmt 4.6, Leading zero omitted, Abs format (unit mm)*
G04 Created by KiCad (PCBNEW 9.0.0) date 2025-03-27 21:50:25*
%MOMM*%
%LPD*%
G01*
G04 APERTURE LIST*
%TA.AperFunction,Profile*%
%ADD10C,0.200000*%
%TD*%
G04 APERTURE END LIST*
D10*
X86393094Y-91399999D02*
X78309801Y-91399999D01*
X98100000Y-104907810D02*
X98100000Y-112190199D01*
X99100000Y-112190199D02*
X99100001Y-104106906D01*
X105099999Y-104907810D02*
G75*
G02*
X105478784Y-104422715I500001J10D01*
G01*
X99100000Y-112190199D02*
G75*
G02*
X98100000Y-112190199I-500000J0D01*
G01*
X116316360Y-91803226D02*
G75*
G02*
X104503225Y-103616360I-14716360J2903226D01*
G01*
X116316361Y-91803226D02*
G75*
G02*
X116806906Y-91400006I490539J-96774D01*
G01*
X117122725Y-92778788D02*
G75*
G02*
X105478787Y-104422725I-15522725J3878788D01*
G01*
X112099999Y-91650000D02*
G75*
G02*
X111349999Y-92399999I-749999J0D01*
G01*
X117122726Y-92778787D02*
G75*
G02*
X117607810Y-92400011I485074J-121213D01*
G01*
X112099999Y-91650000D02*
X112099999Y-86150001D01*
X124890199Y-85400001D02*
G75*
G02*
X124890199Y-86399999I1J-499999D01*
G01*
X105099999Y-112190199D02*
G75*
G02*
X104099999Y-112190199I-500000J0D01*
G01*
X105099999Y-112190199D02*
X105099999Y-104907810D01*
X111349999Y-85400001D02*
G75*
G02*
X112099999Y-86150001I1J-749999D01*
G01*
X111349999Y-85400001D02*
X109349999Y-85400001D01*
X108599999Y-86150001D02*
G75*
G02*
X109349999Y-85399999I750001J1D01*
G01*
X108599999Y-86150001D02*
X108599999Y-91650000D01*
X96028933Y-95971067D02*
G75*
G02*
X93028933Y-95971067I-1500000J0D01*
G01*
X93028933Y-95971067D02*
G75*
G02*
X96028933Y-95971067I1500000J0D01*
G01*
X117607810Y-92400000D02*
X124890199Y-92400000D01*
X109349999Y-92400000D02*
G75*
G02*
X108600000Y-91650000I1J750000D01*
G01*
X104503226Y-74183640D02*
G75*
G02*
X116316360Y-85996775I-2903226J-14716360D01*
G01*
X116806906Y-86400001D02*
X124890199Y-86400001D01*
X97721212Y-104422725D02*
G75*
G02*
X86077275Y-92778787I3878788J15522725D01*
G01*
X116806906Y-86400002D02*
G75*
G02*
X116316353Y-85996776I-6J500002D01*
G01*
X104099998Y-104106906D02*
G75*
G02*
X104503224Y-103616353I500002J6D01*
G01*
X142200000Y-125499999D02*
G75*
G02*
X138200000Y-129500000I-4000000J-1D01*
G01*
X124890199Y-91400000D02*
X116806906Y-91400000D01*
X78309801Y-92399999D02*
G75*
G02*
X78309801Y-91400001I-1J499999D01*
G01*
X98696774Y-103616360D02*
G75*
G02*
X86883640Y-91803225I2903226J14716360D01*
G01*
X85592190Y-92399999D02*
G75*
G02*
X86077285Y-92778784I10J-500001D01*
G01*
X98696774Y-103616360D02*
G75*
G02*
X99099995Y-104106906I-96774J-490540D01*
G01*
X78309801Y-92399999D02*
X85592190Y-92399999D01*
X104099999Y-104106906D02*
X104099999Y-112190199D01*
X86393094Y-91399998D02*
G75*
G02*
X86883647Y-91803224I6J-500002D01*
G01*
X109349999Y-92400000D02*
X111349999Y-92400000D01*
X104503226Y-74183639D02*
G75*
G02*
X104100006Y-73693094I96774J490539D01*
G01*
X124890199Y-85400001D02*
X117607810Y-85400001D01*
X124890199Y-91400000D02*
G75*
G02*
X124890199Y-92400000I1J-500000D01*
G01*
X97721213Y-104422726D02*
G75*
G02*
X98099989Y-104907810I-121213J-485074D01*
G01*
X61000001Y-52300000D02*
G75*
G02*
X65000001Y-48300001I3999999J0D01*
G01*
X138200000Y-48300000D02*
G75*
G02*
X142200000Y-52300000I0J-4000000D01*
G01*
X61000001Y-125499999D02*
X61000001Y-52300000D01*
X138200000Y-129499999D02*
X106219999Y-129500000D01*
X96980000Y-129500000D02*
X65000001Y-129499999D01*
X65000001Y-129499999D02*
G75*
G02*
X61000001Y-125499999I-1J3999999D01*
G01*
X142200000Y-52300000D02*
X142200000Y-125499999D01*
X65000001Y-48300000D02*
X138200000Y-48300000D01*
X99100002Y-73693094D02*
G75*
G02*
X98696776Y-74183647I-500002J-6D01*
G01*
X105478788Y-73377275D02*
G75*
G02*
X117122725Y-85021213I-3878788J-15522725D01*
G01*
X105478787Y-73377274D02*
G75*
G02*
X105100011Y-72892190I121213J485074D01*
G01*
X104100000Y-65609801D02*
G75*
G02*
X105100000Y-65609801I500000J0D01*
G01*
X85592190Y-85400000D02*
X78309801Y-85400000D01*
X104100000Y-65609801D02*
X104100000Y-73693094D01*
X117607810Y-85400001D02*
G75*
G02*
X117122715Y-85021216I-10J500001D01*
G01*
X86883640Y-85996774D02*
G75*
G02*
X98696775Y-74183640I14716360J-2903226D01*
G01*
X98100001Y-65609801D02*
X98100001Y-72892190D01*
X105100000Y-72892190D02*
X105100000Y-65609801D01*
X78309801Y-86400000D02*
X86393094Y-86400000D01*
X98100001Y-72892190D02*
G75*
G02*
X97721216Y-73377285I-500001J-10D01*
G01*
X86077275Y-85021212D02*
G75*
G02*
X97721213Y-73377275I15522725J-3878788D01*
G01*
X78309801Y-86400000D02*
G75*
G02*
X78309801Y-85400000I-1J500000D01*
G01*
X86883638Y-85996775D02*
G75*
G02*
X86393094Y-86399993I-490538J96775D01*
G01*
X99100001Y-73693094D02*
X99100001Y-65609801D01*
X98100001Y-65609801D02*
G75*
G02*
X99100001Y-65609801I500000J0D01*
G01*
X86077274Y-85021213D02*
G75*
G02*
X85592190Y-85399989I-485074J121213D01*
G01*
%TO.C,J2*%
X96980000Y-129500000D02*
X96980000Y-123800000D01*
X97480000Y-123300000D02*
X105720000Y-123300000D01*
X106220000Y-129500000D02*
X106220000Y-123800000D01*
X96980000Y-123800000D02*
G75*
G02*
X97480000Y-123300000I500001J-1D01*
G01*
X105720000Y-123300000D02*
G75*
G02*
X106220000Y-123800000I0J-500000D01*
G01*
%TD*%
M02*
