%TF.GenerationSoftware,KiCad,Pcbnew,9.0.0*%
%TF.CreationDate,2025-03-28T18:15:13-04:00*%
%TF.ProjectId,view_base,76696577-5f62-4617-9365-2e6b69636164,rev?*%
%TF.SameCoordinates,Original*%
%TF.FileFunction,Soldermask,Bot*%
%TF.FilePolarity,Negative*%
%FSLAX46Y46*%
G04 Gerber Fmt 4.6, Leading zero omitted, Abs format (unit mm)*
G04 Created by KiCad (PCBNEW 9.0.0) date 2025-03-28 18:15:13*
%MOMM*%
%LPD*%
G01*
G04 APERTURE LIST*
G04 Aperture macros list*
%AMRoundRect*
0 Rectangle with rounded corners*
0 $1 Rounding radius*
0 $2 $3 $4 $5 $6 $7 $8 $9 X,Y pos of 4 corners*
0 Add a 4 corners polygon primitive as box body*
4,1,4,$2,$3,$4,$5,$6,$7,$8,$9,$2,$3,0*
0 Add four circle primitives for the rounded corners*
1,1,$1+$1,$2,$3*
1,1,$1+$1,$4,$5*
1,1,$1+$1,$6,$7*
1,1,$1+$1,$8,$9*
0 Add four rect primitives between the rounded corners*
20,1,$1+$1,$2,$3,$4,$5,0*
20,1,$1+$1,$4,$5,$6,$7,0*
20,1,$1+$1,$6,$7,$8,$9,0*
20,1,$1+$1,$8,$9,$2,$3,0*%
%AMHorizOval*
0 Thick line with rounded ends*
0 $1 width*
0 $2 $3 position (X,Y) of the first rounded end (center of the circle)*
0 $4 $5 position (X,Y) of the second rounded end (center of the circle)*
0 Add line between two ends*
20,1,$1,$2,$3,$4,$5,0*
0 Add two circle primitives to create the rounded ends*
1,1,$1,$2,$3*
1,1,$1,$4,$5*%
%AMRotRect*
0 Rectangle, with rotation*
0 The origin of the aperture is its center*
0 $1 length*
0 $2 width*
0 $3 Rotation angle, in degrees counterclockwise*
0 Add horizontal line*
21,1,$1,$2,0,0,$3*%
G04 Aperture macros list end*
%ADD10C,1.000000*%
%ADD11C,2.400000*%
%ADD12C,3.500000*%
%ADD13O,1.000000X1.800000*%
%ADD14O,1.000000X2.200000*%
%ADD15R,1.350000X1.350000*%
%ADD16O,1.350000X1.350000*%
%ADD17HorizOval,1.250000X-0.441942X-0.441942X0.441942X0.441942X0*%
%ADD18HorizOval,1.250000X-0.441942X0.441942X0.441942X-0.441942X0*%
%ADD19R,0.700000X1.600000*%
%ADD20RotRect,2.100000X2.999999X45.000000*%
%ADD21RotRect,0.800000X1.600000X45.000000*%
%ADD22C,2.000000*%
%ADD23RoundRect,0.250000X0.362500X1.425000X-0.362500X1.425000X-0.362500X-1.425000X0.362500X-1.425000X0*%
%ADD24RoundRect,0.250000X-0.362500X-1.425000X0.362500X-1.425000X0.362500X1.425000X-0.362500X1.425000X0*%
%ADD25RoundRect,0.200000X0.275000X-0.200000X0.275000X0.200000X-0.275000X0.200000X-0.275000X-0.200000X0*%
G04 APERTURE END LIST*
D10*
%TO.C,TP16*%
X72644000Y-117856000D03*
%TD*%
%TO.C,TP15*%
X73660000Y-119380000D03*
%TD*%
%TO.C,TP14*%
X72644000Y-120904000D03*
%TD*%
%TO.C,TP13*%
X73660000Y-122428000D03*
%TD*%
%TO.C,TP12*%
X72644000Y-123952000D03*
%TD*%
D11*
%TO.C,H3*%
X106725427Y-80022500D03*
%TD*%
%TO.C,H1*%
X106725427Y-97777499D03*
%TD*%
%TO.C,H2*%
X91349146Y-88900000D03*
%TD*%
D12*
%TO.C,H4*%
X101600000Y-118700000D03*
%TD*%
%TO.C,H5*%
X71800000Y-88900000D03*
%TD*%
%TO.C,H6*%
X101600000Y-59100000D03*
%TD*%
%TO.C,H7*%
X131400000Y-88900000D03*
%TD*%
D13*
%TO.C,J2*%
X95980000Y-123900000D03*
D14*
X95980000Y-127900000D03*
D13*
X107220000Y-123900000D03*
D14*
X107220000Y-127900000D03*
%TD*%
D12*
%TO.C,H8*%
X136600000Y-88900000D03*
%TD*%
%TO.C,H9*%
X66600000Y-88900000D03*
%TD*%
D15*
%TO.C,J6*%
X120294400Y-124967999D03*
D16*
X120294400Y-122968000D03*
%TD*%
D17*
%TO.C,J3*%
X79388859Y-101232859D03*
X80803073Y-102647073D03*
X82217286Y-104061286D03*
X83631500Y-105475500D03*
X85045713Y-106889713D03*
X86459927Y-108303927D03*
X87874140Y-109718140D03*
X89288354Y-111132354D03*
%TD*%
D18*
%TO.C,J4*%
X86868000Y-72009000D03*
X88282214Y-70594786D03*
X89696427Y-69180573D03*
%TD*%
D19*
%TO.C,U8*%
X103505000Y-51250000D03*
X102235000Y-51250000D03*
X100965000Y-51250000D03*
X99695000Y-51250000D03*
%TD*%
D18*
%TO.C,J5*%
X81696427Y-77009000D03*
X83110641Y-75594786D03*
X84524854Y-74180573D03*
%TD*%
D20*
%TO.C,J1*%
X112737386Y-105411396D03*
X118111398Y-100037385D03*
D21*
X116591117Y-105658883D03*
X117475000Y-104775000D03*
X118358884Y-103891116D03*
%TD*%
D22*
%TO.C,TP1*%
X114477800Y-120421400D03*
%TD*%
%TO.C,TP2*%
X114503200Y-114300000D03*
%TD*%
%TO.C,TP3*%
X114477800Y-117348000D03*
%TD*%
%TO.C,TP6*%
X122174000Y-107315000D03*
%TD*%
%TO.C,TP7*%
X119253000Y-106553000D03*
%TD*%
%TO.C,TP8*%
X120015000Y-109474000D03*
%TD*%
%TO.C,TP9*%
X98600000Y-94894400D03*
%TD*%
%TO.C,TP11*%
X104600000Y-94894400D03*
%TD*%
%TO.C,TP10*%
X101600000Y-94894400D03*
%TD*%
D23*
%TO.C,R18*%
X128062500Y-88900000D03*
X122137500Y-88900000D03*
%TD*%
D24*
%TO.C,R21*%
X75137500Y-88900000D03*
X81062500Y-88900000D03*
%TD*%
D25*
%TO.C,R25*%
X109423200Y-121779800D03*
X109423200Y-120129800D03*
%TD*%
D23*
%TO.C,R19*%
X120162500Y-88900000D03*
X114237500Y-88900000D03*
%TD*%
D24*
%TO.C,R20*%
X83037500Y-88900000D03*
X88962500Y-88900000D03*
%TD*%
M02*
